<?xml version="1.0" encoding="UTF-8" standalone="no"?>
<!-- Created with Inkscape (http://www.inkscape.org/) -->

<svg
   xmlns:dc="http://purl.org/dc/elements/1.1/"
   xmlns:cc="http://creativecommons.org/ns#"
   xmlns:rdf="http://www.w3.org/1999/02/22-rdf-syntax-ns#"
   xmlns:svg="http://www.w3.org/2000/svg"
   xmlns="http://www.w3.org/2000/svg"
   xmlns:sodipodi="http://sodipodi.sourceforge.net/DTD/sodipodi-0.dtd"
   xmlns:inkscape="http://www.inkscape.org/namespaces/inkscape"
   version="1.1"
   id="svg4175"
   width="800"
   height="200"
   viewBox="0 0 800 200"
   sodipodi:docname="boeing737.svg"
   inkscape:version="0.92.4 (5da689c313, 2019-01-14)">
  <metadata
     id="metadata4181">
    <rdf:RDF>
      <cc:Work
         rdf:about="">
        <dc:format>image/svg+xml</dc:format>
        <dc:type
           rdf:resource="http://purl.org/dc/dcmitype/StillImage" />
        <dc:title></dc:title>
      </cc:Work>
    </rdf:RDF>
  </metadata>
  <defs
     id="defs4179" />
  <sodipodi:namedview
     pagecolor="#ffffff"
     bordercolor="#666666"
     borderopacity="1"
     objecttolerance="10"
     gridtolerance="10"
     guidetolerance="10"
     inkscape:pageopacity="0"
     inkscape:pageshadow="2"
     inkscape:window-width="1920"
     inkscape:window-height="1001"
     id="namedview4177"
     showgrid="false"
     inkscape:zoom="1.39"
     inkscape:cx="389.29284"
     inkscape:cy="37.819085"
     inkscape:window-x="-9"
     inkscape:window-y="-9"
     inkscape:window-maximized="1"
     inkscape:current-layer="seats" />
  <g
     inkscape:groupmode="layer"
     id="seats"
     inkscape:label="siedzenia"
     transform="translate(0,-383)">
    <path
       style="fill:#e6e6e6;fill-opacity:0.95024875;stroke:#a0a0a0;stroke-width:0.83989489;stroke-miterlimit:4;stroke-dasharray:none;stroke-opacity:1"
       d="m 230.65518,426.34584 c 9.7e-4,-1.15833 -1.26922,-2.09132 -2.85017,-2.09322 l -6.97696,-0.008 c -1.58094,-10e-4 -2.85317,0.92803 -2.85431,2.08637 l -0.0109,9.75768 c -9.8e-4,1.15835 1.26919,2.09449 2.85015,2.09639 l 6.97696,0.008 c 1.58094,10e-4 2.85319,-0.93119 2.85432,-2.08952 z"
       id="path1305" />
    <path
       style="fill:#e6e6e6;fill-opacity:0.95024875;stroke:#a0a0a0;stroke-width:0.83989489;stroke-miterlimit:4;stroke-dasharray:none;stroke-opacity:1"
       d="m 230.63808,443.51888 c 9.6e-4,-1.15838 -1.26922,-2.09136 -2.85016,-2.09326 l -6.97697,-0.008 c -1.58096,-10e-4 -2.85317,0.92802 -2.8543,2.08637 l -0.0109,9.7577 c -9.8e-4,1.15835 1.26922,2.09131 2.85018,2.09322 l 6.97693,0.008 c 1.58095,10e-4 2.85319,-0.928 2.85435,-2.08636 z"
       id="path1303" />
    <path
       style="fill:#e6e6e6;fill-opacity:0.95024875;stroke:#a0a0a0;stroke-width:0.83989489;stroke-miterlimit:4;stroke-dasharray:none;stroke-opacity:1"
       d="m 230.67748,461.26829 c 9.6e-4,-1.15836 -1.26921,-2.09134 -2.85015,-2.09324 l -6.97696,-0.008 c -1.58097,-0.001 -2.85317,0.92802 -2.85433,2.08637 l -0.0109,9.7577 c -9.8e-4,1.15836 1.26921,2.09447 2.85016,2.09639 l 6.97693,0.008 c 1.58099,0.001 2.85319,-0.93117 2.85436,-2.08955 z"
       id="path1301" />
    <path
       style="fill:#e6e6e6;fill-opacity:0.95024875;stroke:#a0a0a0;stroke-width:0.83989489;stroke-miterlimit:4;stroke-dasharray:none;stroke-opacity:1"
       d="m 212.01751,426.34584 c 9.7e-4,-1.15833 -1.26922,-2.09132 -2.85017,-2.09322 l -6.97696,-0.008 c -1.58095,-10e-4 -2.85316,0.92803 -2.85432,2.08637 l -0.0109,9.75768 c -9.8e-4,1.15835 1.2692,2.09449 2.85015,2.09639 l 6.97696,0.008 c 1.58096,10e-4 2.8532,-0.93119 2.85433,-2.08952 z"
       id="path1299" />
    <path
       style="fill:#e6e6e6;fill-opacity:0.95024875;stroke:#a0a0a0;stroke-width:0.83989489;stroke-miterlimit:4;stroke-dasharray:none;stroke-opacity:1"
       d="m 212.00041,443.51888 c 9.6e-4,-1.15838 -1.26923,-2.09136 -2.85017,-2.09326 l -6.97697,-0.008 c -1.58096,-10e-4 -2.85317,0.92802 -2.85429,2.08637 l -0.0109,9.7577 c -9.8e-4,1.15835 1.26922,2.09131 2.85016,2.09322 l 6.97694,0.008 c 1.58096,10e-4 2.85321,-0.928 2.85435,-2.08636 z"
       id="path1297" />
    <path
       style="fill:#e6e6e6;fill-opacity:0.95024875;stroke:#a0a0a0;stroke-width:0.83989489;stroke-miterlimit:4;stroke-dasharray:none;stroke-opacity:1"
       d="m 212.03971,461.26829 c 9.7e-4,-1.15836 -1.2692,-2.09134 -2.85016,-2.09324 l -6.97696,-0.008 c -1.58095,-0.001 -2.85317,0.92802 -2.85432,2.08637 l -0.0109,9.7577 c -9.8e-4,1.15836 1.26921,2.09447 2.85016,2.09639 l 6.97694,0.008 c 1.58098,0.001 2.85319,-0.93117 2.85436,-2.08955 z"
       id="path1295" />
    <path
       style="fill:#e6e6e6;fill-opacity:0.95024875;stroke:#a0a0a0;stroke-width:0.83989489;stroke-miterlimit:4;stroke-dasharray:none;stroke-opacity:1"
       d="m 193.37974,426.34584 c 9.7e-4,-1.15833 -1.26922,-2.09132 -2.85018,-2.09322 l -6.97696,-0.008 c -1.58094,-10e-4 -2.85316,0.92803 -2.85431,2.08637 l -0.0109,9.75768 c -9.8e-4,1.15835 1.26919,2.09449 2.85015,2.09639 l 6.97696,0.008 c 1.58096,10e-4 2.85319,-0.93119 2.85433,-2.08952 z"
       id="path1293" />
    <path
       style="fill:#e6e6e6;fill-opacity:0.95024875;stroke:#a0a0a0;stroke-width:0.83989489;stroke-miterlimit:4;stroke-dasharray:none;stroke-opacity:1"
       d="m 193.36264,443.51888 c 9.7e-4,-1.15838 -1.26922,-2.09136 -2.85016,-2.09326 l -6.97698,-0.008 c -1.58095,-10e-4 -2.85317,0.92802 -2.8543,2.08637 l -0.0109,9.7577 c -9.8e-4,1.15835 1.26922,2.09131 2.85018,2.09322 l 6.97694,0.008 c 1.58097,10e-4 2.8532,-0.928 2.85434,-2.08636 z"
       id="path1291" />
    <path
       style="fill:#e6e6e6;fill-opacity:0.95024875;stroke:#a0a0a0;stroke-width:0.83989489;stroke-miterlimit:4;stroke-dasharray:none;stroke-opacity:1"
       d="m 193.40204,461.26829 c 9.7e-4,-1.15836 -1.26921,-2.09134 -2.85014,-2.09324 l -6.97698,-0.008 c -1.58095,-0.001 -2.85317,0.92802 -2.85432,2.08637 l -0.0109,9.7577 c -9.8e-4,1.15836 1.26922,2.09447 2.85018,2.09639 l 6.97693,0.008 c 1.58096,0.001 2.85318,-0.93117 2.85434,-2.08955 z"
       id="path1289" />
    <path
       style="fill:#e6e6e6;fill-opacity:0.95024875;stroke:#a0a0a0;stroke-width:0.83989489;stroke-miterlimit:4;stroke-dasharray:none;stroke-opacity:1"
       d="m 174.74206,426.34584 c 9.7e-4,-1.15833 -1.26921,-2.09132 -2.85016,-2.09322 l -6.97697,-0.008 c -1.58094,-10e-4 -2.85317,0.92803 -2.85431,2.08637 l -0.0109,9.75768 c -9.8e-4,1.15835 1.26919,2.09449 2.85015,2.09639 l 6.97697,0.008 c 1.58095,10e-4 2.85318,-0.93119 2.85431,-2.08952 z"
       id="path1287" />
    <path
       style="fill:#e6e6e6;fill-opacity:0.95024875;stroke:#a0a0a0;stroke-width:0.83989489;stroke-miterlimit:4;stroke-dasharray:none;stroke-opacity:1"
       d="m 174.72496,443.51888 c 9.6e-4,-1.15838 -1.26923,-2.09136 -2.85016,-2.09326 l -6.97698,-0.008 c -1.58095,-10e-4 -2.85317,0.92802 -2.8543,2.08637 l -0.0109,9.7577 c -9.8e-4,1.15835 1.26923,2.09131 2.85018,2.09322 l 6.97693,0.008 c 1.58099,10e-4 2.85322,-0.928 2.85435,-2.08636 z"
       id="path1285" />
    <path
       style="fill:#e6e6e6;fill-opacity:0.95024875;stroke:#a0a0a0;stroke-width:0.83989489;stroke-miterlimit:4;stroke-dasharray:none;stroke-opacity:1"
       d="m 174.76426,461.26829 c 9.8e-4,-1.15836 -1.26921,-2.09134 -2.85013,-2.09324 l -6.97697,-0.008 c -1.58098,-0.001 -2.85318,0.92802 -2.85434,2.08637 l -0.0109,9.7577 c -9.8e-4,1.15836 1.26923,2.09447 2.85017,2.09639 l 6.97693,0.008 c 1.58097,0.001 2.85319,-0.93117 2.85434,-2.08955 z"
       id="path1283" />
    <path
       style="fill:#e6e6e6;fill-opacity:0.95024875;stroke:#a0a0a0;stroke-width:0.83989489;stroke-miterlimit:4;stroke-dasharray:none;stroke-opacity:1"
       d="m 156.10428,426.34584 c 9.8e-4,-1.15833 -1.26922,-2.09132 -2.85016,-2.09322 l -6.97696,-0.008 c -1.58095,-10e-4 -2.85316,0.92803 -2.85431,2.08637 l -0.0109,9.75768 c -9.8e-4,1.15835 1.26917,2.09449 2.85013,2.09639 l 6.97697,0.008 c 1.58096,10e-4 2.85319,-0.93119 2.85434,-2.08952 z"
       id="path1281" />
    <path
       style="fill:#e6e6e6;fill-opacity:0.95024875;stroke:#a0a0a0;stroke-width:0.83989489;stroke-miterlimit:4;stroke-dasharray:none;stroke-opacity:1"
       d="m 156.08718,443.51888 c 9.8e-4,-1.15838 -1.26923,-2.09136 -2.85015,-2.09326 l -6.97696,-0.008 c -1.58099,-10e-4 -2.85319,0.92802 -2.85432,2.08637 l -0.0109,9.7577 c -9.8e-4,1.15835 1.26923,2.09131 2.85017,2.09322 l 6.97693,0.008 c 1.58098,10e-4 2.85321,-0.928 2.85437,-2.08636 z"
       id="path1279" />
    <path
       style="fill:#e6e6e6;fill-opacity:0.95024875;stroke:#a0a0a0;stroke-width:0.83989489;stroke-miterlimit:4;stroke-dasharray:none;stroke-opacity:1"
       d="m 156.12668,461.26829 c 9.7e-4,-1.15836 -1.2692,-2.09134 -2.85015,-2.09324 l -6.97697,-0.008 c -1.58096,-0.001 -2.85316,0.92802 -2.85431,2.08637 l -0.0109,9.7577 c -9.8e-4,1.15836 1.26922,2.09447 2.85017,2.09639 l 6.97695,0.008 c 1.58096,0.001 2.85318,-0.93117 2.85434,-2.08955 z"
       id="path1277" />
    <path
       style="fill:#e6e6e6;fill-opacity:0.95024875;stroke:#a0a0a0;stroke-width:0.83989489;stroke-miterlimit:4;stroke-dasharray:none;stroke-opacity:1"
       d="m 323.84276,426.34584 c 9.7e-4,-1.15833 -1.26922,-2.09132 -2.85018,-2.09322 l -6.97695,-0.008 c -1.58095,-10e-4 -2.85318,0.92803 -2.85432,2.08637 l -0.0109,9.75768 c -9.7e-4,1.15835 1.2692,2.09449 2.85015,2.09639 l 6.97696,0.008 c 1.58096,10e-4 2.85318,-0.93119 2.85434,-2.08952 z"
       id="path1275" />
    <path
       style="fill:#e6e6e6;fill-opacity:0.95024875;stroke:#a0a0a0;stroke-width:0.83989489;stroke-miterlimit:4;stroke-dasharray:none;stroke-opacity:1"
       d="m 323.82566,443.51888 c 9.8e-4,-1.15838 -1.26922,-2.09136 -2.85014,-2.09326 l -6.97699,-0.008 c -1.58096,-10e-4 -2.85317,0.92802 -2.8543,2.08637 l -0.0109,9.7577 c -9.8e-4,1.15835 1.26922,2.09131 2.85017,2.09322 l 6.97694,0.008 c 1.58096,10e-4 2.85319,-0.928 2.85435,-2.08636 z"
       id="path1273" />
    <path
       style="fill:#e6e6e6;fill-opacity:0.95024875;stroke:#a0a0a0;stroke-width:0.83989489;stroke-miterlimit:4;stroke-dasharray:none;stroke-opacity:1"
       d="m 323.86506,461.26829 c 9.8e-4,-1.15836 -1.26921,-2.09134 -2.85015,-2.09324 l -6.97697,-0.008 c -1.58097,-0.001 -2.85316,0.92802 -2.85432,2.08637 l -0.0109,9.7577 c -9.8e-4,1.15836 1.26921,2.09447 2.85016,2.09639 l 6.97695,0.008 c 1.58097,0.001 2.85319,-0.93117 2.85433,-2.08955 z"
       id="path1271" />
    <path
       style="fill:#e6e6e6;fill-opacity:0.95024875;stroke:#a0a0a0;stroke-width:0.83989489;stroke-miterlimit:4;stroke-dasharray:none;stroke-opacity:1"
       d="m 305.20509,426.34584 c 9.7e-4,-1.15833 -1.26922,-2.09132 -2.85018,-2.09322 l -6.97694,-0.008 c -1.58096,-10e-4 -2.85319,0.92803 -2.85433,2.08637 l -0.0109,9.75768 c -9.7e-4,1.15835 1.2692,2.09449 2.85016,2.09639 l 6.97695,0.008 c 1.58096,10e-4 2.85318,-0.93119 2.85434,-2.08952 z"
       id="path1269" />
    <path
       style="fill:#e6e6e6;fill-opacity:0.95024875;stroke:#a0a0a0;stroke-width:0.83989489;stroke-miterlimit:4;stroke-dasharray:none;stroke-opacity:1"
       d="m 305.18799,443.51888 c 9.8e-4,-1.15838 -1.26922,-2.09136 -2.85015,-2.09326 l -6.97699,-0.008 c -1.58095,-10e-4 -2.85316,0.92802 -2.85429,2.08637 l -0.0109,9.7577 c -9.8e-4,1.15835 1.26923,2.09131 2.85017,2.09322 l 6.97694,0.008 c 1.58097,10e-4 2.8532,-0.928 2.85436,-2.08636 z"
       id="path1267" />
    <path
       style="fill:#e6e6e6;fill-opacity:0.95024875;stroke:#a0a0a0;stroke-width:0.83989489;stroke-miterlimit:4;stroke-dasharray:none;stroke-opacity:1"
       d="m 305.22739,461.26829 c 9.8e-4,-1.15836 -1.2692,-2.09134 -2.85014,-2.09324 l -6.97697,-0.008 c -1.58096,-0.001 -2.85316,0.92802 -2.85431,2.08637 l -0.0109,9.7577 c -9.8e-4,1.15836 1.26921,2.09447 2.85015,2.09639 l 6.97694,0.008 c 1.58099,0.001 2.85319,-0.93117 2.85436,-2.08955 z"
       id="path1265" />
    <path
       style="fill:#e6e6e6;fill-opacity:0.95024875;stroke:#a0a0a0;stroke-width:0.83989489;stroke-miterlimit:4;stroke-dasharray:none;stroke-opacity:1"
       d="m 286.5677,426.34584 c 9.7e-4,-1.15833 -1.26922,-2.09132 -2.85019,-2.09322 l -6.97695,-0.008 c -1.58096,-10e-4 -2.85316,0.92803 -2.85432,2.08637 l -0.0109,9.75768 c -9.7e-4,1.15835 1.26921,2.09449 2.85016,2.09639 l 6.97694,0.008 c 1.58096,10e-4 2.8532,-0.93119 2.85436,-2.08952 z"
       id="path1263" />
    <path
       style="fill:#e6e6e6;fill-opacity:0.95024875;stroke:#a0a0a0;stroke-width:0.83989489;stroke-miterlimit:4;stroke-dasharray:none;stroke-opacity:1"
       d="m 286.5506,443.51888 c 9.7e-4,-1.15838 -1.26923,-2.09136 -2.85017,-2.09326 l -6.97698,-0.008 c -1.58096,-10e-4 -2.85316,0.92802 -2.85428,2.08637 l -0.0109,9.7577 c -9.8e-4,1.15835 1.26921,2.09131 2.85015,2.09322 l 6.97695,0.008 c 1.58097,10e-4 2.8532,-0.928 2.85435,-2.08636 z"
       id="path1261" />
    <path
       style="fill:#e6e6e6;fill-opacity:0.95024875;stroke:#a0a0a0;stroke-width:0.83989489;stroke-miterlimit:4;stroke-dasharray:none;stroke-opacity:1"
       d="m 286.59,461.26829 c 9.8e-4,-1.15836 -1.26919,-2.09134 -2.85013,-2.09324 l -6.97699,-0.008 c -1.58095,-0.001 -2.85316,0.92802 -2.85431,2.08637 l -0.0109,9.7577 c -9.8e-4,1.15836 1.26921,2.09447 2.85016,2.09639 l 6.97695,0.008 c 1.58096,0.001 2.85317,-0.93117 2.85434,-2.08955 z"
       id="path1259" />
    <path
       style="fill:#e6e6e6;fill-opacity:0.95024875;stroke:#a0a0a0;stroke-width:0.83989489;stroke-miterlimit:4;stroke-dasharray:none;stroke-opacity:1"
       d="m 267.93003,426.34584 c 9.7e-4,-1.15833 -1.26922,-2.09132 -2.85017,-2.09322 l -6.97696,-0.008 c -1.58094,-10e-4 -2.85317,0.92803 -2.85432,2.08637 l -0.0109,9.75768 c -9.8e-4,1.15835 1.2692,2.09449 2.85016,2.09639 l 6.97695,0.008 c 1.58096,10e-4 2.85319,-0.93119 2.85434,-2.08952 z"
       id="path1257" />
    <path
       style="fill:#e6e6e6;fill-opacity:0.95024875;stroke:#a0a0a0;stroke-width:0.83989489;stroke-miterlimit:4;stroke-dasharray:none;stroke-opacity:1"
       d="m 267.91293,443.51888 c 9.8e-4,-1.15838 -1.26921,-2.09136 -2.85015,-2.09326 l -6.97699,-0.008 c -1.58095,-10e-4 -2.85317,0.92802 -2.85429,2.08637 l -0.0109,9.7577 c -9.8e-4,1.15835 1.26922,2.09131 2.85017,2.09322 l 6.97694,0.008 c 1.58097,10e-4 2.8532,-0.928 2.85435,-2.08636 z"
       id="path1255" />
    <path
       style="fill:#e6e6e6;fill-opacity:0.95024875;stroke:#a0a0a0;stroke-width:0.83989489;stroke-miterlimit:4;stroke-dasharray:none;stroke-opacity:1"
       d="m 267.95223,461.26829 c 9.8e-4,-1.15836 -1.26921,-2.09134 -2.85012,-2.09324 l -6.97699,-0.008 c -1.58097,-0.001 -2.85317,0.92802 -2.85432,2.08637 l -0.0109,9.7577 c -9.8e-4,1.15836 1.26921,2.09447 2.85018,2.09639 l 6.97694,0.008 c 1.58095,0.001 2.85318,-0.93117 2.85432,-2.08955 z"
       id="path1253" />
    <path
       style="fill:#e6e6e6;fill-opacity:0.95024875;stroke:#a0a0a0;stroke-width:0.83989489;stroke-miterlimit:4;stroke-dasharray:none;stroke-opacity:1"
       d="m 249.29226,426.34584 c 9.8e-4,-1.15833 -1.26922,-2.09132 -2.85017,-2.09322 l -6.97694,-0.008 c -1.58096,-10e-4 -2.85318,0.92803 -2.85434,2.08637 l -0.0109,9.75768 c -9.7e-4,1.15835 1.2692,2.09449 2.85016,2.09639 l 6.97695,0.008 c 1.58097,10e-4 2.85319,-0.93119 2.85434,-2.08952 z"
       id="path1251" />
    <path
       style="fill:#e6e6e6;fill-opacity:0.95024875;stroke:#a0a0a0;stroke-width:0.83989489;stroke-miterlimit:4;stroke-dasharray:none;stroke-opacity:1"
       d="m 249.27516,443.51888 c 9.8e-4,-1.15838 -1.26922,-2.09136 -2.85014,-2.09326 l -6.97699,-0.008 c -1.58097,-10e-4 -2.85317,0.92802 -2.8543,2.08637 l -0.0109,9.7577 c -9.8e-4,1.15835 1.26923,2.09131 2.85017,2.09322 l 6.97694,0.008 c 1.58099,10e-4 2.85322,-0.928 2.85436,-2.08636 z"
       id="path1249" />
    <path
       style="fill:#e6e6e6;fill-opacity:0.95024875;stroke:#a0a0a0;stroke-width:0.83989489;stroke-miterlimit:4;stroke-dasharray:none;stroke-opacity:1"
       d="m 249.31446,461.26829 c 9.8e-4,-1.15836 -1.26921,-2.09134 -2.85014,-2.09324 l -6.97696,-0.008 c -1.58098,-0.001 -2.85317,0.92802 -2.85432,2.08637 l -0.0109,9.7577 c -9.7e-4,1.15836 1.2692,2.09447 2.85015,2.09639 l 6.97696,0.008 c 1.58096,0.001 2.85319,-0.93117 2.85433,-2.08955 z"
       id="path1247" />
    <path
       style="fill:#e6e6e6;fill-opacity:0.95024875;stroke:#a0a0a0;stroke-width:0.83989489;stroke-miterlimit:4;stroke-dasharray:none;stroke-opacity:1"
       d="m 579.79895,426.34584 c 9.7e-4,-1.15833 -1.26922,-2.09132 -2.85016,-2.09322 l -6.97696,-0.008 c -1.58095,-10e-4 -2.85317,0.92803 -2.85432,2.08637 l -0.0109,9.75768 c -9.7e-4,1.15835 1.26918,2.09449 2.85017,2.09639 l 6.97695,0.008 c 1.58094,10e-4 2.85318,-0.93119 2.85433,-2.08952 z"
       id="path1245" />
    <path
       style="fill:#e6e6e6;fill-opacity:0.95024875;stroke:#a0a0a0;stroke-width:0.83989489;stroke-miterlimit:4;stroke-dasharray:none;stroke-opacity:1"
       d="m 579.78185,443.51888 c 9.8e-4,-1.15838 -1.26922,-2.09136 -2.85014,-2.09326 l -6.97698,-0.008 c -1.58097,-10e-4 -2.85317,0.92802 -2.8543,2.08637 l -0.0109,9.7577 c -9.7e-4,1.15835 1.26921,2.09131 2.85018,2.09322 l 6.97693,0.008 c 1.58096,10e-4 2.85319,-0.928 2.85435,-2.08636 z"
       id="path1243" />
    <path
       style="fill:#e6e6e6;fill-opacity:0.95024875;stroke:#a0a0a0;stroke-width:0.83989489;stroke-miterlimit:4;stroke-dasharray:none;stroke-opacity:1"
       d="m 579.82125,461.26829 c 9.8e-4,-1.15836 -1.2692,-2.09134 -2.85014,-2.09324 l -6.97696,-0.008 c -1.58098,-0.001 -2.85317,0.92802 -2.85432,2.08637 l -0.0109,9.7577 c -9.7e-4,1.15836 1.26923,2.09447 2.85018,2.09639 l 6.97694,0.008 c 1.58098,0.001 2.8532,-0.93117 2.85433,-2.08955 z"
       id="path1241" />
    <path
       style="fill:#e6e6e6;fill-opacity:0.95024875;stroke:#a0a0a0;stroke-width:0.83989489;stroke-miterlimit:4;stroke-dasharray:none;stroke-opacity:1"
       d="m 559.60815,425.92552 c 9.7e-4,-1.15834 -1.26923,-2.09133 -2.85017,-2.09322 l -6.97695,-0.008 c -1.58095,-10e-4 -2.85317,0.92802 -2.85431,2.08636 l -0.0109,9.75769 c -9.7e-4,1.15834 1.26919,2.09449 2.85014,2.09638 l 6.97697,0.008 c 1.58095,10e-4 2.85318,-0.93117 2.85433,-2.08953 z"
       id="path1239" />
    <path
       style="fill:#e6e6e6;fill-opacity:0.95024875;stroke:#a0a0a0;stroke-width:0.83989489;stroke-miterlimit:4;stroke-dasharray:none;stroke-opacity:1"
       d="m 559.59105,443.09854 c 9.6e-4,-1.15837 -1.26923,-2.09134 -2.85017,-2.09323 l -6.97695,-0.008 c -1.58099,-0.001 -2.85319,0.92801 -2.85431,2.08638 l -0.0109,9.75767 c -9.7e-4,1.15837 1.26923,2.09133 2.85018,2.09325 l 6.97693,0.008 c 1.58097,10e-4 2.85321,-0.92802 2.85435,-2.08636 z"
       id="path1237" />
    <path
       style="fill:#e6e6e6;fill-opacity:0.95024875;stroke:#a0a0a0;stroke-width:0.83989489;stroke-miterlimit:4;stroke-dasharray:none;stroke-opacity:1"
       d="m 559.63035,460.84796 c 9.6e-4,-1.15834 -1.2692,-2.09135 -2.85015,-2.09324 l -6.97697,-0.008 c -1.58095,-10e-4 -2.85316,0.92801 -2.85432,2.08637 l -0.0109,9.75768 c -9.8e-4,1.15836 1.26922,2.09449 2.85017,2.09642 l 6.97693,0.008 c 1.58098,10e-4 2.85319,-0.93118 2.85435,-2.08956 z"
       id="path1235" />
    <path
       style="fill:#e6e6e6;fill-opacity:0.95024875;stroke:#a0a0a0;stroke-width:0.83989489;stroke-miterlimit:4;stroke-dasharray:none;stroke-opacity:1"
       d="m 538.7966,426.34584 c 9.7e-4,-1.15833 -1.26921,-2.09132 -2.85015,-2.09322 l -6.97697,-0.008 c -1.58096,-10e-4 -2.85317,0.92803 -2.85432,2.08637 l -0.0109,9.75768 c -9.7e-4,1.15835 1.26918,2.09449 2.85016,2.09639 l 6.97696,0.008 c 1.58094,10e-4 2.85318,-0.93119 2.85433,-2.08952 z"
       id="path1233" />
    <path
       style="fill:#e6e6e6;fill-opacity:0.95024875;stroke:#a0a0a0;stroke-width:0.83989489;stroke-miterlimit:4;stroke-dasharray:none;stroke-opacity:1"
       d="m 538.7795,443.51888 c 9.8e-4,-1.15838 -1.26922,-2.09136 -2.85015,-2.09326 l -6.97697,-0.008 c -1.58097,-10e-4 -2.85317,0.92802 -2.8543,2.08637 l -0.0109,9.7577 c -9.6e-4,1.15835 1.26923,2.09131 2.85019,2.09322 l 6.97693,0.008 c 1.58098,10e-4 2.85321,-0.928 2.85436,-2.08636 z"
       id="path1231" />
    <path
       style="fill:#e6e6e6;fill-opacity:0.95024875;stroke:#a0a0a0;stroke-width:0.83989489;stroke-miterlimit:4;stroke-dasharray:none;stroke-opacity:1"
       d="m 538.8189,461.26829 c 9.8e-4,-1.15836 -1.2692,-2.09134 -2.85013,-2.09324 l -6.97698,-0.008 c -1.58097,-0.001 -2.85317,0.92802 -2.85431,2.08637 l -0.0109,9.7577 c -9.6e-4,1.15836 1.26923,2.09447 2.85019,2.09639 l 6.97693,0.008 c 1.58096,0.001 2.85318,-0.93117 2.85433,-2.08955 z"
       id="path1229" />
    <path
       style="fill:#e6e6e6;fill-opacity:0.95024875;stroke:#a0a0a0;stroke-width:0.83989489;stroke-miterlimit:4;stroke-dasharray:none;stroke-opacity:1"
       d="m 520.15893,426.34584 c 9.7e-4,-1.15833 -1.26923,-2.09132 -2.85017,-2.09322 l -6.97694,-0.008 c -1.58097,-10e-4 -2.85318,0.92803 -2.85433,2.08637 l -0.0109,9.75768 c -9.7e-4,1.15835 1.26918,2.09449 2.85016,2.09639 l 6.97696,0.008 c 1.58094,10e-4 2.85318,-0.93119 2.85432,-2.08952 z"
       id="path1227" />
    <path
       style="fill:#e6e6e6;fill-opacity:0.95024875;stroke:#a0a0a0;stroke-width:0.83989489;stroke-miterlimit:4;stroke-dasharray:none;stroke-opacity:1"
       d="m 520.14183,443.51888 c 9.8e-4,-1.15838 -1.26922,-2.09136 -2.85015,-2.09326 l -6.97696,-0.008 c -1.58099,-10e-4 -2.85318,0.92802 -2.85432,2.08637 l -0.0109,9.7577 c -9.6e-4,1.15835 1.26923,2.09131 2.85018,2.09322 l 6.97693,0.008 c 1.58098,10e-4 2.85321,-0.928 2.85437,-2.08636 z"
       id="path1225" />
    <path
       style="fill:#e6e6e6;fill-opacity:0.95024875;stroke:#a0a0a0;stroke-width:0.83989489;stroke-miterlimit:4;stroke-dasharray:none;stroke-opacity:1"
       d="m 520.18113,461.26829 c 9.7e-4,-1.15836 -1.26921,-2.09134 -2.85015,-2.09324 l -6.97697,-0.008 c -1.58096,-0.001 -2.85317,0.92802 -2.85432,2.08637 l -0.0109,9.7577 c -9.7e-4,1.15836 1.26921,2.09447 2.85016,2.09639 l 6.97694,0.008 c 1.58097,0.001 2.85319,-0.93117 2.85433,-2.08955 z"
       id="path1223" />
    <path
       style="fill:#e6e6e6;fill-opacity:0.95024875;stroke:#a0a0a0;stroke-width:0.83989489;stroke-miterlimit:4;stroke-dasharray:none;stroke-opacity:1"
       d="m 501.21053,426.34584 c 9.7e-4,-1.15833 -1.26923,-2.09132 -2.85018,-2.09322 l -6.97695,-0.008 c -1.58094,-10e-4 -2.85316,0.92803 -2.85431,2.08637 l -0.0109,9.75768 c -9.7e-4,1.15835 1.26919,2.09449 2.85014,2.09639 l 6.97698,0.008 c 1.58094,10e-4 2.85318,-0.93119 2.85432,-2.08952 z"
       id="path1221" />
    <path
       style="fill:#e6e6e6;fill-opacity:0.95024875;stroke:#a0a0a0;stroke-width:0.83989489;stroke-miterlimit:4;stroke-dasharray:none;stroke-opacity:1"
       d="m 501.19343,443.51888 c 9.7e-4,-1.15838 -1.26924,-2.09136 -2.85016,-2.09326 l -6.97697,-0.008 c -1.58097,-10e-4 -2.85317,0.92802 -2.85431,2.08637 l -0.0109,9.7577 c -9.7e-4,1.15835 1.26923,2.09131 2.85019,2.09322 l 6.97693,0.008 c 1.58096,10e-4 2.8532,-0.928 2.85435,-2.08636 z"
       id="path1219" />
    <path
       style="fill:#e6e6e6;fill-opacity:0.95024875;stroke:#a0a0a0;stroke-width:0.83989489;stroke-miterlimit:4;stroke-dasharray:none;stroke-opacity:1"
       d="m 501.23283,461.26829 c 9.7e-4,-1.15836 -1.26922,-2.09134 -2.85015,-2.09324 l -6.97698,-0.008 c -1.58095,-0.001 -2.85316,0.92802 -2.85432,2.08637 l -0.0109,9.7577 c -9.7e-4,1.15836 1.26922,2.09447 2.85018,2.09639 l 6.97694,0.008 c 1.58095,0.001 2.85318,-0.93117 2.85433,-2.08955 z"
       id="path1217" />
    <path
       style="fill:#e6e6e6;fill-opacity:0.95024875;stroke:#a0a0a0;stroke-width:0.83989489;stroke-miterlimit:4;stroke-dasharray:none;stroke-opacity:1"
       d="m 482.57227,426.34584 c 9.7e-4,-1.15833 -1.26923,-2.09132 -2.85017,-2.09322 l -6.97695,-0.008 c -1.58095,-10e-4 -2.85318,0.92803 -2.85433,2.08637 l -0.0109,9.75768 c -9.7e-4,1.15835 1.2692,2.09449 2.85016,2.09639 l 6.97696,0.008 c 1.58095,10e-4 2.85318,-0.93119 2.85432,-2.08952 z"
       id="path1215" />
    <path
       style="fill:#e6e6e6;fill-opacity:0.95024875;stroke:#a0a0a0;stroke-width:0.83989489;stroke-miterlimit:4;stroke-dasharray:none;stroke-opacity:1"
       d="m 482.55517,443.51888 c 9.7e-4,-1.15838 -1.26923,-2.09136 -2.85016,-2.09326 l -6.97698,-0.008 c -1.58096,-10e-4 -2.85315,0.92802 -2.85429,2.08637 l -0.0109,9.7577 c -9.7e-4,1.15835 1.26923,2.09131 2.85018,2.09322 l 6.97694,0.008 c 1.58097,10e-4 2.85321,-0.928 2.85436,-2.08636 z"
       id="path1213" />
    <path
       style="fill:#e6e6e6;fill-opacity:0.95024875;stroke:#a0a0a0;stroke-width:0.83989489;stroke-miterlimit:4;stroke-dasharray:none;stroke-opacity:1"
       d="m 482.59447,461.26829 c 9.7e-4,-1.15836 -1.26919,-2.09134 -2.85013,-2.09324 l -6.97697,-0.008 c -1.58097,-0.001 -2.85316,0.92802 -2.85431,2.08637 l -0.0109,9.7577 c -9.8e-4,1.15836 1.26922,2.09447 2.85016,2.09639 l 6.97694,0.008 c 1.58097,0.001 2.85319,-0.93117 2.85434,-2.08955 z"
       id="path1211" />
    <path
       style="fill:#e6e6e6;fill-opacity:0.95024875;stroke:#a0a0a0;stroke-width:0.83989489;stroke-miterlimit:4;stroke-dasharray:none;stroke-opacity:1"
       d="m 449.33506,425.92552 c 9.7e-4,-1.15834 -1.26922,-2.09133 -2.85017,-2.09322 l -6.97696,-0.008 c -1.58094,-10e-4 -2.85317,0.92802 -2.85432,2.08636 l -0.0109,9.75769 c -9.8e-4,1.15834 1.2692,2.09449 2.85016,2.09638 l 6.97695,0.008 c 1.58094,10e-4 2.85318,-0.93117 2.85434,-2.08953 z"
       id="path1209" />
    <path
       style="fill:#e6e6e6;fill-opacity:0.95024875;stroke:#a0a0a0;stroke-width:0.83989489;stroke-miterlimit:4;stroke-dasharray:none;stroke-opacity:1"
       d="m 449.31796,443.09854 c 9.7e-4,-1.15837 -1.2692,-2.09134 -2.85014,-2.09323 l -6.97699,-0.008 c -1.58095,-0.001 -2.85317,0.92801 -2.85429,2.08638 l -0.0109,9.75767 c -9.8e-4,1.15837 1.26922,2.09133 2.85017,2.09325 l 6.97694,0.008 c 1.58096,10e-4 2.85319,-0.92802 2.85434,-2.08636 z"
       id="path1207" />
    <path
       style="fill:#e6e6e6;fill-opacity:0.95024875;stroke:#a0a0a0;stroke-width:0.83989489;stroke-miterlimit:4;stroke-dasharray:none;stroke-opacity:1"
       d="m 449.35736,460.84796 c 9.7e-4,-1.15834 -1.26921,-2.09135 -2.85014,-2.09324 l -6.97698,-0.008 c -1.58096,-10e-4 -2.85317,0.92801 -2.85431,2.08637 l -0.0109,9.75768 c -9.8e-4,1.15836 1.26922,2.09449 2.85017,2.09642 l 6.97695,0.008 c 1.58096,10e-4 2.85317,-0.93118 2.85431,-2.08956 z"
       id="path1205" />
    <path
       style="fill:#e6e6e6;fill-opacity:0.95024875;stroke:#a0a0a0;stroke-width:0.83989489;stroke-miterlimit:4;stroke-dasharray:none;stroke-opacity:1"
       d="m 417.02981,426.34584 c 9.7e-4,-1.15833 -1.26922,-2.09132 -2.85016,-2.09322 l -6.97697,-0.008 c -1.58095,-10e-4 -2.85318,0.92803 -2.85431,2.08637 l -0.0109,9.75768 c -9.7e-4,1.15835 1.26919,2.09449 2.85017,2.09639 l 6.97695,0.008 c 1.58094,10e-4 2.85318,-0.93119 2.85432,-2.08952 z"
       id="path1203" />
    <path
       style="fill:#e6e6e6;fill-opacity:0.95024875;stroke:#a0a0a0;stroke-width:0.83989489;stroke-miterlimit:4;stroke-dasharray:none;stroke-opacity:1"
       d="m 417.01271,443.51888 c 9.6e-4,-1.15838 -1.26924,-2.09136 -2.85015,-2.09326 l -6.97697,-0.008 c -1.58097,-10e-4 -2.85318,0.92802 -2.85432,2.08637 l -0.0109,9.7577 c -9.7e-4,1.15835 1.26923,2.09131 2.85018,2.09322 l 6.97693,0.008 c 1.58097,10e-4 2.85321,-0.928 2.85436,-2.08636 z"
       id="path1201" />
    <path
       style="fill:#e6e6e6;fill-opacity:0.95024875;stroke:#a0a0a0;stroke-width:0.83989489;stroke-miterlimit:4;stroke-dasharray:none;stroke-opacity:1"
       d="m 417.05211,461.26829 c 9.6e-4,-1.15836 -1.26922,-2.09134 -2.85015,-2.09324 l -6.97696,-0.008 c -1.58099,-0.001 -2.85317,0.92802 -2.85432,2.08637 l -0.0109,9.7577 c -9.7e-4,1.15836 1.26923,2.09447 2.85018,2.09639 l 6.97693,0.008 c 1.58097,0.001 2.8532,-0.93117 2.85433,-2.08955 z"
       id="path1199" />
    <path
       style="fill:#e6e6e6;fill-opacity:0.95024875;stroke:#a0a0a0;stroke-width:0.83989489;stroke-miterlimit:4;stroke-dasharray:none;stroke-opacity:1"
       d="m 398.3925,426.34584 c 9.7e-4,-1.15833 -1.26924,-2.09132 -2.85018,-2.09322 l -6.97696,-0.008 c -1.58094,-10e-4 -2.85317,0.92803 -2.8543,2.08637 l -0.0109,9.75768 c -9.7e-4,1.15835 1.2692,2.09449 2.85015,2.09639 l 6.97696,0.008 c 1.58095,10e-4 2.85318,-0.93119 2.85433,-2.08952 z"
       id="path1197" />
    <path
       style="fill:#e6e6e6;fill-opacity:0.95024875;stroke:#a0a0a0;stroke-width:0.83989489;stroke-miterlimit:4;stroke-dasharray:none;stroke-opacity:1"
       d="m 398.3754,443.51888 c 9.6e-4,-1.15838 -1.26924,-2.09136 -2.85016,-2.09326 l -6.97697,-0.008 c -1.58098,-10e-4 -2.85317,0.92802 -2.85431,2.08637 l -0.0109,9.7577 c -9.7e-4,1.15835 1.26923,2.09131 2.85018,2.09322 l 6.97693,0.008 c 1.58096,10e-4 2.8532,-0.928 2.85435,-2.08636 z"
       id="path1195" />
    <path
       style="fill:#e6e6e6;fill-opacity:0.95024875;stroke:#a0a0a0;stroke-width:0.83989489;stroke-miterlimit:4;stroke-dasharray:none;stroke-opacity:1"
       d="m 398.4148,461.26829 c 9.7e-4,-1.15836 -1.2692,-2.09134 -2.85015,-2.09324 l -6.97696,-0.008 c -1.58096,-0.001 -2.85316,0.92802 -2.85432,2.08637 l -0.0109,9.7577 c -9.7e-4,1.15836 1.26923,2.09447 2.85018,2.09639 l 6.97696,0.008 c 1.58095,0.001 2.85318,-0.93117 2.85431,-2.08955 z"
       id="path1193" />
    <path
       style="fill:#e6e6e6;fill-opacity:0.95024875;stroke:#a0a0a0;stroke-width:0.83989489;stroke-miterlimit:4;stroke-dasharray:none;stroke-opacity:1"
       d="m 379.75484,426.34584 c 9.7e-4,-1.15833 -1.26923,-2.09132 -2.85018,-2.09322 l -6.97697,-0.008 c -1.58092,-10e-4 -2.85315,0.92803 -2.8543,2.08637 l -0.0109,9.75768 c -9.7e-4,1.15835 1.2692,2.09449 2.85015,2.09639 l 6.97697,0.008 c 1.58094,10e-4 2.85317,-0.93119 2.85432,-2.08952 z"
       id="path1191" />
    <path
       style="fill:#e6e6e6;fill-opacity:0.95024875;stroke:#a0a0a0;stroke-width:0.83989489;stroke-miterlimit:4;stroke-dasharray:none;stroke-opacity:1"
       d="m 379.73774,443.51888 c 9.6e-4,-1.15838 -1.26923,-2.09136 -2.85016,-2.09326 l -6.97698,-0.008 c -1.58096,-10e-4 -2.85316,0.92802 -2.85429,2.08637 l -0.0109,9.7577 c -9.7e-4,1.15835 1.26923,2.09131 2.85019,2.09322 l 6.97693,0.008 c 1.58095,10e-4 2.85319,-0.928 2.85434,-2.08636 z"
       id="path1189" />
    <path
       style="fill:#e6e6e6;fill-opacity:0.95024875;stroke:#a0a0a0;stroke-width:0.83989489;stroke-miterlimit:4;stroke-dasharray:none;stroke-opacity:1"
       d="m 379.77714,461.26829 c 9.7e-4,-1.15836 -1.2692,-2.09134 -2.85014,-2.09324 l -6.97697,-0.008 c -1.58096,-0.001 -2.85317,0.92802 -2.85432,2.08637 l -0.0109,9.7577 c -9.7e-4,1.15836 1.26922,2.09447 2.85017,2.09639 l 6.97695,0.008 c 1.58096,0.001 2.85318,-0.93117 2.85433,-2.08955 z"
       id="path1187" />
    <path
       style="fill:#e6e6e6;fill-opacity:0.95024875;stroke:#a0a0a0;stroke-width:0.83989489;stroke-miterlimit:4;stroke-dasharray:none;stroke-opacity:1"
       d="m 361.11718,426.34584 c 9.7e-4,-1.15833 -1.26923,-2.09132 -2.85017,-2.09322 l -6.97696,-0.008 c -1.58095,-10e-4 -2.85317,0.92803 -2.85432,2.08637 l -0.0109,9.75768 c -9.7e-4,1.15835 1.26921,2.09449 2.85017,2.09639 l 6.97695,0.008 c 1.58094,10e-4 2.85318,-0.93119 2.85433,-2.08952 z"
       id="path1185" />
    <path
       style="fill:#e6e6e6;fill-opacity:0.95024875;stroke:#a0a0a0;stroke-width:0.83989489;stroke-miterlimit:4;stroke-dasharray:none;stroke-opacity:1"
       d="m 361.10008,443.51888 c 9.7e-4,-1.15838 -1.26923,-2.09136 -2.85016,-2.09326 l -6.97697,-0.008 c -1.58097,-10e-4 -2.85318,0.92802 -2.85431,2.08637 l -0.0109,9.7577 c -9.7e-4,1.15835 1.26922,2.09131 2.85018,2.09322 l 6.97694,0.008 c 1.58096,10e-4 2.8532,-0.928 2.85433,-2.08636 z"
       id="path1183" />
    <path
       style="fill:#e6e6e6;fill-opacity:0.95024875;stroke:#a0a0a0;stroke-width:0.83989489;stroke-miterlimit:4;stroke-dasharray:none;stroke-opacity:1"
       d="m 361.13948,461.26829 c 9.7e-4,-1.15836 -1.26919,-2.09134 -2.85013,-2.09324 l -6.97697,-0.008 c -1.58097,-0.001 -2.85317,0.92802 -2.85432,2.08637 l -0.0109,9.7577 c -9.7e-4,1.15836 1.26923,2.09447 2.85017,2.09639 l 6.97694,0.008 c 1.58096,0.001 2.85319,-0.93117 2.85433,-2.08955 z"
       id="path1181" />
    <path
       style="fill:#e6e6e6;fill-opacity:0.95024875;stroke:#a0a0a0;stroke-width:0.83989489;stroke-miterlimit:4;stroke-dasharray:none;stroke-opacity:1"
       d="m 342.47952,426.34584 c 9.7e-4,-1.15833 -1.26922,-2.09132 -2.85017,-2.09322 l -6.97696,-0.008 c -1.58094,-10e-4 -2.85317,0.92803 -2.85431,2.08637 l -0.0109,9.75768 c -9.7e-4,1.15835 1.2692,2.09449 2.85016,2.09639 l 6.97695,0.008 c 1.58096,10e-4 2.85319,-0.93119 2.85435,-2.08952 z"
       id="path1179" />
    <path
       style="fill:#e6e6e6;fill-opacity:0.95024875;stroke:#a0a0a0;stroke-width:0.83989489;stroke-miterlimit:4;stroke-dasharray:none;stroke-opacity:1"
       d="m 342.46242,443.51888 c 9.7e-4,-1.15838 -1.26924,-2.09136 -2.85016,-2.09326 l -6.97697,-0.008 c -1.58097,-10e-4 -2.85317,0.92802 -2.8543,2.08637 l -0.0109,9.7577 c -9.7e-4,1.15835 1.26923,2.09131 2.85017,2.09322 l 6.97694,0.008 c 1.58098,10e-4 2.85322,-0.928 2.85435,-2.08636 z"
       id="path1177" />
    <path
       style="fill:#e6e6e6;fill-opacity:0.95024875;stroke:#a0a0a0;stroke-width:0.83989489;stroke-miterlimit:4;stroke-dasharray:none;stroke-opacity:1"
       d="m 342.50172,461.26829 c 9.6e-4,-1.15836 -1.26921,-2.09134 -2.85014,-2.09324 l -6.97698,-0.008 c -1.58097,-0.001 -2.85317,0.92802 -2.85432,2.08637 l -0.0109,9.7577 c -9.8e-4,1.15836 1.26922,2.09447 2.85017,2.09639 l 6.97694,0.008 c 1.58096,0.001 2.85318,-0.93117 2.85432,-2.08955 z"
       id="path1175" />
    <path
       style="fill:#e6e6e6;fill-opacity:0.95024875;stroke:#a0a0a0;stroke-width:0.83989489;stroke-miterlimit:4;stroke-dasharray:none;stroke-opacity:1"
       d="m 230.65372,497.80119 c 9.8e-4,-1.15836 -1.2692,-2.09135 -2.85015,-2.09323 l -6.97696,-0.008 c -1.58096,-10e-4 -2.85318,0.928 -2.85433,2.08633 l -0.0109,9.7577 c -9.7e-4,1.15834 1.26918,2.09451 2.85017,2.09639 l 6.97694,0.008 c 1.58095,0.001 2.85318,-0.93116 2.85434,-2.08951 z"
       id="path1173" />
    <path
       style="fill:#e6e6e6;fill-opacity:0.95024875;stroke:#a0a0a0;stroke-width:0.83989489;stroke-miterlimit:4;stroke-dasharray:none;stroke-opacity:1"
       d="m 230.63662,514.97421 c 9.8e-4,-1.15838 -1.26922,-2.09136 -2.85014,-2.09325 l -6.97697,-0.008 c -1.58097,-0.001 -2.85318,0.92801 -2.85431,2.08636 l -0.0109,9.75769 c -9.8e-4,1.15835 1.26922,2.09134 2.85017,2.09325 l 6.97694,0.008 c 1.58097,10e-4 2.8532,-0.92803 2.85435,-2.08637 z"
       id="path1171" />
    <path
       style="fill:#e6e6e6;fill-opacity:0.95024875;stroke:#a0a0a0;stroke-width:0.83989489;stroke-miterlimit:4;stroke-dasharray:none;stroke-opacity:1"
       d="m 230.67602,532.72362 c 9.8e-4,-1.15835 -1.26921,-2.09135 -2.85014,-2.09323 l -6.97697,-0.008 c -1.58099,-10e-4 -2.85318,0.92801 -2.85431,2.08637 l -0.0109,9.75768 c -9.7e-4,1.15835 1.26922,2.09448 2.85017,2.0964 l 6.97692,0.008 c 1.58097,10e-4 2.85319,-0.93118 2.85435,-2.08955 z"
       id="path1169" />
    <path
       style="fill:#e6e6e6;fill-opacity:0.95024875;stroke:#a0a0a0;stroke-width:0.83989489;stroke-miterlimit:4;stroke-dasharray:none;stroke-opacity:1"
       d="m 212.0162,497.80119 c 9.8e-4,-1.15836 -1.26921,-2.09135 -2.85017,-2.09323 l -6.97695,-0.008 c -1.58095,-10e-4 -2.85317,0.928 -2.85432,2.08633 l -0.0109,9.7577 c -9.7e-4,1.15834 1.26919,2.09451 2.85016,2.09639 l 6.97695,0.008 c 1.58095,0.001 2.85319,-0.93116 2.85434,-2.08951 z"
       id="path1167" />
    <path
       style="fill:#e6e6e6;fill-opacity:0.95024875;stroke:#a0a0a0;stroke-width:0.83989489;stroke-miterlimit:4;stroke-dasharray:none;stroke-opacity:1"
       d="m 211.9991,514.97421 c 9.8e-4,-1.15838 -1.26922,-2.09136 -2.85015,-2.09325 l -6.97697,-0.008 c -1.58099,-0.001 -2.85317,0.92801 -2.85431,2.08636 l -0.0109,9.75769 c -9.8e-4,1.15835 1.26921,2.09134 2.85016,2.09325 l 6.97696,0.008 c 1.58095,10e-4 2.85319,-0.92803 2.85434,-2.08637 z"
       id="path1165" />
    <path
       style="fill:#e6e6e6;fill-opacity:0.95024875;stroke:#a0a0a0;stroke-width:0.83989489;stroke-miterlimit:4;stroke-dasharray:none;stroke-opacity:1"
       d="m 212.0385,532.72362 c 9.8e-4,-1.15835 -1.2692,-2.09135 -2.85013,-2.09323 l -6.97698,-0.008 c -1.58097,-10e-4 -2.85316,0.92801 -2.85431,2.08637 l -0.0109,9.75768 c -9.7e-4,1.15835 1.26922,2.09448 2.85018,2.0964 l 6.97693,0.008 c 1.58096,10e-4 2.85317,-0.93118 2.85434,-2.08955 z"
       id="path1163" />
    <path
       style="fill:#e6e6e6;fill-opacity:0.95024875;stroke:#a0a0a0;stroke-width:0.83989489;stroke-miterlimit:4;stroke-dasharray:none;stroke-opacity:1"
       d="m 193.37854,497.80119 c 9.8e-4,-1.15836 -1.26922,-2.09135 -2.85017,-2.09323 l -6.97697,-0.008 c -1.58094,-10e-4 -2.85316,0.928 -2.85432,2.08633 l -0.0109,9.7577 c -9.7e-4,1.15834 1.26919,2.09451 2.85016,2.09639 l 6.97696,0.008 c 1.58094,0.001 2.85318,-0.93116 2.85433,-2.08951 z"
       id="path1161" />
    <path
       style="fill:#e6e6e6;fill-opacity:0.95024875;stroke:#a0a0a0;stroke-width:0.83989489;stroke-miterlimit:4;stroke-dasharray:none;stroke-opacity:1"
       d="m 193.36144,514.97421 c 9.8e-4,-1.15838 -1.26922,-2.09136 -2.85015,-2.09325 l -6.97698,-0.008 c -1.58096,-0.001 -2.85316,0.92801 -2.8543,2.08636 l -0.0109,9.75769 c -9.8e-4,1.15835 1.26922,2.09134 2.85018,2.09325 l 6.97694,0.008 c 1.58095,10e-4 2.85318,-0.92803 2.85434,-2.08637 z"
       id="path1159" />
    <path
       style="fill:#e6e6e6;fill-opacity:0.95024875;stroke:#a0a0a0;stroke-width:0.83989489;stroke-miterlimit:4;stroke-dasharray:none;stroke-opacity:1"
       d="m 193.40084,532.72362 c 9.8e-4,-1.15835 -1.2692,-2.09135 -2.85013,-2.09323 l -6.97697,-0.008 c -1.58098,-10e-4 -2.85318,0.92801 -2.85432,2.08637 l -0.0109,9.75768 c -9.7e-4,1.15835 1.26923,2.09448 2.85018,2.0964 l 6.97693,0.008 c 1.58095,10e-4 2.85317,-0.93118 2.85434,-2.08955 z"
       id="path1157" />
    <path
       style="fill:#e6e6e6;fill-opacity:0.95024875;stroke:#a0a0a0;stroke-width:0.83989489;stroke-miterlimit:4;stroke-dasharray:none;stroke-opacity:1"
       d="m 174.74088,497.80119 c 9.8e-4,-1.15836 -1.26923,-2.09135 -2.85017,-2.09323 l -6.97695,-0.008 c -1.58097,-10e-4 -2.85318,0.928 -2.85434,2.08633 l -0.0109,9.7577 c -9.8e-4,1.15834 1.26919,2.09451 2.85017,2.09639 l 6.97693,0.008 c 1.58096,0.001 2.8532,-0.93116 2.85436,-2.08951 z"
       id="path1155" />
    <path
       style="fill:#e6e6e6;fill-opacity:0.95024875;stroke:#a0a0a0;stroke-width:0.83989489;stroke-miterlimit:4;stroke-dasharray:none;stroke-opacity:1"
       d="m 174.72378,514.97421 c 9.8e-4,-1.15838 -1.26921,-2.09136 -2.85014,-2.09325 l -6.97698,-0.008 c -1.58097,-0.001 -2.85318,0.92801 -2.8543,2.08636 l -0.0109,9.75769 c -9.8e-4,1.15835 1.26921,2.09134 2.85016,2.09325 l 6.97695,0.008 c 1.58096,10e-4 2.85319,-0.92803 2.85434,-2.08637 z"
       id="path1153" />
    <path
       style="fill:#e6e6e6;fill-opacity:0.95024875;stroke:#a0a0a0;stroke-width:0.83989489;stroke-miterlimit:4;stroke-dasharray:none;stroke-opacity:1"
       d="m 174.76318,532.72362 c 9.8e-4,-1.15835 -1.2692,-2.09135 -2.85014,-2.09323 l -6.97697,-0.008 c -1.58096,-10e-4 -2.85317,0.92801 -2.85431,2.08637 l -0.0109,9.75768 c -9.7e-4,1.15835 1.26922,2.09448 2.85017,2.0964 l 6.97693,0.008 c 1.58097,10e-4 2.85319,-0.93118 2.85434,-2.08955 z"
       id="path1151" />
    <path
       style="fill:#e6e6e6;fill-opacity:0.95024875;stroke:#a0a0a0;stroke-width:0.83989489;stroke-miterlimit:4;stroke-dasharray:none;stroke-opacity:1"
       d="m 156.10277,497.80119 c 9.8e-4,-1.15836 -1.26921,-2.09135 -2.85016,-2.09323 l -6.97696,-0.008 c -1.58096,-10e-4 -2.85318,0.928 -2.85432,2.08633 l -0.0109,9.7577 c -9.8e-4,1.15834 1.26919,2.09451 2.85016,2.09639 l 6.97696,0.008 c 1.58094,0.001 2.85318,-0.93116 2.85433,-2.08951 z"
       id="path1149" />
    <path
       style="fill:#e6e6e6;fill-opacity:0.95024875;stroke:#a0a0a0;stroke-width:0.83989489;stroke-miterlimit:4;stroke-dasharray:none;stroke-opacity:1"
       d="m 156.08567,514.97421 c 9.7e-4,-1.15838 -1.26922,-2.09136 -2.85015,-2.09325 l -6.97697,-0.008 c -1.58096,-0.001 -2.85317,0.92801 -2.85431,2.08636 l -0.0109,9.75769 c -9.8e-4,1.15835 1.26922,2.09134 2.85018,2.09325 l 6.97694,0.008 c 1.58096,10e-4 2.8532,-0.92803 2.85435,-2.08637 z"
       id="path1147" />
    <path
       style="fill:#e6e6e6;fill-opacity:0.95024875;stroke:#a0a0a0;stroke-width:0.83989489;stroke-miterlimit:4;stroke-dasharray:none;stroke-opacity:1"
       d="m 156.12507,532.72362 c 9.7e-4,-1.15835 -1.26922,-2.09135 -2.85014,-2.09323 l -6.97697,-0.008 c -1.58099,-10e-4 -2.85317,0.92801 -2.85432,2.08637 l -0.0109,9.75768 c -9.7e-4,1.15835 1.26922,2.09448 2.85019,2.0964 l 6.97692,0.008 c 1.58096,10e-4 2.85319,-0.93118 2.85433,-2.08955 z"
       id="path1145" />
    <path
       style="fill:#e6e6e6;fill-opacity:0.95024875;stroke:#a0a0a0;stroke-width:0.83989489;stroke-miterlimit:4;stroke-dasharray:none;stroke-opacity:1"
       d="m 323.84112,497.80119 c 9.8e-4,-1.15836 -1.2692,-2.09135 -2.85017,-2.09323 l -6.97694,-0.008 c -1.58095,-10e-4 -2.85317,0.928 -2.85433,2.08633 l -0.0109,9.7577 c -9.6e-4,1.15834 1.2692,2.09451 2.85018,2.09639 l 6.97693,0.008 c 1.58097,0.001 2.8532,-0.93116 2.85436,-2.08951 z"
       id="path1143" />
    <path
       style="fill:#e6e6e6;fill-opacity:0.95024875;stroke:#a0a0a0;stroke-width:0.83989489;stroke-miterlimit:4;stroke-dasharray:none;stroke-opacity:1"
       d="m 323.82402,514.97421 c 9.8e-4,-1.15838 -1.26922,-2.09136 -2.85014,-2.09325 l -6.97699,-0.008 c -1.58097,-0.001 -2.85316,0.92801 -2.8543,2.08636 l -0.0109,9.75769 c -9.7e-4,1.15835 1.26919,2.09134 2.85018,2.09325 l 6.97694,0.008 c 1.58095,10e-4 2.85318,-0.92803 2.85432,-2.08637 z"
       id="path1141" />
    <path
       style="fill:#e6e6e6;fill-opacity:0.95024875;stroke:#a0a0a0;stroke-width:0.83989489;stroke-miterlimit:4;stroke-dasharray:none;stroke-opacity:1"
       d="m 323.86342,532.72362 c 9.8e-4,-1.15835 -1.26921,-2.09135 -2.85015,-2.09323 l -6.97696,-0.008 c -1.58097,-10e-4 -2.85317,0.92801 -2.85433,2.08637 l -0.0109,9.75768 c -9.7e-4,1.15835 1.26921,2.09448 2.85018,2.0964 l 6.97693,0.008 c 1.58096,10e-4 2.85319,-0.93118 2.85432,-2.08955 z"
       id="path1139" />
    <path
       style="fill:#e6e6e6;fill-opacity:0.95024875;stroke:#a0a0a0;stroke-width:0.83989489;stroke-miterlimit:4;stroke-dasharray:none;stroke-opacity:1"
       d="m 305.2043,497.80119 c 9.8e-4,-1.15836 -1.2692,-2.09135 -2.85018,-2.09323 l -6.97693,-0.008 c -1.58095,-10e-4 -2.85318,0.928 -2.85432,2.08633 l -0.0109,9.7577 c -9.7e-4,1.15834 1.26918,2.09451 2.85015,2.09639 l 6.97693,0.008 c 1.58099,0.001 2.85321,-0.93116 2.85436,-2.08951 z"
       id="path1137" />
    <path
       style="fill:#e6e6e6;fill-opacity:0.95024875;stroke:#a0a0a0;stroke-width:0.83989489;stroke-miterlimit:4;stroke-dasharray:none;stroke-opacity:1"
       d="m 305.1872,514.97421 c 9.8e-4,-1.15838 -1.26922,-2.09136 -2.85016,-2.09325 l -6.97697,-0.008 c -1.58097,-0.001 -2.85317,0.92801 -2.85432,2.08636 l -0.0109,9.75769 c -9.8e-4,1.15835 1.26921,2.09134 2.85017,2.09325 l 6.97694,0.008 c 1.58098,10e-4 2.85318,-0.92803 2.85434,-2.08637 z"
       id="path1135" />
    <path
       style="fill:#e6e6e6;fill-opacity:0.95024875;stroke:#a0a0a0;stroke-width:0.83989489;stroke-miterlimit:4;stroke-dasharray:none;stroke-opacity:1"
       d="m 305.2266,532.72362 c 9.8e-4,-1.15835 -1.26919,-2.09135 -2.85013,-2.09323 l -6.97696,-0.008 c -1.58098,-10e-4 -2.85318,0.92801 -2.85434,2.08637 l -0.0109,9.75768 c -9.8e-4,1.15835 1.26919,2.09448 2.85015,2.0964 l 6.97694,0.008 c 1.58097,10e-4 2.85317,-0.93118 2.85433,-2.08955 z"
       id="path1133" />
    <path
       style="fill:#e6e6e6;fill-opacity:0.95024875;stroke:#a0a0a0;stroke-width:0.83989489;stroke-miterlimit:4;stroke-dasharray:none;stroke-opacity:1"
       d="m 286.56662,497.80119 c 9.8e-4,-1.15836 -1.26918,-2.09135 -2.85018,-2.09323 l -6.97693,-0.008 c -1.58094,-10e-4 -2.85317,0.928 -2.85431,2.08633 l -0.0109,9.7577 c -9.7e-4,1.15834 1.26919,2.09451 2.85016,2.09639 l 6.97693,0.008 c 1.58097,0.001 2.8532,-0.93116 2.85437,-2.08951 z"
       id="path1131" />
    <path
       style="fill:#e6e6e6;fill-opacity:0.95024875;stroke:#a0a0a0;stroke-width:0.83989489;stroke-miterlimit:4;stroke-dasharray:none;stroke-opacity:1"
       d="m 286.54952,514.97421 c 9.8e-4,-1.15838 -1.26922,-2.09136 -2.85014,-2.09325 l -6.97697,-0.008 c -1.58099,-0.001 -2.85317,0.92801 -2.85432,2.08636 l -0.0109,9.75769 c -9.8e-4,1.15835 1.2692,2.09134 2.85015,2.09325 l 6.97695,0.008 c 1.58098,10e-4 2.8532,-0.92803 2.85434,-2.08637 z"
       id="path1129" />
    <path
       style="fill:#e6e6e6;fill-opacity:0.95024875;stroke:#a0a0a0;stroke-width:0.83989489;stroke-miterlimit:4;stroke-dasharray:none;stroke-opacity:1"
       d="m 286.58902,532.72362 c 9.8e-4,-1.15835 -1.2692,-2.09135 -2.85016,-2.09323 l -6.97697,-0.008 c -1.58095,-10e-4 -2.85315,0.92801 -2.85431,2.08637 l -0.0109,9.75768 c -9.8e-4,1.15835 1.26921,2.09448 2.85016,2.0964 l 6.97693,0.008 c 1.58097,10e-4 2.85318,-0.93118 2.85434,-2.08955 z"
       id="path1127" />
    <path
       style="fill:#e6e6e6;fill-opacity:0.95024875;stroke:#a0a0a0;stroke-width:0.83989489;stroke-miterlimit:4;stroke-dasharray:none;stroke-opacity:1"
       d="m 267.92904,497.80119 c 9.7e-4,-1.15836 -1.26921,-2.09135 -2.85019,-2.09323 l -6.97694,-0.008 c -1.58094,-10e-4 -2.85316,0.928 -2.85431,2.08633 l -0.0109,9.7577 c -9.8e-4,1.15834 1.26919,2.09451 2.85014,2.09639 l 6.97694,0.008 c 1.58098,0.001 2.85321,-0.93116 2.85436,-2.08951 z"
       id="path1125" />
    <path
       style="fill:#e6e6e6;fill-opacity:0.95024875;stroke:#a0a0a0;stroke-width:0.83989489;stroke-miterlimit:4;stroke-dasharray:none;stroke-opacity:1"
       d="m 267.91194,514.97421 c 9.7e-4,-1.15838 -1.26921,-2.09136 -2.85015,-2.09325 l -6.97698,-0.008 c -1.58095,-0.001 -2.85317,0.92801 -2.85431,2.08636 l -0.0109,9.75769 c -9.8e-4,1.15835 1.26921,2.09134 2.85016,2.09325 l 6.97696,0.008 c 1.58096,10e-4 2.85317,-0.92803 2.85433,-2.08637 z"
       id="path1123" />
    <path
       style="fill:#e6e6e6;fill-opacity:0.95024875;stroke:#a0a0a0;stroke-width:0.83989489;stroke-miterlimit:4;stroke-dasharray:none;stroke-opacity:1"
       d="m 267.95134,532.72362 c 9.8e-4,-1.15835 -1.26921,-2.09135 -2.85016,-2.09323 l -6.97697,-0.008 c -1.58095,-10e-4 -2.85316,0.92801 -2.85432,2.08637 l -0.0109,9.75768 c -9.8e-4,1.15835 1.26919,2.09448 2.85015,2.0964 l 6.97693,0.008 c 1.58098,10e-4 2.85318,-0.93118 2.85435,-2.08955 z"
       id="path1121" />
    <path
       style="fill:#e6e6e6;fill-opacity:0.95024875;stroke:#a0a0a0;stroke-width:0.83989489;stroke-miterlimit:4;stroke-dasharray:none;stroke-opacity:1"
       d="m 249.2916,497.80119 c 9.7e-4,-1.15836 -1.26921,-2.09135 -2.85018,-2.09323 l -6.97694,-0.008 c -1.58094,-10e-4 -2.85317,0.928 -2.85431,2.08633 l -0.0109,9.7577 c -9.8e-4,1.15834 1.26919,2.09451 2.85016,2.09639 l 6.97694,0.008 c 1.58096,0.001 2.85319,-0.93116 2.85434,-2.08951 z"
       id="path1119" />
    <path
       style="fill:#e6e6e6;fill-opacity:0.95024875;stroke:#a0a0a0;stroke-width:0.83989489;stroke-miterlimit:4;stroke-dasharray:none;stroke-opacity:1"
       d="m 249.2745,514.97421 c 9.8e-4,-1.15838 -1.26922,-2.09136 -2.85016,-2.09325 l -6.97697,-0.008 c -1.58097,-0.001 -2.85317,0.92801 -2.85432,2.08636 l -0.0109,9.75769 c -9.8e-4,1.15835 1.2692,2.09134 2.85015,2.09325 l 6.97696,0.008 c 1.58096,10e-4 2.85317,-0.92803 2.85433,-2.08637 z"
       id="path1117" />
    <path
       style="fill:#e6e6e6;fill-opacity:0.95024875;stroke:#a0a0a0;stroke-width:0.83989489;stroke-miterlimit:4;stroke-dasharray:none;stroke-opacity:1"
       d="m 249.3138,532.72362 c 9.8e-4,-1.15835 -1.26919,-2.09135 -2.85013,-2.09323 l -6.97697,-0.008 c -1.58097,-10e-4 -2.85317,0.92801 -2.85433,2.08637 l -0.0109,9.75768 c -9.8e-4,1.15835 1.26921,2.09448 2.85018,2.0964 l 6.97693,0.008 c 1.58095,10e-4 2.85318,-0.93118 2.85432,-2.08955 z"
       id="path1115" />
    <path
       style="fill:#e6e6e6;fill-opacity:0.95024875;stroke:#a0a0a0;stroke-width:0.83989489;stroke-miterlimit:4;stroke-dasharray:none;stroke-opacity:1"
       d="m 579.79836,497.80119 c 9.8e-4,-1.15836 -1.26922,-2.09135 -2.85017,-2.09323 l -6.97695,-0.008 c -1.58096,-10e-4 -2.85317,0.928 -2.85432,2.08633 l -0.0109,9.7577 c -9.8e-4,1.15834 1.26917,2.09451 2.85014,2.09639 l 6.97696,0.008 c 1.58095,0.001 2.85319,-0.93116 2.85433,-2.08951 z"
       id="path1113" />
    <path
       style="fill:#e6e6e6;fill-opacity:0.95024875;stroke:#a0a0a0;stroke-width:0.83989489;stroke-miterlimit:4;stroke-dasharray:none;stroke-opacity:1"
       d="m 579.78126,514.97421 c 9.8e-4,-1.15838 -1.26922,-2.09136 -2.85015,-2.09325 l -6.97696,-0.008 c -1.58098,-0.001 -2.85318,0.92801 -2.85433,2.08636 l -0.0109,9.75769 c -9.7e-4,1.15835 1.26922,2.09134 2.85017,2.09325 l 6.97693,0.008 c 1.58097,10e-4 2.8532,-0.92803 2.85437,-2.08637 z"
       id="path1111" />
    <path
       style="fill:#e6e6e6;fill-opacity:0.95024875;stroke:#a0a0a0;stroke-width:0.83989489;stroke-miterlimit:4;stroke-dasharray:none;stroke-opacity:1"
       d="m 579.82066,532.72362 c 9.8e-4,-1.15835 -1.2692,-2.09135 -2.85014,-2.09323 l -6.97696,-0.008 c -1.58098,-10e-4 -2.85316,0.92801 -2.85433,2.08637 l -0.0109,9.75768 c -9.8e-4,1.15835 1.26923,2.09448 2.85017,2.0964 l 6.97694,0.008 c 1.58098,10e-4 2.8532,-0.93118 2.85435,-2.08955 z"
       id="path1109" />
    <path
       style="fill:#e6e6e6;fill-opacity:0.95024875;stroke:#a0a0a0;stroke-width:0.83989489;stroke-miterlimit:4;stroke-dasharray:none;stroke-opacity:1"
       d="m 559.60756,497.38086 c 9.8e-4,-1.15834 -1.26922,-2.09133 -2.85018,-2.09323 l -6.97694,-0.008 c -1.58095,-10e-4 -2.85317,0.92801 -2.85431,2.08636 l -0.0109,9.75768 c -9.6e-4,1.15836 1.26919,2.0945 2.85015,2.0964 l 6.97697,0.008 c 1.58095,10e-4 2.85318,-0.93117 2.85433,-2.08952 z"
       id="path1107" />
    <path
       style="fill:#e6e6e6;fill-opacity:0.95024875;stroke:#a0a0a0;stroke-width:0.83989489;stroke-miterlimit:4;stroke-dasharray:none;stroke-opacity:1"
       d="m 559.59046,514.55389 c 9.8e-4,-1.15838 -1.26922,-2.09135 -2.85016,-2.09325 l -6.97696,-0.008 c -1.58098,-10e-4 -2.85316,0.92802 -2.8543,2.08637 l -0.0109,9.75769 c -9.7e-4,1.15836 1.26922,2.09133 2.85017,2.09324 l 6.97695,0.008 c 1.58096,0.001 2.8532,-0.92801 2.85435,-2.08638 z"
       id="path1105" />
    <path
       style="fill:#e6e6e6;fill-opacity:0.95024875;stroke:#a0a0a0;stroke-width:0.83989489;stroke-miterlimit:4;stroke-dasharray:none;stroke-opacity:1"
       d="m 559.62976,532.3033 c 9.7e-4,-1.15835 -1.2692,-2.09134 -2.85013,-2.09324 l -6.97698,-0.008 c -1.58096,-10e-4 -2.85316,0.92802 -2.85431,2.08638 l -0.0109,9.75769 c -9.7e-4,1.15835 1.26923,2.09447 2.85018,2.09638 l 6.97694,0.008 c 1.58096,10e-4 2.85318,-0.93117 2.85433,-2.08954 z"
       id="path1103" />
    <path
       style="fill:#e6e6e6;fill-opacity:0.95024875;stroke:#a0a0a0;stroke-width:0.83989489;stroke-miterlimit:4;stroke-dasharray:none;stroke-opacity:1"
       d="m 538.7958,497.80119 c 9.7e-4,-1.15836 -1.26923,-2.09135 -2.85017,-2.09323 l -6.97696,-0.008 c -1.58094,-10e-4 -2.85317,0.928 -2.85432,2.08633 l -0.0109,9.7577 c -9.7e-4,1.15834 1.2692,2.09451 2.85017,2.09639 l 6.97695,0.008 c 1.58094,0.001 2.85318,-0.93116 2.85433,-2.08951 z"
       id="path1101" />
    <path
       style="fill:#e6e6e6;fill-opacity:0.95024875;stroke:#a0a0a0;stroke-width:0.83989489;stroke-miterlimit:4;stroke-dasharray:none;stroke-opacity:1"
       d="m 538.7787,514.97421 c 9.7e-4,-1.15838 -1.26922,-2.09136 -2.85014,-2.09325 l -6.97699,-0.008 c -1.58095,-0.001 -2.85317,0.92801 -2.85429,2.08636 l -0.0109,9.75769 c -9.7e-4,1.15835 1.26922,2.09134 2.85018,2.09325 l 6.97694,0.008 c 1.58096,10e-4 2.85319,-0.92803 2.85434,-2.08637 z"
       id="path1099" />
    <path
       style="fill:#e6e6e6;fill-opacity:0.95024875;stroke:#a0a0a0;stroke-width:0.83989489;stroke-miterlimit:4;stroke-dasharray:none;stroke-opacity:1"
       d="m 538.8181,532.72362 c 9.7e-4,-1.15835 -1.26922,-2.09135 -2.85014,-2.09323 l -6.97698,-0.008 c -1.58096,-10e-4 -2.85317,0.92801 -2.85431,2.08637 l -0.0109,9.75768 c -9.7e-4,1.15835 1.26923,2.09448 2.85018,2.0964 l 6.97694,0.008 c 1.58096,10e-4 2.85318,-0.93118 2.85432,-2.08955 z"
       id="path1097" />
    <path
       style="fill:#e6e6e6;fill-opacity:0.95024875;stroke:#a0a0a0;stroke-width:0.83989489;stroke-miterlimit:4;stroke-dasharray:none;stroke-opacity:1"
       d="m 520.15813,497.80119 c 9.7e-4,-1.15836 -1.26924,-2.09135 -2.85018,-2.09323 l -6.97694,-0.008 c -1.58095,-10e-4 -2.85318,0.928 -2.85433,2.08633 l -0.0109,9.7577 c -9.7e-4,1.15834 1.2692,2.09451 2.85017,2.09639 l 6.97695,0.008 c 1.58094,0.001 2.85319,-0.93116 2.85433,-2.08951 z"
       id="path1095" />
    <path
       style="fill:#e6e6e6;fill-opacity:0.95024875;stroke:#a0a0a0;stroke-width:0.83989489;stroke-miterlimit:4;stroke-dasharray:none;stroke-opacity:1"
       d="m 520.14103,514.97421 c 9.7e-4,-1.15838 -1.26922,-2.09136 -2.85014,-2.09325 l -6.97698,-0.008 c -1.58097,-0.001 -2.85318,0.92801 -2.8543,2.08636 l -0.0109,9.75769 c -9.7e-4,1.15835 1.26922,2.09134 2.85017,2.09325 l 6.97694,0.008 c 1.58096,10e-4 2.85319,-0.92803 2.85435,-2.08637 z"
       id="path1093" />
    <path
       style="fill:#e6e6e6;fill-opacity:0.95024875;stroke:#a0a0a0;stroke-width:0.83989489;stroke-miterlimit:4;stroke-dasharray:none;stroke-opacity:1"
       d="m 520.18043,532.72362 c 9.7e-4,-1.15835 -1.26922,-2.09135 -2.85015,-2.09323 l -6.97697,-0.008 c -1.58096,-10e-4 -2.85317,0.92801 -2.85432,2.08637 l -0.0109,9.75768 c -9.7e-4,1.15835 1.26922,2.09448 2.85016,2.0964 l 6.97694,0.008 c 1.58098,10e-4 2.8532,-0.93118 2.85433,-2.08955 z"
       id="path1091" />
    <path
       style="fill:#e6e6e6;fill-opacity:0.95024875;stroke:#a0a0a0;stroke-width:0.83989489;stroke-miterlimit:4;stroke-dasharray:none;stroke-opacity:1"
       d="m 501.20945,497.80119 c 9.7e-4,-1.15836 -1.26923,-2.09135 -2.85019,-2.09323 l -6.97694,-0.008 c -1.58094,-10e-4 -2.85317,0.928 -2.85432,2.08633 l -0.0109,9.7577 c -9.6e-4,1.15834 1.26921,2.09451 2.85016,2.09639 l 6.97696,0.008 c 1.58095,0.001 2.85318,-0.93116 2.85433,-2.08951 z"
       id="path1089" />
    <path
       style="fill:#e6e6e6;fill-opacity:0.95024875;stroke:#a0a0a0;stroke-width:0.83989489;stroke-miterlimit:4;stroke-dasharray:none;stroke-opacity:1"
       d="m 501.19235,514.97421 c 9.7e-4,-1.15838 -1.26922,-2.09136 -2.85014,-2.09325 l -6.97699,-0.008 c -1.58096,-0.001 -2.85317,0.92801 -2.85429,2.08636 l -0.0109,9.75769 c -9.7e-4,1.15835 1.26923,2.09134 2.85018,2.09325 l 6.97694,0.008 c 1.58095,10e-4 2.85319,-0.92803 2.85434,-2.08637 z"
       id="path1087" />
    <path
       style="fill:#e6e6e6;fill-opacity:0.95024875;stroke:#a0a0a0;stroke-width:0.83989489;stroke-miterlimit:4;stroke-dasharray:none;stroke-opacity:1"
       d="m 501.23175,532.72362 c 9.7e-4,-1.15835 -1.26921,-2.09135 -2.85015,-2.09323 l -6.97698,-0.008 c -1.58095,-10e-4 -2.85316,0.92801 -2.85431,2.08637 l -0.0109,9.75768 c -9.7e-4,1.15835 1.26922,2.09448 2.85017,2.0964 l 6.97695,0.008 c 1.58096,10e-4 2.85318,-0.93118 2.85432,-2.08955 z"
       id="path1085" />
    <path
       style="fill:#e6e6e6;fill-opacity:0.95024875;stroke:#a0a0a0;stroke-width:0.83989489;stroke-miterlimit:4;stroke-dasharray:none;stroke-opacity:1"
       d="m 482.57178,497.80119 c 9.7e-4,-1.15836 -1.26923,-2.09135 -2.85018,-2.09323 l -6.97694,-0.008 c -1.58095,-10e-4 -2.85318,0.928 -2.85434,2.08633 l -0.0109,9.7577 c -9.6e-4,1.15834 1.26921,2.09451 2.85017,2.09639 l 6.97695,0.008 c 1.58094,0.001 2.85318,-0.93116 2.85433,-2.08951 z"
       id="path1083" />
    <path
       style="fill:#e6e6e6;fill-opacity:0.95024875;stroke:#a0a0a0;stroke-width:0.83989489;stroke-miterlimit:4;stroke-dasharray:none;stroke-opacity:1"
       d="m 482.55468,514.97421 c 9.7e-4,-1.15838 -1.26922,-2.09136 -2.85015,-2.09325 l -6.97699,-0.008 c -1.58095,-0.001 -2.85316,0.92801 -2.85428,2.08636 l -0.0109,9.75769 c -9.7e-4,1.15835 1.26924,2.09134 2.85018,2.09325 l 6.97694,0.008 c 1.58096,10e-4 2.85319,-0.92803 2.85435,-2.08637 z"
       id="path1081" />
    <path
       style="fill:#e6e6e6;fill-opacity:0.95024875;stroke:#a0a0a0;stroke-width:0.83989489;stroke-miterlimit:4;stroke-dasharray:none;stroke-opacity:1"
       d="m 482.59408,532.72362 c 9.7e-4,-1.15835 -1.2692,-2.09135 -2.85014,-2.09323 l -6.97697,-0.008 c -1.58096,-10e-4 -2.85316,0.92801 -2.85431,2.08637 l -0.0109,9.75768 c -9.7e-4,1.15835 1.26922,2.09448 2.85016,2.0964 l 6.97695,0.008 c 1.58097,10e-4 2.85318,-0.93118 2.85434,-2.08955 z"
       id="path1079" />
    <path
       style="fill:#e6e6e6;fill-opacity:0.95024875;stroke:#a0a0a0;stroke-width:0.83989489;stroke-miterlimit:4;stroke-dasharray:none;stroke-opacity:1"
       d="m 449.33465,497.38086 c 9.7e-4,-1.15834 -1.26921,-2.09133 -2.85015,-2.09323 l -6.97697,-0.008 c -1.58095,-10e-4 -2.85317,0.92801 -2.85432,2.08636 l -0.0109,9.75768 c -9.7e-4,1.15836 1.26919,2.0945 2.85016,2.0964 l 6.97696,0.008 c 1.58094,10e-4 2.85318,-0.93117 2.85433,-2.08952 z"
       id="path1077" />
    <path
       style="fill:#e6e6e6;fill-opacity:0.95024875;stroke:#a0a0a0;stroke-width:0.83989489;stroke-miterlimit:4;stroke-dasharray:none;stroke-opacity:1"
       d="m 449.31755,514.55389 c 9.7e-4,-1.15838 -1.26921,-2.09135 -2.85016,-2.09325 l -6.97697,-0.008 c -1.58095,-10e-4 -2.85317,0.92802 -2.85431,2.08637 l -0.0109,9.75769 c -9.6e-4,1.15836 1.26924,2.09133 2.85019,2.09324 l 6.97694,0.008 c 1.58096,0.001 2.8532,-0.92801 2.85435,-2.08638 z"
       id="path1075" />
    <path
       style="fill:#e6e6e6;fill-opacity:0.95024875;stroke:#a0a0a0;stroke-width:0.83989489;stroke-miterlimit:4;stroke-dasharray:none;stroke-opacity:1"
       d="m 449.35695,532.3033 c 9.7e-4,-1.15835 -1.26922,-2.09134 -2.85015,-2.09324 l -6.97698,-0.008 c -1.58096,-10e-4 -2.85317,0.92802 -2.85431,2.08638 l -0.0109,9.75769 c -9.8e-4,1.15835 1.26923,2.09447 2.85018,2.09638 l 6.97693,0.008 c 1.58095,10e-4 2.85318,-0.93117 2.85433,-2.08954 z"
       id="path1073" />
    <path
       style="fill:#e6e6e6;fill-opacity:0.95024875;stroke:#a0a0a0;stroke-width:0.83989489;stroke-miterlimit:4;stroke-dasharray:none;stroke-opacity:1"
       d="m 417.02939,497.80119 c 9.7e-4,-1.15836 -1.26922,-2.09135 -2.85017,-2.09323 l -6.97694,-0.008 c -1.58095,-10e-4 -2.85317,0.928 -2.85433,2.08633 l -0.0109,9.7577 c -9.6e-4,1.15834 1.2692,2.09451 2.85016,2.09639 l 6.97694,0.008 c 1.58095,0.001 2.85318,-0.93116 2.85432,-2.08951 z"
       id="path1071" />
    <path
       style="fill:#e6e6e6;fill-opacity:0.95024875;stroke:#a0a0a0;stroke-width:0.83989489;stroke-miterlimit:4;stroke-dasharray:none;stroke-opacity:1"
       d="m 417.01229,514.97421 c 9.7e-4,-1.15838 -1.26923,-2.09136 -2.85015,-2.09325 l -6.97696,-0.008 c -1.58097,-0.001 -2.85318,0.92801 -2.85431,2.08636 l -0.0109,9.75769 c -9.7e-4,1.15835 1.26921,2.09134 2.85016,2.09325 l 6.97693,0.008 c 1.58098,10e-4 2.85322,-0.92803 2.85435,-2.08637 z"
       id="path1069" />
    <path
       style="fill:#e6e6e6;fill-opacity:0.95024875;stroke:#a0a0a0;stroke-width:0.83989489;stroke-miterlimit:4;stroke-dasharray:none;stroke-opacity:1"
       d="m 417.05159,532.72362 c 9.7e-4,-1.15835 -1.2692,-2.09135 -2.85013,-2.09323 l -6.97697,-0.008 c -1.58096,-10e-4 -2.85316,0.92801 -2.8543,2.08637 l -0.0109,9.75768 c -9.8e-4,1.15835 1.26922,2.09448 2.85016,2.0964 l 6.97693,0.008 c 1.58096,10e-4 2.85319,-0.93118 2.85433,-2.08955 z"
       id="path1067" />
    <path
       style="fill:#e6e6e6;fill-opacity:0.95024875;stroke:#a0a0a0;stroke-width:0.83989489;stroke-miterlimit:4;stroke-dasharray:none;stroke-opacity:1"
       d="m 398.39164,497.80119 c 9.7e-4,-1.15836 -1.26921,-2.09135 -2.85017,-2.09323 l -6.97696,-0.008 c -1.58094,-10e-4 -2.85317,0.928 -2.85431,2.08633 l -0.0109,9.7577 c -9.7e-4,1.15834 1.26919,2.09451 2.85016,2.09639 l 6.97694,0.008 c 1.58096,0.001 2.85319,-0.93116 2.85435,-2.08951 z"
       id="path1065" />
    <path
       style="fill:#e6e6e6;fill-opacity:0.95024875;stroke:#a0a0a0;stroke-width:0.83989489;stroke-miterlimit:4;stroke-dasharray:none;stroke-opacity:1"
       d="m 398.37454,514.97421 c 9.7e-4,-1.15838 -1.26921,-2.09136 -2.85016,-2.09325 l -6.97697,-0.008 c -1.58095,-0.001 -2.85316,0.92801 -2.8543,2.08636 l -0.0109,9.75769 c -9.7e-4,1.15835 1.26922,2.09134 2.85016,2.09325 l 6.97694,0.008 c 1.58098,10e-4 2.85322,-0.92803 2.85436,-2.08637 z"
       id="path1063" />
    <path
       style="fill:#e6e6e6;fill-opacity:0.95024875;stroke:#a0a0a0;stroke-width:0.83989489;stroke-miterlimit:4;stroke-dasharray:none;stroke-opacity:1"
       d="m 398.41394,532.72362 c 9.7e-4,-1.15835 -1.26921,-2.09135 -2.85014,-2.09323 l -6.97699,-0.008 c -1.58096,-10e-4 -2.85316,0.92801 -2.8543,2.08637 l -0.0109,9.75768 c -9.8e-4,1.15835 1.26922,2.09448 2.85016,2.0964 l 6.97695,0.008 c 1.58096,10e-4 2.85318,-0.93118 2.85432,-2.08955 z"
       id="path1061" />
    <path
       style="fill:#e6e6e6;fill-opacity:0.95024875;stroke:#a0a0a0;stroke-width:0.83989489;stroke-miterlimit:4;stroke-dasharray:none;stroke-opacity:1"
       d="m 379.75396,497.80119 c 9.7e-4,-1.15836 -1.26921,-2.09135 -2.85019,-2.09323 l -6.97694,-0.008 c -1.58094,-10e-4 -2.85317,0.928 -2.85431,2.08633 l -0.0109,9.7577 c -9.7e-4,1.15834 1.26919,2.09451 2.85014,2.09639 l 6.97697,0.008 c 1.58095,0.001 2.85318,-0.93116 2.85433,-2.08951 z"
       id="path1059" />
    <path
       style="fill:#e6e6e6;fill-opacity:0.95024875;stroke:#a0a0a0;stroke-width:0.83989489;stroke-miterlimit:4;stroke-dasharray:none;stroke-opacity:1"
       d="m 379.73686,514.97421 c 9.7e-4,-1.15838 -1.26922,-2.09136 -2.85015,-2.09325 l -6.97698,-0.008 c -1.58097,-0.001 -2.85316,0.92801 -2.8543,2.08636 l -0.0109,9.75769 c -9.7e-4,1.15835 1.26922,2.09134 2.85018,2.09325 l 6.97694,0.008 c 1.58095,10e-4 2.85319,-0.92803 2.85434,-2.08637 z"
       id="path1057" />
    <path
       style="fill:#e6e6e6;fill-opacity:0.95024875;stroke:#a0a0a0;stroke-width:0.83989489;stroke-miterlimit:4;stroke-dasharray:none;stroke-opacity:1"
       d="m 379.77626,532.72362 c 9.7e-4,-1.15835 -1.26921,-2.09135 -2.85015,-2.09323 l -6.97699,-0.008 c -1.58095,-10e-4 -2.85315,0.92801 -2.8543,2.08637 l -0.0109,9.75768 c -9.8e-4,1.15835 1.26921,2.09448 2.85016,2.0964 l 6.97695,0.008 c 1.58096,10e-4 2.85318,-0.93118 2.85432,-2.08955 z"
       id="path1055" />
    <path
       style="fill:#e6e6e6;fill-opacity:0.95024875;stroke:#a0a0a0;stroke-width:0.83989489;stroke-miterlimit:4;stroke-dasharray:none;stroke-opacity:1"
       d="m 361.11841,497.80119 c 9.8e-4,-1.15836 -1.26922,-2.09135 -2.85016,-2.09323 l -6.97695,-0.008 c -1.58095,-10e-4 -2.85317,0.928 -2.85432,2.08633 l -0.0109,9.7577 c -9.7e-4,1.15834 1.26919,2.09451 2.85016,2.09639 l 6.97697,0.008 c 1.58094,0.001 2.85318,-0.93116 2.85431,-2.08951 z"
       id="path1053" />
    <path
       style="fill:#e6e6e6;fill-opacity:0.95024875;stroke:#a0a0a0;stroke-width:0.83989489;stroke-miterlimit:4;stroke-dasharray:none;stroke-opacity:1"
       d="m 361.10131,514.97421 c 9.8e-4,-1.15838 -1.26922,-2.09136 -2.85016,-2.09325 l -6.97698,-0.008 c -1.58095,-0.001 -2.85316,0.92801 -2.85429,2.08636 l -0.0109,9.75769 c -9.7e-4,1.15835 1.26924,2.09134 2.85019,2.09325 l 6.97693,0.008 c 1.58097,10e-4 2.85321,-0.92803 2.85436,-2.08637 z"
       id="path1051" />
    <path
       style="fill:#e6e6e6;fill-opacity:0.95024875;stroke:#a0a0a0;stroke-width:0.83989489;stroke-miterlimit:4;stroke-dasharray:none;stroke-opacity:1"
       d="m 361.14061,532.72362 c 9.7e-4,-1.15835 -1.26919,-2.09135 -2.85014,-2.09323 l -6.97697,-0.008 c -1.58096,-10e-4 -2.85316,0.92801 -2.85431,2.08637 l -0.0109,9.75768 c -9.6e-4,1.15835 1.26924,2.09448 2.85018,2.0964 l 6.97692,0.008 c 1.58096,10e-4 2.8532,-0.93118 2.85436,-2.08955 z"
       id="path1049" />
    <path
       style="fill:#e6e6e6;fill-opacity:0.95024875;stroke:#a0a0a0;stroke-width:0.83989489;stroke-miterlimit:4;stroke-dasharray:none;stroke-opacity:1"
       d="m 342.48065,497.80119 c 9.7e-4,-1.15836 -1.26924,-2.09135 -2.85018,-2.09323 l -6.97695,-0.008 c -1.58096,-10e-4 -2.85316,0.928 -2.85432,2.08633 l -0.0109,9.7577 c -9.7e-4,1.15834 1.2692,2.09451 2.85016,2.09639 l 6.97695,0.008 c 1.58095,0.001 2.85319,-0.93116 2.85434,-2.08951 z"
       id="path1047" />
    <path
       style="fill:#e6e6e6;fill-opacity:0.95024875;stroke:#a0a0a0;stroke-width:0.83989489;stroke-miterlimit:4;stroke-dasharray:none;stroke-opacity:1"
       d="m 342.46355,514.97421 c 9.7e-4,-1.15838 -1.26923,-2.09136 -2.85018,-2.09325 l -6.97696,-0.008 c -1.58097,-0.001 -2.85316,0.92801 -2.8543,2.08636 l -0.0109,9.75769 c -9.6e-4,1.15835 1.26923,2.09134 2.85017,2.09325 l 6.97694,0.008 c 1.58098,10e-4 2.85321,-0.92803 2.85435,-2.08637 z"
       id="path1045" />
    <path
       style="fill:#e6e6e6;fill-opacity:0.95024875;stroke:#a0a0a0;stroke-width:0.83989489;stroke-miterlimit:4;stroke-dasharray:none;stroke-opacity:1"
       d="m 342.50285,532.72362 c 9.7e-4,-1.15835 -1.26919,-2.09135 -2.85014,-2.09323 l -6.97698,-0.008 c -1.58095,-10e-4 -2.85317,0.92801 -2.85431,2.08637 l -0.0109,9.75768 c -9.7e-4,1.15835 1.26923,2.09448 2.85017,2.0964 l 6.97693,0.008 c 1.58097,10e-4 2.85319,-0.93118 2.85435,-2.08955 z"
       id="path1043" />
    <path
       style="fill:#e6e6e6;fill-opacity:0.95024875;stroke:#a0a0a0;stroke-width:0.83989489;stroke-miterlimit:4;stroke-dasharray:none;stroke-opacity:1"
       d="m 610.95769,460.53273 c 9.8e-4,-1.15835 -1.26921,-2.09135 -2.85012,-2.09325 l -6.97698,-0.008 c -1.58098,-0.001 -2.85318,0.92801 -2.85432,2.08638 l -0.0109,9.75769 c -9.7e-4,1.15835 1.26923,2.09447 2.85018,2.09638 l 6.97694,0.008 c 1.58095,10e-4 2.85317,-0.93116 2.85432,-2.08953 z"
       id="path1041" />
    <path
       style="fill:#e6e6e6;fill-opacity:0.95024875;stroke:#a0a0a0;stroke-width:0.83989489;stroke-miterlimit:4;stroke-dasharray:none;stroke-opacity:1"
       d="m 610.91829,442.78331 c 9.8e-4,-1.15839 -1.2692,-2.09135 -2.85013,-2.09325 l -6.97699,-0.008 c -1.58096,-10e-4 -2.85317,0.92802 -2.8543,2.08637 l -0.0109,9.75769 c -9.8e-4,1.15834 1.26922,2.09132 2.85018,2.09323 l 6.97694,0.008 c 1.58096,0.001 2.85317,-0.92801 2.85434,-2.08638 z"
       id="path1039" />
    <path
       style="fill:#e6e6e6;fill-opacity:0.95024875;stroke:#a0a0a0;stroke-width:0.83989489;stroke-miterlimit:4;stroke-dasharray:none;stroke-opacity:1"
       d="m 610.93539,425.61028 c 9.8e-4,-1.15834 -1.26921,-2.09134 -2.85016,-2.09322 l -6.97696,-0.008 c -1.58095,-10e-4 -2.85317,0.92801 -2.85433,2.08636 l -0.0109,9.75768 c -9.7e-4,1.15835 1.2692,2.0945 2.85018,2.09639 l 6.97694,0.008 c 1.58094,10e-4 2.85318,-0.93116 2.85434,-2.08951 z"
       id="path1037" />
    <path
       style="fill:#e6e6e6;fill-opacity:0.95024875;stroke:#a0a0a0;stroke-width:0.83989489;stroke-miterlimit:4;stroke-dasharray:none;stroke-opacity:1"
       d="m 629.59536,460.53273 c 9.8e-4,-1.15835 -1.2692,-2.09135 -2.85012,-2.09325 l -6.97699,-0.008 c -1.58096,-0.001 -2.85317,0.92801 -2.85432,2.08638 l -0.0109,9.75769 c -9.7e-4,1.15835 1.26921,2.09447 2.85018,2.09638 l 6.97694,0.008 c 1.58095,10e-4 2.85317,-0.93116 2.85432,-2.08953 z"
       id="path1035" />
    <path
       style="fill:#e6e6e6;fill-opacity:0.95024875;stroke:#a0a0a0;stroke-width:0.83989489;stroke-miterlimit:4;stroke-dasharray:none;stroke-opacity:1"
       d="m 629.55596,442.78331 c 9.8e-4,-1.15839 -1.26921,-2.09135 -2.85015,-2.09325 l -6.97698,-0.008 c -1.58096,-10e-4 -2.85317,0.92802 -2.8543,2.08637 l -0.0109,9.75769 c -9.8e-4,1.15834 1.26921,2.09132 2.85016,2.09323 l 6.97696,0.008 c 1.58095,0.001 2.85318,-0.92801 2.85433,-2.08638 z"
       id="path1033" />
    <path
       style="fill:#e6e6e6;fill-opacity:0.95024875;stroke:#a0a0a0;stroke-width:0.83989489;stroke-miterlimit:4;stroke-dasharray:none;stroke-opacity:1"
       d="m 629.57306,425.61028 c 9.8e-4,-1.15834 -1.26922,-2.09134 -2.85018,-2.09322 l -6.97695,-0.008 c -1.58095,-10e-4 -2.85316,0.92801 -2.85433,2.08636 l -0.0109,9.75768 c -9.7e-4,1.15835 1.26921,2.0945 2.85017,2.09639 l 6.97694,0.008 c 1.58095,10e-4 2.85319,-0.93116 2.85435,-2.08951 z"
       id="path1031" />
    <path
       style="fill:#e6e6e6;fill-opacity:0.95024875;stroke:#a0a0a0;stroke-width:0.83989489;stroke-miterlimit:4;stroke-dasharray:none;stroke-opacity:1"
       d="m 648.23301,460.53273 c 9.8e-4,-1.15835 -1.26919,-2.09135 -2.85013,-2.09325 l -6.97697,-0.008 c -1.58097,-0.001 -2.85316,0.92801 -2.85431,2.08638 l -0.0109,9.75769 c -9.7e-4,1.15835 1.26922,2.09447 2.85017,2.09638 l 6.97694,0.008 c 1.58098,10e-4 2.85319,-0.93116 2.85435,-2.08953 z"
       id="path1029" />
    <path
       style="fill:#e6e6e6;fill-opacity:0.95024875;stroke:#a0a0a0;stroke-width:0.83989489;stroke-miterlimit:4;stroke-dasharray:none;stroke-opacity:1"
       d="m 648.19361,442.78331 c 9.8e-4,-1.15839 -1.26922,-2.09135 -2.85015,-2.09325 l -6.97697,-0.008 c -1.58097,-10e-4 -2.85317,0.92802 -2.85429,2.08637 l -0.0109,9.75769 c -9.8e-4,1.15834 1.26922,2.09132 2.85017,2.09323 l 6.97694,0.008 c 1.58096,0.001 2.85319,-0.92801 2.85435,-2.08638 z"
       id="path1027" />
    <path
       style="fill:#e6e6e6;fill-opacity:0.95024875;stroke:#a0a0a0;stroke-width:0.83989489;stroke-miterlimit:4;stroke-dasharray:none;stroke-opacity:1"
       d="m 648.21071,425.61028 c 9.8e-4,-1.15834 -1.26922,-2.09134 -2.85017,-2.09322 l -6.97696,-0.008 c -1.58095,-10e-4 -2.85317,0.92801 -2.85433,2.08636 l -0.0109,9.75768 c -9.7e-4,1.15835 1.26919,2.0945 2.85017,2.09639 l 6.97695,0.008 c 1.58095,10e-4 2.85318,-0.93116 2.85433,-2.08951 z"
       id="path1025" />
    <path
       style="fill:#e6e6e6;fill-opacity:0.95024875;stroke:#a0a0a0;stroke-width:0.83989489;stroke-miterlimit:4;stroke-dasharray:none;stroke-opacity:1"
       d="m 666.87067,460.53273 c 9.8e-4,-1.15835 -1.2692,-2.09135 -2.85013,-2.09325 l -6.97697,-0.008 c -1.58098,-0.001 -2.85317,0.92801 -2.85432,2.08638 l -0.0109,9.75769 c -9.7e-4,1.15835 1.26921,2.09447 2.85017,2.09638 l 6.97695,0.008 c 1.58095,10e-4 2.85318,-0.93116 2.85432,-2.08953 z"
       id="path1023" />
    <path
       style="fill:#e6e6e6;fill-opacity:0.95024875;stroke:#a0a0a0;stroke-width:0.83989489;stroke-miterlimit:4;stroke-dasharray:none;stroke-opacity:1"
       d="m 666.83127,442.78331 c 9.8e-4,-1.15839 -1.26922,-2.09135 -2.85014,-2.09325 l -6.97698,-0.008 c -1.58097,-10e-4 -2.85317,0.92802 -2.85431,2.08637 l -0.0109,9.75769 c -9.8e-4,1.15834 1.26921,2.09132 2.85018,2.09323 l 6.97694,0.008 c 1.58095,0.001 2.85318,-0.92801 2.85434,-2.08638 z"
       id="path1021" />
    <path
       style="fill:#e6e6e6;fill-opacity:0.95024875;stroke:#a0a0a0;stroke-width:0.83989489;stroke-miterlimit:4;stroke-dasharray:none;stroke-opacity:1"
       d="m 666.84837,425.61028 c 9.8e-4,-1.15834 -1.26922,-2.09134 -2.85017,-2.09322 l -6.97696,-0.008 c -1.58095,-10e-4 -2.85317,0.92801 -2.85432,2.08636 l -0.0109,9.75768 c -9.7e-4,1.15835 1.26919,2.0945 2.85016,2.09639 l 6.97696,0.008 c 1.58095,10e-4 2.85318,-0.93116 2.85433,-2.08951 z"
       id="path1019" />
    <path
       style="fill:#e6e6e6;fill-opacity:0.95024875;stroke:#a0a0a0;stroke-width:0.83989489;stroke-miterlimit:4;stroke-dasharray:none;stroke-opacity:1"
       d="m 685.50839,460.53273 c 9.8e-4,-1.15835 -1.2692,-2.09135 -2.85013,-2.09325 l -6.97698,-0.008 c -1.58098,-0.001 -2.85318,0.92801 -2.85433,2.08638 l -0.0109,9.75769 c -9.7e-4,1.15835 1.2692,2.09447 2.85017,2.09638 l 6.97695,0.008 c 1.58095,10e-4 2.85318,-0.93116 2.85433,-2.08953 z"
       id="path1017" />
    <path
       style="fill:#e6e6e6;fill-opacity:0.95024875;stroke:#a0a0a0;stroke-width:0.83989489;stroke-miterlimit:4;stroke-dasharray:none;stroke-opacity:1"
       d="m 685.46909,442.78331 c 9.8e-4,-1.15839 -1.26922,-2.09135 -2.85017,-2.09325 l -6.97698,-0.008 c -1.58096,-10e-4 -2.85317,0.92802 -2.8543,2.08637 l -0.0109,9.75769 c -9.8e-4,1.15834 1.26922,2.09132 2.85017,2.09323 l 6.97694,0.008 c 1.58099,0.001 2.8532,-0.92801 2.85436,-2.08638 z"
       id="path1015" />
    <path
       style="fill:#e6e6e6;fill-opacity:0.95024875;stroke:#a0a0a0;stroke-width:0.83989489;stroke-miterlimit:4;stroke-dasharray:none;stroke-opacity:1"
       d="m 685.48619,425.61028 c 9.8e-4,-1.15834 -1.26923,-2.09134 -2.8502,-2.09322 l -6.97695,-0.008 c -1.58094,-10e-4 -2.85317,0.92801 -2.85432,2.08636 l -0.0109,9.75768 c -9.8e-4,1.15835 1.2692,2.0945 2.85015,2.09639 l 6.97696,0.008 c 1.58097,10e-4 2.85319,-0.93116 2.85436,-2.08951 z"
       id="path1013" />
    <path
       style="fill:#e6e6e6;fill-opacity:0.95024875;stroke:#a0a0a0;stroke-width:0.83989489;stroke-miterlimit:4;stroke-dasharray:none;stroke-opacity:1"
       d="m 610.95808,531.98806 c 9.7e-4,-1.15837 -1.26921,-2.09136 -2.85015,-2.09323 l -6.97697,-0.008 c -1.58097,-10e-4 -2.85317,0.92801 -2.85432,2.08637 l -0.0109,9.75768 c -9.6e-4,1.15837 1.26924,2.09449 2.85019,2.0964 l 6.97693,0.008 c 1.58096,10e-4 2.85319,-0.93118 2.85433,-2.08955 z"
       id="path1011" />
    <path
       style="fill:#e6e6e6;fill-opacity:0.95024875;stroke:#a0a0a0;stroke-width:0.83989489;stroke-miterlimit:4;stroke-dasharray:none;stroke-opacity:1"
       d="m 610.91868,514.23864 c 9.7e-4,-1.15837 -1.26921,-2.09136 -2.85016,-2.09325 l -6.97697,-0.008 c -1.58095,-10e-4 -2.85317,0.92801 -2.85431,2.08637 l -0.0109,9.75768 c -9.6e-4,1.15835 1.26923,2.09134 2.85018,2.09325 l 6.97694,0.008 c 1.58097,0.001 2.85318,-0.92804 2.85435,-2.08637 z"
       id="path1009" />
    <path
       style="fill:#e6e6e6;fill-opacity:0.95024875;stroke:#a0a0a0;stroke-width:0.83989489;stroke-miterlimit:4;stroke-dasharray:none;stroke-opacity:1"
       d="m 610.93578,497.0656 c 9.7e-4,-1.15833 -1.26922,-2.09133 -2.85017,-2.09321 l -6.97696,-0.008 c -1.58095,-10e-4 -2.85317,0.92801 -2.85431,2.08634 l -0.0109,9.7577 c -9.7e-4,1.15834 1.2692,2.0945 2.85017,2.09639 l 6.97695,0.008 c 1.58094,10e-4 2.85318,-0.93115 2.85433,-2.08951 z"
       id="path1007" />
    <path
       style="fill:#e6e6e6;fill-opacity:0.95024875;stroke:#a0a0a0;stroke-width:0.83989489;stroke-miterlimit:4;stroke-dasharray:none;stroke-opacity:1"
       d="m 629.59576,531.98806 c 9.7e-4,-1.15837 -1.26921,-2.09136 -2.85016,-2.09323 l -6.97696,-0.008 c -1.58095,-10e-4 -2.85317,0.92801 -2.85432,2.08637 l -0.0109,9.75768 c -9.6e-4,1.15837 1.26924,2.09449 2.85018,2.0964 l 6.97693,0.008 c 1.58098,10e-4 2.8532,-0.93118 2.85434,-2.08955 z"
       id="path1005" />
    <path
       style="fill:#e6e6e6;fill-opacity:0.95024875;stroke:#a0a0a0;stroke-width:0.83989489;stroke-miterlimit:4;stroke-dasharray:none;stroke-opacity:1"
       d="m 629.55626,514.23864 c 9.7e-4,-1.15837 -1.26922,-2.09136 -2.85016,-2.09325 l -6.97697,-0.008 c -1.58096,-10e-4 -2.85318,0.92801 -2.8543,2.08637 l -0.0109,9.75768 c -9.7e-4,1.15835 1.26921,2.09134 2.85015,2.09325 l 6.97695,0.008 c 1.58097,0.001 2.85319,-0.92804 2.85435,-2.08637 z"
       id="path1003" />
    <path
       style="fill:#e6e6e6;fill-opacity:0.95024875;stroke:#a0a0a0;stroke-width:0.83989489;stroke-miterlimit:4;stroke-dasharray:none;stroke-opacity:1"
       d="m 629.57336,497.0656 c 9.6e-4,-1.15833 -1.26923,-2.09133 -2.85018,-2.09321 l -6.97696,-0.008 c -1.58095,-10e-4 -2.85316,0.92801 -2.85433,2.08634 l -0.0109,9.7577 c -9.7e-4,1.15834 1.26921,2.0945 2.85017,2.09639 l 6.97694,0.008 c 1.58095,10e-4 2.85319,-0.93115 2.85435,-2.08951 z"
       id="path1001" />
    <path
       style="fill:#e6e6e6;fill-opacity:0.95024875;stroke:#a0a0a0;stroke-width:0.83989489;stroke-miterlimit:4;stroke-dasharray:none;stroke-opacity:1"
       d="m 648.23332,531.98806 c 9.7e-4,-1.15837 -1.2692,-2.09136 -2.85014,-2.09323 l -6.97697,-0.008 c -1.58097,-10e-4 -2.85318,0.92801 -2.85432,2.08637 l -0.0109,9.75768 c -9.8e-4,1.15837 1.26922,2.09449 2.85016,2.0964 l 6.97693,0.008 c 1.58099,10e-4 2.85318,-0.93118 2.85435,-2.08955 z"
       id="path999" />
    <path
       style="fill:#e6e6e6;fill-opacity:0.95024875;stroke:#a0a0a0;stroke-width:0.83989489;stroke-miterlimit:4;stroke-dasharray:none;stroke-opacity:1"
       d="m 648.19392,514.23864 c 9.7e-4,-1.15837 -1.26922,-2.09136 -2.85016,-2.09325 l -6.97698,-0.008 c -1.58096,-10e-4 -2.85316,0.92801 -2.85429,2.08637 l -0.0109,9.75768 c -9.7e-4,1.15835 1.26923,2.09134 2.85018,2.09325 l 6.97694,0.008 c 1.58096,0.001 2.85318,-0.92804 2.85435,-2.08637 z"
       id="path997" />
    <path
       style="fill:#e6e6e6;fill-opacity:0.95024875;stroke:#a0a0a0;stroke-width:0.83989489;stroke-miterlimit:4;stroke-dasharray:none;stroke-opacity:1"
       d="m 648.21102,497.0656 c 9.7e-4,-1.15833 -1.26922,-2.09133 -2.85017,-2.09321 l -6.97697,-0.008 c -1.58093,-10e-4 -2.85316,0.92801 -2.85432,2.08634 l -0.0109,9.7577 c -9.7e-4,1.15834 1.2692,2.0945 2.85015,2.09639 l 6.97697,0.008 c 1.58094,10e-4 2.85318,-0.93115 2.85433,-2.08951 z"
       id="path995" />
    <path
       style="fill:#e6e6e6;fill-opacity:0.95024875;stroke:#a0a0a0;stroke-width:0.83989489;stroke-miterlimit:4;stroke-dasharray:none;stroke-opacity:1"
       d="m 666.87098,531.98806 c 9.7e-4,-1.15837 -1.26919,-2.09136 -2.85013,-2.09323 l -6.97699,-0.008 c -1.58095,-10e-4 -2.85316,0.92801 -2.8543,2.08637 l -0.0109,9.75768 c -9.8e-4,1.15837 1.26921,2.09449 2.85015,2.0964 l 6.97695,0.008 c 1.58097,10e-4 2.85318,-0.93118 2.85433,-2.08955 z"
       id="path993" />
    <path
       style="fill:#e6e6e6;fill-opacity:0.95024875;stroke:#a0a0a0;stroke-width:0.83989489;stroke-miterlimit:4;stroke-dasharray:none;stroke-opacity:1"
       d="m 666.83158,514.23864 c 9.7e-4,-1.15837 -1.26922,-2.09136 -2.85016,-2.09325 l -6.97697,-0.008 c -1.58097,-10e-4 -2.85317,0.92801 -2.8543,2.08637 l -0.0109,9.75768 c -9.8e-4,1.15835 1.26922,2.09134 2.85016,2.09325 l 6.97695,0.008 c 1.58096,0.001 2.85318,-0.92804 2.85435,-2.08637 z"
       id="path991" />
    <path
       style="fill:#e6e6e6;fill-opacity:0.95024875;stroke:#a0a0a0;stroke-width:0.83989489;stroke-miterlimit:4;stroke-dasharray:none;stroke-opacity:1"
       d="m 666.84868,497.0656 c 9.7e-4,-1.15833 -1.26923,-2.09133 -2.85019,-2.09321 l -6.97694,-0.008 c -1.58094,-10e-4 -2.85317,0.92801 -2.85432,2.08634 l -0.0109,9.7577 c -9.7e-4,1.15834 1.2692,2.0945 2.85015,2.09639 l 6.97697,0.008 c 1.58094,10e-4 2.85318,-0.93115 2.85433,-2.08951 z"
       id="path989" />
    <path
       style="fill:#e6e6e6;fill-opacity:0.95024875;stroke:#a0a0a0;stroke-width:0.83989489;stroke-miterlimit:4;stroke-dasharray:none;stroke-opacity:1"
       d="m 685.50871,531.98806 c 9.7e-4,-1.15837 -1.26921,-2.09136 -2.85015,-2.09323 l -6.97698,-0.008 c -1.58097,-10e-4 -2.85317,0.92801 -2.85431,2.08637 l -0.0109,9.75768 c -9.7e-4,1.15837 1.26922,2.09449 2.85017,2.0964 l 6.97695,0.008 c 1.58097,10e-4 2.85319,-0.93118 2.85433,-2.08955 z"
       id="path987" />
    <path
       style="fill:#e6e6e6;fill-opacity:0.95024875;stroke:#a0a0a0;stroke-width:0.83989489;stroke-miterlimit:4;stroke-dasharray:none;stroke-opacity:1"
       d="m 685.46931,514.23864 c 9.7e-4,-1.15837 -1.26922,-2.09136 -2.85018,-2.09325 l -6.97697,-0.008 c -1.58095,-10e-4 -2.85317,0.92801 -2.8543,2.08637 l -0.0109,9.75768 c -9.7e-4,1.15835 1.26923,2.09134 2.85017,2.09325 l 6.97695,0.008 c 1.58097,0.001 2.8532,-0.92804 2.85435,-2.08637 z"
       id="path985" />
    <path
       style="fill:#e6e6e6;fill-opacity:0.95024875;stroke:#a0a0a0;stroke-width:0.83989489;stroke-miterlimit:4;stroke-dasharray:none;stroke-opacity:1"
       d="m 685.48641,497.0656 c 9.6e-4,-1.15833 -1.26924,-2.09133 -2.85021,-2.09321 l -6.97695,-0.008 c -1.58094,-10e-4 -2.85317,0.92801 -2.85431,2.08634 l -0.0109,9.7577 c -9.7e-4,1.15834 1.2692,2.0945 2.85016,2.09639 l 6.97695,0.008 c 1.58096,10e-4 2.8532,-0.93115 2.85436,-2.08951 z"
       id="path1642-1-2" />
  </g>
  <g
     inkscape:groupmode="layer"
     id="layer3"
     inkscape:label="kontur"
     transform="translate(0,-383)">
    <path
       inkscape:connector-curvature="0"
       id="path3468-6-4"
       style="fill:#f9f9f9;stroke:#a0a0a0;stroke-width:0.98456407;stroke-linecap:butt;stroke-linejoin:miter;stroke-miterlimit:4;stroke-dasharray:none;stroke-opacity:1"
       d="m 435.11568,560.96346 -7.79216,2.00607 m -1.10883,-8.62126 c 0.10764,8.44 1.7524,8.63181 1.7524,8.63181 m 8.40753,-10.65897 c 0.10764,8.43998 -1.26292,8.6318 -1.26292,8.6318 m 29.42242,-0.0992 -7.79216,2.0061 m -1.10883,-8.62127 c 0.10764,8.43998 1.7524,8.63179 1.7524,8.63179 m 8.40753,-10.65895 c 0.10764,8.43998 -1.26292,8.6318 -1.26292,8.6318 m 234.73288,-7.55854 -7.79216,2.00608 m -1.10883,-8.62127 c 0.10764,8.44 1.7524,8.63182 1.7524,8.63182 m 8.40753,-10.65898 c 0.10764,8.43998 -1.26291,8.6318 -1.26291,8.6318 m -0.52235,-139.79095 -7.79216,-2.0061 m -1.10883,8.62126 c 0.10764,-8.43998 1.75241,-8.63179 1.75241,-8.63179 m 8.40753,10.65897 c 0.10764,-8.44 -1.26292,-8.63182 -1.26292,-8.63182 m -8.89702,134.23901 c 7.35793,7.39486 -148.9299,3.67609 -223.39484,5.51413 M 689.83571,420.09833 c 7.35793,-7.39485 -148.92988,-3.67607 -223.39483,-5.51412 m 234.62149,130.58891 c -11.1121,2.55958 -11.22666,2.55958 -11.22666,2.55958 m 11.22666,-125.07477 c -11.1121,-2.5596 -11.22666,-2.5596 -11.22666,-2.5596 m 106.08558,63.8172 c -3.37859,24.43072 -53.84377,53.56101 -94.85892,61.25759 m 94.85892,-61.25759 c -3.37859,-24.43074 -53.84377,-53.56104 -94.85892,-61.2576 m -236.59699,-16.18297 -7.79216,-2.00608 m -1.10883,8.62126 c 0.10764,-8.44 1.75241,-8.63181 1.75241,-8.63181 m 8.40753,10.65897 c 0.10763,-8.43998 -1.26292,-8.63179 -1.26292,-8.63179 m -28.94718,-0.25515 -7.79216,-2.00608 m -1.10883,8.62127 c 0.10764,-8.43998 1.7524,-8.63182 1.7524,-8.63182 m 8.40753,10.65896 c 0.10764,-8.43997 -1.26292,-8.63178 -1.26292,-8.63178 m -9.65891,147.00592 -296.3099,-0.16653 M 425.85136,413.98211 129.54145,413.81559 m 324.99179,139.43124 h -28.6819 m 28.68191,-139.26472 h -28.68189 m 40.58951,139.26472 -9.81317,-0.0131 -2.09446,0.0131 m 11.90764,-138.66262 -11.90763,-0.6021 M 17.847351,571.29395 c -1.835559,4.0169 -3.686405,7.21327 -6.196651,6.75407 -2.0415155,-0.37346 -4.5191535,-3.16472 -7.7793902,-9.89871 M 17.389111,393.2192 c -3.328353,-7.28374 -6.706992,-11.86952 -13.9760415,3.14465 m 34.1382165,116.7907 c -19.933055,58.1394 -19.703935,58.1394 -19.703935,58.1394 M 11.893568,484.50142 4.1004162,570.56264 M 3.8254775,393.95053 11.893568,484.50142 m 26.706691,-28.7505 C 18.438084,395.78325 17.389111,393.2192 17.389111,393.2192 M 129.54144,553.08037 C 75.722137,536.7095 17.932637,507.14719 11.893568,484.50142 M 129.54145,413.81566 C 75.722151,430.68946 17.932637,461.15992 11.893568,484.50142 m 128.556822,76.50463 -7.79216,2.00607 m -1.78926,-10.32776 c 0.10764,8.44 2.43283,10.3383 2.43283,10.3383 m 8.40753,-10.65896 c 0.10764,8.43997 -1.26291,8.6318 -1.26291,8.6318 m 0.0883,-155.18813 -7.79216,-2.00609 m -1.78926,10.32774 c 0.10764,-8.43999 2.43284,-10.33828 2.43284,-10.33828 m 8.40752,10.65896 c 0.10764,-8.44 -1.26291,-8.63181 -1.26291,-8.63181"
       sodipodi:nodetypes="cccccccccccccccccccccccccccccccccccccccccccccccccccccccccccccccccccccccccccccccccccccccccc" />
    <path
       style="fill:#f9f9f9;fill-opacity:0.95024875;stroke:#a0a0a0;stroke-width:0.02956125;stroke-miterlimit:4;stroke-dasharray:none;stroke-opacity:1"
       d="m 79.932966,480.20781 v -3.38816 l 0.656169,0.0449 c 1.1159,0.0764 1.854194,0.29924 1.917852,0.57881 0.103562,0.45484 0.789807,4.90174 0.763102,4.94495 -0.01772,0.0287 -0.203866,0.16675 -0.413662,0.30685 -0.636467,0.42501 -1.507424,0.70867 -2.653209,0.8641 l -0.270252,0.0367 z"
       id="path913"
       inkscape:connector-curvature="0" />
    <path
       style="fill:#f9f9f9;fill-opacity:0.95024875;stroke:#a0a0a0;stroke-width:0.02956125;stroke-miterlimit:4;stroke-dasharray:none;stroke-opacity:1"
       d="m 14.786303,483.46038 c -0.951593,-0.13713 -2.078422,-0.5648 -2.540451,-0.96419 l -0.24999,-0.2161 0.3992,-2.47364 c 0.21956,-1.3605 0.414724,-2.49876 0.433698,-2.52946 0.129563,-0.20964 1.338845,-0.48653 2.124844,-0.48653 h 0.436792 v 3.37021 c 0,3.17028 -0.0066,3.36974 -0.111281,3.36245 -0.0612,-0.004 -0.28297,-0.0325 -0.492812,-0.0627 z"
       id="path915"
       inkscape:connector-curvature="0" />
    <path
       style="fill:#f9f9f9;fill-opacity:0.95024875;stroke:#a0a0a0;stroke-width:0.02956125;stroke-miterlimit:4;stroke-dasharray:none;stroke-opacity:1"
       d="m 14.722714,247.38414 c -1.175713,-0.13979 -2.019805,-0.35214 -2.299216,-0.57842 l -0.137198,-0.11111 0.407265,-2.50502 c 0.223996,-1.37776 0.437736,-2.54173 0.474978,-2.5866 0.233396,-0.28123 2.543223,-0.63879 2.538159,-0.39291 -9e-4,0.0437 -0.04309,1.29562 -0.09375,2.78201 -0.05066,1.48638 -0.09285,2.86706 -0.09375,3.06815 l -0.0016,0.36564 -0.302046,-0.01 c -0.166126,-0.005 -0.387892,-0.0197 -0.492813,-0.0322 z"
       id="path917"
       inkscape:connector-curvature="0" />
    <path
       style="fill:#f9f9f9;fill-opacity:0.95024875;stroke:#a0a0a0;stroke-width:0.02956125;stroke-miterlimit:4;stroke-dasharray:none;stroke-opacity:1"
       d="m 79.996555,244.20922 v -3.15306 l 0.492813,0.0438 c 1.103064,0.098 1.819473,0.30565 1.92186,0.55702 0.03166,0.0777 0.217713,1.15715 0.413453,2.39872 0.19574,1.24157 0.371255,2.33524 0.390033,2.43038 0.02857,0.14473 -3.62e-4,0.19423 -0.177159,0.3031 -0.460519,0.2836 -1.809419,0.56855 -2.707159,0.57189 l -0.333841,10e-4 z"
       id="path919"
       inkscape:connector-curvature="0" />
  </g>
  <path
     style="fill:#f9f9f9;fill-opacity:0.95024875;stroke:#a0a0a0;stroke-width:0.02956125;stroke-miterlimit:4;stroke-dasharray:none;stroke-opacity:1"
     d="m 77.359937,-306.58014 c -0.09325,-0.41822 -0.862362,-6.04463 -0.830617,-6.07637 0.02061,-0.0206 0.35849,-0.005 0.750835,0.0348 0.746725,0.0757 1.504901,0.27263 1.630085,0.42347 0.04044,0.0487 0.25606,1.21469 0.479164,2.59104 l 0.405645,2.50245 -0.137705,0.10983 c -0.187359,0.14945 -0.830677,0.35951 -1.426106,0.46568 -0.712913,0.12711 -0.833175,0.12008 -0.871301,-0.0509 z"
     id="path921"
     inkscape:connector-curvature="0" />
  <path
     style="fill:#f9f9f9;fill-opacity:0.95024875;stroke:#a0a0a0;stroke-width:0.02956125;stroke-miterlimit:4;stroke-dasharray:none;stroke-opacity:1"
     d="m 17.584207,-306.069 c -0.687543,-0.0745 -1.253716,-0.21138 -1.697325,-0.41046 -0.28898,-0.12969 -0.369309,-0.19637 -0.369309,-0.30658 0,-0.0775 0.17169,-1.20102 0.381532,-2.49678 0.209843,-1.29577 0.381533,-2.3868 0.381533,-2.42453 0,-0.10875 0.483889,-0.32677 0.944675,-0.42562 0.232366,-0.0498 0.773016,-0.10936 1.201445,-0.13226 0.646723,-0.0346 0.778587,-0.0265 0.776755,0.0477 -0.0012,0.0491 -0.194817,1.43101 -0.43023,3.07088 -0.380117,2.64788 -0.442145,2.99005 -0.554195,3.05718 -0.09103,0.0545 -0.267869,0.0602 -0.634881,0.0205 z"
     id="path923"
     inkscape:connector-curvature="0" />
</svg>
