<?xml version="1.0" encoding="UTF-8" standalone="no"?>
<!-- Created with Inkscape (http://www.inkscape.org/) -->

<svg
   xmlns:dc="http://purl.org/dc/elements/1.1/"
   xmlns:cc="http://creativecommons.org/ns#"
   xmlns:rdf="http://www.w3.org/1999/02/22-rdf-syntax-ns#"
   xmlns:svg="http://www.w3.org/2000/svg"
   xmlns="http://www.w3.org/2000/svg"
   xmlns:sodipodi="http://sodipodi.sourceforge.net/DTD/sodipodi-0.dtd"
   xmlns:inkscape="http://www.inkscape.org/namespaces/inkscape"
   version="1.1"
   id="mediumbag"
   width="300"
   height="380"
   viewBox="0 0 300 380"
   sodipodi:docname="1.svg"
   inkscape:version="0.92.4 (5da689c313, 2019-01-14)">
  <metadata
     id="metadata821">
    <rdf:RDF>
      <cc:Work
         rdf:about="">
        <dc:format>image/svg+xml</dc:format>
        <dc:type
           rdf:resource="http://purl.org/dc/dcmitype/StillImage" />
        <dc:title></dc:title>
      </cc:Work>
    </rdf:RDF>
  </metadata>
  <defs
     id="defs819" />
  <sodipodi:namedview
     pagecolor="#ffffff"
     bordercolor="#666666"
     borderopacity="1"
     objecttolerance="10"
     gridtolerance="10"
     guidetolerance="10"
     inkscape:pageopacity="0"
     inkscape:pageshadow="2"
     inkscape:window-width="1920"
     inkscape:window-height="1001"
     id="namedview817"
     showgrid="false"
     inkscape:zoom="3.03"
     inkscape:cx="174.10891"
     inkscape:cy="236.82783"
     inkscape:window-x="2391"
     inkscape:window-y="-9"
     inkscape:window-maximized="1"
     inkscape:current-layer="layer1"
     showguides="true">
    <inkscape:grid
       type="xygrid"
       id="grid827" />
  </sodipodi:namedview>
  <g
     inkscape:groupmode="layer"
     id="layer1"
     inkscape:label="midiumbag"
     transform="translate(0,-153.33332)">
    <path
       style="fill:#cccccc;fill-opacity:0.94901961;stroke:#a0a0a0;stroke-width:0.37421063;stroke-miterlimit:4;stroke-dasharray:none;stroke-opacity:1"
       d=""
       id="path895"
       inkscape:connector-curvature="0" />
    <path
       style="fill:#cccccc;fill-opacity:0.94901961;stroke:#a0a0a0;stroke-width:0.37421063;stroke-miterlimit:4;stroke-dasharray:none;stroke-opacity:1"
       d=""
       id="path897"
       inkscape:connector-curvature="0" />
    <path
       style="fill:#cccccc;fill-opacity:0.94901961;stroke:#a0a0a0;stroke-width:0.37421063;stroke-miterlimit:4;stroke-dasharray:none;stroke-opacity:1"
       d=""
       id="path903"
       inkscape:connector-curvature="0" />
    <path
       style="fill:#cccccc;fill-opacity:0.94901961;stroke:#a0a0a0;stroke-width:0.37421063;stroke-miterlimit:4;stroke-dasharray:none;stroke-opacity:1"
       d=""
       id="path911"
       inkscape:connector-curvature="0" />
    <path
       style="fill:#cccccc;fill-opacity:0.94901961;stroke:#a0a0a0;stroke-width:0.37421063;stroke-miterlimit:4;stroke-dasharray:none;stroke-opacity:1"
       d=""
       id="path923"
       inkscape:connector-curvature="0" />
    <path
       style="fill:#cccccc;fill-opacity:0.94901961;stroke:#a0a0a0;stroke-width:0.18710531;stroke-miterlimit:4;stroke-dasharray:none;stroke-opacity:1"
       d=""
       id="path931"
       inkscape:connector-curvature="0" />
    <path
       id="mediumbag"
       style="fill:none;stroke:#000000;stroke-width:0.98328531px;stroke-linecap:butt;stroke-linejoin:miter;stroke-opacity:1"
       d="m 211.95259,305.22428 c -1.05905,-0.27057 0.0651,0.20716 0.0651,0.20716 -59.75825,-14.35629 -107.42682,-0.31669 -107.42381,-0.20716 m 1.48263,180.88671 c 61.34644,15.67301 111.51254,-3.85328 111.50943,-3.96473 M 104.59389,305.22428 c -8.491372,64.94431 -11.269192,134.32514 1.48262,180.88671 M 211.95244,305.22428 c 8.245,62.35343 9.96378,121.62415 5.63336,176.92198 m -7.17475,-184.44142 c -1.23558,-0.28231 0.0757,0.21614 0.0757,0.21614 -69.71883,-14.97935 -125.332952,-0.33043 -125.329412,-0.21614 m 1.729986,188.73709 c 71.571786,16.35323 130.099686,-4.0205 130.096076,-4.1368 M 85.157548,297.70484 c -9.906746,67.76285 -13.147546,140.1548 1.729776,188.73709 M 210.41102,297.70484 c 9.61931,65.05954 11.62459,126.90256 6.57235,184.60028 m -60.41369,-191.34777 0.60105,-84.31361 -13.48038,-0.15115 -17.77314,-0.19928 -0.30052,85.156 m -7.81333,1.01244 0.90154,-93.17717 m 45.37474,93.47081 -0.60095,-93.46062 h -44.77085 m 38.46289,7.34898 6.49234,0.0776 m -37.74586,-0.42803 c -7.09071,0.0564 -7.09071,0.18024 -7.09071,0.18024 m 82.85248,174.13869 -83.87562,0.19828 m -28.098082,-18.3979 c -12.381156,20.07124 -8.090106,37.71226 -1.502584,55.01849 m 5.045694,-54.97114 c -12.381156,20.07122 -8.09011,37.71221 -1.50258,55.01847 m 1.50258,-55.01847 -3.54311,-0.0474 m 2.04053,55.06583 -3.543114,-0.0472"
       inkscape:connector-curvature="0"
       sodipodi:nodetypes="cccccccccccccccccccccccccccccccccccccccccc" />
  </g>
  <g
     inkscape:groupmode="layer"
     id="layer2"
     inkscape:label="bigbag"
     style="display:inline"
     transform="translate(0,-153.33332)" />
</svg>
