<?xml version="1.0" encoding="UTF-8" standalone="no"?>
<!-- Created with Inkscape (http://www.inkscape.org/) -->

<svg
   xmlns:dc="http://purl.org/dc/elements/1.1/"
   xmlns:cc="http://creativecommons.org/ns#"
   xmlns:rdf="http://www.w3.org/1999/02/22-rdf-syntax-ns#"
   xmlns:svg="http://www.w3.org/2000/svg"
   xmlns="http://www.w3.org/2000/svg"
   xmlns:sodipodi="http://sodipodi.sourceforge.net/DTD/sodipodi-0.dtd"
   xmlns:inkscape="http://www.inkscape.org/namespaces/inkscape"
   version="1.1"
   id="svg4175"
   width="96"
   height="583"
   viewBox="0 0 96 583"
   sodipodi:docname="boeing737.svg"
   inkscape:version="0.92.4 (5da689c313, 2019-01-14)">
  <metadata
     id="metadata4181">
    <rdf:RDF>
      <cc:Work
         rdf:about="">
        <dc:format>image/svg+xml</dc:format>
        <dc:type
           rdf:resource="http://purl.org/dc/dcmitype/StillImage" />
        <dc:title />
      </cc:Work>
    </rdf:RDF>
  </metadata>
  <defs
     id="defs4179" />
  <sodipodi:namedview
     pagecolor="#ffffff"
     bordercolor="#666666"
     borderopacity="1"
     objecttolerance="10"
     gridtolerance="10"
     guidetolerance="10"
     inkscape:pageopacity="0"
     inkscape:pageshadow="2"
     inkscape:window-width="1920"
     inkscape:window-height="1001"
     id="namedview4177"
     showgrid="false"
     inkscape:zoom="5.56"
     inkscape:cx="-7.7408858"
     inkscape:cy="433.65617"
     inkscape:window-x="-9"
     inkscape:window-y="-9"
     inkscape:window-maximized="1"
     inkscape:current-layer="layer3" />
  <g
     inkscape:groupmode="layer"
     id="seats"
     inkscape:label="siedzenia">
    <path
       style="fill:#e6e6e6;fill-opacity:0.95024875;stroke:#a0a0a0;stroke-width:0.4648819;stroke-miterlimit:4;stroke-dasharray:none;stroke-opacity:1"
       d="m 20.205005,391.51724 c -0.55116,-7.4e-4 -0.9951,0.8172 -0.996,1.83511 l -0.004,4.49218 c -9.2e-4,1.01791 0.44157,1.83704 0.99273,1.83778 l 4.64292,0.007 c 0.55117,7.4e-4 0.99661,-0.81718 0.99751,-1.8351 l 0.004,-4.49218 c 9.2e-4,-1.01791 -0.44307,-1.83705 -0.99424,-1.83779 z"
       id="path1712" />
    <path
       style="fill:#e6e6e6;fill-opacity:0.95024875;stroke:#a0a0a0;stroke-width:0.4648819;stroke-miterlimit:4;stroke-dasharray:none;stroke-opacity:1"
       d="m 28.376305,391.52824 c -0.55118,-7.4e-4 -0.99511,0.8172 -0.99601,1.8351 l -0.004,4.49219 c -9.3e-4,1.01792 0.44157,1.83704 0.99274,1.83777 l 4.642919,0.007 c 0.55117,7.3e-4 0.9951,-0.8172 0.99601,-1.83511 l 0.004,-4.49217 c 9.2e-4,-1.01792 -0.44157,-1.83706 -0.99274,-1.8378 z"
       id="path1710" />
    <path
       style="fill:#e6e6e6;fill-opacity:0.95024875;stroke:#a0a0a0;stroke-width:0.4648819;stroke-miterlimit:4;stroke-dasharray:none;stroke-opacity:1"
       d="m 36.821864,391.50284 c -0.55117,-7.4e-4 -0.99511,0.81719 -0.99601,1.83509 l -0.004,4.49219 c -9.3e-4,1.01792 0.44157,1.83704 0.99274,1.83778 l 4.64292,0.007 c 0.55117,7.5e-4 0.9966,-0.8172 0.99751,-1.83511 l 0.004,-4.49217 c 9.2e-4,-1.01792 -0.44307,-1.83705 -0.99425,-1.83779 z"
       id="path1708" />
    <path
       style="fill:#e6e6e6;fill-opacity:0.95024875;stroke:#a0a0a0;stroke-width:0.4648819;stroke-miterlimit:4;stroke-dasharray:none;stroke-opacity:1"
       d="m 20.205005,403.51724 c -0.55116,-7.4e-4 -0.9951,0.8172 -0.996,1.83511 l -0.004,4.49218 c -9.2e-4,1.01791 0.44157,1.83704 0.99273,1.83778 l 4.64292,0.007 c 0.55117,7.4e-4 0.99661,-0.81718 0.99751,-1.8351 l 0.004,-4.49218 c 9.2e-4,-1.01791 -0.44307,-1.83705 -0.99424,-1.83779 z"
       id="path1706" />
    <path
       style="fill:#e6e6e6;fill-opacity:0.95024875;stroke:#a0a0a0;stroke-width:0.4648819;stroke-miterlimit:4;stroke-dasharray:none;stroke-opacity:1"
       d="m 28.376305,403.52824 c -0.55118,-7.4e-4 -0.99511,0.8172 -0.99601,1.8351 l -0.004,4.49219 c -9.3e-4,1.01792 0.44157,1.83704 0.99274,1.83777 l 4.642919,0.007 c 0.55117,7.3e-4 0.9951,-0.8172 0.99601,-1.83511 l 0.004,-4.49217 c 9.2e-4,-1.01792 -0.44157,-1.83706 -0.99274,-1.8378 z"
       id="path1704" />
    <path
       style="fill:#e6e6e6;fill-opacity:0.95024875;stroke:#a0a0a0;stroke-width:0.4648819;stroke-miterlimit:4;stroke-dasharray:none;stroke-opacity:1"
       d="m 36.821864,403.50284 c -0.55117,-7.4e-4 -0.99511,0.81719 -0.99601,1.83509 l -0.004,4.49219 c -9.3e-4,1.01792 0.44157,1.83704 0.99274,1.83778 l 4.64292,0.007 c 0.55117,7.5e-4 0.9966,-0.8172 0.99751,-1.83511 l 0.004,-4.49217 c 9.2e-4,-1.01792 -0.44307,-1.83705 -0.99425,-1.83779 z"
       id="path1702" />
    <path
       style="fill:#e6e6e6;fill-opacity:0.95024875;stroke:#a0a0a0;stroke-width:0.4648819;stroke-miterlimit:4;stroke-dasharray:none;stroke-opacity:1"
       d="m 20.205005,415.51724 c -0.55116,-7.4e-4 -0.9951,0.8172 -0.996,1.83511 l -0.004,4.49218 c -9.2e-4,1.01791 0.44157,1.83704 0.99273,1.83778 l 4.64292,0.007 c 0.55117,7.4e-4 0.99661,-0.81718 0.99751,-1.8351 l 0.004,-4.49218 c 9.2e-4,-1.01791 -0.44307,-1.83705 -0.99424,-1.83779 z"
       id="path1700" />
    <path
       style="fill:#e6e6e6;fill-opacity:0.95024875;stroke:#a0a0a0;stroke-width:0.4648819;stroke-miterlimit:4;stroke-dasharray:none;stroke-opacity:1"
       d="m 28.376305,415.52824 c -0.55118,-7.4e-4 -0.99511,0.8172 -0.99601,1.8351 l -0.004,4.49219 c -9.3e-4,1.01792 0.44157,1.83704 0.99274,1.83777 l 4.642919,0.007 c 0.55117,7.3e-4 0.9951,-0.8172 0.99601,-1.83511 l 0.004,-4.49217 c 9.2e-4,-1.01792 -0.44157,-1.83706 -0.99274,-1.8378 z"
       id="path1698" />
    <path
       style="fill:#e6e6e6;fill-opacity:0.95024875;stroke:#a0a0a0;stroke-width:0.4648819;stroke-miterlimit:4;stroke-dasharray:none;stroke-opacity:1"
       d="m 36.821864,415.50284 c -0.55117,-7.4e-4 -0.99511,0.81719 -0.99601,1.83509 l -0.004,4.49219 c -9.3e-4,1.01792 0.44157,1.83704 0.99274,1.83778 l 4.64292,0.007 c 0.55117,7.5e-4 0.9966,-0.8172 0.99751,-1.83511 l 0.004,-4.49217 c 9.2e-4,-1.01792 -0.44307,-1.83705 -0.99425,-1.83779 z"
       id="path1696" />
    <path
       style="fill:#e6e6e6;fill-opacity:0.95024875;stroke:#a0a0a0;stroke-width:0.4648819;stroke-miterlimit:4;stroke-dasharray:none;stroke-opacity:1"
       d="m 20.205005,427.51724 c -0.55116,-7.4e-4 -0.9951,0.8172 -0.996,1.83511 l -0.004,4.49218 c -9.2e-4,1.01791 0.44157,1.83704 0.99273,1.83778 l 4.64292,0.007 c 0.55117,7.4e-4 0.99661,-0.81718 0.99751,-1.8351 l 0.004,-4.49218 c 9.2e-4,-1.01791 -0.44307,-1.83705 -0.99424,-1.83779 z"
       id="path1694" />
    <path
       style="fill:#e6e6e6;fill-opacity:0.95024875;stroke:#a0a0a0;stroke-width:0.4648819;stroke-miterlimit:4;stroke-dasharray:none;stroke-opacity:1"
       d="m 28.376305,427.52824 c -0.55118,-7.4e-4 -0.99511,0.8172 -0.99601,1.8351 l -0.004,4.49219 c -9.3e-4,1.01792 0.44157,1.83704 0.99274,1.83777 l 4.642919,0.007 c 0.55117,7.3e-4 0.9951,-0.8172 0.99601,-1.83511 l 0.004,-4.49217 c 9.2e-4,-1.01792 -0.44157,-1.83706 -0.99274,-1.8378 z"
       id="path1692" />
    <path
       style="fill:#e6e6e6;fill-opacity:0.95024875;stroke:#a0a0a0;stroke-width:0.4648819;stroke-miterlimit:4;stroke-dasharray:none;stroke-opacity:1"
       d="m 36.821864,427.50284 c -0.55117,-7.4e-4 -0.99511,0.81719 -0.99601,1.83509 l -0.004,4.49219 c -9.3e-4,1.01792 0.44157,1.83704 0.99274,1.83778 l 4.64292,0.007 c 0.55117,7.5e-4 0.9966,-0.8172 0.99751,-1.83511 l 0.004,-4.49217 c 9.2e-4,-1.01792 -0.44307,-1.83705 -0.99425,-1.83779 z"
       id="path1690" />
    <path
       style="fill:#e6e6e6;fill-opacity:0.95024875;stroke:#a0a0a0;stroke-width:0.4648819;stroke-miterlimit:4;stroke-dasharray:none;stroke-opacity:1"
       d="m 20.205005,439.51724 c -0.55116,-7.4e-4 -0.9951,0.8172 -0.996,1.83511 l -0.004,4.49218 c -9.2e-4,1.01791 0.44157,1.83704 0.99273,1.83778 l 4.64292,0.007 c 0.55117,7.4e-4 0.99661,-0.81718 0.99751,-1.8351 l 0.004,-4.49218 c 9.2e-4,-1.01791 -0.44307,-1.83705 -0.99424,-1.83779 z"
       id="path1688" />
    <path
       style="fill:#e6e6e6;fill-opacity:0.95024875;stroke:#a0a0a0;stroke-width:0.4648819;stroke-miterlimit:4;stroke-dasharray:none;stroke-opacity:1"
       d="m 28.376305,439.52824 c -0.55118,-7.4e-4 -0.99511,0.8172 -0.99601,1.8351 l -0.004,4.49219 c -9.3e-4,1.01792 0.44157,1.83704 0.99274,1.83777 l 4.642919,0.007 c 0.55117,7.3e-4 0.9951,-0.8172 0.99601,-1.83511 l 0.004,-4.49217 c 9.2e-4,-1.01792 -0.44157,-1.83706 -0.99274,-1.8378 z"
       id="path1686" />
    <path
       style="fill:#e6e6e6;fill-opacity:0.95024875;stroke:#a0a0a0;stroke-width:0.4648819;stroke-miterlimit:4;stroke-dasharray:none;stroke-opacity:1"
       d="m 36.821864,439.50284 c -0.55117,-7.4e-4 -0.99511,0.81719 -0.99601,1.83509 l -0.004,4.49219 c -9.3e-4,1.01792 0.44157,1.83704 0.99274,1.83778 l 4.64292,0.007 c 0.55117,7.5e-4 0.9966,-0.8172 0.99751,-1.83511 l 0.004,-4.49217 c 9.2e-4,-1.01792 -0.44307,-1.83705 -0.99425,-1.83779 z"
       id="path1684" />
    <path
       style="fill:#e6e6e6;fill-opacity:0.95024875;stroke:#a0a0a0;stroke-width:0.4648819;stroke-miterlimit:4;stroke-dasharray:none;stroke-opacity:1"
       d="m 20.205005,331.51724 c -0.55116,-7.4e-4 -0.9951,0.8172 -0.996,1.83511 l -0.004,4.49218 c -9.2e-4,1.01791 0.44157,1.83704 0.99273,1.83778 l 4.64292,0.007 c 0.55117,7.4e-4 0.99661,-0.81718 0.99751,-1.8351 l 0.004,-4.49218 c 9.2e-4,-1.01791 -0.44307,-1.83705 -0.99424,-1.83779 z"
       id="path1682" />
    <path
       style="fill:#e6e6e6;fill-opacity:0.95024875;stroke:#a0a0a0;stroke-width:0.4648819;stroke-miterlimit:4;stroke-dasharray:none;stroke-opacity:1"
       d="m 28.376305,331.52824 c -0.55118,-7.4e-4 -0.99511,0.8172 -0.99601,1.8351 l -0.004,4.49219 c -9.3e-4,1.01792 0.44157,1.83704 0.99274,1.83777 l 4.642918,0.007 c 0.55117,7.3e-4 0.9951,-0.8172 0.99601,-1.83511 l 0.004,-4.49217 c 9.2e-4,-1.01792 -0.44157,-1.83706 -0.99274,-1.8378 z"
       id="path1680" />
    <path
       style="fill:#e6e6e6;fill-opacity:0.95024875;stroke:#a0a0a0;stroke-width:0.4648819;stroke-miterlimit:4;stroke-dasharray:none;stroke-opacity:1"
       d="m 36.821863,331.50284 c -0.55117,-7.4e-4 -0.99511,0.81719 -0.99601,1.83509 l -0.004,4.49219 c -9.3e-4,1.01792 0.44157,1.83704 0.99274,1.83778 l 4.64292,0.007 c 0.55117,7.5e-4 0.9966,-0.8172 0.99751,-1.83511 l 0.004,-4.49217 c 9.2e-4,-1.01792 -0.44307,-1.83705 -0.99425,-1.83779 z"
       id="path1678" />
    <path
       style="fill:#e6e6e6;fill-opacity:0.95024875;stroke:#a0a0a0;stroke-width:0.4648819;stroke-miterlimit:4;stroke-dasharray:none;stroke-opacity:1"
       d="m 20.205005,343.51724 c -0.55116,-7.4e-4 -0.9951,0.8172 -0.996,1.83511 l -0.004,4.49218 c -9.2e-4,1.01791 0.44157,1.83704 0.99273,1.83778 l 4.64292,0.007 c 0.55117,7.4e-4 0.99661,-0.81718 0.99751,-1.8351 l 0.004,-4.49218 c 9.2e-4,-1.01791 -0.44307,-1.83705 -0.99424,-1.83779 z"
       id="path1676" />
    <path
       style="fill:#e6e6e6;fill-opacity:0.95024875;stroke:#a0a0a0;stroke-width:0.4648819;stroke-miterlimit:4;stroke-dasharray:none;stroke-opacity:1"
       d="m 28.376305,343.52824 c -0.55118,-7.4e-4 -0.99511,0.8172 -0.99601,1.8351 l -0.004,4.49219 c -9.3e-4,1.01792 0.44157,1.83704 0.99274,1.83777 l 4.642918,0.007 c 0.55117,7.3e-4 0.9951,-0.8172 0.99601,-1.83511 l 0.004,-4.49217 c 9.2e-4,-1.01792 -0.44157,-1.83706 -0.99274,-1.8378 z"
       id="path1674" />
    <path
       style="fill:#e6e6e6;fill-opacity:0.95024875;stroke:#a0a0a0;stroke-width:0.4648819;stroke-miterlimit:4;stroke-dasharray:none;stroke-opacity:1"
       d="m 36.821863,343.50284 c -0.55117,-7.4e-4 -0.99511,0.81719 -0.99601,1.83509 l -0.004,4.49219 c -9.3e-4,1.01792 0.44157,1.83704 0.99274,1.83778 l 4.64292,0.007 c 0.55117,7.5e-4 0.9966,-0.8172 0.99751,-1.83511 l 0.004,-4.49217 c 9.2e-4,-1.01792 -0.44307,-1.83705 -0.99425,-1.83779 z"
       id="path1672" />
    <path
       style="fill:#e6e6e6;fill-opacity:0.95024875;stroke:#a0a0a0;stroke-width:0.4648819;stroke-miterlimit:4;stroke-dasharray:none;stroke-opacity:1"
       d="m 20.205005,355.51724 c -0.55116,-7.4e-4 -0.9951,0.8172 -0.996,1.83511 l -0.004,4.49218 c -9.2e-4,1.01791 0.44157,1.83704 0.99273,1.83778 l 4.64292,0.007 c 0.55117,7.4e-4 0.99661,-0.81718 0.99751,-1.8351 l 0.004,-4.49218 c 9.2e-4,-1.01791 -0.44307,-1.83705 -0.99424,-1.83779 z"
       id="path1670" />
    <path
       style="fill:#e6e6e6;fill-opacity:0.95024875;stroke:#a0a0a0;stroke-width:0.4648819;stroke-miterlimit:4;stroke-dasharray:none;stroke-opacity:1"
       d="m 28.376305,355.52824 c -0.55118,-7.4e-4 -0.99511,0.8172 -0.99601,1.8351 l -0.004,4.49219 c -9.3e-4,1.01792 0.44157,1.83704 0.99274,1.83777 l 4.642918,0.007 c 0.55117,7.3e-4 0.9951,-0.8172 0.99601,-1.83511 l 0.004,-4.49217 c 9.2e-4,-1.01792 -0.44157,-1.83706 -0.99274,-1.8378 z"
       id="path1668" />
    <path
       style="fill:#e6e6e6;fill-opacity:0.95024875;stroke:#a0a0a0;stroke-width:0.4648819;stroke-miterlimit:4;stroke-dasharray:none;stroke-opacity:1"
       d="m 36.821863,355.50284 c -0.55117,-7.4e-4 -0.99511,0.81719 -0.99601,1.83509 l -0.004,4.49219 c -9.3e-4,1.01792 0.44157,1.83704 0.99274,1.83778 l 4.64292,0.007 c 0.55117,7.5e-4 0.9966,-0.8172 0.99751,-1.83511 l 0.004,-4.49217 c 9.2e-4,-1.01792 -0.44307,-1.83705 -0.99425,-1.83779 z"
       id="path1666" />
    <path
       style="fill:#e6e6e6;fill-opacity:0.95024875;stroke:#a0a0a0;stroke-width:0.4648819;stroke-miterlimit:4;stroke-dasharray:none;stroke-opacity:1"
       d="m 20.205005,367.51724 c -0.55116,-7.4e-4 -0.9951,0.8172 -0.996,1.83511 l -0.004,4.49218 c -9.2e-4,1.01791 0.44157,1.83704 0.99273,1.83778 l 4.64292,0.007 c 0.55117,7.4e-4 0.99661,-0.81718 0.99751,-1.8351 l 0.004,-4.49218 c 9.2e-4,-1.01791 -0.44307,-1.83705 -0.99424,-1.83779 z"
       id="path1664" />
    <path
       style="fill:#e6e6e6;fill-opacity:0.95024875;stroke:#a0a0a0;stroke-width:0.4648819;stroke-miterlimit:4;stroke-dasharray:none;stroke-opacity:1"
       d="m 28.376305,367.52824 c -0.55118,-7.4e-4 -0.99511,0.8172 -0.99601,1.8351 l -0.004,4.49219 c -9.3e-4,1.01792 0.44157,1.83704 0.99274,1.83777 l 4.642918,0.007 c 0.55117,7.3e-4 0.9951,-0.8172 0.99601,-1.83511 l 0.004,-4.49217 c 9.2e-4,-1.01792 -0.44157,-1.83706 -0.99274,-1.8378 z"
       id="path1662" />
    <path
       style="fill:#e6e6e6;fill-opacity:0.95024875;stroke:#a0a0a0;stroke-width:0.4648819;stroke-miterlimit:4;stroke-dasharray:none;stroke-opacity:1"
       d="m 36.821863,367.50284 c -0.55117,-7.4e-4 -0.99511,0.81719 -0.99601,1.83509 l -0.004,4.49219 c -9.3e-4,1.01792 0.44157,1.83704 0.99274,1.83778 l 4.64292,0.007 c 0.55117,7.5e-4 0.9966,-0.8172 0.99751,-1.83511 l 0.004,-4.49217 c 9.2e-4,-1.01792 -0.44307,-1.83705 -0.99425,-1.83779 z"
       id="path1660" />
    <path
       style="fill:#e6e6e6;fill-opacity:0.95024875;stroke:#a0a0a0;stroke-width:0.4648819;stroke-miterlimit:4;stroke-dasharray:none;stroke-opacity:1"
       d="m 20.205005,379.51724 c -0.55116,-7.4e-4 -0.9951,0.8172 -0.996,1.83511 l -0.004,4.49218 c -9.2e-4,1.01791 0.44157,1.83704 0.99273,1.83778 l 4.64292,0.007 c 0.55117,7.4e-4 0.99661,-0.81718 0.99751,-1.8351 l 0.004,-4.49218 c 9.2e-4,-1.01791 -0.44307,-1.83705 -0.99424,-1.83779 z"
       id="path1658" />
    <path
       style="fill:#e6e6e6;fill-opacity:0.95024875;stroke:#a0a0a0;stroke-width:0.4648819;stroke-miterlimit:4;stroke-dasharray:none;stroke-opacity:1"
       d="m 28.376305,379.52824 c -0.55118,-7.4e-4 -0.99511,0.8172 -0.99601,1.8351 l -0.004,4.49219 c -9.3e-4,1.01792 0.44157,1.83704 0.99274,1.83777 l 4.642918,0.007 c 0.55117,7.3e-4 0.9951,-0.8172 0.99601,-1.83511 l 0.004,-4.49217 c 9.2e-4,-1.01792 -0.44157,-1.83706 -0.99274,-1.8378 z"
       id="path1656" />
    <path
       style="fill:#e6e6e6;fill-opacity:0.95024875;stroke:#a0a0a0;stroke-width:0.4648819;stroke-miterlimit:4;stroke-dasharray:none;stroke-opacity:1"
       d="m 36.821863,379.50284 c -0.55117,-7.4e-4 -0.99511,0.81719 -0.99601,1.83509 l -0.004,4.49219 c -9.3e-4,1.01792 0.44157,1.83704 0.99274,1.83778 l 4.64292,0.007 c 0.55117,7.5e-4 0.9966,-0.8172 0.99751,-1.83511 l 0.004,-4.49217 c 9.2e-4,-1.01792 -0.44307,-1.83705 -0.99425,-1.83779 z"
       id="path1654" />
    <path
       style="fill:#e6e6e6;fill-opacity:0.95024875;stroke:#a0a0a0;stroke-width:0.4648819;stroke-miterlimit:4;stroke-dasharray:none;stroke-opacity:1"
       d="m 20.205005,166.71724 c -0.55116,-7.4e-4 -0.9951,0.8172 -0.996,1.83511 l -0.004,4.49218 c -9.2e-4,1.01791 0.44157,1.83704 0.99273,1.83778 l 4.64292,0.007 c 0.55117,7.4e-4 0.99661,-0.81718 0.99751,-1.8351 l 0.004,-4.49218 c 9.2e-4,-1.01791 -0.44307,-1.83705 -0.99424,-1.83779 z"
       id="path1622" />
    <path
       style="fill:#e6e6e6;fill-opacity:0.95024875;stroke:#a0a0a0;stroke-width:0.4648819;stroke-miterlimit:4;stroke-dasharray:none;stroke-opacity:1"
       d="m 28.376305,166.72824 c -0.55118,-7.4e-4 -0.99511,0.8172 -0.99601,1.8351 l -0.004,4.49219 c -9.3e-4,1.01792 0.44157,1.83704 0.99274,1.83777 l 4.642919,0.007 c 0.55117,7.3e-4 0.9951,-0.8172 0.99601,-1.83511 l 0.004,-4.49217 c 9.2e-4,-1.01792 -0.44157,-1.83706 -0.99274,-1.8378 z"
       id="path1620" />
    <path
       style="fill:#e6e6e6;fill-opacity:0.95024875;stroke:#a0a0a0;stroke-width:0.4648819;stroke-miterlimit:4;stroke-dasharray:none;stroke-opacity:1"
       d="m 36.821864,166.70284 c -0.55117,-7.4e-4 -0.99511,0.81719 -0.99601,1.83509 l -0.004,4.49219 c -9.3e-4,1.01792 0.44157,1.83704 0.99274,1.83778 l 4.64292,0.007 c 0.55117,7.5e-4 0.9966,-0.8172 0.99751,-1.83511 l 0.004,-4.49217 c 9.2e-4,-1.01792 -0.44307,-1.83705 -0.99425,-1.83779 z"
       id="path1618" />
    <path
       style="fill:#e6e6e6;fill-opacity:0.95024875;stroke:#a0a0a0;stroke-width:0.4648819;stroke-miterlimit:4;stroke-dasharray:none;stroke-opacity:1"
       d="m 20.005005,179.71724 c -0.55116,-7.4e-4 -0.9951,0.8172 -0.996,1.83511 l -0.004,4.49218 c -9.2e-4,1.01791 0.44157,1.83704 0.99273,1.83778 l 4.64292,0.007 c 0.55117,7.4e-4 0.99661,-0.81718 0.99751,-1.8351 l 0.004,-4.49218 c 9.2e-4,-1.01791 -0.44307,-1.83705 -0.99424,-1.83779 z"
       id="path1616" />
    <path
       style="fill:#e6e6e6;fill-opacity:0.95024875;stroke:#a0a0a0;stroke-width:0.4648819;stroke-miterlimit:4;stroke-dasharray:none;stroke-opacity:1"
       d="m 28.176305,179.72824 c -0.55118,-7.4e-4 -0.99511,0.8172 -0.99601,1.8351 l -0.004,4.49219 c -9.3e-4,1.01792 0.44157,1.83704 0.99274,1.83777 l 4.642919,0.007 c 0.55117,7.3e-4 0.9951,-0.8172 0.99601,-1.83511 l 0.004,-4.49217 c 9.2e-4,-1.01792 -0.44157,-1.83706 -0.99274,-1.8378 z"
       id="path1614" />
    <path
       style="fill:#e6e6e6;fill-opacity:0.95024875;stroke:#a0a0a0;stroke-width:0.4648819;stroke-miterlimit:4;stroke-dasharray:none;stroke-opacity:1"
       d="m 36.621864,179.70284 c -0.55117,-7.4e-4 -0.99511,0.81719 -0.99601,1.83509 l -0.004,4.49219 c -9.3e-4,1.01792 0.44157,1.83704 0.99274,1.83778 l 4.64292,0.007 c 0.55117,7.5e-4 0.9966,-0.8172 0.99751,-1.83511 l 0.004,-4.49217 c 9.2e-4,-1.01792 -0.44307,-1.83705 -0.99425,-1.83779 z"
       id="path1612" />
    <path
       style="fill:#e6e6e6;fill-opacity:0.95024875;stroke:#a0a0a0;stroke-width:0.4648819;stroke-miterlimit:4;stroke-dasharray:none;stroke-opacity:1"
       d="m 20.205005,193.11724 c -0.55116,-7.4e-4 -0.9951,0.8172 -0.996,1.83511 l -0.004,4.49218 c -9.2e-4,1.01791 0.44157,1.83704 0.99273,1.83778 l 4.64292,0.007 c 0.55117,7.4e-4 0.99661,-0.81718 0.99751,-1.8351 l 0.004,-4.49218 c 9.2e-4,-1.01791 -0.44307,-1.83705 -0.99424,-1.83779 z"
       id="path1610" />
    <path
       style="fill:#e6e6e6;fill-opacity:0.95024875;stroke:#a0a0a0;stroke-width:0.4648819;stroke-miterlimit:4;stroke-dasharray:none;stroke-opacity:1"
       d="m 28.376305,193.12824 c -0.55118,-7.4e-4 -0.99511,0.8172 -0.99601,1.8351 l -0.004,4.49219 c -9.3e-4,1.01792 0.44157,1.83704 0.99274,1.83777 l 4.642919,0.007 c 0.55117,7.3e-4 0.9951,-0.8172 0.99601,-1.83511 l 0.004,-4.49217 c 9.2e-4,-1.01792 -0.44157,-1.83706 -0.99274,-1.8378 z"
       id="path1608" />
    <path
       style="fill:#e6e6e6;fill-opacity:0.95024875;stroke:#a0a0a0;stroke-width:0.4648819;stroke-miterlimit:4;stroke-dasharray:none;stroke-opacity:1"
       d="m 36.821864,193.10284 c -0.55117,-7.4e-4 -0.99511,0.81719 -0.99601,1.83509 l -0.004,4.49219 c -9.3e-4,1.01792 0.44157,1.83704 0.99274,1.83778 l 4.64292,0.007 c 0.55117,7.5e-4 0.9966,-0.8172 0.99751,-1.83511 l 0.004,-4.49217 c 9.2e-4,-1.01792 -0.44307,-1.83705 -0.99425,-1.83779 z"
       id="path1606" />
    <path
       style="fill:#e6e6e6;fill-opacity:0.95024875;stroke:#a0a0a0;stroke-width:0.4648819;stroke-miterlimit:4;stroke-dasharray:none;stroke-opacity:1"
       d="m 20.205005,205.11724 c -0.55116,-7.4e-4 -0.9951,0.8172 -0.996,1.83511 l -0.004,4.49218 c -9.2e-4,1.01791 0.44157,1.83704 0.99273,1.83778 l 4.64292,0.007 c 0.55117,7.4e-4 0.99661,-0.81718 0.99751,-1.8351 l 0.004,-4.49218 c 9.2e-4,-1.01791 -0.44307,-1.83705 -0.99424,-1.83779 z"
       id="path1604" />
    <path
       style="fill:#e6e6e6;fill-opacity:0.95024875;stroke:#a0a0a0;stroke-width:0.4648819;stroke-miterlimit:4;stroke-dasharray:none;stroke-opacity:1"
       d="m 28.376305,205.12824 c -0.55118,-7.4e-4 -0.99511,0.8172 -0.99601,1.8351 l -0.004,4.49219 c -9.3e-4,1.01792 0.44157,1.83704 0.99274,1.83777 l 4.642919,0.007 c 0.55117,7.3e-4 0.9951,-0.8172 0.99601,-1.83511 l 0.004,-4.49217 c 9.2e-4,-1.01792 -0.44157,-1.83706 -0.99274,-1.8378 z"
       id="path1602" />
    <path
       style="fill:#e6e6e6;fill-opacity:0.95024875;stroke:#a0a0a0;stroke-width:0.4648819;stroke-miterlimit:4;stroke-dasharray:none;stroke-opacity:1"
       d="m 36.821864,205.10284 c -0.55117,-7.4e-4 -0.99511,0.81719 -0.99601,1.83509 l -0.004,4.49219 c -9.3e-4,1.01792 0.44157,1.83704 0.99274,1.83778 l 4.64292,0.007 c 0.55117,7.5e-4 0.9966,-0.8172 0.99751,-1.83511 l 0.004,-4.49217 c 9.2e-4,-1.01792 -0.44307,-1.83705 -0.99425,-1.83779 z"
       id="path1600" />
    <path
       style="fill:#e6e6e6;fill-opacity:0.95024875;stroke:#a0a0a0;stroke-width:0.4648819;stroke-miterlimit:4;stroke-dasharray:none;stroke-opacity:1"
       d="m 20.205005,217.31724 c -0.55116,-7.4e-4 -0.9951,0.8172 -0.996,1.83511 l -0.004,4.49218 c -9.2e-4,1.01791 0.44157,1.83704 0.99273,1.83778 l 4.64292,0.007 c 0.55117,7.4e-4 0.99661,-0.81718 0.99751,-1.8351 l 0.004,-4.49218 c 9.2e-4,-1.01791 -0.44307,-1.83705 -0.99424,-1.83779 z"
       id="path1598" />
    <path
       style="fill:#e6e6e6;fill-opacity:0.95024875;stroke:#a0a0a0;stroke-width:0.4648819;stroke-miterlimit:4;stroke-dasharray:none;stroke-opacity:1"
       d="m 28.376305,217.32824 c -0.55118,-7.4e-4 -0.99511,0.8172 -0.99601,1.8351 l -0.004,4.49219 c -9.3e-4,1.01792 0.44157,1.83704 0.99274,1.83777 l 4.642919,0.007 c 0.55117,7.3e-4 0.9951,-0.8172 0.99601,-1.83511 l 0.004,-4.49217 c 9.2e-4,-1.01792 -0.44157,-1.83706 -0.99274,-1.8378 z"
       id="path1596" />
    <path
       style="fill:#e6e6e6;fill-opacity:0.95024875;stroke:#a0a0a0;stroke-width:0.4648819;stroke-miterlimit:4;stroke-dasharray:none;stroke-opacity:1"
       d="m 36.821864,217.30284 c -0.55117,-7.4e-4 -0.99511,0.81719 -0.99601,1.83509 l -0.004,4.49219 c -9.3e-4,1.01792 0.44157,1.83704 0.99274,1.83778 l 4.64292,0.007 c 0.55117,7.5e-4 0.9966,-0.8172 0.99751,-1.83511 l 0.004,-4.49217 c 9.2e-4,-1.01792 -0.44307,-1.83705 -0.99425,-1.83779 z"
       id="path1594" />
    <path
       style="fill:#e6e6e6;fill-opacity:0.95024875;stroke:#a0a0a0;stroke-width:0.4648819;stroke-miterlimit:4;stroke-dasharray:none;stroke-opacity:1"
       d="m 20.205005,229.31724 c -0.55116,-7.4e-4 -0.9951,0.8172 -0.996,1.83511 l -0.004,4.49218 c -9.2e-4,1.01791 0.44157,1.83704 0.99273,1.83778 l 4.64292,0.007 c 0.55117,7.4e-4 0.99661,-0.81718 0.99751,-1.8351 l 0.004,-4.49218 c 9.2e-4,-1.01791 -0.44307,-1.83705 -0.99424,-1.83779 z"
       id="path1592" />
    <path
       style="fill:#e6e6e6;fill-opacity:0.95024875;stroke:#a0a0a0;stroke-width:0.4648819;stroke-miterlimit:4;stroke-dasharray:none;stroke-opacity:1"
       d="m 28.376305,229.32824 c -0.55118,-7.4e-4 -0.99511,0.8172 -0.99601,1.8351 l -0.004,4.49219 c -9.3e-4,1.01792 0.44157,1.83704 0.99274,1.83777 l 4.642919,0.007 c 0.55117,7.3e-4 0.9951,-0.8172 0.99601,-1.83511 l 0.004,-4.49217 c 9.2e-4,-1.01792 -0.44157,-1.83706 -0.99274,-1.8378 z"
       id="path1590" />
    <path
       style="fill:#e6e6e6;fill-opacity:0.95024875;stroke:#a0a0a0;stroke-width:0.4648819;stroke-miterlimit:4;stroke-dasharray:none;stroke-opacity:1"
       d="m 36.821864,229.30284 c -0.55117,-7.4e-4 -0.99511,0.81719 -0.99601,1.83509 l -0.004,4.49219 c -9.3e-4,1.01792 0.44157,1.83704 0.99274,1.83778 l 4.64292,0.007 c 0.55117,7.5e-4 0.9966,-0.8172 0.99751,-1.83511 l 0.004,-4.49217 c 9.2e-4,-1.01792 -0.44307,-1.83705 -0.99425,-1.83779 z"
       id="path1588" />
    <path
       style="fill:#e6e6e6;fill-opacity:0.95024875;stroke:#a0a0a0;stroke-width:0.4648819;stroke-miterlimit:4;stroke-dasharray:none;stroke-opacity:1"
       d="m 20.005005,250.71724 c -0.55116,-7.4e-4 -0.9951,0.8172 -0.996,1.83511 l -0.004,4.49218 c -9.2e-4,1.01791 0.44157,1.83704 0.99273,1.83778 l 4.64292,0.007 c 0.55117,7.4e-4 0.99661,-0.81718 0.99751,-1.8351 l 0.004,-4.49218 c 9.2e-4,-1.01791 -0.44307,-1.83705 -0.99424,-1.83779 z"
       id="path1586" />
    <path
       style="fill:#e6e6e6;fill-opacity:0.95024875;stroke:#a0a0a0;stroke-width:0.4648819;stroke-miterlimit:4;stroke-dasharray:none;stroke-opacity:1"
       d="m 28.176305,250.72824 c -0.55118,-7.4e-4 -0.99511,0.8172 -0.99601,1.8351 l -0.004,4.49219 c -9.3e-4,1.01792 0.44157,1.83704 0.99274,1.83777 l 4.642919,0.007 c 0.55117,7.3e-4 0.9951,-0.8172 0.99601,-1.83511 l 0.004,-4.49217 c 9.2e-4,-1.01792 -0.44157,-1.83706 -0.99274,-1.8378 z"
       id="path1584" />
    <path
       style="fill:#e6e6e6;fill-opacity:0.95024875;stroke:#a0a0a0;stroke-width:0.4648819;stroke-miterlimit:4;stroke-dasharray:none;stroke-opacity:1"
       d="m 36.621864,250.70284 c -0.55117,-7.4e-4 -0.99511,0.81719 -0.99601,1.83509 l -0.004,4.49219 c -9.3e-4,1.01792 0.44157,1.83704 0.99274,1.83778 l 4.64292,0.007 c 0.55117,7.5e-4 0.9966,-0.8172 0.99751,-1.83511 l 0.004,-4.49217 c 9.2e-4,-1.01792 -0.44307,-1.83705 -0.99425,-1.83779 z"
       id="path1582" />
    <path
       style="fill:#e6e6e6;fill-opacity:0.95024875;stroke:#a0a0a0;stroke-width:0.4648819;stroke-miterlimit:4;stroke-dasharray:none;stroke-opacity:1"
       d="m 20.205005,271.51724 c -0.55116,-7.4e-4 -0.9951,0.8172 -0.996,1.83511 l -0.004,4.49218 c -9.2e-4,1.01791 0.44157,1.83704 0.99273,1.83778 l 4.64292,0.007 c 0.55117,7.4e-4 0.99661,-0.81718 0.99751,-1.8351 l 0.004,-4.49218 c 9.2e-4,-1.01791 -0.44307,-1.83705 -0.99424,-1.83779 z"
       id="path1580" />
    <path
       style="fill:#e6e6e6;fill-opacity:0.95024875;stroke:#a0a0a0;stroke-width:0.4648819;stroke-miterlimit:4;stroke-dasharray:none;stroke-opacity:1"
       d="m 28.376305,271.52824 c -0.55118,-7.4e-4 -0.99511,0.8172 -0.99601,1.8351 l -0.004,4.49219 c -9.3e-4,1.01792 0.44157,1.83704 0.99274,1.83777 l 4.642919,0.007 c 0.55117,7.3e-4 0.9951,-0.8172 0.99601,-1.83511 l 0.004,-4.49217 c 9.2e-4,-1.01792 -0.44157,-1.83706 -0.99274,-1.8378 z"
       id="path1578" />
    <path
       style="fill:#e6e6e6;fill-opacity:0.95024875;stroke:#a0a0a0;stroke-width:0.4648819;stroke-miterlimit:4;stroke-dasharray:none;stroke-opacity:1"
       d="m 36.821864,271.50284 c -0.55117,-7.4e-4 -0.99511,0.81719 -0.99601,1.83509 l -0.004,4.49219 c -9.3e-4,1.01792 0.44157,1.83704 0.99274,1.83778 l 4.64292,0.007 c 0.55117,7.5e-4 0.9966,-0.8172 0.99751,-1.83511 l 0.004,-4.49217 c 9.2e-4,-1.01792 -0.44307,-1.83705 -0.99425,-1.83779 z"
       id="path1576" />
    <path
       style="fill:#e6e6e6;fill-opacity:0.95024875;stroke:#a0a0a0;stroke-width:0.4648819;stroke-miterlimit:4;stroke-dasharray:none;stroke-opacity:1"
       d="m 20.205005,283.51724 c -0.55116,-7.4e-4 -0.9951,0.8172 -0.996,1.83511 l -0.004,4.49218 c -9.2e-4,1.01791 0.44157,1.83704 0.99273,1.83778 l 4.64292,0.007 c 0.55117,7.4e-4 0.99661,-0.81718 0.99751,-1.8351 l 0.004,-4.49218 c 9.2e-4,-1.01791 -0.44307,-1.83705 -0.99424,-1.83779 z"
       id="path1574" />
    <path
       style="fill:#e6e6e6;fill-opacity:0.95024875;stroke:#a0a0a0;stroke-width:0.4648819;stroke-miterlimit:4;stroke-dasharray:none;stroke-opacity:1"
       d="m 28.376305,283.52824 c -0.55118,-7.4e-4 -0.99511,0.8172 -0.99601,1.8351 l -0.004,4.49219 c -9.3e-4,1.01792 0.44157,1.83704 0.99274,1.83777 l 4.642919,0.007 c 0.55117,7.3e-4 0.9951,-0.8172 0.99601,-1.83511 l 0.004,-4.49217 c 9.2e-4,-1.01792 -0.44157,-1.83706 -0.99274,-1.8378 z"
       id="path1572" />
    <path
       style="fill:#e6e6e6;fill-opacity:0.95024875;stroke:#a0a0a0;stroke-width:0.4648819;stroke-miterlimit:4;stroke-dasharray:none;stroke-opacity:1"
       d="m 36.821864,283.50284 c -0.55117,-7.4e-4 -0.99511,0.81719 -0.99601,1.83509 l -0.004,4.49219 c -9.3e-4,1.01792 0.44157,1.83704 0.99274,1.83778 l 4.64292,0.007 c 0.55117,7.5e-4 0.9966,-0.8172 0.99751,-1.83511 l 0.004,-4.49217 c 9.2e-4,-1.01792 -0.44307,-1.83705 -0.99425,-1.83779 z"
       id="path1570" />
    <path
       style="fill:#e6e6e6;fill-opacity:0.95024875;stroke:#a0a0a0;stroke-width:0.4648819;stroke-miterlimit:4;stroke-dasharray:none;stroke-opacity:1"
       d="m 20.205005,295.51724 c -0.55116,-7.4e-4 -0.9951,0.8172 -0.996,1.83511 l -0.004,4.49218 c -9.2e-4,1.01791 0.44157,1.83704 0.99273,1.83778 l 4.64292,0.007 c 0.55117,7.4e-4 0.99661,-0.81718 0.99751,-1.8351 l 0.004,-4.49218 c 9.2e-4,-1.01791 -0.44307,-1.83705 -0.99424,-1.83779 z"
       id="path1568" />
    <path
       style="fill:#e6e6e6;fill-opacity:0.95024875;stroke:#a0a0a0;stroke-width:0.4648819;stroke-miterlimit:4;stroke-dasharray:none;stroke-opacity:1"
       d="m 28.376305,295.52824 c -0.55118,-7.4e-4 -0.99511,0.8172 -0.99601,1.8351 l -0.004,4.49219 c -9.3e-4,1.01792 0.44157,1.83704 0.99274,1.83777 l 4.642919,0.007 c 0.55117,7.3e-4 0.9951,-0.8172 0.99601,-1.83511 l 0.004,-4.49217 c 9.2e-4,-1.01792 -0.44157,-1.83706 -0.99274,-1.8378 z"
       id="path1566" />
    <path
       style="fill:#e6e6e6;fill-opacity:0.95024875;stroke:#a0a0a0;stroke-width:0.4648819;stroke-miterlimit:4;stroke-dasharray:none;stroke-opacity:1"
       d="m 36.821864,295.50284 c -0.55117,-7.4e-4 -0.99511,0.81719 -0.99601,1.83509 l -0.004,4.49219 c -9.3e-4,1.01792 0.44157,1.83704 0.99274,1.83778 l 4.64292,0.007 c 0.55117,7.5e-4 0.9966,-0.8172 0.99751,-1.83511 l 0.004,-4.49217 c 9.2e-4,-1.01792 -0.44307,-1.83705 -0.99425,-1.83779 z"
       id="path1564" />
    <path
       style="fill:#e6e6e6;fill-opacity:0.95024875;stroke:#a0a0a0;stroke-width:0.4648819;stroke-miterlimit:4;stroke-dasharray:none;stroke-opacity:1"
       d="m 20.205005,307.51724 c -0.55116,-7.4e-4 -0.9951,0.8172 -0.996,1.83511 l -0.004,4.49218 c -9.2e-4,1.01791 0.44157,1.83704 0.99273,1.83778 l 4.64292,0.007 c 0.55117,7.4e-4 0.99661,-0.81718 0.99751,-1.8351 l 0.004,-4.49218 c 9.2e-4,-1.01791 -0.44307,-1.83705 -0.99424,-1.83779 z"
       id="path1562" />
    <path
       style="fill:#e6e6e6;fill-opacity:0.95024875;stroke:#a0a0a0;stroke-width:0.4648819;stroke-miterlimit:4;stroke-dasharray:none;stroke-opacity:1"
       d="m 28.376305,307.52824 c -0.55118,-7.4e-4 -0.99511,0.8172 -0.99601,1.8351 l -0.004,4.49219 c -9.3e-4,1.01792 0.44157,1.83704 0.99274,1.83777 l 4.642919,0.007 c 0.55117,7.3e-4 0.9951,-0.8172 0.99601,-1.83511 l 0.004,-4.49217 c 9.2e-4,-1.01792 -0.44157,-1.83706 -0.99274,-1.8378 z"
       id="path1560" />
    <path
       style="fill:#e6e6e6;fill-opacity:0.95024875;stroke:#a0a0a0;stroke-width:0.4648819;stroke-miterlimit:4;stroke-dasharray:none;stroke-opacity:1"
       d="m 36.821864,307.50284 c -0.55117,-7.4e-4 -0.99511,0.81719 -0.99601,1.83509 l -0.004,4.49219 c -9.3e-4,1.01792 0.44157,1.83704 0.99274,1.83778 l 4.64292,0.007 c 0.55117,7.5e-4 0.9966,-0.8172 0.99751,-1.83511 l 0.004,-4.49217 c 9.2e-4,-1.01792 -0.44307,-1.83705 -0.99425,-1.83779 z"
       id="path1558" />
    <path
       style="fill:#e6e6e6;fill-opacity:0.95024875;stroke:#a0a0a0;stroke-width:0.4648819;stroke-miterlimit:4;stroke-dasharray:none;stroke-opacity:1"
       d="m 20.205005,319.51724 c -0.55116,-7.4e-4 -0.9951,0.8172 -0.996,1.83511 l -0.004,4.49218 c -9.2e-4,1.01791 0.44157,1.83704 0.99273,1.83778 l 4.64292,0.007 c 0.55117,7.4e-4 0.99661,-0.81718 0.99751,-1.8351 l 0.004,-4.49218 c 9.2e-4,-1.01791 -0.44307,-1.83705 -0.99424,-1.83779 z"
       id="path1556" />
    <path
       style="fill:#e6e6e6;fill-opacity:0.95024875;stroke:#a0a0a0;stroke-width:0.4648819;stroke-miterlimit:4;stroke-dasharray:none;stroke-opacity:1"
       d="m 28.376305,319.52824 c -0.55118,-7.4e-4 -0.99511,0.8172 -0.99601,1.8351 l -0.004,4.49219 c -9.3e-4,1.01792 0.44157,1.83704 0.99274,1.83777 l 4.642919,0.007 c 0.55117,7.3e-4 0.9951,-0.8172 0.99601,-1.83511 l 0.004,-4.49217 c 9.2e-4,-1.01792 -0.44157,-1.83706 -0.99274,-1.8378 z"
       id="path1554" />
    <path
       style="fill:#e6e6e6;fill-opacity:0.95024875;stroke:#a0a0a0;stroke-width:0.4648819;stroke-miterlimit:4;stroke-dasharray:none;stroke-opacity:1"
       d="m 36.821864,319.50284 c -0.55117,-7.4e-4 -0.99511,0.81719 -0.99601,1.83509 l -0.004,4.49219 c -9.3e-4,1.01792 0.44157,1.83704 0.99274,1.83778 l 4.64292,0.007 c 0.55117,7.5e-4 0.9966,-0.8172 0.99751,-1.83511 l 0.004,-4.49217 c 9.2e-4,-1.01792 -0.44307,-1.83705 -0.99425,-1.83779 z"
       id="path992-7" />
    <path
       style="fill:#e6e6e6;fill-opacity:0.95024875;stroke:#a0a0a0;stroke-width:0.4648819;stroke-miterlimit:4;stroke-dasharray:none;stroke-opacity:1"
       d="m 54.205005,391.51723 c -0.55116,-7.4e-4 -0.9951,0.8172 -0.996,1.83511 l -0.004,4.49218 c -9.2e-4,1.01791 0.44157,1.83704 0.99273,1.83778 l 4.64292,0.007 c 0.55117,7.4e-4 0.99661,-0.81718 0.99751,-1.8351 l 0.004,-4.49218 c 9.2e-4,-1.01791 -0.44307,-1.83705 -0.99424,-1.83779 z"
       id="path1550" />
    <path
       style="fill:#e6e6e6;fill-opacity:0.95024875;stroke:#a0a0a0;stroke-width:0.4648819;stroke-miterlimit:4;stroke-dasharray:none;stroke-opacity:1"
       d="m 62.376305,391.52823 c -0.55118,-7.4e-4 -0.99511,0.8172 -0.99601,1.8351 l -0.004,4.49219 c -9.3e-4,1.01792 0.44157,1.83704 0.99274,1.83777 l 4.642919,0.007 c 0.55117,7.3e-4 0.9951,-0.8172 0.99601,-1.83511 l 0.004,-4.49217 c 9.2e-4,-1.01792 -0.44157,-1.83706 -0.99274,-1.8378 z"
       id="path1548" />
    <path
       style="fill:#e6e6e6;fill-opacity:0.95024875;stroke:#a0a0a0;stroke-width:0.4648819;stroke-miterlimit:4;stroke-dasharray:none;stroke-opacity:1"
       d="m 70.821864,391.50283 c -0.55117,-7.4e-4 -0.99511,0.81719 -0.99601,1.83509 l -0.004,4.49219 c -9.3e-4,1.01792 0.44157,1.83704 0.99274,1.83778 l 4.64292,0.007 c 0.55117,7.6e-4 0.9966,-0.8172 0.99751,-1.83511 l 0.004,-4.49216 c 9.2e-4,-1.01792 -0.44307,-1.83705 -0.99425,-1.8378 z"
       id="path1546" />
    <path
       style="fill:#e6e6e6;fill-opacity:0.95024875;stroke:#a0a0a0;stroke-width:0.4648819;stroke-miterlimit:4;stroke-dasharray:none;stroke-opacity:1"
       d="m 54.205005,403.51723 c -0.55116,-7.4e-4 -0.9951,0.8172 -0.996,1.83511 l -0.004,4.49218 c -9.2e-4,1.01791 0.44157,1.83704 0.99273,1.83778 l 4.64292,0.007 c 0.55117,7.4e-4 0.99661,-0.81718 0.99751,-1.8351 l 0.004,-4.49218 c 9.2e-4,-1.01791 -0.44307,-1.83705 -0.99424,-1.83779 z"
       id="path1544" />
    <path
       style="fill:#e6e6e6;fill-opacity:0.95024875;stroke:#a0a0a0;stroke-width:0.4648819;stroke-miterlimit:4;stroke-dasharray:none;stroke-opacity:1"
       d="m 62.376305,403.52823 c -0.55118,-7.4e-4 -0.99511,0.8172 -0.99601,1.8351 l -0.004,4.49219 c -9.3e-4,1.01792 0.44157,1.83704 0.99274,1.83777 l 4.642919,0.007 c 0.55117,7.3e-4 0.9951,-0.8172 0.99601,-1.83511 l 0.004,-4.49217 c 9.2e-4,-1.01792 -0.44157,-1.83706 -0.99274,-1.8378 z"
       id="path1542" />
    <path
       style="fill:#e6e6e6;fill-opacity:0.95024875;stroke:#a0a0a0;stroke-width:0.4648819;stroke-miterlimit:4;stroke-dasharray:none;stroke-opacity:1"
       d="m 70.821864,403.50283 c -0.55117,-7.4e-4 -0.99511,0.81719 -0.99601,1.83509 l -0.004,4.49219 c -9.3e-4,1.01792 0.44157,1.83704 0.99274,1.83778 l 4.64292,0.007 c 0.55117,7.6e-4 0.9966,-0.8172 0.99751,-1.83511 l 0.004,-4.49216 c 9.2e-4,-1.01792 -0.44307,-1.83705 -0.99425,-1.8378 z"
       id="path1540" />
    <path
       style="fill:#e6e6e6;fill-opacity:0.95024875;stroke:#a0a0a0;stroke-width:0.4648819;stroke-miterlimit:4;stroke-dasharray:none;stroke-opacity:1"
       d="m 54.205005,415.51723 c -0.55116,-7.4e-4 -0.9951,0.8172 -0.996,1.83511 l -0.004,4.49218 c -9.2e-4,1.01791 0.44157,1.83704 0.99273,1.83778 l 4.64292,0.007 c 0.55117,7.4e-4 0.99661,-0.81718 0.99751,-1.8351 l 0.004,-4.49218 c 9.2e-4,-1.01791 -0.44307,-1.83705 -0.99424,-1.83779 z"
       id="path1538" />
    <path
       style="fill:#e6e6e6;fill-opacity:0.95024875;stroke:#a0a0a0;stroke-width:0.4648819;stroke-miterlimit:4;stroke-dasharray:none;stroke-opacity:1"
       d="m 62.376305,415.52823 c -0.55118,-7.4e-4 -0.99511,0.8172 -0.99601,1.8351 l -0.004,4.49219 c -9.3e-4,1.01792 0.44157,1.83704 0.99274,1.83777 l 4.642919,0.007 c 0.55117,7.3e-4 0.9951,-0.8172 0.99601,-1.83511 l 0.004,-4.49217 c 9.2e-4,-1.01792 -0.44157,-1.83706 -0.99274,-1.8378 z"
       id="path1536" />
    <path
       style="fill:#e6e6e6;fill-opacity:0.95024875;stroke:#a0a0a0;stroke-width:0.4648819;stroke-miterlimit:4;stroke-dasharray:none;stroke-opacity:1"
       d="m 70.821864,415.50283 c -0.55117,-7.4e-4 -0.99511,0.81719 -0.99601,1.83509 l -0.004,4.49219 c -9.3e-4,1.01792 0.44157,1.83704 0.99274,1.83778 l 4.64292,0.007 c 0.55117,7.6e-4 0.9966,-0.8172 0.99751,-1.83511 l 0.004,-4.49216 c 9.2e-4,-1.01792 -0.44307,-1.83705 -0.99425,-1.8378 z"
       id="path1534" />
    <path
       style="fill:#e6e6e6;fill-opacity:0.95024875;stroke:#a0a0a0;stroke-width:0.4648819;stroke-miterlimit:4;stroke-dasharray:none;stroke-opacity:1"
       d="m 54.205005,427.51723 c -0.55116,-7.4e-4 -0.9951,0.8172 -0.996,1.83511 l -0.004,4.49218 c -9.2e-4,1.01791 0.44157,1.83704 0.99273,1.83778 l 4.64292,0.007 c 0.55117,7.4e-4 0.99661,-0.81718 0.99751,-1.8351 l 0.004,-4.49217 c 9.2e-4,-1.01792 -0.44307,-1.83706 -0.99424,-1.8378 z"
       id="path1532" />
    <path
       style="fill:#e6e6e6;fill-opacity:0.95024875;stroke:#a0a0a0;stroke-width:0.4648819;stroke-miterlimit:4;stroke-dasharray:none;stroke-opacity:1"
       d="m 62.376305,427.52823 c -0.55118,-7.4e-4 -0.99511,0.8172 -0.99601,1.8351 l -0.004,4.49219 c -9.3e-4,1.01792 0.44157,1.83704 0.99274,1.83777 l 4.642919,0.007 c 0.55117,7.3e-4 0.9951,-0.8172 0.99601,-1.83511 l 0.004,-4.49217 c 9.2e-4,-1.01792 -0.44157,-1.83706 -0.99274,-1.8378 z"
       id="path1530" />
    <path
       style="fill:#e6e6e6;fill-opacity:0.95024875;stroke:#a0a0a0;stroke-width:0.4648819;stroke-miterlimit:4;stroke-dasharray:none;stroke-opacity:1"
       d="m 70.821864,427.50283 c -0.55117,-7.4e-4 -0.99511,0.81719 -0.99601,1.83509 l -0.004,4.49219 c -9.3e-4,1.01792 0.44157,1.83704 0.99274,1.83778 l 4.64292,0.007 c 0.55117,7.5e-4 0.9966,-0.8172 0.99751,-1.83511 l 0.004,-4.49216 c 9.2e-4,-1.01792 -0.44307,-1.83705 -0.99425,-1.8378 z"
       id="path1528" />
    <path
       style="fill:#e6e6e6;fill-opacity:0.95024875;stroke:#a0a0a0;stroke-width:0.4648819;stroke-miterlimit:4;stroke-dasharray:none;stroke-opacity:1"
       d="m 54.205005,439.51723 c -0.55116,-7.4e-4 -0.9951,0.8172 -0.996,1.83511 l -0.004,4.49218 c -9.2e-4,1.01791 0.44157,1.83704 0.99273,1.83778 l 4.64292,0.007 c 0.55117,7.4e-4 0.99661,-0.81718 0.99751,-1.8351 l 0.004,-4.49218 c 9.2e-4,-1.01791 -0.44307,-1.83705 -0.99424,-1.83779 z"
       id="path1526" />
    <path
       style="fill:#e6e6e6;fill-opacity:0.95024875;stroke:#a0a0a0;stroke-width:0.4648819;stroke-miterlimit:4;stroke-dasharray:none;stroke-opacity:1"
       d="m 62.376305,439.52823 c -0.55118,-7.4e-4 -0.99511,0.8172 -0.99601,1.8351 l -0.004,4.49219 c -9.3e-4,1.01792 0.44157,1.83704 0.99274,1.83777 l 4.642919,0.007 c 0.55117,7.3e-4 0.9951,-0.8172 0.99601,-1.83511 l 0.004,-4.49217 c 9.2e-4,-1.01792 -0.44157,-1.83706 -0.99274,-1.8378 z"
       id="path1524" />
    <path
       style="fill:#e6e6e6;fill-opacity:0.95024875;stroke:#a0a0a0;stroke-width:0.4648819;stroke-miterlimit:4;stroke-dasharray:none;stroke-opacity:1"
       d="m 70.821864,439.50283 c -0.55117,-7.4e-4 -0.99511,0.81719 -0.99601,1.83509 l -0.004,4.49219 c -9.3e-4,1.01792 0.44157,1.83704 0.99274,1.83778 l 4.64292,0.007 c 0.55117,7.5e-4 0.9966,-0.8172 0.99751,-1.83511 l 0.004,-4.49216 c 9.2e-4,-1.01792 -0.44307,-1.83705 -0.99425,-1.83779 z"
       id="path1522" />
    <path
       style="fill:#e6e6e6;fill-opacity:0.95024875;stroke:#a0a0a0;stroke-width:0.4648819;stroke-miterlimit:4;stroke-dasharray:none;stroke-opacity:1"
       d="m 54.205005,331.51724 c -0.55116,-7.5e-4 -0.9951,0.81719 -0.996,1.83511 l -0.004,4.49217 c -9.2e-4,1.01791 0.44157,1.83704 0.99273,1.83778 l 4.64292,0.007 c 0.55117,7.4e-4 0.99661,-0.81718 0.99751,-1.8351 l 0.004,-4.49217 c 9.2e-4,-1.01792 -0.44307,-1.83706 -0.99424,-1.8378 z"
       id="path1520" />
    <path
       style="fill:#e6e6e6;fill-opacity:0.95024875;stroke:#a0a0a0;stroke-width:0.4648819;stroke-miterlimit:4;stroke-dasharray:none;stroke-opacity:1"
       d="m 62.376305,331.52824 c -0.55118,-7.4e-4 -0.99511,0.8172 -0.99601,1.8351 l -0.004,4.49219 c -9.3e-4,1.01792 0.44157,1.83704 0.99274,1.83778 l 4.642918,0.007 c 0.55117,7.4e-4 0.9951,-0.81719 0.99601,-1.83511 l 0.004,-4.49217 c 9.2e-4,-1.01792 -0.44157,-1.83705 -0.99274,-1.83779 z"
       id="path1518" />
    <path
       style="fill:#e6e6e6;fill-opacity:0.95024875;stroke:#a0a0a0;stroke-width:0.4648819;stroke-miterlimit:4;stroke-dasharray:none;stroke-opacity:1"
       d="m 70.821863,331.50284 c -0.55117,-7.4e-4 -0.99511,0.81719 -0.99601,1.8351 l -0.004,4.49218 c -9.3e-4,1.01792 0.44157,1.83704 0.99274,1.83779 l 4.64292,0.007 c 0.55117,7.6e-4 0.9966,-0.81719 0.99751,-1.83511 l 0.004,-4.49216 c 9.2e-4,-1.01792 -0.44307,-1.83705 -0.99425,-1.83779 z"
       id="path1516" />
    <path
       style="fill:#e6e6e6;fill-opacity:0.95024875;stroke:#a0a0a0;stroke-width:0.4648819;stroke-miterlimit:4;stroke-dasharray:none;stroke-opacity:1"
       d="m 54.205005,343.51725 c -0.55116,-7.5e-4 -0.9951,0.81719 -0.996,1.83511 l -0.004,4.49217 c -9.2e-4,1.01791 0.44157,1.83704 0.99273,1.83778 l 4.64292,0.007 c 0.55117,7.4e-4 0.99661,-0.81718 0.99751,-1.8351 l 0.004,-4.49217 c 9.2e-4,-1.01792 -0.44307,-1.83706 -0.99424,-1.8378 z"
       id="path1514" />
    <path
       style="fill:#e6e6e6;fill-opacity:0.95024875;stroke:#a0a0a0;stroke-width:0.4648819;stroke-miterlimit:4;stroke-dasharray:none;stroke-opacity:1"
       d="m 62.376305,343.52825 c -0.55118,-7.4e-4 -0.99511,0.8172 -0.99601,1.8351 l -0.004,4.49219 c -9.3e-4,1.01792 0.44157,1.83704 0.99274,1.83778 l 4.642918,0.007 c 0.55117,7.4e-4 0.9951,-0.81719 0.99601,-1.83511 l 0.004,-4.49217 c 9.2e-4,-1.01792 -0.44157,-1.83705 -0.99274,-1.83779 z"
       id="path1512" />
    <path
       style="fill:#e6e6e6;fill-opacity:0.95024875;stroke:#a0a0a0;stroke-width:0.4648819;stroke-miterlimit:4;stroke-dasharray:none;stroke-opacity:1"
       d="m 70.821863,343.50285 c -0.55117,-7.4e-4 -0.99511,0.81719 -0.99601,1.8351 l -0.004,4.49218 c -9.3e-4,1.01792 0.44157,1.83704 0.99274,1.83779 l 4.64292,0.007 c 0.55117,7.6e-4 0.9966,-0.81719 0.99751,-1.83511 l 0.004,-4.49216 c 9.2e-4,-1.01792 -0.44307,-1.83705 -0.99425,-1.83779 z"
       id="path1510" />
    <path
       style="fill:#e6e6e6;fill-opacity:0.95024875;stroke:#a0a0a0;stroke-width:0.4648819;stroke-miterlimit:4;stroke-dasharray:none;stroke-opacity:1"
       d="m 54.205005,355.51726 c -0.55116,-7.5e-4 -0.9951,0.81719 -0.996,1.83511 l -0.004,4.49217 c -9.2e-4,1.01791 0.44157,1.83704 0.99273,1.83778 l 4.64292,0.007 c 0.55117,7.4e-4 0.99661,-0.81718 0.99751,-1.8351 l 0.004,-4.49217 c 9.2e-4,-1.01792 -0.44307,-1.83706 -0.99424,-1.8378 z"
       id="path1508" />
    <path
       style="fill:#e6e6e6;fill-opacity:0.95024875;stroke:#a0a0a0;stroke-width:0.4648819;stroke-miterlimit:4;stroke-dasharray:none;stroke-opacity:1"
       d="m 62.376305,355.52826 c -0.55118,-7.4e-4 -0.99511,0.8172 -0.99601,1.8351 l -0.004,4.49219 c -9.3e-4,1.01792 0.44157,1.83704 0.99274,1.83778 l 4.642918,0.007 c 0.55117,7.4e-4 0.9951,-0.81719 0.99601,-1.83511 l 0.004,-4.49217 c 9.2e-4,-1.01792 -0.44157,-1.83705 -0.99274,-1.83779 z"
       id="path1506" />
    <path
       style="fill:#e6e6e6;fill-opacity:0.95024875;stroke:#a0a0a0;stroke-width:0.4648819;stroke-miterlimit:4;stroke-dasharray:none;stroke-opacity:1"
       d="m 70.821863,355.50286 c -0.55117,-7.4e-4 -0.99511,0.81719 -0.99601,1.8351 l -0.004,4.49218 c -9.3e-4,1.01792 0.44157,1.83704 0.99274,1.83779 l 4.64292,0.007 c 0.55117,7.6e-4 0.9966,-0.81719 0.99751,-1.83511 l 0.004,-4.49216 c 9.2e-4,-1.01792 -0.44307,-1.83705 -0.99425,-1.83779 z"
       id="path1504" />
    <path
       style="fill:#e6e6e6;fill-opacity:0.95024875;stroke:#a0a0a0;stroke-width:0.4648819;stroke-miterlimit:4;stroke-dasharray:none;stroke-opacity:1"
       d="m 54.205005,367.51727 c -0.55116,-7.5e-4 -0.9951,0.81719 -0.996,1.83511 l -0.004,4.49217 c -9.2e-4,1.01791 0.44157,1.83704 0.99273,1.83778 l 4.64292,0.007 c 0.55117,7.4e-4 0.99661,-0.81718 0.99751,-1.8351 l 0.004,-4.49217 c 9.2e-4,-1.01792 -0.44307,-1.83706 -0.99424,-1.8378 z"
       id="path1502" />
    <path
       style="fill:#e6e6e6;fill-opacity:0.95024875;stroke:#a0a0a0;stroke-width:0.4648819;stroke-miterlimit:4;stroke-dasharray:none;stroke-opacity:1"
       d="m 62.376305,367.52827 c -0.55118,-7.4e-4 -0.99511,0.8172 -0.99601,1.8351 l -0.004,4.49219 c -9.3e-4,1.01792 0.44157,1.83704 0.99274,1.83778 l 4.642918,0.007 c 0.55117,7.4e-4 0.9951,-0.81719 0.99601,-1.83511 l 0.004,-4.49217 c 9.2e-4,-1.01792 -0.44157,-1.83705 -0.99274,-1.83779 z"
       id="path1500" />
    <path
       style="fill:#e6e6e6;fill-opacity:0.95024875;stroke:#a0a0a0;stroke-width:0.4648819;stroke-miterlimit:4;stroke-dasharray:none;stroke-opacity:1"
       d="m 70.821863,367.50287 c -0.55117,-7.4e-4 -0.99511,0.81719 -0.99601,1.8351 l -0.004,4.49218 c -9.3e-4,1.01792 0.44157,1.83704 0.99274,1.83779 l 4.64292,0.007 c 0.55117,7.6e-4 0.9966,-0.81719 0.99751,-1.83511 l 0.004,-4.49216 c 9.2e-4,-1.01792 -0.44307,-1.83705 -0.99425,-1.83779 z"
       id="path1498" />
    <path
       style="fill:#e6e6e6;fill-opacity:0.95024875;stroke:#a0a0a0;stroke-width:0.4648819;stroke-miterlimit:4;stroke-dasharray:none;stroke-opacity:1"
       d="m 54.205005,379.51728 c -0.55116,-7.5e-4 -0.9951,0.81719 -0.996,1.83511 l -0.004,4.49217 c -9.2e-4,1.01791 0.44157,1.83704 0.99273,1.83778 l 4.64292,0.007 c 0.55117,7.4e-4 0.99661,-0.81718 0.99751,-1.8351 l 0.004,-4.49217 c 9.2e-4,-1.01792 -0.44307,-1.83706 -0.99424,-1.8378 z"
       id="path1496" />
    <path
       style="fill:#e6e6e6;fill-opacity:0.95024875;stroke:#a0a0a0;stroke-width:0.4648819;stroke-miterlimit:4;stroke-dasharray:none;stroke-opacity:1"
       d="m 62.376305,379.52828 c -0.55118,-7.4e-4 -0.99511,0.8172 -0.99601,1.8351 l -0.004,4.49219 c -9.3e-4,1.01792 0.44157,1.83704 0.99274,1.83778 l 4.642918,0.007 c 0.55117,7.4e-4 0.9951,-0.81719 0.99601,-1.83511 l 0.004,-4.49217 c 9.2e-4,-1.01792 -0.44157,-1.83705 -0.99274,-1.83779 z"
       id="path1494" />
    <path
       style="fill:#e6e6e6;fill-opacity:0.95024875;stroke:#a0a0a0;stroke-width:0.4648819;stroke-miterlimit:4;stroke-dasharray:none;stroke-opacity:1"
       d="m 70.821863,379.50288 c -0.55117,-7.4e-4 -0.99511,0.81719 -0.99601,1.8351 l -0.004,4.49218 c -9.3e-4,1.01792 0.44157,1.83704 0.99274,1.83779 l 4.64292,0.007 c 0.55117,7.6e-4 0.9966,-0.81719 0.99751,-1.83511 l 0.004,-4.49216 c 9.2e-4,-1.01792 -0.44307,-1.83705 -0.99425,-1.83779 z"
       id="path1492" />
    <path
       style="fill:#e6e6e6;fill-opacity:0.95024875;stroke:#a0a0a0;stroke-width:0.4648819;stroke-miterlimit:4;stroke-dasharray:none;stroke-opacity:1"
       d="m 54.205005,166.71724 c -0.55116,-7.4e-4 -0.9951,0.8172 -0.996,1.83511 l -0.004,4.49218 c -9.2e-4,1.01791 0.44157,1.83704 0.99273,1.83778 l 4.64292,0.007 c 0.55117,7.4e-4 0.99661,-0.81718 0.99751,-1.8351 l 0.004,-4.49218 c 9.2e-4,-1.01791 -0.44307,-1.83705 -0.99424,-1.83779 z"
       id="path1460" />
    <path
       style="fill:#e6e6e6;fill-opacity:0.95024875;stroke:#a0a0a0;stroke-width:0.4648819;stroke-miterlimit:4;stroke-dasharray:none;stroke-opacity:1"
       d="m 62.376305,166.72824 c -0.55118,-7.4e-4 -0.99511,0.8172 -0.99601,1.8351 l -0.004,4.49219 c -9.3e-4,1.01792 0.44157,1.83704 0.99274,1.83777 l 4.642919,0.007 c 0.55117,7.3e-4 0.9951,-0.8172 0.99601,-1.83511 l 0.004,-4.49217 c 9.2e-4,-1.01792 -0.44157,-1.83706 -0.99274,-1.8378 z"
       id="path1458" />
    <path
       style="fill:#e6e6e6;fill-opacity:0.95024875;stroke:#a0a0a0;stroke-width:0.4648819;stroke-miterlimit:4;stroke-dasharray:none;stroke-opacity:1"
       d="m 70.821864,166.70284 c -0.55117,-7.4e-4 -0.99511,0.81719 -0.99601,1.83509 l -0.004,4.49219 c -9.3e-4,1.01792 0.44157,1.83704 0.99274,1.83778 l 4.64292,0.007 c 0.55117,7.5e-4 0.9966,-0.8172 0.99751,-1.83511 l 0.004,-4.49217 c 9.2e-4,-1.01792 -0.44307,-1.83705 -0.99425,-1.83779 z"
       id="path1456" />
    <path
       style="fill:#e6e6e6;fill-opacity:0.95024875;stroke:#a0a0a0;stroke-width:0.4648819;stroke-miterlimit:4;stroke-dasharray:none;stroke-opacity:1"
       d="m 54.005005,179.71724 c -0.55116,-7.4e-4 -0.9951,0.8172 -0.996,1.83511 l -0.004,4.49218 c -9.2e-4,1.01791 0.44157,1.83704 0.99273,1.83778 l 4.64292,0.007 c 0.55117,7.4e-4 0.99661,-0.81718 0.99751,-1.8351 l 0.004,-4.49218 c 9.2e-4,-1.01791 -0.44307,-1.83705 -0.99424,-1.83779 z"
       id="path1454" />
    <path
       style="fill:#e6e6e6;fill-opacity:0.95024875;stroke:#a0a0a0;stroke-width:0.4648819;stroke-miterlimit:4;stroke-dasharray:none;stroke-opacity:1"
       d="m 62.176305,179.72824 c -0.55118,-7.4e-4 -0.99511,0.8172 -0.99601,1.8351 l -0.004,4.49219 c -9.3e-4,1.01792 0.44157,1.83704 0.99274,1.83777 l 4.642919,0.007 c 0.55117,7.3e-4 0.9951,-0.8172 0.99601,-1.83511 l 0.004,-4.49217 c 9.2e-4,-1.01792 -0.44157,-1.83706 -0.99274,-1.8378 z"
       id="path1452" />
    <path
       style="fill:#e6e6e6;fill-opacity:0.95024875;stroke:#a0a0a0;stroke-width:0.4648819;stroke-miterlimit:4;stroke-dasharray:none;stroke-opacity:1"
       d="m 70.621864,179.70284 c -0.55117,-7.4e-4 -0.99511,0.81719 -0.99601,1.83509 l -0.004,4.49219 c -9.3e-4,1.01792 0.44157,1.83704 0.99274,1.83778 l 4.64292,0.007 c 0.55117,7.5e-4 0.9966,-0.8172 0.99751,-1.83511 l 0.004,-4.49217 c 9.2e-4,-1.01792 -0.44307,-1.83705 -0.99425,-1.83779 z"
       id="path1450" />
    <path
       style="fill:#e6e6e6;fill-opacity:0.95024875;stroke:#a0a0a0;stroke-width:0.4648819;stroke-miterlimit:4;stroke-dasharray:none;stroke-opacity:1"
       d="m 54.205005,193.11724 c -0.55116,-7.4e-4 -0.9951,0.8172 -0.996,1.83511 l -0.004,4.49218 c -9.2e-4,1.01791 0.44157,1.83704 0.99273,1.83778 l 4.64292,0.007 c 0.55117,7.4e-4 0.99661,-0.81718 0.99751,-1.8351 l 0.004,-4.49218 c 9.2e-4,-1.01791 -0.44307,-1.83705 -0.99424,-1.83779 z"
       id="path1448" />
    <path
       style="fill:#e6e6e6;fill-opacity:0.95024875;stroke:#a0a0a0;stroke-width:0.4648819;stroke-miterlimit:4;stroke-dasharray:none;stroke-opacity:1"
       d="m 62.376305,193.12824 c -0.55118,-7.4e-4 -0.99511,0.8172 -0.99601,1.8351 l -0.004,4.49219 c -9.3e-4,1.01792 0.44157,1.83704 0.99274,1.83777 l 4.642919,0.007 c 0.55117,7.3e-4 0.9951,-0.8172 0.99601,-1.83511 l 0.004,-4.49217 c 9.2e-4,-1.01792 -0.44157,-1.83706 -0.99274,-1.8378 z"
       id="path1446" />
    <path
       style="fill:#e6e6e6;fill-opacity:0.95024875;stroke:#a0a0a0;stroke-width:0.4648819;stroke-miterlimit:4;stroke-dasharray:none;stroke-opacity:1"
       d="m 70.821864,193.10284 c -0.55117,-7.4e-4 -0.99511,0.81719 -0.99601,1.83509 l -0.004,4.49219 c -9.3e-4,1.01792 0.44157,1.83704 0.99274,1.83778 l 4.64292,0.007 c 0.55117,7.5e-4 0.9966,-0.8172 0.99751,-1.83511 l 0.004,-4.49217 c 9.2e-4,-1.01792 -0.44307,-1.83705 -0.99425,-1.83779 z"
       id="path1444" />
    <path
       style="fill:#e6e6e6;fill-opacity:0.95024875;stroke:#a0a0a0;stroke-width:0.4648819;stroke-miterlimit:4;stroke-dasharray:none;stroke-opacity:1"
       d="m 54.205005,205.11724 c -0.55116,-7.4e-4 -0.9951,0.8172 -0.996,1.83511 l -0.004,4.49218 c -9.2e-4,1.01791 0.44157,1.83704 0.99273,1.83778 l 4.64292,0.007 c 0.55117,7.4e-4 0.99661,-0.81718 0.99751,-1.8351 l 0.004,-4.49218 c 9.2e-4,-1.01791 -0.44307,-1.83705 -0.99424,-1.83779 z"
       id="path1442" />
    <path
       style="fill:#e6e6e6;fill-opacity:0.95024875;stroke:#a0a0a0;stroke-width:0.4648819;stroke-miterlimit:4;stroke-dasharray:none;stroke-opacity:1"
       d="m 62.376305,205.12824 c -0.55118,-7.4e-4 -0.99511,0.8172 -0.99601,1.8351 l -0.004,4.49219 c -9.3e-4,1.01792 0.44157,1.83704 0.99274,1.83777 l 4.642919,0.007 c 0.55117,7.3e-4 0.9951,-0.8172 0.99601,-1.83511 l 0.004,-4.49217 c 9.2e-4,-1.01792 -0.44157,-1.83706 -0.99274,-1.8378 z"
       id="path1440" />
    <path
       style="fill:#e6e6e6;fill-opacity:0.95024875;stroke:#a0a0a0;stroke-width:0.4648819;stroke-miterlimit:4;stroke-dasharray:none;stroke-opacity:1"
       d="m 70.821864,205.10284 c -0.55117,-7.4e-4 -0.99511,0.81719 -0.99601,1.83509 l -0.004,4.49219 c -9.3e-4,1.01792 0.44157,1.83704 0.99274,1.83778 l 4.64292,0.007 c 0.55117,7.5e-4 0.9966,-0.8172 0.99751,-1.83511 l 0.004,-4.49217 c 9.2e-4,-1.01792 -0.44307,-1.83705 -0.99425,-1.83779 z"
       id="path1438" />
    <path
       style="fill:#e6e6e6;fill-opacity:0.95024875;stroke:#a0a0a0;stroke-width:0.4648819;stroke-miterlimit:4;stroke-dasharray:none;stroke-opacity:1"
       d="m 54.205005,217.31724 c -0.55116,-7.4e-4 -0.9951,0.8172 -0.996,1.83511 l -0.004,4.49218 c -9.2e-4,1.01791 0.44157,1.83704 0.99273,1.83778 l 4.64292,0.007 c 0.55117,7.4e-4 0.99661,-0.81718 0.99751,-1.8351 l 0.004,-4.49218 c 9.2e-4,-1.01791 -0.44307,-1.83705 -0.99424,-1.83779 z"
       id="path1436" />
    <path
       style="fill:#e6e6e6;fill-opacity:0.95024875;stroke:#a0a0a0;stroke-width:0.4648819;stroke-miterlimit:4;stroke-dasharray:none;stroke-opacity:1"
       d="m 62.376305,217.32824 c -0.55118,-7.4e-4 -0.99511,0.8172 -0.99601,1.8351 l -0.004,4.49219 c -9.3e-4,1.01792 0.44157,1.83704 0.99274,1.83777 l 4.642919,0.007 c 0.55117,7.3e-4 0.9951,-0.8172 0.99601,-1.83511 l 0.004,-4.49217 c 9.2e-4,-1.01792 -0.44157,-1.83706 -0.99274,-1.8378 z"
       id="path1434" />
    <path
       style="fill:#e6e6e6;fill-opacity:0.95024875;stroke:#a0a0a0;stroke-width:0.4648819;stroke-miterlimit:4;stroke-dasharray:none;stroke-opacity:1"
       d="m 70.821864,217.30284 c -0.55117,-7.4e-4 -0.99511,0.81719 -0.99601,1.83509 l -0.004,4.49219 c -9.3e-4,1.01792 0.44157,1.83704 0.99274,1.83778 l 4.64292,0.007 c 0.55117,7.5e-4 0.9966,-0.8172 0.99751,-1.83511 l 0.004,-4.49217 c 9.2e-4,-1.01792 -0.44307,-1.83705 -0.99425,-1.83779 z"
       id="path1432" />
    <path
       style="fill:#e6e6e6;fill-opacity:0.95024875;stroke:#a0a0a0;stroke-width:0.4648819;stroke-miterlimit:4;stroke-dasharray:none;stroke-opacity:1"
       d="m 54.205005,229.31724 c -0.55116,-7.4e-4 -0.9951,0.8172 -0.996,1.83511 l -0.004,4.49218 c -9.2e-4,1.01791 0.44157,1.83704 0.99273,1.83778 l 4.64292,0.007 c 0.55117,7.4e-4 0.99661,-0.81718 0.99751,-1.8351 l 0.004,-4.49218 c 9.2e-4,-1.01791 -0.44307,-1.83705 -0.99424,-1.83779 z"
       id="path1430" />
    <path
       style="fill:#e6e6e6;fill-opacity:0.95024875;stroke:#a0a0a0;stroke-width:0.4648819;stroke-miterlimit:4;stroke-dasharray:none;stroke-opacity:1"
       d="m 62.376305,229.32824 c -0.55118,-7.4e-4 -0.99511,0.8172 -0.99601,1.8351 l -0.004,4.49219 c -9.3e-4,1.01792 0.44157,1.83704 0.99274,1.83777 l 4.642919,0.007 c 0.55117,7.3e-4 0.9951,-0.8172 0.99601,-1.83511 l 0.004,-4.49217 c 9.2e-4,-1.01792 -0.44157,-1.83706 -0.99274,-1.8378 z"
       id="path1428" />
    <path
       style="fill:#e6e6e6;fill-opacity:0.95024875;stroke:#a0a0a0;stroke-width:0.4648819;stroke-miterlimit:4;stroke-dasharray:none;stroke-opacity:1"
       d="m 70.821864,229.30284 c -0.55117,-7.4e-4 -0.99511,0.81719 -0.99601,1.83509 l -0.004,4.49219 c -9.3e-4,1.01792 0.44157,1.83704 0.99274,1.83778 l 4.64292,0.007 c 0.55117,7.5e-4 0.9966,-0.8172 0.99751,-1.83511 l 0.004,-4.49217 c 9.2e-4,-1.01792 -0.44307,-1.83705 -0.99425,-1.83779 z"
       id="path1426" />
    <path
       style="fill:#e6e6e6;fill-opacity:0.95024875;stroke:#a0a0a0;stroke-width:0.4648819;stroke-miterlimit:4;stroke-dasharray:none;stroke-opacity:1"
       d="m 54.005005,250.71724 c -0.55116,-7.4e-4 -0.9951,0.8172 -0.996,1.83511 l -0.004,4.49218 c -9.2e-4,1.01791 0.44157,1.83704 0.99273,1.83778 l 4.64292,0.007 c 0.55117,7.4e-4 0.99661,-0.81718 0.99751,-1.8351 l 0.004,-4.49218 c 9.2e-4,-1.01791 -0.44307,-1.83705 -0.99424,-1.83779 z"
       id="path1424" />
    <path
       style="fill:#e6e6e6;fill-opacity:0.95024875;stroke:#a0a0a0;stroke-width:0.4648819;stroke-miterlimit:4;stroke-dasharray:none;stroke-opacity:1"
       d="m 62.176305,250.72824 c -0.55118,-7.4e-4 -0.99511,0.8172 -0.99601,1.8351 l -0.004,4.49219 c -9.3e-4,1.01792 0.44157,1.83704 0.99274,1.83777 l 4.642919,0.007 c 0.55117,7.3e-4 0.9951,-0.8172 0.99601,-1.83511 l 0.004,-4.49217 c 9.2e-4,-1.01792 -0.44157,-1.83706 -0.99274,-1.8378 z"
       id="path1422" />
    <path
       style="fill:#e6e6e6;fill-opacity:0.95024875;stroke:#a0a0a0;stroke-width:0.4648819;stroke-miterlimit:4;stroke-dasharray:none;stroke-opacity:1"
       d="m 70.621864,250.70284 c -0.55117,-7.4e-4 -0.99511,0.81719 -0.99601,1.83509 l -0.004,4.49219 c -9.3e-4,1.01792 0.44157,1.83704 0.99274,1.83778 l 4.64292,0.007 c 0.55117,7.5e-4 0.9966,-0.8172 0.99751,-1.83511 l 0.004,-4.49217 c 9.2e-4,-1.01792 -0.44307,-1.83705 -0.99425,-1.83779 z"
       id="path1420" />
    <path
       style="fill:#e6e6e6;fill-opacity:0.95024875;stroke:#a0a0a0;stroke-width:0.4648819;stroke-miterlimit:4;stroke-dasharray:none;stroke-opacity:1"
       d="m 54.205005,271.51724 c -0.55116,-7.4e-4 -0.9951,0.8172 -0.996,1.83511 l -0.004,4.49217 c -9.2e-4,1.01791 0.44157,1.83704 0.99273,1.83778 l 4.64292,0.007 c 0.55117,7.4e-4 0.99661,-0.81718 0.99751,-1.8351 l 0.004,-4.49217 c 9.2e-4,-1.01791 -0.44307,-1.83705 -0.99424,-1.83779 z"
       id="path1418" />
    <path
       style="fill:#e6e6e6;fill-opacity:0.95024875;stroke:#a0a0a0;stroke-width:0.4648819;stroke-miterlimit:4;stroke-dasharray:none;stroke-opacity:1"
       d="m 62.376305,271.52824 c -0.55118,-7.4e-4 -0.99511,0.8172 -0.99601,1.8351 l -0.004,4.49218 c -9.3e-4,1.01792 0.44157,1.83704 0.99274,1.83777 l 4.642919,0.007 c 0.55117,7.3e-4 0.9951,-0.8172 0.99601,-1.83511 l 0.004,-4.49216 c 9.2e-4,-1.01792 -0.44157,-1.83706 -0.99274,-1.8378 z"
       id="path1416" />
    <path
       style="fill:#e6e6e6;fill-opacity:0.95024875;stroke:#a0a0a0;stroke-width:0.4648819;stroke-miterlimit:4;stroke-dasharray:none;stroke-opacity:1"
       d="m 70.821864,271.50284 c -0.55117,-7.4e-4 -0.99511,0.81719 -0.99601,1.83509 l -0.004,4.49218 c -9.3e-4,1.01792 0.44157,1.83704 0.99274,1.83778 l 4.64292,0.007 c 0.55117,7.5e-4 0.9966,-0.8172 0.99751,-1.83511 l 0.004,-4.49216 c 9.2e-4,-1.01792 -0.44307,-1.83705 -0.99425,-1.83779 z"
       id="path1414" />
    <path
       style="fill:#e6e6e6;fill-opacity:0.95024875;stroke:#a0a0a0;stroke-width:0.4648819;stroke-miterlimit:4;stroke-dasharray:none;stroke-opacity:1"
       d="m 54.205005,283.51723 c -0.55116,-7.4e-4 -0.9951,0.8172 -0.996,1.83511 l -0.004,4.49218 c -9.2e-4,1.01791 0.44157,1.83704 0.99273,1.83778 l 4.64292,0.007 c 0.55117,7.4e-4 0.99661,-0.81718 0.99751,-1.8351 l 0.004,-4.49218 c 9.2e-4,-1.01791 -0.44307,-1.83705 -0.99424,-1.83779 z"
       id="path1412" />
    <path
       style="fill:#e6e6e6;fill-opacity:0.95024875;stroke:#a0a0a0;stroke-width:0.4648819;stroke-miterlimit:4;stroke-dasharray:none;stroke-opacity:1"
       d="m 62.376305,283.52823 c -0.55118,-7.4e-4 -0.99511,0.8172 -0.99601,1.8351 l -0.004,4.49219 c -9.3e-4,1.01792 0.44157,1.83704 0.99274,1.83777 l 4.642919,0.007 c 0.55117,7.3e-4 0.9951,-0.8172 0.99601,-1.83511 l 0.004,-4.49217 c 9.2e-4,-1.01792 -0.44157,-1.83706 -0.99274,-1.8378 z"
       id="path1410" />
    <path
       style="fill:#e6e6e6;fill-opacity:0.95024875;stroke:#a0a0a0;stroke-width:0.4648819;stroke-miterlimit:4;stroke-dasharray:none;stroke-opacity:1"
       d="m 70.821864,283.50283 c -0.55117,-7.4e-4 -0.99511,0.81719 -0.99601,1.83509 l -0.004,4.49219 c -9.3e-4,1.01792 0.44157,1.83704 0.99274,1.83778 l 4.64292,0.007 c 0.55117,7.5e-4 0.9966,-0.8172 0.99751,-1.83511 l 0.004,-4.49217 c 9.2e-4,-1.01792 -0.44307,-1.83705 -0.99425,-1.83779 z"
       id="path1408" />
    <path
       style="fill:#e6e6e6;fill-opacity:0.95024875;stroke:#a0a0a0;stroke-width:0.4648819;stroke-miterlimit:4;stroke-dasharray:none;stroke-opacity:1"
       d="m 54.205005,295.51723 c -0.55116,-7.4e-4 -0.9951,0.8172 -0.996,1.83511 l -0.004,4.49218 c -9.2e-4,1.01791 0.44157,1.83704 0.99273,1.83778 l 4.64292,0.007 c 0.55117,7.4e-4 0.99661,-0.81718 0.99751,-1.8351 l 0.004,-4.49218 c 9.2e-4,-1.01791 -0.44307,-1.83705 -0.99424,-1.83779 z"
       id="path1406" />
    <path
       style="fill:#e6e6e6;fill-opacity:0.95024875;stroke:#a0a0a0;stroke-width:0.4648819;stroke-miterlimit:4;stroke-dasharray:none;stroke-opacity:1"
       d="m 62.376305,295.52823 c -0.55118,-7.4e-4 -0.99511,0.8172 -0.99601,1.8351 l -0.004,4.49219 c -9.3e-4,1.01792 0.44157,1.83704 0.99274,1.83777 l 4.642919,0.007 c 0.55117,7.3e-4 0.9951,-0.8172 0.99601,-1.83511 l 0.004,-4.49217 c 9.2e-4,-1.01792 -0.44157,-1.83706 -0.99274,-1.8378 z"
       id="path1404" />
    <path
       style="fill:#e6e6e6;fill-opacity:0.95024875;stroke:#a0a0a0;stroke-width:0.4648819;stroke-miterlimit:4;stroke-dasharray:none;stroke-opacity:1"
       d="m 70.821864,295.50283 c -0.55117,-7.4e-4 -0.99511,0.81719 -0.99601,1.83509 l -0.004,4.49219 c -9.3e-4,1.01792 0.44157,1.83704 0.99274,1.83778 l 4.64292,0.007 c 0.55117,7.5e-4 0.9966,-0.8172 0.99751,-1.83511 l 0.004,-4.49217 c 9.2e-4,-1.01792 -0.44307,-1.83705 -0.99425,-1.83779 z"
       id="path1402" />
    <path
       style="fill:#e6e6e6;fill-opacity:0.95024875;stroke:#a0a0a0;stroke-width:0.4648819;stroke-miterlimit:4;stroke-dasharray:none;stroke-opacity:1"
       d="m 54.205005,307.51723 c -0.55116,-7.4e-4 -0.9951,0.8172 -0.996,1.83511 l -0.004,4.49218 c -9.2e-4,1.01791 0.44157,1.83704 0.99273,1.83778 l 4.64292,0.007 c 0.55117,7.4e-4 0.99661,-0.81718 0.99751,-1.8351 l 0.004,-4.49218 c 9.2e-4,-1.01791 -0.44307,-1.83705 -0.99424,-1.83779 z"
       id="path1400" />
    <path
       style="fill:#e6e6e6;fill-opacity:0.95024875;stroke:#a0a0a0;stroke-width:0.4648819;stroke-miterlimit:4;stroke-dasharray:none;stroke-opacity:1"
       d="m 62.376305,307.52823 c -0.55118,-7.4e-4 -0.99511,0.8172 -0.99601,1.8351 l -0.004,4.49219 c -9.3e-4,1.01792 0.44157,1.83704 0.99274,1.83777 l 4.642919,0.007 c 0.55117,7.3e-4 0.9951,-0.8172 0.99601,-1.83511 l 0.004,-4.49217 c 9.2e-4,-1.01792 -0.44157,-1.83706 -0.99274,-1.8378 z"
       id="path1398" />
    <path
       style="fill:#e6e6e6;fill-opacity:0.95024875;stroke:#a0a0a0;stroke-width:0.4648819;stroke-miterlimit:4;stroke-dasharray:none;stroke-opacity:1"
       d="m 70.821864,307.50283 c -0.55117,-7.4e-4 -0.99511,0.81719 -0.99601,1.83509 l -0.004,4.49219 c -9.3e-4,1.01792 0.44157,1.83704 0.99274,1.83778 l 4.64292,0.007 c 0.55117,7.5e-4 0.9966,-0.8172 0.99751,-1.83511 l 0.004,-4.49216 c 9.2e-4,-1.01792 -0.44307,-1.83706 -0.99425,-1.8378 z"
       id="path1396" />
    <path
       style="fill:#e6e6e6;fill-opacity:0.95024875;stroke:#a0a0a0;stroke-width:0.4648819;stroke-miterlimit:4;stroke-dasharray:none;stroke-opacity:1"
       d="m 54.205005,319.51723 c -0.55116,-7.4e-4 -0.9951,0.8172 -0.996,1.83511 l -0.004,4.49218 c -9.2e-4,1.01791 0.44157,1.83704 0.99273,1.83778 l 4.64292,0.007 c 0.55117,7.4e-4 0.99661,-0.81718 0.99751,-1.8351 l 0.004,-4.49218 c 9.2e-4,-1.01791 -0.44307,-1.83705 -0.99424,-1.83779 z"
       id="path1394" />
    <path
       style="fill:#e6e6e6;fill-opacity:0.95024875;stroke:#a0a0a0;stroke-width:0.4648819;stroke-miterlimit:4;stroke-dasharray:none;stroke-opacity:1"
       d="m 62.376305,319.52823 c -0.55118,-7.4e-4 -0.99511,0.8172 -0.99601,1.8351 l -0.004,4.49219 c -9.3e-4,1.01792 0.44157,1.83704 0.99274,1.83777 l 4.642919,0.007 c 0.55117,7.3e-4 0.9951,-0.8172 0.99601,-1.83511 l 0.004,-4.49217 c 9.2e-4,-1.01792 -0.44157,-1.83706 -0.99274,-1.8378 z"
       id="path1392" />
    <path
       style="fill:#e6e6e6;fill-opacity:0.95024875;stroke:#a0a0a0;stroke-width:0.4648819;stroke-miterlimit:4;stroke-dasharray:none;stroke-opacity:1"
       d="m 70.821864,319.50283 c -0.55117,-7.4e-4 -0.99511,0.81719 -0.99601,1.83509 l -0.004,4.49219 c -9.3e-4,1.01792 0.44157,1.83704 0.99274,1.83778 l 4.64292,0.007 c 0.55117,7.5e-4 0.9966,-0.8172 0.99751,-1.83511 l 0.004,-4.49216 c 9.2e-4,-1.01792 -0.44307,-1.83706 -0.99425,-1.8378 z"
       id="path992-7-5" />
    <path
       style="fill:#e6e6e6;fill-opacity:0.95024875;stroke:#a0a0a0;stroke-width:0.4648819;stroke-miterlimit:4;stroke-dasharray:none;stroke-opacity:1"
       d="m 36.471863,146.65561 c -0.55117,-7.4e-4 -0.99511,0.81719 -0.99601,1.83509 l -0.004,4.49219 c -9.3e-4,1.01792 0.44157,1.83704 0.99274,1.83778 l 4.64292,0.007 c 0.55117,7.5e-4 0.9966,-0.8172 0.99751,-1.83511 l 0.004,-4.49217 c 9.2e-4,-1.01792 -0.44307,-1.83705 -0.99425,-1.83779 z"
       id="path1241" />
    <path
       style="fill:#e6e6e6;fill-opacity:0.95024875;stroke:#a0a0a0;stroke-width:0.4648819;stroke-miterlimit:4;stroke-dasharray:none;stroke-opacity:1"
       d="m 28.026305,146.68101 c -0.55118,-7.4e-4 -0.99511,0.8172 -0.99601,1.8351 l -0.004,4.49219 c -9.3e-4,1.01792 0.44157,1.83704 0.99274,1.83777 l 4.642918,0.007 c 0.55117,7.3e-4 0.9951,-0.8172 0.99601,-1.83511 l 0.004,-4.49217 c 9.2e-4,-1.01792 -0.44157,-1.83705 -0.99274,-1.8378 z"
       id="path1239" />
    <path
       style="fill:#e6e6e6;fill-opacity:0.95024875;stroke:#a0a0a0;stroke-width:0.4648819;stroke-miterlimit:4;stroke-dasharray:none;stroke-opacity:1"
       d="m 19.855005,146.67001 c -0.55116,-7.4e-4 -0.9951,0.8172 -0.996,1.83511 l -0.004,4.49218 c -9.2e-4,1.01791 0.44157,1.83704 0.99273,1.83778 l 4.64292,0.007 c 0.55117,7.4e-4 0.99661,-0.81718 0.99751,-1.8351 l 0.004,-4.49218 c 9.2e-4,-1.01791 -0.44307,-1.83705 -0.99424,-1.83779 z"
       id="path1237" />
    <path
       style="fill:#e6e6e6;fill-opacity:0.95024875;stroke:#a0a0a0;stroke-width:0.4648819;stroke-miterlimit:4;stroke-dasharray:none;stroke-opacity:1"
       d="m 36.471863,134.65561 c -0.55117,-7.4e-4 -0.99511,0.81719 -0.99601,1.83509 l -0.004,4.49219 c -9.3e-4,1.01792 0.44157,1.83704 0.99274,1.83778 l 4.64292,0.007 c 0.55117,7.5e-4 0.9966,-0.8172 0.99751,-1.83511 l 0.004,-4.49217 c 9.2e-4,-1.01792 -0.44307,-1.83705 -0.99425,-1.83779 z"
       id="path1235" />
    <path
       style="fill:#e6e6e6;fill-opacity:0.95024875;stroke:#a0a0a0;stroke-width:0.4648819;stroke-miterlimit:4;stroke-dasharray:none;stroke-opacity:1"
       d="m 28.026305,134.68101 c -0.55118,-7.4e-4 -0.99511,0.8172 -0.99601,1.8351 l -0.004,4.49219 c -9.3e-4,1.01792 0.44157,1.83704 0.99274,1.83777 l 4.642918,0.007 c 0.55117,7.3e-4 0.9951,-0.8172 0.99601,-1.83511 l 0.004,-4.49217 c 9.2e-4,-1.01792 -0.44157,-1.83705 -0.99274,-1.8378 z"
       id="path1233" />
    <path
       style="fill:#e6e6e6;fill-opacity:0.95024875;stroke:#a0a0a0;stroke-width:0.4648819;stroke-miterlimit:4;stroke-dasharray:none;stroke-opacity:1"
       d="m 19.855005,134.67001 c -0.55116,-7.4e-4 -0.9951,0.8172 -0.996,1.83511 l -0.004,4.49218 c -9.2e-4,1.01791 0.44157,1.83704 0.99273,1.83778 l 4.64292,0.007 c 0.55117,7.4e-4 0.99661,-0.81718 0.99751,-1.8351 l 0.004,-4.49218 c 9.2e-4,-1.01791 -0.44307,-1.83705 -0.99424,-1.83779 z"
       id="path1231" />
    <path
       style="fill:#e6e6e6;fill-opacity:0.95024875;stroke:#a0a0a0;stroke-width:0.4648819;stroke-miterlimit:4;stroke-dasharray:none;stroke-opacity:1"
       d="m 36.471863,122.65561 c -0.55117,-7.4e-4 -0.99511,0.81719 -0.99601,1.83509 l -0.004,4.49219 c -9.3e-4,1.01792 0.44157,1.83704 0.99274,1.83778 l 4.64292,0.007 c 0.55117,7.5e-4 0.9966,-0.8172 0.99751,-1.83511 l 0.004,-4.49217 c 9.2e-4,-1.01792 -0.44307,-1.83705 -0.99425,-1.83779 z"
       id="path1229" />
    <path
       style="fill:#e6e6e6;fill-opacity:0.95024875;stroke:#a0a0a0;stroke-width:0.4648819;stroke-miterlimit:4;stroke-dasharray:none;stroke-opacity:1"
       d="m 28.026305,122.68101 c -0.55118,-7.4e-4 -0.99511,0.8172 -0.99601,1.8351 l -0.004,4.49219 c -9.3e-4,1.01792 0.44157,1.83704 0.99274,1.83777 l 4.642918,0.007 c 0.55117,7.3e-4 0.9951,-0.8172 0.99601,-1.83511 l 0.004,-4.49217 c 9.2e-4,-1.01792 -0.44157,-1.83705 -0.99274,-1.8378 z"
       id="path1227" />
    <path
       style="fill:#e6e6e6;fill-opacity:0.95024875;stroke:#a0a0a0;stroke-width:0.4648819;stroke-miterlimit:4;stroke-dasharray:none;stroke-opacity:1"
       d="m 19.855005,122.67001 c -0.55116,-7.4e-4 -0.9951,0.8172 -0.996,1.83511 l -0.004,4.49218 c -9.2e-4,1.01791 0.44157,1.83704 0.99273,1.83778 l 4.64292,0.007 c 0.55117,7.4e-4 0.99661,-0.81718 0.99751,-1.8351 l 0.004,-4.49218 c 9.2e-4,-1.01791 -0.44307,-1.83705 -0.99424,-1.83779 z"
       id="path1225" />
    <path
       style="fill:#e6e6e6;fill-opacity:0.95024875;stroke:#a0a0a0;stroke-width:0.4648819;stroke-miterlimit:4;stroke-dasharray:none;stroke-opacity:1"
       d="m 36.471864,110.65561 c -0.55117,-7.4e-4 -0.99511,0.81719 -0.99601,1.83509 l -0.004,4.49219 c -9.3e-4,1.01792 0.44157,1.83704 0.99274,1.83778 l 4.64292,0.007 c 0.55117,7.5e-4 0.9966,-0.8172 0.99751,-1.83511 l 0.004,-4.49217 c 9.2e-4,-1.01792 -0.44307,-1.83705 -0.99425,-1.83779 z"
       id="path1223" />
    <path
       style="fill:#e6e6e6;fill-opacity:0.95024875;stroke:#a0a0a0;stroke-width:0.4648819;stroke-miterlimit:4;stroke-dasharray:none;stroke-opacity:1"
       d="m 28.026305,110.68101 c -0.55118,-7.4e-4 -0.99511,0.8172 -0.99601,1.8351 l -0.004,4.49219 c -9.3e-4,1.01792 0.44157,1.83704 0.99274,1.83777 l 4.642919,0.007 c 0.55117,7.3e-4 0.9951,-0.8172 0.99601,-1.83511 l 0.004,-4.49217 c 9.2e-4,-1.01792 -0.44157,-1.83705 -0.99274,-1.8378 z"
       id="path1221" />
    <path
       style="fill:#e6e6e6;fill-opacity:0.95024875;stroke:#a0a0a0;stroke-width:0.4648819;stroke-miterlimit:4;stroke-dasharray:none;stroke-opacity:1"
       d="m 19.855005,110.67001 c -0.55116,-7.4e-4 -0.9951,0.8172 -0.996,1.83511 l -0.004,4.49218 c -9.2e-4,1.01791 0.44157,1.83704 0.99273,1.83778 l 4.64292,0.007 c 0.55117,7.4e-4 0.99661,-0.81718 0.99751,-1.8351 l 0.004,-4.49218 c 9.2e-4,-1.01791 -0.44307,-1.83705 -0.99424,-1.83779 z"
       id="path1219" />
    <path
       style="fill:#e6e6e6;fill-opacity:0.95024875;stroke:#a0a0a0;stroke-width:0.4648819;stroke-miterlimit:4;stroke-dasharray:none;stroke-opacity:1"
       d="m 36.471864,98.655578 c -0.55117,-7.43e-4 -0.99511,0.817188 -0.99601,1.835092 l -0.004,4.49219 c -9.3e-4,1.01792 0.44157,1.83704 0.99274,1.83778 l 4.64292,0.007 c 0.55117,7.5e-4 0.9966,-0.8172 0.99751,-1.83511 l 0.004,-4.49217 c 9.2e-4,-1.01792 -0.44307,-1.83705 -0.99425,-1.837794 z"
       id="path1217" />
    <path
       style="fill:#e6e6e6;fill-opacity:0.95024875;stroke:#a0a0a0;stroke-width:0.4648819;stroke-miterlimit:4;stroke-dasharray:none;stroke-opacity:1"
       d="m 28.026305,98.681008 c -0.55118,-7.43e-4 -0.99511,0.817198 -0.99601,1.835102 l -0.004,4.49219 c -9.3e-4,1.01792 0.44157,1.83704 0.99274,1.83777 l 4.642919,0.007 c 0.55117,7.3e-4 0.9951,-0.8172 0.99601,-1.83511 l 0.004,-4.49217 c 9.2e-4,-1.017922 -0.44157,-1.837059 -0.99274,-1.837803 z"
       id="path1215" />
    <path
       style="fill:#e6e6e6;fill-opacity:0.95024875;stroke:#a0a0a0;stroke-width:0.4648819;stroke-miterlimit:4;stroke-dasharray:none;stroke-opacity:1"
       d="m 19.855005,98.669978 c -0.55116,-7.44e-4 -0.9951,0.817197 -0.996,1.835112 l -0.004,4.49218 c -9.2e-4,1.01791 0.44157,1.83704 0.99273,1.83778 l 4.64292,0.007 c 0.55117,7.4e-4 0.99661,-0.81718 0.99751,-1.8351 l 0.004,-4.49218 c 9.2e-4,-1.017912 -0.44307,-1.83705 -0.99424,-1.837794 z"
       id="path1642-1" />
  </g>
  <g
     inkscape:groupmode="layer"
     id="layer3"
     inkscape:label="kontur">
    <path
       inkscape:connector-curvature="0"
       id="path3468-6-4"
       style="fill:#f9f9f9;stroke:#a0a0a0;stroke-width:0.56692913;stroke-linecap:butt;stroke-linejoin:miter;stroke-opacity:1;stroke-miterlimit:4;stroke-dasharray:none"
       d="m 82.999265,262.84226 0.91437,5.66829 m -3.92958,0.8066 c 3.84696,-0.0783 3.93439,-1.27476 3.93439,-1.27476 m -4.85837,-6.11593 c 3.84695,-0.0783 3.93438,0.91869 3.93438,0.91869 m -0.0452,-21.40289 0.91438,5.66829 m -3.92958,0.8066 c 3.84695,-0.0783 3.93438,-1.27476 3.93438,-1.27476 m -4.85836,-6.11593 c 3.84695,-0.0783 3.93438,0.91869 3.93438,0.91869 m -3.44519,-170.75289 0.91437,5.66829 m -3.92958,0.8066 c 3.84696,-0.0783 3.93439,-1.27476 3.93439,-1.27476 m -4.85837,-6.11593 c 3.84695,-0.0783 3.93438,0.91869 3.93438,0.91869 m -63.71687,0.37997 -0.91438,5.66829 m 3.92958,0.8066 c -3.84695,-0.0783 -3.93438,-1.27476 -3.93438,-1.27476 m 4.85837,-6.11593 c -3.84696,-0.0783 -3.93439,0.91869 -3.93439,0.91869 m 61.18629,6.472 c 3.37058,-5.35241 1.67556,108.33681 2.51334,162.50521 M 18.792785,77.55001 c -3.37058,-5.35241 -1.67556,108.3368 -2.51334,162.5052 M 75.802015,69.38335 c 1.16666,8.08333 1.16666,8.16666 1.16666,8.16666 m -57.00922,-8.16666 c -1.16667,8.08333 -1.16667,8.16666 -1.16667,8.16666 M 47.880735,0.379658 c 11.13555,2.457696 24.41317,39.167835 27.92128,69.003692 M 47.880735,0.379658 C 36.745175,2.837354 23.467555,39.547492 19.959455,69.38335 m -7.37622,172.10891 -0.91437,5.66829 m 3.92958,0.8066 c -3.84696,-0.0783 -3.93439,-1.27476 -3.93439,-1.27476 m 4.85837,-6.11593 c -3.84695,-0.0783 -3.93438,0.91869 -3.93438,0.91869 m -0.1163,21.05719 -0.91437,5.66829 m 3.92958,0.8066 c -3.84695,-0.0783 -3.93439,-1.27476 -3.93439,-1.27476 m 4.85837,-6.11593 c -3.84695,-0.0783 -3.93438,0.91869 -3.93438,0.91869 m 67.00546,7.02623 -0.0759,215.54617 m -63.40111,-215.54618 -0.0759,215.54617 m 63.55291,-236.41037 v 20.86421 m -63.47701,-20.86422 v 20.86421 m 63.47701,-29.52623 -0.006,7.13844 0.006,1.52359 m -63.20257,-8.66204 -0.27444,8.66203 m 71.70291,317.66057 c 1.83091,1.33525 3.28782,2.68162 3.07851,4.50766 -0.17022,1.48507 -1.44248,3.28739 -4.51184,5.659 m -79.73334,-9.83332 c -3.31993,2.42116 -5.41014,4.8789 1.43334,10.16666 m 53.23333,-24.83333 c 26.5,14.5 26.5,14.33333 26.5,14.33333 m -39.56013,4.33099 39.2268,5.66901 m -80.5,0.2 41.2732,-5.86901 M 35.043279,551.28142 C 7.7099485,565.94809 6.541245,566.71115 6.541245,566.71115 m 72.8649,-81.58352 c -7.46186,39.15004 -20.93639,81.18814 -31.25836,85.58117 m -32.21865,-85.58118 c 7.6911,39.15004 21.57957,81.18815 32.21865,85.58118 m 34.87089,-93.51672 0.91437,5.66829 m -4.7074,1.30157 c 3.84696,-0.0783 4.71221,-1.76973 4.71221,-1.76973 m -4.85837,-6.11593 c 3.84695,-0.0783 3.93438,0.91869 3.93438,0.91869 m -70.73492,-0.0642 -0.91438,5.66829 m 4.7074,1.30157 c -3.84695,-0.0783 -4.7122,-1.76973 -4.7122,-1.76973 m 4.85837,-6.11593 c -3.84696,-0.0783 -3.93439,0.91869 -3.93439,0.91869"
       sodipodi:nodetypes="cccccccccccccccccccccccccccccccccccccccccccccccccccccccccccccccccccccccccccccccccccccccccc" />
    <path
       style="fill:#f9f9f9;fill-opacity:0.95024875;stroke:#a0a0a0;stroke-width:0.02956125;stroke-miterlimit:4;stroke-dasharray:none;stroke-opacity:1"
       d="m 7.1504796,575.49899 c -1.2254937,-1.04179 -2.3453003,-2.33181 -2.7660806,-3.18653 -0.832868,-1.6918 -0.3406615,-2.93944 1.8453915,-4.67768 0.7943257,-0.63161 3.3746053,-2.05335 18.4763555,-10.1805 9.938245,-5.34837 10.019954,-5.39205 10.037004,-5.36627 0.0085,0.0128 0.21126,0.46685 0.450619,1.00894 2.421281,5.48363 4.986573,10.1294 7.285798,13.19466 1.202063,1.60256 2.558501,3.04648 3.536438,3.76453 0.339218,0.24908 0.392447,0.31131 0.298052,0.3485 -0.0632,0.0249 -2.647339,0.40332 -5.742521,0.84094 -3.095182,0.43761 -11.279052,1.59862 -18.186379,2.58001 -6.907327,0.9814 -12.9593852,1.84088 -13.4490185,1.90996 -0.4896333,0.0691 -0.9784155,0.14043 -1.0861827,0.15855 -0.1707522,0.0287 -0.2606703,-0.0221 -0.6994762,-0.39511 z"
       id="path909"
       inkscape:connector-curvature="0" />
    <path
       style="fill:#f9f9f9;fill-opacity:0.95024875;stroke:#a0a0a0;stroke-width:0.02956125;stroke-miterlimit:4;stroke-dasharray:none;stroke-opacity:1"
       d="m 85.05186,575.50209 c -1.197485,-0.18211 -26.238976,-3.80272 -31.412838,-4.5418 -1.958533,-0.27978 -3.613667,-0.52988 -3.678076,-0.55578 -0.0985,-0.0396 -0.05305,-0.0969 0.286149,-0.36061 1.401236,-1.0894 3.308618,-3.40534 4.897146,-5.9461 1.770845,-2.83237 4.152099,-7.5397 5.731771,-11.33073 l 0.09771,-0.2345 4.662774,2.54644 c 10.457899,5.71129 17.466571,9.5069 20.528053,11.11716 1.511942,0.79524 2.143415,1.24858 3.027795,2.17365 0.37189,0.389 0.584925,0.67936 0.763065,1.04005 0.239945,0.48583 0.247136,0.51994 0.247136,1.1721 0,0.6683 -0.0015,0.67476 -0.292235,1.27473 -0.49722,1.026 -1.487983,2.18467 -2.867326,3.35323 -0.633726,0.53689 -0.505582,0.51809 -1.991126,0.29216 z"
       id="path911"
       inkscape:connector-curvature="0" />
    <path
       style="fill:#f9f9f9;fill-opacity:0.95024875;stroke:#a0a0a0;stroke-width:0.02956125;stroke-miterlimit:4;stroke-dasharray:none;stroke-opacity:1"
       d="m 79.932966,480.20781 v -3.38816 l 0.656169,0.0449 c 1.1159,0.0764 1.854194,0.29924 1.917852,0.57881 0.103562,0.45484 0.789807,4.90174 0.763102,4.94495 -0.01772,0.0287 -0.203866,0.16675 -0.413662,0.30685 -0.636467,0.42501 -1.507424,0.70867 -2.653209,0.8641 l -0.270252,0.0367 z"
       id="path913"
       inkscape:connector-curvature="0" />
    <path
       style="fill:#f9f9f9;fill-opacity:0.95024875;stroke:#a0a0a0;stroke-width:0.02956125;stroke-miterlimit:4;stroke-dasharray:none;stroke-opacity:1"
       d="m 14.786303,483.46038 c -0.951593,-0.13713 -2.078422,-0.5648 -2.540451,-0.96419 l -0.24999,-0.2161 0.3992,-2.47364 c 0.21956,-1.3605 0.414724,-2.49876 0.433698,-2.52946 0.129563,-0.20964 1.338845,-0.48653 2.124844,-0.48653 h 0.436792 v 3.37021 c 0,3.17028 -0.0066,3.36974 -0.111281,3.36245 -0.0612,-0.004 -0.28297,-0.0325 -0.492812,-0.0627 z"
       id="path915"
       inkscape:connector-curvature="0" />
    <path
       style="fill:#f9f9f9;fill-opacity:0.95024875;stroke:#a0a0a0;stroke-width:0.02956125;stroke-miterlimit:4;stroke-dasharray:none;stroke-opacity:1"
       d="m 14.722714,247.38414 c -1.175713,-0.13979 -2.019805,-0.35214 -2.299216,-0.57842 l -0.137198,-0.11111 0.407265,-2.50502 c 0.223996,-1.37776 0.437736,-2.54173 0.474978,-2.5866 0.233396,-0.28123 2.543223,-0.63879 2.538159,-0.39291 -9e-4,0.0437 -0.04309,1.29562 -0.09375,2.78201 -0.05066,1.48638 -0.09285,2.86706 -0.09375,3.06815 l -0.0016,0.36564 -0.302046,-0.01 c -0.166126,-0.005 -0.387892,-0.0197 -0.492813,-0.0322 z"
       id="path917"
       inkscape:connector-curvature="0" />
    <path
       style="fill:#f9f9f9;fill-opacity:0.95024875;stroke:#a0a0a0;stroke-width:0.02956125;stroke-miterlimit:4;stroke-dasharray:none;stroke-opacity:1"
       d="m 79.996555,244.20922 v -3.15306 l 0.492813,0.0438 c 1.103064,0.098 1.819473,0.30565 1.92186,0.55702 0.03166,0.0777 0.217713,1.15715 0.413453,2.39872 0.19574,1.24157 0.371255,2.33524 0.390033,2.43038 0.02857,0.14473 -3.62e-4,0.19423 -0.177159,0.3031 -0.460519,0.2836 -1.809419,0.56855 -2.707159,0.57189 l -0.333841,10e-4 z"
       id="path919"
       inkscape:connector-curvature="0" />
    <path
       style="fill:#e6e6e6;fill-opacity:0.95024875;stroke:#a0a0a0;stroke-width:0.4648819;stroke-miterlimit:4;stroke-dasharray:none;stroke-opacity:1"
       d="m 70.471863,146.65561 c -0.55117,-7.4e-4 -0.99511,0.81719 -0.99601,1.83509 l -0.004,4.49219 c -9.3e-4,1.01792 0.44157,1.83704 0.99274,1.83778 l 4.64292,0.007 c 0.55117,7.5e-4 0.9966,-0.8172 0.99751,-1.83511 l 0.004,-4.49217 c 9.2e-4,-1.01792 -0.44307,-1.83705 -0.99425,-1.83779 z"
       id="path1271" />
    <path
       style="fill:#e6e6e6;fill-opacity:0.95024875;stroke:#a0a0a0;stroke-width:0.4648819;stroke-miterlimit:4;stroke-dasharray:none;stroke-opacity:1"
       d="m 62.026305,146.68101 c -0.55118,-7.4e-4 -0.99511,0.8172 -0.99601,1.8351 l -0.004,4.49219 c -9.3e-4,1.01792 0.44157,1.83704 0.99274,1.83777 l 4.642918,0.007 c 0.55117,7.3e-4 0.9951,-0.8172 0.99601,-1.83511 l 0.004,-4.49217 c 9.2e-4,-1.01792 -0.44157,-1.83705 -0.99274,-1.8378 z"
       id="path1269" />
    <path
       style="fill:#e6e6e6;fill-opacity:0.95024875;stroke:#a0a0a0;stroke-width:0.4648819;stroke-miterlimit:4;stroke-dasharray:none;stroke-opacity:1"
       d="m 53.855005,146.67001 c -0.55116,-7.4e-4 -0.9951,0.8172 -0.996,1.83511 l -0.004,4.49218 c -9.2e-4,1.01791 0.44157,1.83704 0.99273,1.83778 l 4.64292,0.007 c 0.55117,7.4e-4 0.99661,-0.81718 0.99751,-1.8351 l 0.004,-4.49218 c 9.2e-4,-1.01791 -0.44307,-1.83705 -0.99424,-1.83779 z"
       id="path1267" />
    <path
       style="fill:#e6e6e6;fill-opacity:0.95024875;stroke:#a0a0a0;stroke-width:0.4648819;stroke-miterlimit:4;stroke-dasharray:none;stroke-opacity:1"
       d="m 70.471863,134.65561 c -0.55117,-7.4e-4 -0.99511,0.81719 -0.99601,1.83509 l -0.004,4.49219 c -9.3e-4,1.01792 0.44157,1.83704 0.99274,1.83778 l 4.64292,0.007 c 0.55117,7.5e-4 0.9966,-0.8172 0.99751,-1.83511 l 0.004,-4.49217 c 9.2e-4,-1.01792 -0.44307,-1.83705 -0.99425,-1.83779 z"
       id="path1265" />
    <path
       style="fill:#e6e6e6;fill-opacity:0.95024875;stroke:#a0a0a0;stroke-width:0.4648819;stroke-miterlimit:4;stroke-dasharray:none;stroke-opacity:1"
       d="m 62.026305,134.68101 c -0.55118,-7.4e-4 -0.99511,0.8172 -0.99601,1.8351 l -0.004,4.49219 c -9.3e-4,1.01792 0.44157,1.83704 0.99274,1.83777 l 4.642918,0.007 c 0.55117,7.3e-4 0.9951,-0.8172 0.99601,-1.83511 l 0.004,-4.49217 c 9.2e-4,-1.01792 -0.44157,-1.83705 -0.99274,-1.8378 z"
       id="path1263" />
    <path
       style="fill:#e6e6e6;fill-opacity:0.95024875;stroke:#a0a0a0;stroke-width:0.4648819;stroke-miterlimit:4;stroke-dasharray:none;stroke-opacity:1"
       d="m 53.855005,134.67001 c -0.55116,-7.4e-4 -0.9951,0.8172 -0.996,1.83511 l -0.004,4.49218 c -9.2e-4,1.01791 0.44157,1.83704 0.99273,1.83778 l 4.64292,0.007 c 0.55117,7.4e-4 0.99661,-0.81718 0.99751,-1.8351 l 0.004,-4.49218 c 9.2e-4,-1.01791 -0.44307,-1.83705 -0.99424,-1.83779 z"
       id="path1261" />
    <path
       style="fill:#e6e6e6;fill-opacity:0.95024875;stroke:#a0a0a0;stroke-width:0.4648819;stroke-miterlimit:4;stroke-dasharray:none;stroke-opacity:1"
       d="m 70.471863,122.65561 c -0.55117,-7.4e-4 -0.99511,0.81719 -0.99601,1.83509 l -0.004,4.49219 c -9.3e-4,1.01792 0.44157,1.83704 0.99274,1.83778 l 4.64292,0.007 c 0.55117,7.5e-4 0.9966,-0.8172 0.99751,-1.83511 l 0.004,-4.49217 c 9.2e-4,-1.01792 -0.44307,-1.83705 -0.99425,-1.83779 z"
       id="path1259" />
    <path
       style="fill:#e6e6e6;fill-opacity:0.95024875;stroke:#a0a0a0;stroke-width:0.4648819;stroke-miterlimit:4;stroke-dasharray:none;stroke-opacity:1"
       d="m 62.026305,122.68101 c -0.55118,-7.4e-4 -0.99511,0.8172 -0.99601,1.8351 l -0.004,4.49219 c -9.3e-4,1.01792 0.44157,1.83704 0.99274,1.83777 l 4.642918,0.007 c 0.55117,7.3e-4 0.9951,-0.8172 0.99601,-1.83511 l 0.004,-4.49217 c 9.2e-4,-1.01792 -0.44157,-1.83705 -0.99274,-1.8378 z"
       id="path1257" />
    <path
       style="fill:#e6e6e6;fill-opacity:0.95024875;stroke:#a0a0a0;stroke-width:0.4648819;stroke-miterlimit:4;stroke-dasharray:none;stroke-opacity:1"
       d="m 53.855005,122.67001 c -0.55116,-7.4e-4 -0.9951,0.8172 -0.996,1.83511 l -0.004,4.49218 c -9.2e-4,1.01791 0.44157,1.83704 0.99273,1.83778 l 4.64292,0.007 c 0.55117,7.4e-4 0.99661,-0.81718 0.99751,-1.8351 l 0.004,-4.49218 c 9.2e-4,-1.01791 -0.44307,-1.83705 -0.99424,-1.83779 z"
       id="path1255" />
    <path
       style="fill:#e6e6e6;fill-opacity:0.95024875;stroke:#a0a0a0;stroke-width:0.4648819;stroke-miterlimit:4;stroke-dasharray:none;stroke-opacity:1"
       d="m 70.471864,110.65561 c -0.55117,-7.4e-4 -0.99511,0.81719 -0.99601,1.83509 l -0.004,4.49219 c -9.3e-4,1.01792 0.44157,1.83704 0.99274,1.83778 l 4.64292,0.007 c 0.55117,7.5e-4 0.9966,-0.8172 0.99751,-1.83511 l 0.004,-4.49217 c 9.2e-4,-1.01792 -0.44307,-1.83705 -0.99425,-1.83779 z"
       id="path1253" />
    <path
       style="fill:#e6e6e6;fill-opacity:0.95024875;stroke:#a0a0a0;stroke-width:0.4648819;stroke-miterlimit:4;stroke-dasharray:none;stroke-opacity:1"
       d="m 62.026305,110.68101 c -0.55118,-7.4e-4 -0.99511,0.8172 -0.99601,1.8351 l -0.004,4.49219 c -9.3e-4,1.01792 0.44157,1.83704 0.99274,1.83777 l 4.642919,0.007 c 0.55117,7.3e-4 0.9951,-0.8172 0.99601,-1.83511 l 0.004,-4.49217 c 9.2e-4,-1.01792 -0.44157,-1.83705 -0.99274,-1.8378 z"
       id="path1251" />
    <path
       style="fill:#e6e6e6;fill-opacity:0.95024875;stroke:#a0a0a0;stroke-width:0.4648819;stroke-miterlimit:4;stroke-dasharray:none;stroke-opacity:1"
       d="m 53.855005,110.67001 c -0.55116,-7.4e-4 -0.9951,0.8172 -0.996,1.83511 l -0.004,4.49218 c -9.2e-4,1.01791 0.44157,1.83704 0.99273,1.83778 l 4.64292,0.007 c 0.55117,7.4e-4 0.99661,-0.81718 0.99751,-1.8351 l 0.004,-4.49218 c 9.2e-4,-1.01791 -0.44307,-1.83705 -0.99424,-1.83779 z"
       id="path1249" />
    <path
       style="fill:#e6e6e6;fill-opacity:0.95024875;stroke:#a0a0a0;stroke-width:0.4648819;stroke-miterlimit:4;stroke-dasharray:none;stroke-opacity:1"
       d="m 70.471864,98.655578 c -0.55117,-7.4e-4 -0.99511,0.81719 -0.99601,1.835092 l -0.004,4.49219 c -9.3e-4,1.01792 0.44157,1.83704 0.99274,1.83778 l 4.64292,0.007 c 0.55117,7.5e-4 0.9966,-0.8172 0.99751,-1.83511 l 0.004,-4.49217 c 9.2e-4,-1.017922 -0.44307,-1.837052 -0.99425,-1.837792 z"
       id="path1247" />
    <path
       style="fill:#e6e6e6;fill-opacity:0.95024875;stroke:#a0a0a0;stroke-width:0.4648819;stroke-miterlimit:4;stroke-dasharray:none;stroke-opacity:1"
       d="m 62.026305,98.680978 c -0.55118,-7.4e-4 -0.99511,0.8172 -0.99601,1.835102 l -0.004,4.49219 c -9.3e-4,1.01792 0.44157,1.83704 0.99274,1.83777 l 4.642919,0.007 c 0.55117,7.3e-4 0.9951,-0.8172 0.99601,-1.83511 l 0.004,-4.49217 c 9.2e-4,-1.017922 -0.44157,-1.837062 -0.99274,-1.837802 z"
       id="path1245" />
    <path
       style="fill:#e6e6e6;fill-opacity:0.95024875;stroke:#a0a0a0;stroke-width:0.4648819;stroke-miterlimit:4;stroke-dasharray:none;stroke-opacity:1"
       d="m 53.855005,98.669978 c -0.55116,-7.4e-4 -0.9951,0.8172 -0.996,1.835112 l -0.004,4.49218 c -9.2e-4,1.01791 0.44157,1.83704 0.99273,1.83778 l 4.64292,0.007 c 0.55117,7.4e-4 0.99661,-0.81718 0.99751,-1.8351 l 0.004,-4.49218 c 9.2e-4,-1.017912 -0.44307,-1.837052 -0.99424,-1.837792 z"
       id="path1642-1-2" />
  </g>
  <path
     style="fill:#f9f9f9;fill-opacity:0.95024875;stroke:#a0a0a0;stroke-width:0.02956125;stroke-miterlimit:4;stroke-dasharray:none;stroke-opacity:1"
     d="m 77.359937,76.419862 c -0.09325,-0.418226 -0.862362,-6.04463 -0.830617,-6.076375 0.02061,-0.02061 0.35849,-0.005 0.750835,0.03481 0.746725,0.07567 1.504901,0.27263 1.630085,0.423468 0.04044,0.04872 0.25606,1.21469 0.479164,2.59104 l 0.405645,2.502453 -0.137705,0.109837 c -0.187359,0.149442 -0.830677,0.359507 -1.426106,0.465671 -0.712913,0.127111 -0.833175,0.120085 -0.871301,-0.0509 z"
     id="path921"
     inkscape:connector-curvature="0" />
  <path
     style="fill:#f9f9f9;fill-opacity:0.95024875;stroke:#a0a0a0;stroke-width:0.02956125;stroke-miterlimit:4;stroke-dasharray:none;stroke-opacity:1"
     d="m 17.584207,76.931 c -0.687543,-0.07447 -1.253716,-0.211381 -1.697325,-0.410461 -0.28898,-0.129687 -0.369309,-0.196372 -0.369309,-0.306583 0,-0.07746 0.17169,-1.201016 0.381532,-2.49678 0.209843,-1.295763 0.381533,-2.386798 0.381533,-2.424521 0,-0.108758 0.483889,-0.326773 0.944675,-0.425622 0.232366,-0.04985 0.773016,-0.109363 1.201445,-0.132259 0.646723,-0.03456 0.778587,-0.02647 0.776755,0.04767 -0.0012,0.04911 -0.194817,1.431011 -0.43023,3.070881 -0.380117,2.647873 -0.442145,2.990044 -0.554195,3.057176 -0.09103,0.05454 -0.267869,0.06025 -0.634881,0.0205 z"
     id="path923"
     inkscape:connector-curvature="0" />
</svg>
