<?xml version="1.0" encoding="UTF-8" standalone="no"?>
<!-- Created with Inkscape (http://www.inkscape.org/) -->

<svg
   xmlns:dc="http://purl.org/dc/elements/1.1/"
   xmlns:cc="http://creativecommons.org/ns#"
   xmlns:rdf="http://www.w3.org/1999/02/22-rdf-syntax-ns#"
   xmlns:svg="http://www.w3.org/2000/svg"
   xmlns="http://www.w3.org/2000/svg"
   xmlns:sodipodi="http://sodipodi.sourceforge.net/DTD/sodipodi-0.dtd"
   xmlns:inkscape="http://www.inkscape.org/namespaces/inkscape"
   version="1.1"
   id="svg815"
   width="96"
   height="576.64001"
   viewBox="0 0 96 576.64001"
   sodipodi:docname="Boeing-B787-Dreamliner.svg"
   inkscape:version="0.92.4 (5da689c313, 2019-01-14)">
  <metadata
     id="metadata821">
    <rdf:RDF>
      <cc:Work
         rdf:about="">
        <dc:format>image/svg+xml</dc:format>
        <dc:type
           rdf:resource="http://purl.org/dc/dcmitype/StillImage" />
        <dc:title />
      </cc:Work>
    </rdf:RDF>
  </metadata>
  <defs
     id="defs819" />
  <sodipodi:namedview
     pagecolor="#ffffff"
     bordercolor="#666666"
     borderopacity="1"
     objecttolerance="10"
     gridtolerance="10"
     guidetolerance="10"
     inkscape:pageopacity="0"
     inkscape:pageshadow="2"
     inkscape:window-width="1920"
     inkscape:window-height="1001"
     id="namedview817"
     showgrid="false"
     inkscape:zoom="1.3982485"
     inkscape:cx="208.26702"
     inkscape:cy="265.15324"
     inkscape:window-x="-9"
     inkscape:window-y="-9"
     inkscape:window-maximized="1"
     inkscape:current-layer="svg815" />
  <g
     inkscape:groupmode="layer"
     id="layer3"
     inkscape:label="siedzenia">
    <path
       inkscape:connector-curvature="0"
       id="path2075-9-5-6-0-620-8-1-7-7-7-4"
       style="fill:#f2f2f2;fill-opacity:0.94901961;stroke:#a0a0a0;stroke-width:0.36761868;stroke-miterlimit:4;stroke-dasharray:none;stroke-opacity:1"
       d="m 55.668148,176.14571 c 4.36e-4,0.71726 -0.479908,1.29501 -1.077695,1.29618 l -2.638136,0.006 c -0.597795,0.001 -1.078843,-0.57463 -1.079272,-1.29192 l -0.004,-6.04208 c -4.46e-4,-0.71727 0.479916,-1.29695 1.077702,-1.29813 l 2.638129,-0.006 c 0.597784,-0.001 1.078834,0.57661 1.07928,1.29389 z m -0.01489,10.9907 c 4.28e-4,0.71728 -0.479926,1.29499 -1.077703,1.29615 l -2.638136,0.006 c -0.597794,0.001 -1.078842,-0.57463 -1.079272,-1.29191 l -0.004,-6.04209 c -4.29e-4,-0.71726 0.479917,-1.29498 1.07771,-1.29617 l 2.63812,-0.006 c 0.597794,-0.001 1.078852,0.57464 1.079289,1.2919 z m 0.0065,10.63377 c 4.38e-4,0.71725 -0.479916,1.29498 -1.077709,1.29615 l -2.638129,0.006 c -0.597785,0.001 -1.078834,-0.57462 -1.079272,-1.29191 l -0.004,-6.04208 c -4.37e-4,-0.71727 0.479908,-1.29695 1.077702,-1.29811 l 2.638128,-0.006 c 0.597787,-0.001 1.078836,0.5766 1.07928,1.29388 z m 14.419377,-56.68913 c 4.34e-4,0.75589 -0.484601,1.36477 -1.088214,1.366 l -2.663838,0.006 c -0.603613,0.001 -1.089349,-0.60563 -1.089785,-1.36154 l -0.0038,-6.36775 c -4.45e-4,-0.75591 0.484591,-1.36684 1.088204,-1.36807 l 2.663828,-0.006 c 0.603614,-0.001 1.08936,0.60766 1.089804,1.36359 z m -0.0066,-11.2069 c 4.35e-4,0.75593 -0.4846,1.36478 -1.088204,1.36602 l -2.663838,0.006 c -0.603632,0.001 -1.089359,-0.6056 -1.089795,-1.36151 l -0.0038,-6.36774 c -4.36e-4,-0.75594 0.48459,-1.36477 1.088213,-1.36603 l 2.663819,-0.006 c 0.603633,-0.001 1.089369,0.6056 1.089813,1.36152 z m 0.01506,-11.58302 c 4.46e-4,0.75591 -0.48459,1.36477 -1.088194,1.366 l -2.663838,0.006 c -0.603632,0.001 -1.089369,-0.60561 -1.089795,-1.36151 l -0.0038,-6.36775 c -4.54e-4,-0.75591 0.484591,-1.36682 1.088204,-1.36806 l 2.663829,-0.006 c 0.603622,-0.001 1.089358,0.60765 1.089804,1.36359 z m 7.270063,22.68252 c 4.36e-4,0.75592 -0.48459,1.36477 -1.088213,1.36601 l -2.663838,0.006 c -0.603604,0.001 -1.08934,-0.60559 -1.089784,-1.36153 l -0.0038,-6.36772 c -4.44e-4,-0.75594 0.484582,-1.36687 1.088195,-1.36809 l 2.663847,-0.006 c 0.603604,-0.001 1.08934,0.60768 1.089795,1.36362 z m -0.0066,-11.20688 c 4.26e-4,0.75596 -0.4846,1.36479 -1.088214,1.36602 l -2.663838,0.006 c -0.603613,0.001 -1.089349,-0.6056 -1.089794,-1.36154 l -0.0038,-6.36771 c -4.26e-4,-0.75594 0.4846,-1.36479 1.088212,-1.36604 l 2.663839,-0.006 c 0.603613,-10e-4 1.089359,0.60561 1.089804,1.36152 z m 0.01506,-11.58303 c 4.36e-4,0.7559 -0.484581,1.3648 -1.088202,1.36603 l -2.663839,0.006 c -0.603613,0.001 -1.089349,-0.6056 -1.089794,-1.36154 l -0.0038,-6.36773 c -4.45e-4,-0.75593 0.4846,-1.36684 1.088204,-1.36808 l 2.663838,-0.006 c 0.603613,-9.9e-4 1.089349,0.60769 1.089804,1.36364 z m -56.972815,22.89732 c 4.4e-4,0.75589 -0.4846,1.36477 -1.088215,1.366 l -2.663832,0.006 c -0.603615,0.001 -1.089353,-0.60563 -1.089793,-1.36154 l -0.0038,-6.36775 c -4.39e-4,-0.75591 0.484591,-1.36684 1.088207,-1.36807 l 2.663831,-0.006 c 0.603616,-0.001 1.089353,0.60766 1.089803,1.36359 z m -0.0067,-11.2069 c 4.31e-4,0.75593 -0.484599,1.36478 -1.088205,1.36602 l -2.663841,0.006 c -0.603625,10e-4 -1.089354,-0.6056 -1.089793,-1.36151 l -0.0038,-6.36774 c -4.29e-4,-0.75594 0.484592,-1.36477 1.088217,-1.36603 l 2.663822,-0.006 c 0.603625,-0.001 1.089362,0.6056 1.089812,1.36152 z m 0.01501,-11.58302 c 4.4e-4,0.75591 -0.484589,1.36477 -1.088196,1.366 l -2.663841,0.006 c -0.603626,0.001 -1.089363,-0.60561 -1.089794,-1.36151 l -0.0038,-6.36775 c -4.49e-4,-0.75591 0.48459,-1.36682 1.088207,-1.36806 l 2.663831,-0.006 c 0.603616,-0.001 1.089353,0.60765 1.089801,1.36359 z m 7.270059,22.68252 c 4.4e-4,0.75592 -0.484589,1.36477 -1.088205,1.36601 l -2.663842,0.006 c -0.603606,10e-4 -1.089344,-0.60559 -1.089784,-1.36153 l -0.0038,-6.36772 c -4.49e-4,-0.75594 0.484581,-1.36687 1.088196,-1.36809 l 2.663842,-0.006 c 0.603605,-0.001 1.089343,0.60768 1.089793,1.36362 z m -0.0067,-11.20688 c 4.3e-4,0.75596 -0.4846,1.36479 -1.088206,1.36602 l -2.663841,0.006 c -0.603616,0.001 -1.089354,-0.6056 -1.089793,-1.36154 l -0.0038,-6.36771 c -4.31e-4,-0.75594 0.4846,-1.36479 1.088216,-1.36604 l 2.663831,-0.006 c 0.603616,-10e-4 1.089362,0.60561 1.089803,1.36152 z m 0.01501,-11.58303 c 4.4e-4,0.7559 -0.484581,1.3648 -1.088196,1.36603 l -2.663842,0.006 c -0.603615,0.001 -1.089352,-0.6056 -1.089792,-1.36154 l -0.0038,-6.36773 c -4.51e-4,-0.75593 0.484599,-1.36684 1.088205,-1.36808 l 2.663832,-0.006 c 0.603616,-9.9e-4 1.089353,0.60769 1.089802,1.36364 z m 17.257765,22.70803 c 4.4e-4,0.75589 -0.4846,1.36477 -1.088216,1.366 l -2.663832,0.006 c -0.603616,0.001 -1.089353,-0.60563 -1.089793,-1.36153 l -0.0038,-6.36775 c -4.39e-4,-0.75591 0.484591,-1.36685 1.088207,-1.36808 l 2.663832,-0.006 c 0.603615,-10e-4 1.089352,0.60766 1.089803,1.36359 z m -0.0067,-11.20689 c 4.31e-4,0.75592 -0.484599,1.36478 -1.088206,1.36601 l -2.663841,0.006 c -0.603625,9.9e-4 -1.089353,-0.60561 -1.089793,-1.36152 l -0.0038,-6.36774 c -4.3e-4,-0.75594 0.484591,-1.36477 1.088216,-1.36603 l 2.663823,-0.006 c 0.603625,-10e-4 1.089362,0.60561 1.089811,1.36153 z m 0.01501,-11.58303 c 4.39e-4,0.75591 -0.484591,1.36476 -1.088197,1.366 l -2.663841,0.006 c -0.603625,0.001 -1.089362,-0.6056 -1.089793,-1.36151 l -0.0038,-6.36775 c -4.5e-4,-0.75591 0.48459,-1.36682 1.088206,-1.36807 l 2.663831,-0.006 c 0.603617,-0.001 1.089354,0.60765 1.089802,1.36358 z m 7.270059,22.68253 c 4.39e-4,0.75591 -0.484591,1.36477 -1.088206,1.366 l -2.663842,0.006 c -0.603605,9.9e-4 -1.089343,-0.6056 -1.089783,-1.36154 l -0.0038,-6.36772 c -4.51e-4,-0.75594 0.484579,-1.36687 1.088195,-1.36808 l 2.663842,-0.006 c 0.603606,-9.9e-4 1.089344,0.60769 1.089792,1.36363 z m -0.0067,-11.20689 c 4.3e-4,0.75596 -0.484599,1.36479 -1.088206,1.36602 l -2.663842,0.006 c -0.603615,0.001 -1.089352,-0.6056 -1.089792,-1.36153 l -0.0038,-6.36771 c -4.31e-4,-0.75594 0.484599,-1.36479 1.088215,-1.36604 l 2.663832,-0.006 c 0.603616,-0.001 1.089362,0.6056 1.089802,1.36151 z m 0.01501,-11.58303 c 4.39e-4,0.75591 -0.484581,1.36479 -1.088196,1.36604 l -2.663842,0.006 c -0.603616,10e-4 -1.089354,-0.60561 -1.089792,-1.36155 l -0.0038,-6.36773 c -4.49e-4,-0.75593 0.4846,-1.36683 1.088206,-1.36809 l 2.663832,-0.006 c 0.603615,-0.001 1.089353,0.60768 1.089803,1.36362 z m 18.344273,79.70059 c 4.36e-4,0.71723 -0.479923,1.29498 -1.077714,1.29615 l -2.638124,0.006 c -0.597792,0.001 -1.078842,-0.57465 -1.079276,-1.29191 l -0.0038,-6.04211 c -4.35e-4,-0.71725 0.479914,-1.29693 1.077705,-1.2981 l 2.638125,-0.006 c 0.597791,-0.001 1.078841,0.57659 1.079286,1.29387 z m -0.0066,-10.63378 c 4.26e-4,0.71727 -0.479923,1.29499 -1.077705,1.29616 l -2.638134,0.006 c -0.5978,9.9e-4 -1.078841,-0.57463 -1.079276,-1.29189 l -0.0038,-6.0421 c -4.26e-4,-0.71728 0.479914,-1.29498 1.077714,-1.29618 l 2.638115,-0.006 c 0.597801,-0.001 1.07885,0.57464 1.079296,1.2919 z m 0.01486,-10.99068 c 4.36e-4,0.71725 -0.479913,1.29497 -1.077694,1.29614 l -2.638136,0.006 c -0.597799,0.001 -1.078849,-0.57464 -1.079275,-1.2919 l -0.0038,-6.04211 c -4.44e-4,-0.71725 0.479914,-1.29691 1.077704,-1.29809 l 2.638126,-0.006 c 0.59779,-0.001 1.07884,0.57658 1.079286,1.29386 z m 7.199902,21.52255 c 4.35e-4,0.71727 -0.479915,1.295 -1.077705,1.29616 l -2.638135,0.006 c -0.59778,9.9e-4 -1.07883,-0.57463 -1.079266,-1.29191 l -0.0038,-6.04208 c -4.45e-4,-0.71727 0.479905,-1.29697 1.077695,-1.29813 l 2.638135,-0.006 c 0.597781,-0.001 1.078831,0.57661 1.079276,1.29389 z m -0.0066,-10.63376 c 4.26e-4,0.71729 -0.479923,1.29499 -1.077704,1.29615 l -2.638135,0.006 c -0.597791,0.001 -1.078841,-0.57462 -1.079276,-1.2919 l -0.0038,-6.04208 c -4.26e-4,-0.71727 0.479924,-1.29498 1.077714,-1.29617 l 2.638126,-0.006 c 0.59779,-0.001 1.07885,0.57464 1.079285,1.29189 z m 0.01486,-10.9907 c 4.35e-4,0.71727 -0.479905,1.29502 -1.077696,1.29618 l -2.638134,0.006 c -0.59779,9.9e-4 -1.07884,-0.57465 -1.079276,-1.29192 l -0.0038,-6.04209 c -4.46e-4,-0.71727 0.479922,-1.29695 1.077704,-1.29813 l 2.638134,-0.006 c 0.597781,-0.001 1.078832,0.57661 1.079277,1.2939 z m -28.903982,0.12607 c 4.37e-4,0.71726 -0.479908,1.295 -1.077695,1.29617 l -2.638135,0.006 c -0.597795,0.001 -1.078844,-0.57464 -1.079273,-1.29192 l -0.004,-6.04209 c -4.45e-4,-0.71727 0.479916,-1.29694 1.077702,-1.29812 l 2.638129,-0.006 c 0.597785,-0.001 1.078835,0.57661 1.07928,1.29389 z m -0.01489,10.99069 c 4.28e-4,0.71729 -0.479925,1.29499 -1.077702,1.29615 l -2.638137,0.006 c -0.597794,0.001 -1.078843,-0.57463 -1.079273,-1.2919 l -0.004,-6.04209 c -4.29e-4,-0.71727 0.479916,-1.29498 1.07771,-1.29617 l 2.638121,-0.006 c 0.597794,-0.001 1.078852,0.57463 1.079288,1.29189 z m 0.0065,10.63377 c 4.38e-4,0.71726 -0.479917,1.29498 -1.077709,1.29615 l -2.63813,0.006 c -0.597785,0.001 -1.078834,-0.57463 -1.079271,-1.2919 l -0.004,-6.04209 c -4.35e-4,-0.71728 0.47991,-1.29696 1.077704,-1.29812 l 2.638128,-0.006 c 0.597786,-0.001 1.078835,0.57661 1.07928,1.29388 z m -7.199756,-21.52256 c 4.38e-4,0.71726 -0.479908,1.29498 -1.077693,1.29615 l -2.638138,0.006 c -0.597793,0.001 -1.078843,-0.57464 -1.079272,-1.2919 l -0.004,-6.0421 c -4.44e-4,-0.71726 0.479916,-1.29693 1.077703,-1.2981 l 2.638128,-0.006 c 0.597786,-9.9e-4 1.078836,0.57659 1.07928,1.29386 z m -0.01489,10.99068 c 4.29e-4,0.71727 -0.479925,1.29498 -1.077702,1.29616 l -2.638135,0.006 c -0.597795,0.001 -1.078845,-0.57462 -1.079274,-1.29188 l -0.004,-6.0421 c -4.3e-4,-0.71728 0.479915,-1.29497 1.077709,-1.29617 l 2.638121,-0.006 c 0.597794,-0.001 1.078852,0.57464 1.079289,1.29189 z m 0.0065,10.63378 c 4.37e-4,0.71724 -0.479917,1.29499 -1.07771,1.29615 l -2.638129,0.006 c -0.597785,9.9e-4 -1.078835,-0.57465 -1.079271,-1.29191 l -0.004,-6.0421 c -4.37e-4,-0.71726 0.479909,-1.29695 1.077702,-1.29812 l 2.638129,-0.006 c 0.597785,-9.9e-4 1.078835,0.5766 1.07928,1.29387 z m -21.797478,-0.0627 c 4.36e-4,0.71723 -0.479917,1.29498 -1.077711,1.29615 l -2.638129,0.006 c -0.597786,10e-4 -1.078835,-0.57465 -1.079271,-1.29192 l -0.004,-6.0421 c -4.38e-4,-0.71725 0.479909,-1.29694 1.077701,-1.2981 l 2.638131,-0.006 c 0.597784,-9.9e-4 1.078833,0.5766 1.07928,1.29387 z m -0.0065,-10.63379 c 4.29e-4,0.71727 -0.479926,1.29498 -1.077703,1.29616 l -2.638136,0.006 c -0.597794,10e-4 -1.078843,-0.57463 -1.079272,-1.29188 l -0.004,-6.04211 c -4.3e-4,-0.71728 0.479916,-1.29497 1.077709,-1.29617 l 2.638122,-0.006 c 0.597794,-0.001 1.078851,0.57463 1.079288,1.29189 z m 0.01489,-10.99067 c 4.37e-4,0.71725 -0.479909,1.29497 -1.077695,1.29614 l -2.638136,0.006 c -0.597793,10e-4 -1.078843,-0.57463 -1.079272,-1.2919 l -0.004,-6.0421 c -4.45e-4,-0.71725 0.479916,-1.29692 1.077702,-1.2981 l 2.638128,-0.006 c 0.597787,-9.9e-4 1.078836,0.57659 1.07928,1.29386 z m 7.199904,21.52255 c 4.37e-4,0.71726 -0.479917,1.29498 -1.07771,1.29616 l -2.63813,0.006 c -0.597785,10e-4 -1.078834,-0.57463 -1.079271,-1.2919 l -0.004,-6.04208 c -4.37e-4,-0.71729 0.479909,-1.29697 1.077702,-1.29813 l 2.63813,-0.006 c 0.597786,-0.001 1.078834,0.5766 1.07928,1.29388 z m -0.0065,-10.63377 c 4.28e-4,0.7173 -0.479925,1.295 -1.077703,1.29616 l -2.638137,0.006 c -0.597793,10e-4 -1.078842,-0.57463 -1.079272,-1.2919 l -0.004,-6.04208 c -4.29e-4,-0.71728 0.479917,-1.29499 1.077711,-1.29618 l 2.63812,-0.006 c 0.597795,-0.001 1.078852,0.57464 1.079288,1.29189 z m 0.01489,-10.99069 c 4.36e-4,0.71726 -0.479909,1.295 -1.077695,1.29617 l -2.638136,0.006 c -0.597794,0.001 -1.078843,-0.57464 -1.079272,-1.29191 l -0.004,-6.0421 c -4.46e-4,-0.71727 0.479916,-1.29694 1.077702,-1.29812 l 2.638128,-0.006 c 0.597786,-0.001 1.078836,0.57661 1.07928,1.2939 z m 45.992699,259.8516 c -0.383604,-5.4e-4 -0.692577,0.59269 -0.693202,1.33095 l -0.0028,3.25809 c -6.54e-4,0.73827 0.307325,1.33237 0.690929,1.33291 l 3.231409,0.005 c 0.383604,5.5e-4 0.693618,-0.5927 0.694253,-1.33096 l 0.0028,-3.25808 c 6.44e-4,-0.73826 -0.308368,-1.33235 -0.69198,-1.3329 z m -5.877999,0.0184 c -0.383613,-5.4e-4 -0.692586,0.5927 -0.693211,1.33095 l -0.0028,3.25809 c -6.43e-4,0.73828 0.307327,1.33237 0.69093,1.3329 l 3.231418,0.005 c 0.383613,5.3e-4 0.692577,-0.59269 0.693212,-1.33097 l 0.0028,-3.25806 c 6.44e-4,-0.73828 -0.307325,-1.33238 -0.690929,-1.33292 z m -5.687119,-0.008 c -0.383591,-5.4e-4 -0.692573,0.59269 -0.693199,1.33097 l -0.0028,3.25808 c -6.34e-4,0.73826 0.307326,1.33235 0.690926,1.33289 l 3.231409,0.005 c 0.383603,5.4e-4 0.693628,-0.59268 0.694253,-1.33095 l 0.0028,-3.25809 c 6.43e-4,-0.73826 -0.308368,-1.33236 -0.691981,-1.33291 z m 0.323978,-9.18412 c -0.383603,-5.4e-4 -0.692576,0.5927 -0.693202,1.33097 l -0.0027,3.25808 c -6.41e-4,0.73826 0.307327,1.33236 0.69093,1.3329 l 3.23141,0.005 c 0.383603,5.4e-4 0.693627,-0.59269 0.694252,-1.33096 l 0.0028,-3.25809 c 6.35e-4,-0.73825 -0.308376,-1.33235 -0.691979,-1.3329 z m 5.68711,0.008 c -0.383613,-5.4e-4 -0.692576,0.59271 -0.693201,1.33096 l -0.0028,3.25809 c -6.53e-4,0.73827 0.307326,1.33237 0.690929,1.3329 l 3.23141,0.005 c 0.383603,5.3e-4 0.692577,-0.5927 0.693211,-1.33097 l 0.0028,-3.25807 c 6.44e-4,-0.73827 -0.307326,-1.33238 -0.690929,-1.33292 z m 5.877998,-0.0184 c -0.383603,-5.4e-4 -0.692585,0.59268 -0.693211,1.33095 l -0.0028,3.25809 c -6.44e-4,0.73827 0.307326,1.33237 0.690939,1.3329 l 3.23141,0.005 c 0.383603,5.5e-4 0.693617,-0.59269 0.694252,-1.33095 l 0.0028,-3.25808 c 6.34e-4,-0.73827 -0.308376,-1.33236 -0.691989,-1.33291 z M 61.889861,417.8077 c -0.383603,-5.4e-4 -0.692577,0.5927 -0.693205,1.33097 l -0.0027,3.25808 c -6.41e-4,0.73826 0.307329,1.33236 0.690923,1.3329 l 3.231409,0.005 c 0.383613,5.4e-4 0.693629,-0.59269 0.694253,-1.33096 l 0.0028,-3.25809 c 6.44e-4,-0.73825 -0.308367,-1.33236 -0.691971,-1.33291 z m 5.687111,0.008 c -0.383613,-5.4e-4 -0.692587,0.59271 -0.693211,1.33095 l -0.0028,3.2581 c -6.44e-4,0.73827 0.307326,1.33236 0.690939,1.33289 l 3.231409,0.005 c 0.383604,5.3e-4 0.692577,-0.5927 0.693211,-1.33097 l 0.0028,-3.25807 c 6.34e-4,-0.73827 -0.307326,-1.33238 -0.690939,-1.33292 z m 5.877998,-0.0184 c -0.383613,-5.4e-4 -0.692586,0.59268 -0.693211,1.33095 l -0.0028,3.25808 c -6.44e-4,0.73828 0.307326,1.33237 0.690929,1.33291 l 3.231409,0.005 c 0.383614,5.5e-4 0.693628,-0.59269 0.694253,-1.33096 l 0.0028,-3.25807 c 6.44e-4,-0.73827 -0.308366,-1.33236 -0.691979,-1.33291 z m -11.844383,-9.1562 c -0.383597,-5.4e-4 -0.692574,0.5927 -0.6932,1.33097 l -0.0027,3.25808 c -6.41e-4,0.73826 0.307327,1.33237 0.690929,1.33291 l 3.23141,0.005 c 0.383603,5.4e-4 0.693627,-0.59269 0.694252,-1.33096 l 0.0028,-3.25808 c 6.44e-4,-0.73826 -0.308368,-1.33236 -0.691981,-1.33291 z m 5.68712,0.008 c -0.383612,-5.3e-4 -0.692586,0.59271 -0.693211,1.33096 l -0.0028,3.25809 c -6.44e-4,0.73827 0.307325,1.33236 0.690929,1.33289 l 3.231409,0.005 c 0.383613,5.3e-4 0.692577,-0.5927 0.693211,-1.33097 l 0.0028,-3.25808 c 6.44e-4,-0.73827 -0.307326,-1.33238 -0.69093,-1.33292 z m 5.877989,-0.0184 c -0.383604,-5.4e-4 -0.692577,0.59269 -0.693211,1.33095 l -0.0028,3.25809 c -6.44e-4,0.73828 0.307335,1.33237 0.690939,1.3329 l 3.231409,0.005 c 0.383604,5.5e-4 0.693618,-0.59269 0.694253,-1.33096 l 0.0028,-3.25807 c 6.44e-4,-0.73827 -0.308368,-1.33236 -0.691991,-1.33291 z m -11.510615,-8.89186 c -0.383601,-5.4e-4 -0.692577,0.5927 -0.693203,1.33097 l -0.0027,3.25808 c -6.41e-4,0.73826 0.307327,1.33236 0.690932,1.3329 l 3.231409,0.005 c 0.383604,5.4e-4 0.693618,-0.59269 0.694252,-1.33096 l 0.0028,-3.25808 c 6.34e-4,-0.73826 -0.308376,-1.33236 -0.69198,-1.33291 z m 5.68711,0.008 c -0.383613,-5.3e-4 -0.692576,0.5927 -0.693202,1.33096 l -0.0028,3.25809 c -6.53e-4,0.73827 0.307326,1.33236 0.690929,1.33289 l 3.23141,0.005 c 0.383603,5.3e-4 0.692576,-0.5927 0.693211,-1.33096 l 0.0028,-3.25808 c 6.44e-4,-0.73828 -0.307326,-1.33238 -0.690939,-1.33292 z m 5.877998,-0.0184 c -0.383603,-5.4e-4 -0.692586,0.59269 -0.693211,1.33094 l -0.0028,3.2581 c -6.44e-4,0.73828 0.307326,1.33237 0.690939,1.3329 l 3.23141,0.005 c 0.383604,5.5e-4 0.693618,-0.59269 0.694252,-1.33096 l 0.0028,-3.25808 c 6.34e-4,-0.73826 -0.308377,-1.33235 -0.69199,-1.3329 z M 61.65625,390.4534 c -0.383604,-5.4e-4 -0.692579,0.5927 -0.693206,1.33097 l -0.0027,3.25808 c -6.41e-4,0.73826 0.307327,1.33236 0.690923,1.3329 l 3.23141,0.005 c 0.383613,5.4e-4 0.693628,-0.59269 0.694252,-1.33096 l 0.0028,-3.25808 c 6.44e-4,-0.73826 -0.308367,-1.33236 -0.69197,-1.33291 z m 5.687109,0.008 c -0.383613,-5.3e-4 -0.692586,0.59271 -0.693211,1.33096 l -0.0028,3.2581 c -6.43e-4,0.73826 0.307326,1.33236 0.690939,1.33289 l 3.23141,0.005 c 0.383604,5.3e-4 0.692576,-0.5927 0.693211,-1.33097 l 0.0028,-3.25807 c 6.34e-4,-0.73827 -0.307326,-1.33238 -0.690939,-1.33292 z m 5.877999,-0.0184 c -0.383613,-5.4e-4 -0.692586,0.59268 -0.693212,1.33095 l -0.0028,3.25808 c -6.44e-4,0.73828 0.307326,1.33237 0.690929,1.3329 l 3.23141,0.005 c 0.383613,5.5e-4 0.693627,-0.59269 0.694252,-1.33096 l 0.0028,-3.25808 c 6.43e-4,-0.73826 -0.308367,-1.33236 -0.69198,-1.33291 z m -11.510624,-8.89186 c -0.383595,-5.4e-4 -0.692572,0.5927 -0.6932,1.33097 l -0.0027,3.25808 c -6.41e-4,0.73826 0.307322,1.33235 0.690926,1.33289 l 3.231409,0.005 c 0.383604,5.4e-4 0.693628,-0.59269 0.694253,-1.33096 l 0.0028,-3.25808 c 6.44e-4,-0.73826 -0.308368,-1.33236 -0.691981,-1.33291 z m 5.687119,0.008 c -0.383613,-5.3e-4 -0.692587,0.5927 -0.693211,1.33096 l -0.0028,3.2581 c -6.44e-4,0.73826 0.307326,1.33236 0.690939,1.33289 l 3.2314,0.005 c 0.383613,5.3e-4 0.692577,-0.59269 0.693211,-1.33096 l 0.0028,-3.25807 c 6.44e-4,-0.73828 -0.307325,-1.33238 -0.690929,-1.33292 z m 5.877998,-0.0184 c -0.383612,-5.4e-4 -0.692586,0.59268 -0.693211,1.33094 l -0.0028,3.25809 c -6.54e-4,0.73828 0.307326,1.33237 0.690929,1.3329 l 3.231409,0.005 c 0.383604,5.5e-4 0.693619,-0.59269 0.694253,-1.33096 l 0.0028,-3.25809 c 6.44e-4,-0.73826 -0.308367,-1.33235 -0.69198,-1.3329 z m -11.564417,-9.65476 c -0.383603,-5.4e-4 -0.692581,0.59269 -0.693207,1.33097 l -0.0027,3.25808 c -6.41e-4,0.73826 0.307332,1.33235 0.690926,1.33289 l 3.23141,0.005 c 0.383603,5.4e-4 0.693627,-0.59269 0.694252,-1.33096 l 0.0028,-3.25809 c 6.44e-4,-0.73827 -0.308367,-1.33236 -0.69197,-1.33291 z m 5.68711,0.008 c -0.383613,-5.3e-4 -0.692586,0.59271 -0.693211,1.33096 l -0.0028,3.2581 c -6.44e-4,0.73827 0.307326,1.33236 0.690939,1.33289 l 3.23141,0.005 c 0.383603,5.3e-4 0.692576,-0.59269 0.693201,-1.33096 l 0.0028,-3.25807 c 6.44e-4,-0.73828 -0.307326,-1.33238 -0.690929,-1.33292 z m 5.877998,-0.0184 c -0.383613,-5.4e-4 -0.692586,0.59268 -0.693211,1.33094 l -0.0028,3.25809 c -6.52e-4,0.73828 0.307326,1.33237 0.69093,1.33291 l 3.23141,0.005 c 0.383612,5.5e-4 0.693617,-0.59269 0.694251,-1.33096 l 0.0028,-3.25808 c 6.44e-4,-0.73826 -0.308367,-1.33235 -0.69198,-1.3329 z m -11.510624,-8.89173 c -0.383594,-5.4e-4 -0.692574,0.59269 -0.693201,1.33097 l -0.0027,3.25808 c -6.41e-4,0.73826 0.307325,1.33235 0.690928,1.33289 l 3.231409,0.005 c 0.383604,5.4e-4 0.693627,-0.59268 0.694253,-1.33095 l 0.0028,-3.25809 c 6.44e-4,-0.73827 -0.308368,-1.33236 -0.69198,-1.33291 z m 5.68712,0.008 c -0.383613,-5.3e-4 -0.692587,0.59271 -0.693212,1.33096 l -0.0028,3.25809 c -6.44e-4,0.73828 0.307326,1.33237 0.690929,1.3329 l 3.231409,0.005 c 0.383614,5.3e-4 0.692577,-0.59269 0.693211,-1.33097 l 0.0028,-3.25806 c 6.44e-4,-0.73828 -0.307325,-1.33238 -0.690929,-1.33292 z m 5.877988,-0.0184 c -0.383603,-5.4e-4 -0.692577,0.59269 -0.693211,1.33095 l -0.0028,3.25809 c -6.43e-4,0.73827 0.307336,1.33237 0.69094,1.3329 l 3.231408,0.005 c 0.383605,5.5e-4 0.693619,-0.5927 0.694253,-1.33096 l 0.0028,-3.25808 c 6.44e-4,-0.73826 -0.308367,-1.33235 -0.69199,-1.33291 z m -11.565108,-9.22619 c -0.383594,-5.4e-4 -0.692574,0.59269 -0.693201,1.33097 l -0.0027,3.25808 c -6.41e-4,0.73826 0.307325,1.33235 0.690928,1.33289 l 3.231409,0.005 c 0.383604,5.3e-4 0.693627,-0.59269 0.694253,-1.33096 l 0.0028,-3.25809 c 6.44e-4,-0.73826 -0.308368,-1.33236 -0.69198,-1.33291 z m 5.68712,0.008 c -0.383613,-5.3e-4 -0.692587,0.5927 -0.693212,1.33096 l -0.0028,3.25808 c -6.44e-4,0.73828 0.307326,1.33237 0.690929,1.3329 l 3.231409,0.005 c 0.383614,5.3e-4 0.692577,-0.59269 0.693211,-1.33097 l 0.0028,-3.25806 c 6.44e-4,-0.73828 -0.307325,-1.33238 -0.690929,-1.33292 z m 5.877988,-0.0184 c -0.383603,-5.3e-4 -0.692577,0.59269 -0.693211,1.33095 l -0.0028,3.25809 c -6.43e-4,0.73828 0.307336,1.33238 0.69094,1.33291 l 3.231408,0.005 c 0.383605,5.5e-4 0.693619,-0.59269 0.694253,-1.33096 l 0.0028,-3.25808 c 6.44e-4,-0.73826 -0.308367,-1.33235 -0.69199,-1.3329 z M 38.731078,442.1462 c -0.383594,-5.3e-4 -0.692577,0.5927 -0.693201,1.33097 l -0.0028,3.25808 c -6.35e-4,0.73827 0.307325,1.33236 0.690929,1.3329 l 3.231409,0.005 c 0.383605,5.4e-4 0.693628,-0.59268 0.694253,-1.33096 l 0.0028,-3.25809 c 6.44e-4,-0.73826 -0.308368,-1.33235 -0.691981,-1.3329 z m 5.68712,0.008 c -0.383613,-5.3e-4 -0.692586,0.59272 -0.693212,1.33096 l -0.0028,3.2581 c -6.44e-4,0.73827 0.307326,1.33237 0.690929,1.3329 l 3.23141,0.005 c 0.383613,5.3e-4 0.692576,-0.5927 0.693211,-1.33097 l 0.0028,-3.25807 c 6.44e-4,-0.73827 -0.307326,-1.33237 -0.69093,-1.33291 z m 5.877988,-0.0184 c -0.383603,-5.4e-4 -0.692576,0.59268 -0.693201,1.33095 l -0.0028,3.25809 c -6.54e-4,0.73827 0.307326,1.33236 0.690929,1.33289 l 3.23141,0.005 c 0.383604,5.4e-4 0.693618,-0.5927 0.694252,-1.33096 l 0.0028,-3.25808 c 6.44e-4,-0.73827 -0.308367,-1.33236 -0.69198,-1.33292 z m -11.510615,-8.89186 c -0.383603,-5.4e-4 -0.692576,0.5927 -0.693201,1.33097 l -0.0028,3.25808 c -6.44e-4,0.73826 0.307326,1.33236 0.690929,1.3329 l 3.23141,0.005 c 0.383604,5.4e-4 0.693628,-0.59269 0.694252,-1.33096 l 0.0028,-3.25809 c 6.35e-4,-0.73826 -0.308377,-1.33235 -0.69198,-1.3329 z m 5.687111,0.008 c -0.383613,-5.3e-4 -0.692577,0.59272 -0.693202,1.33096 l -0.0028,3.2581 c -6.54e-4,0.73827 0.307325,1.33237 0.690929,1.33289 l 3.231409,0.005 c 0.383604,5.3e-4 0.692577,-0.5927 0.693211,-1.33097 l 0.0028,-3.25807 c 6.44e-4,-0.73827 -0.307326,-1.33238 -0.69093,-1.33292 z m 5.877998,-0.0184 c -0.383603,-5.4e-4 -0.692587,0.59268 -0.693211,1.33095 l -0.0028,3.25808 c -6.44e-4,0.73828 0.307326,1.33237 0.690939,1.3329 l 3.231409,0.005 c 0.383604,5.5e-4 0.693619,-0.59269 0.694253,-1.33096 l 0.0028,-3.25807 c 6.34e-4,-0.73827 -0.308377,-1.33237 -0.69199,-1.33292 z m -11.44749,-9.67537 c -0.3836,-5.4e-4 -0.692576,0.5927 -0.693203,1.33097 l -0.0027,3.25808 c -6.4e-4,0.73826 0.307328,1.33236 0.690927,1.3329 l 3.231409,0.005 c 0.383607,5.4e-4 0.693627,-0.59269 0.694254,-1.33096 l 0.0027,-3.25808 c 6.4e-4,-0.73826 -0.308371,-1.33236 -0.691978,-1.3329 z m 5.687114,0.008 c -0.383614,-5.3e-4 -0.692584,0.59271 -0.693209,1.33096 l -0.0027,3.25809 c -6.46e-4,0.73827 0.307327,1.33236 0.690934,1.3329 l 3.231409,0.005 c 0.383607,5.3e-4 0.692577,-0.5927 0.69321,-1.33097 l 0.0027,-3.25807 c 6.41e-4,-0.73827 -0.307326,-1.33238 -0.690933,-1.33292 z m 5.877995,-0.0184 c -0.383607,-5.4e-4 -0.692584,0.59268 -0.69321,1.33095 l -0.0027,3.25808 c -6.47e-4,0.73828 0.307327,1.33237 0.690933,1.3329 l 3.23141,0.005 c 0.383607,5.5e-4 0.693619,-0.5927 0.694253,-1.33096 l 0.0027,-3.25808 c 6.4e-4,-0.73827 -0.308371,-1.33236 -0.691985,-1.33291 z M 38.95768,414.65583 c -0.383599,-5.5e-4 -0.692576,0.5927 -0.693202,1.33097 l -0.0027,3.25808 c -6.41e-4,0.73826 0.307327,1.33235 0.690927,1.33289 l 3.231409,0.005 c 0.383606,5.4e-4 0.693626,-0.59269 0.694254,-1.33096 l 0.0027,-3.25808 c 6.4e-4,-0.73826 -0.30837,-1.33236 -0.691977,-1.33291 z m 5.687115,0.008 c -0.383614,-5.3e-4 -0.692584,0.5927 -0.693209,1.33096 l -0.0027,3.25809 c -6.47e-4,0.73827 0.307327,1.33236 0.690934,1.3329 l 3.231408,0.005 c 0.383608,5.2e-4 0.692577,-0.5927 0.69321,-1.33097 l 0.0027,-3.25807 c 6.41e-4,-0.73828 -0.307327,-1.33238 -0.690933,-1.33293 z m 5.877995,-0.0184 c -0.383608,-5.4e-4 -0.692584,0.59268 -0.69321,1.33095 l -0.0027,3.25808 c -6.48e-4,0.73828 0.307327,1.33237 0.690933,1.3329 l 3.231409,0.005 c 0.383608,5.5e-4 0.69362,-0.5927 0.694254,-1.33096 l 0.0027,-3.25808 c 6.4e-4,-0.73827 -0.308372,-1.33236 -0.691986,-1.33291 z m -11.844379,-9.1562 c -0.383599,-5.4e-4 -0.692576,0.5927 -0.693203,1.33097 l -0.0027,3.25808 c -6.41e-4,0.73826 0.307327,1.33235 0.690927,1.33289 l 3.231409,0.005 c 0.383607,5.4e-4 0.693627,-0.59269 0.694253,-1.33096 l 0.0027,-3.25809 c 6.4e-4,-0.73826 -0.30837,-1.33236 -0.691978,-1.33291 z m 5.687113,0.008 c -0.383614,-5.3e-4 -0.692582,0.59271 -0.693209,1.33096 l -0.0027,3.2581 c -6.47e-4,0.73827 0.307326,1.33236 0.690934,1.33289 l 3.231408,0.005 c 0.383607,5.2e-4 0.692577,-0.5927 0.69321,-1.33097 l 0.0027,-3.25807 c 6.41e-4,-0.73828 -0.307327,-1.33238 -0.690933,-1.33292 z m 5.877996,-0.0184 c -0.383607,-5.4e-4 -0.692583,0.59268 -0.69321,1.33095 l -0.0027,3.25808 c -6.48e-4,0.73828 0.307326,1.33237 0.690933,1.3329 l 3.231409,0.005 c 0.383608,5.5e-4 0.693621,-0.59269 0.694254,-1.33096 l 0.0027,-3.25807 c 6.4e-4,-0.73827 -0.308371,-1.33237 -0.691985,-1.33292 z m -11.510618,-8.89186 c -0.3836,-5.4e-4 -0.692576,0.59269 -0.693203,1.33097 l -0.0027,3.25808 c -6.41e-4,0.73826 0.307326,1.33235 0.690927,1.33289 l 3.231408,0.005 c 0.383608,5.3e-4 0.693628,-0.59269 0.694254,-1.33096 l 0.0027,-3.25809 c 6.4e-4,-0.73827 -0.308371,-1.33236 -0.691978,-1.33291 z m 5.687113,0.008 c -0.383614,-5.3e-4 -0.692583,0.5927 -0.693209,1.33096 l -0.0027,3.25809 c -6.47e-4,0.73828 0.307327,1.33237 0.690934,1.3329 l 3.231409,0.005 c 0.383607,5.3e-4 0.692576,-0.59269 0.69321,-1.33097 l 0.0027,-3.25806 c 6.41e-4,-0.73828 -0.307326,-1.33238 -0.690933,-1.33292 z m 5.877996,-0.0184 c -0.383607,-5.3e-4 -0.692584,0.59269 -0.69321,1.33095 l -0.0027,3.25809 c -6.47e-4,0.73828 0.307327,1.33237 0.690934,1.3329 l 3.231409,0.005 c 0.383608,5.5e-4 0.69362,-0.59269 0.694253,-1.33096 l 0.0027,-3.25808 c 6.4e-4,-0.73826 -0.308371,-1.33236 -0.691985,-1.33291 z M 38.724162,387.3016 c -0.383601,-5.4e-4 -0.692576,0.5927 -0.693204,1.33097 l -0.0027,3.25809 c -6.41e-4,0.73825 0.307326,1.33235 0.690926,1.33289 l 3.231409,0.005 c 0.383607,5.4e-4 0.693627,-0.59269 0.694254,-1.33096 l 0.0027,-3.25808 c 6.4e-4,-0.73826 -0.308371,-1.33236 -0.691978,-1.33291 z m 5.687113,0.008 c -0.383614,-5.3e-4 -0.692584,0.5927 -0.693209,1.33096 l -0.0027,3.25809 c -6.47e-4,0.73827 0.307327,1.33236 0.690934,1.33289 l 3.231409,0.005 c 0.383607,5.2e-4 0.692576,-0.5927 0.69321,-1.33097 l 0.0027,-3.25808 c 6.41e-4,-0.73828 -0.307326,-1.33238 -0.690933,-1.33292 z m 5.877996,-0.0184 c -0.383607,-5.5e-4 -0.692584,0.59268 -0.69321,1.33095 l -0.0027,3.25808 c -6.48e-4,0.73828 0.307327,1.33237 0.690933,1.3329 l 3.23141,0.005 c 0.383607,5.5e-4 0.69362,-0.59269 0.694253,-1.33096 l 0.0027,-3.25808 c 6.4e-4,-0.73826 -0.308371,-1.33235 -0.691985,-1.3329 z m -11.510619,-8.89187 c -0.3836,-5.4e-4 -0.692576,0.59269 -0.693203,1.33097 l -0.0027,3.25809 c -6.41e-4,0.73825 0.307327,1.33235 0.690926,1.33289 l 3.23141,0.005 c 0.383607,5.3e-4 0.693627,-0.59269 0.694253,-1.33096 l 0.0027,-3.25808 c 6.4e-4,-0.73827 -0.30837,-1.33236 -0.691977,-1.33291 z m 5.687114,0.008 c -0.383614,-5.3e-4 -0.692584,0.5927 -0.693209,1.33096 l -0.0027,3.25808 c -6.47e-4,0.73828 0.307327,1.33237 0.690934,1.3329 l 3.231408,0.005 c 0.383608,5.3e-4 0.692577,-0.59269 0.69321,-1.33097 l 0.0027,-3.25807 c 6.41e-4,-0.73828 -0.307327,-1.33238 -0.690933,-1.33292 z m 5.877996,-0.0184 c -0.383608,-5.4e-4 -0.692584,0.59269 -0.69321,1.33094 l -0.0027,3.2581 c -6.48e-4,0.73828 0.307327,1.33237 0.690933,1.3329 l 3.231409,0.005 c 0.383608,5.5e-4 0.693621,-0.59269 0.694254,-1.33096 l 0.0027,-3.25808 c 6.4e-4,-0.73826 -0.308372,-1.33235 -0.691986,-1.3329 z m -11.564418,-9.65478 c -0.3836,-5.5e-4 -0.692576,0.59269 -0.693202,1.33096 l -0.0027,3.25809 c -6.41e-4,0.73826 0.307327,1.33235 0.690926,1.33289 l 3.231409,0.005 c 0.383607,5.4e-4 0.693627,-0.59268 0.694254,-1.33095 l 0.0027,-3.25808 c 6.4e-4,-0.73827 -0.308371,-1.33236 -0.691978,-1.33291 z m 5.687114,0.008 c -0.383614,-5.3e-4 -0.692583,0.5927 -0.693209,1.33096 l -0.0027,3.25808 c -6.46e-4,0.73828 0.307327,1.33237 0.690934,1.33291 l 3.231409,0.005 c 0.383607,5.3e-4 0.692577,-0.59269 0.693211,-1.33097 l 0.0027,-3.25806 c 6.4e-4,-0.73828 -0.307327,-1.33238 -0.690933,-1.33293 z m 5.877995,-0.0184 c -0.383607,-5.4e-4 -0.692584,0.59269 -0.69321,1.33095 l -0.0027,3.25809 c -6.47e-4,0.73828 0.307327,1.33237 0.690933,1.3329 l 3.23141,0.005 c 0.383607,5.5e-4 0.69362,-0.5927 0.694253,-1.33096 l 0.0027,-3.25809 c 6.4e-4,-0.73826 -0.308371,-1.33235 -0.691985,-1.3329 z m -11.510619,-8.89186 c -0.383599,-5.4e-4 -0.692575,0.5927 -0.693202,1.33097 l -0.0027,3.25808 c -6.41e-4,0.73827 0.307327,1.33236 0.690927,1.3329 l 3.231409,0.005 c 0.383606,5.4e-4 0.693626,-0.59268 0.694254,-1.33096 l 0.0027,-3.25807 c 6.4e-4,-0.73827 -0.30837,-1.33236 -0.691977,-1.33291 z m 5.687115,0.008 c -0.383614,-5.3e-4 -0.692584,0.5927 -0.693209,1.33096 l -0.0027,3.25808 c -6.47e-4,0.73828 0.307327,1.33237 0.690934,1.3329 l 3.231408,0.005 c 0.383609,5.3e-4 0.692577,-0.59269 0.693211,-1.33097 l 0.0027,-3.25806 c 6.41e-4,-0.73828 -0.307327,-1.33239 -0.690933,-1.33293 z m 5.877995,-0.0184 c -0.383608,-5.4e-4 -0.692583,0.59269 -0.69321,1.33095 l -0.0027,3.25809 c -6.48e-4,0.73827 0.307327,1.33237 0.690933,1.3329 l 3.231409,0.005 c 0.383608,5.6e-4 0.693621,-0.5927 0.694254,-1.33095 l 0.0027,-3.25809 c 6.4e-4,-0.73826 -0.308372,-1.33236 -0.691986,-1.3329 z m -11.56511,-9.2262 c -0.383599,-5.4e-4 -0.692575,0.59269 -0.693202,1.33097 l -0.0027,3.25808 c -6.41e-4,0.73826 0.307327,1.33235 0.690927,1.33289 l 3.231409,0.005 c 0.383606,5.4e-4 0.693626,-0.59268 0.694254,-1.33095 l 0.0027,-3.25808 c 6.4e-4,-0.73827 -0.30837,-1.33236 -0.691977,-1.33291 z m 5.687115,0.008 c -0.383614,-5.3e-4 -0.692584,0.5927 -0.693209,1.33096 l -0.0027,3.25808 c -6.47e-4,0.73828 0.307327,1.33238 0.690934,1.33291 l 3.231408,0.005 c 0.383609,5.3e-4 0.692577,-0.59269 0.693211,-1.33097 l 0.0027,-3.25806 c 6.41e-4,-0.73828 -0.307327,-1.33238 -0.690933,-1.33292 z m 5.877995,-0.0184 c -0.383608,-5.4e-4 -0.692583,0.59269 -0.69321,1.33095 l -0.0027,3.25809 c -6.48e-4,0.73827 0.307327,1.33237 0.690933,1.3329 l 3.231409,0.005 c 0.383608,5.5e-4 0.693621,-0.5927 0.694254,-1.33096 l 0.0027,-3.25809 c 6.4e-4,-0.73826 -0.308372,-1.33235 -0.691986,-1.3329 z m -22.502592,85.29595 c -0.383604,-5.4e-4 -0.692586,0.59268 -0.693211,1.33095 l -0.0028,3.25808 c -6.44e-4,0.73828 0.307326,1.33237 0.690939,1.3329 l 3.23141,0.005 c 0.383603,5.5e-4 0.693618,-0.59269 0.694252,-1.33096 l 0.0028,-3.25808 c 6.35e-4,-0.73826 -0.308376,-1.33236 -0.691989,-1.33291 z m -5.877999,0.0184 c -0.383613,-5.3e-4 -0.692576,0.59271 -0.693201,1.33096 l -0.0028,3.2581 c -6.52e-4,0.73826 0.307326,1.33236 0.69093,1.33289 l 3.231409,0.005 c 0.383604,5.3e-4 0.692577,-0.5927 0.693212,-1.33097 l 0.0028,-3.25807 c 6.44e-4,-0.73827 -0.307326,-1.33238 -0.690929,-1.33292 z m -5.687109,-0.008 c -0.383604,-5.4e-4 -0.692577,0.5927 -0.693202,1.33097 l -0.0028,3.25808 c -6.44e-4,0.73826 0.307325,1.33236 0.690929,1.3329 l 3.231409,0.005 c 0.383604,5.5e-4 0.693627,-0.59269 0.694253,-1.33095 l 0.0028,-3.25809 c 6.35e-4,-0.73826 -0.308376,-1.33236 -0.69198,-1.33291 z m 33.964947,15.06932 c -0.383603,-5.4e-4 -0.692577,0.59269 -0.693201,1.33095 l -0.0028,3.2581 c -6.54e-4,0.73827 0.307326,1.33237 0.690929,1.3329 l 3.231409,0.005 c 0.383604,5.5e-4 0.693619,-0.5927 0.694253,-1.33096 l 0.0028,-3.25808 c 6.44e-4,-0.73826 -0.308367,-1.33236 -0.69198,-1.3329 z m -5.877989,0.0184 c -0.383613,-5.3e-4 -0.692585,0.5927 -0.693211,1.33096 l -0.0028,3.25808 c -6.44e-4,0.73828 0.307326,1.33237 0.690929,1.3329 l 3.23141,0.005 c 0.383613,5.4e-4 0.692576,-0.59269 0.69321,-1.33096 l 0.0028,-3.25807 c 6.43e-4,-0.73828 -0.307326,-1.33238 -0.690931,-1.33292 z m -5.687119,-0.008 c -0.383594,-5.4e-4 -0.692577,0.59269 -0.693201,1.33097 l -0.0028,3.25807 c -6.35e-4,0.73827 0.307325,1.33236 0.690929,1.33291 l 3.231409,0.005 c 0.383603,5.4e-4 0.693628,-0.59268 0.694253,-1.33096 l 0.0028,-3.25807 c 6.44e-4,-0.73827 -0.308368,-1.33236 -0.691981,-1.33291 z M 16.448855,426.20564 c -0.383594,-5.4e-4 -0.692576,0.59271 -0.693201,1.33097 l -0.0028,3.25809 c -6.44e-4,0.73826 0.307326,1.33236 0.690929,1.33289 l 3.23141,0.005 c 0.383603,5.4e-4 0.693628,-0.59269 0.694252,-1.33096 l 0.0028,-3.25808 c 6.44e-4,-0.73826 -0.308367,-1.33236 -0.69198,-1.33291 z m 5.68712,0.008 c -0.383613,-5.3e-4 -0.692586,0.5927 -0.693211,1.33096 l -0.0028,3.25809 c -6.43e-4,0.73827 0.307326,1.33236 0.69093,1.33289 l 3.231409,0.005 c 0.383613,5.2e-4 0.692577,-0.5927 0.693211,-1.33097 l 0.0028,-3.25807 c 6.43e-4,-0.73828 -0.307327,-1.33239 -0.69093,-1.33293 z m 5.877989,-0.0184 c -0.383604,-5.4e-4 -0.692577,0.59268 -0.693211,1.33095 l -0.0028,3.25808 c -6.44e-4,0.73828 0.307335,1.33237 0.690939,1.3329 l 3.231409,0.005 c 0.383603,5.5e-4 0.693618,-0.59269 0.694253,-1.33096 l 0.0028,-3.25807 c 6.43e-4,-0.73827 -0.308368,-1.33236 -0.691991,-1.33291 z m -11.510615,-8.89187 c -0.383603,-5.4e-4 -0.692577,0.59269 -0.693201,1.33097 l -0.0028,3.25809 c -6.44e-4,0.73826 0.307325,1.33235 0.690929,1.33289 l 3.231409,0.005 c 0.383604,5.3e-4 0.693619,-0.59269 0.694253,-1.33096 l 0.0028,-3.25808 c 6.34e-4,-0.73827 -0.308377,-1.33236 -0.691981,-1.33291 z m 5.68711,0.008 c -0.383613,-5.3e-4 -0.692576,0.5927 -0.693202,1.33096 l -0.0028,3.25809 c -6.52e-4,0.73827 0.307327,1.33236 0.69093,1.33289 l 3.23141,0.005 c 0.383603,5.3e-4 0.692576,-0.59269 0.693211,-1.33096 l 0.0028,-3.25808 c 6.44e-4,-0.73827 -0.307326,-1.33238 -0.690939,-1.33292 z m 5.877998,-0.0184 c -0.383603,-5.3e-4 -0.692586,0.59269 -0.693211,1.33095 l -0.0028,3.25809 c -6.44e-4,0.73828 0.307326,1.33237 0.690939,1.3329 l 3.23141,0.005 c 0.383603,5.5e-4 0.693618,-0.59269 0.694252,-1.33096 l 0.0028,-3.25808 c 6.34e-4,-0.73826 -0.308377,-1.33235 -0.69199,-1.3329 z m -11.844382,-9.15619 c -0.383595,-5.4e-4 -0.692568,0.59269 -0.693202,1.33097 l -0.0028,3.25808 c -6.35e-4,0.73826 0.307326,1.33235 0.69093,1.33289 l 3.231409,0.005 c 0.383603,5.4e-4 0.693627,-0.59269 0.694253,-1.33095 l 0.0028,-3.25809 c 6.44e-4,-0.73827 -0.308367,-1.33236 -0.69198,-1.33291 z m 5.687119,0.008 c -0.383613,-5.3e-4 -0.692587,0.5927 -0.693211,1.33096 l -0.0028,3.2581 c -6.44e-4,0.73826 0.307326,1.33236 0.690939,1.33289 l 3.2314,0.005 c 0.383613,5.3e-4 0.692576,-0.59269 0.693211,-1.33096 l 0.0028,-3.25807 c 6.43e-4,-0.73828 -0.307326,-1.33238 -0.69093,-1.33292 z m 5.877998,-0.0184 c -0.383613,-5.3e-4 -0.692586,0.59269 -0.693211,1.33095 l -0.0028,3.25809 c -6.54e-4,0.73828 0.307326,1.33237 0.690929,1.3329 l 3.231409,0.005 c 0.383604,5.5e-4 0.693618,-0.59269 0.694253,-1.33096 l 0.0028,-3.25809 c 6.44e-4,-0.73825 -0.308367,-1.33235 -0.691979,-1.3329 z m -11.510624,-8.89185 c -0.383594,-5.4e-4 -0.692576,0.59269 -0.693202,1.33097 l -0.0028,3.25808 c -6.44e-4,0.73826 0.307326,1.33235 0.690929,1.33289 l 3.23141,0.005 c 0.383603,5.5e-4 0.693627,-0.59268 0.694252,-1.33095 l 0.0028,-3.25808 c 6.34e-4,-0.73827 -0.308367,-1.33236 -0.691979,-1.33291 z m 5.68712,0.008 c -0.383623,-5.3e-4 -0.692587,0.5927 -0.693211,1.33096 l -0.0028,3.25809 c -6.53e-4,0.73827 0.307325,1.33237 0.690929,1.3329 l 3.231409,0.005 c 0.383613,5.3e-4 0.692577,-0.59269 0.693212,-1.33097 l 0.0028,-3.25806 c 6.44e-4,-0.73828 -0.307326,-1.33238 -0.690929,-1.33292 z m 5.877989,-0.0184 c -0.383605,-5.4e-4 -0.692577,0.59269 -0.693212,1.33095 l -0.0028,3.25809 c -6.44e-4,0.73827 0.307325,1.33237 0.690939,1.3329 l 3.231409,0.005 c 0.383603,5.5e-4 0.693617,-0.5927 0.694253,-1.33096 l 0.0028,-3.25809 c 6.34e-4,-0.73825 -0.308377,-1.33235 -0.69199,-1.3329 z m -11.573848,-9.27499 c -0.383603,-5.4e-4 -0.692577,0.59269 -0.693201,1.33097 l -0.0028,3.25808 c -6.44e-4,0.73826 0.307326,1.33236 0.69093,1.3329 l 3.231409,0.005 c 0.383604,5.3e-4 0.693618,-0.59269 0.694252,-1.33096 l 0.0028,-3.25808 c 6.34e-4,-0.73827 -0.308376,-1.33236 -0.69198,-1.33291 z m 5.687111,0.008 c -0.383613,-5.3e-4 -0.692577,0.5927 -0.693201,1.33096 l -0.0028,3.25809 c -6.53e-4,0.73827 0.307326,1.33236 0.69093,1.33289 l 3.231409,0.005 c 0.383603,5.3e-4 0.692577,-0.5927 0.693211,-1.33096 l 0.0028,-3.25808 c 6.44e-4,-0.73828 -0.307326,-1.33238 -0.690939,-1.33292 z m 5.877998,-0.0184 c -0.383604,-5.3e-4 -0.692586,0.59269 -0.693211,1.33095 l -0.0028,3.2581 c -6.44e-4,0.73828 0.307325,1.33237 0.690938,1.3329 l 3.23141,0.005 c 0.383603,5.5e-4 0.693617,-0.59269 0.694251,-1.33096 l 0.0028,-3.25808 c 6.34e-4,-0.73826 -0.308377,-1.33235 -0.69199,-1.3329 z m -11.510615,-8.8918 c -0.383604,-5.4e-4 -0.692577,0.59269 -0.693201,1.33097 l -0.0028,3.25808 c -6.43e-4,0.73826 0.307326,1.33236 0.690921,1.3329 l 3.231409,0.005 c 0.383613,5.4e-4 0.693627,-0.59268 0.694253,-1.33095 l 0.0028,-3.25808 c 6.44e-4,-0.73827 -0.308367,-1.33236 -0.691971,-1.33291 z m 5.68711,0.008 c -0.383613,-5.3e-4 -0.692586,0.5927 -0.693211,1.33096 l -0.0028,3.25808 c -6.44e-4,0.73828 0.307326,1.33237 0.690939,1.3329 l 3.23141,0.005 c 0.383603,5.3e-4 0.692576,-0.5927 0.69321,-1.33097 l 0.0028,-3.25807 c 6.34e-4,-0.73828 -0.307336,-1.33238 -0.690939,-1.33292 z m 5.877998,-0.0184 c -0.383613,-5.4e-4 -0.692585,0.59269 -0.693211,1.33095 l -0.0028,3.2581 c -6.53e-4,0.73827 0.307326,1.33237 0.690929,1.3329 l 3.23141,0.005 c 0.383613,5.5e-4 0.693618,-0.5927 0.694252,-1.33096 l 0.0028,-3.25808 c 6.44e-4,-0.73826 -0.308367,-1.33235 -0.691979,-1.3329 z m -11.564417,-9.65476 c -0.383603,-5.4e-4 -0.692577,0.59269 -0.693201,1.33097 l -0.0028,3.25808 c -6.44e-4,0.73827 0.307326,1.33236 0.690919,1.3329 l 3.23141,0.005 c 0.383613,5.4e-4 0.693628,-0.59268 0.694252,-1.33096 l 0.0028,-3.25807 c 6.44e-4,-0.73827 -0.308367,-1.33236 -0.69197,-1.33291 z m 5.687111,0.008 c -0.383613,-5.3e-4 -0.692587,0.5927 -0.693212,1.33096 l -0.0028,3.25808 c -6.44e-4,0.73828 0.307326,1.33237 0.690939,1.3329 l 3.231409,0.005 c 0.383603,5.3e-4 0.692577,-0.59269 0.693211,-1.33097 l 0.0028,-3.25807 c 6.34e-4,-0.73827 -0.307327,-1.33238 -0.69094,-1.33292 z m 5.877998,-0.0184 c -0.383613,-5.4e-4 -0.692587,0.59269 -0.693211,1.33095 l -0.0028,3.25809 c -6.44e-4,0.73827 0.307325,1.33237 0.690929,1.3329 l 3.231409,0.005 c 0.383613,5.5e-4 0.693628,-0.5927 0.694253,-1.33096 l 0.0028,-3.25808 c 6.44e-4,-0.73826 -0.308368,-1.33235 -0.691981,-1.3329 z m -11.510625,-8.89186 c -0.383594,-5.4e-4 -0.692567,0.59269 -0.693201,1.33097 l -0.0028,3.25808 c -6.34e-4,0.73827 0.307326,1.33236 0.690929,1.3329 l 3.231409,0.005 c 0.383605,5.4e-4 0.693629,-0.59268 0.694253,-1.33096 l 0.0028,-3.25807 c 6.44e-4,-0.73827 -0.308367,-1.33236 -0.69198,-1.33291 z m 5.687119,0.008 c -0.383612,-5.2e-4 -0.692585,0.59271 -0.693211,1.33096 l -0.0028,3.25809 c -6.44e-4,0.73828 0.307326,1.33237 0.690939,1.3329 l 3.2314,0.005 c 0.383613,5.3e-4 0.692577,-0.59269 0.693211,-1.33097 l 0.0028,-3.25808 c 6.44e-4,-0.73826 -0.307326,-1.33237 -0.69093,-1.33291 z m 5.877999,-0.0184 c -0.383613,-5.4e-4 -0.692586,0.59269 -0.693211,1.33095 l -0.0028,3.25809 c -6.53e-4,0.73827 0.307326,1.33237 0.690929,1.33289 l 3.23141,0.005 c 0.383604,5.5e-4 0.693618,-0.5927 0.694252,-1.33096 l 0.0028,-3.25808 c 6.44e-4,-0.73826 -0.308367,-1.33236 -0.69198,-1.33291 z m -11.565118,-9.2262 c -0.383594,-5.4e-4 -0.692567,0.5927 -0.693201,1.33097 l -0.0028,3.25808 c -6.34e-4,0.73827 0.307326,1.33236 0.690929,1.3329 l 3.231409,0.005 c 0.383605,5.4e-4 0.693629,-0.59268 0.694253,-1.33096 l 0.0028,-3.25807 c 6.44e-4,-0.73827 -0.308367,-1.33236 -0.69198,-1.33291 z m 5.687119,0.008 c -0.383612,-5.3e-4 -0.692585,0.5927 -0.693211,1.33096 l -0.0028,3.25808 c -6.44e-4,0.73828 0.307326,1.33237 0.690939,1.3329 l 3.2314,0.005 c 0.383613,5.3e-4 0.692577,-0.59269 0.693211,-1.33097 l 0.0028,-3.25806 c 6.44e-4,-0.73828 -0.307326,-1.33239 -0.69093,-1.33293 z m 5.877999,-0.0184 c -0.383613,-5.4e-4 -0.692586,0.59269 -0.693211,1.33095 l -0.0028,3.25809 c -6.53e-4,0.73827 0.307326,1.33237 0.690929,1.3329 l 3.23141,0.005 c 0.383604,5.6e-4 0.693618,-0.5927 0.694252,-1.33095 l 0.0028,-3.25809 c 6.44e-4,-0.73826 -0.308367,-1.33236 -0.69198,-1.3329 z m 10.905901,-36.14867 c -0.383594,-5.4e-4 -0.692577,0.5927 -0.693201,1.33096 l -0.0028,3.25809 c -6.35e-4,0.73827 0.307325,1.33236 0.690929,1.3329 l 3.231409,0.005 c 0.383603,5.4e-4 0.693628,-0.59268 0.694253,-1.33096 l 0.0028,-3.25808 c 6.44e-4,-0.73826 -0.308368,-1.33235 -0.691981,-1.3329 z m 5.687119,0.008 c -0.383613,-5.3e-4 -0.692585,0.59271 -0.693211,1.33096 l -0.0028,3.25809 c -6.44e-4,0.73828 0.307326,1.33237 0.690929,1.3329 l 3.23141,0.005 c 0.383613,5.3e-4 0.692576,-0.59269 0.693211,-1.33097 l 0.0028,-3.25807 c 6.44e-4,-0.73827 -0.307326,-1.33238 -0.69093,-1.33292 z m 5.877989,-0.0184 c -0.383603,-5.4e-4 -0.692576,0.59268 -0.693201,1.33095 l -0.0028,3.25809 c -6.54e-4,0.73827 0.307326,1.33236 0.690929,1.33289 l 3.23141,0.005 c 0.383603,5.6e-4 0.693618,-0.5927 0.694252,-1.33096 l 0.0028,-3.25808 c 6.44e-4,-0.73827 -0.308367,-1.33236 -0.69198,-1.33291 z M 38.90501,308.18158 c -0.383603,-5.4e-4 -0.692576,0.59271 -0.693201,1.33097 l -0.0028,3.25809 c -6.44e-4,0.73827 0.307326,1.33236 0.690929,1.3329 l 3.23141,0.005 c 0.383603,5.4e-4 0.693628,-0.59268 0.694252,-1.33096 l 0.0028,-3.25808 c 6.35e-4,-0.73826 -0.308377,-1.33235 -0.69198,-1.3329 z m 5.687111,0.008 c -0.383613,-5.3e-4 -0.692577,0.59271 -0.693202,1.33096 l -0.0028,3.25809 c -6.54e-4,0.73827 0.307325,1.33237 0.690929,1.3329 l 3.231409,0.005 c 0.383604,5.3e-4 0.692577,-0.5927 0.693211,-1.33097 l 0.0028,-3.25807 c 6.43e-4,-0.73827 -0.307327,-1.33239 -0.69093,-1.33292 z m 5.877998,-0.0184 c -0.383604,-5.4e-4 -0.692587,0.59268 -0.693211,1.33095 l -0.0028,3.25809 c -6.44e-4,0.73827 0.307326,1.33236 0.690939,1.33289 l 3.231409,0.005 c 0.383603,5.5e-4 0.693619,-0.59269 0.694253,-1.33095 l 0.0028,-3.25808 c 6.34e-4,-0.73827 -0.308377,-1.33236 -0.69199,-1.33291 z m -11.619602,-9.11549 c -0.383594,-5.4e-4 -0.692577,0.59269 -0.693201,1.33096 l -0.0028,3.25808 c -6.35e-4,0.73827 0.307325,1.33236 0.690929,1.3329 l 3.231409,0.005 c 0.383603,5.4e-4 0.693628,-0.59269 0.694253,-1.33096 l 0.0028,-3.25809 c 6.44e-4,-0.73826 -0.308368,-1.33235 -0.691981,-1.3329 z m 5.687119,0.008 c -0.383613,-5.3e-4 -0.692585,0.59271 -0.693211,1.33096 l -0.0028,3.2581 c -6.44e-4,0.73827 0.307326,1.33237 0.690929,1.3329 l 3.23141,0.005 c 0.383613,5.3e-4 0.692576,-0.5927 0.693211,-1.33097 l 0.0028,-3.25807 c 6.44e-4,-0.73827 -0.307326,-1.33237 -0.69093,-1.33291 z m 5.877989,-0.0184 c -0.383603,-5.4e-4 -0.692576,0.59268 -0.693201,1.33095 l -0.0028,3.25809 c -6.54e-4,0.73827 0.307326,1.33236 0.690929,1.33289 l 3.23141,0.005 c 0.383603,5.5e-4 0.693618,-0.5927 0.694252,-1.33096 l 0.0028,-3.25808 c 6.44e-4,-0.73827 -0.308367,-1.33237 -0.69198,-1.33292 z M 38.90501,290.15343 c -0.383603,-5.4e-4 -0.692576,0.5927 -0.693201,1.33097 l -0.0028,3.25808 c -6.44e-4,0.73826 0.307326,1.33236 0.690929,1.3329 l 3.23141,0.005 c 0.383603,5.4e-4 0.693628,-0.5927 0.694252,-1.33096 l 0.0028,-3.25809 c 6.35e-4,-0.73826 -0.308377,-1.33235 -0.69198,-1.3329 z m 5.687111,0.008 c -0.383613,-5.3e-4 -0.692577,0.59271 -0.693202,1.33096 l -0.0028,3.2581 c -6.54e-4,0.73827 0.307325,1.33237 0.690929,1.3329 l 3.231409,0.005 c 0.383604,5.3e-4 0.692577,-0.5927 0.693211,-1.33097 l 0.0028,-3.25807 c 6.43e-4,-0.73827 -0.307327,-1.33238 -0.69093,-1.33292 z m 5.877998,-0.0184 c -0.383604,-5.4e-4 -0.692587,0.59268 -0.693211,1.33095 l -0.0028,3.25809 c -6.44e-4,0.73827 0.307326,1.33236 0.690939,1.33289 l 3.231409,0.005 c 0.383603,5.5e-4 0.693619,-0.59269 0.694253,-1.33095 l 0.0028,-3.25808 c 6.34e-4,-0.73827 -0.308377,-1.33237 -0.69199,-1.33292 z m -11.447487,-9.67528 c -0.383604,-5.4e-4 -0.692577,0.59271 -0.693202,1.33097 l -0.0028,3.25809 c -6.44e-4,0.73826 0.307326,1.33236 0.690921,1.3329 l 3.231408,0.005 c 0.383613,5.4e-4 0.693628,-0.59269 0.694253,-1.33096 l 0.0028,-3.25808 c 6.44e-4,-0.73826 -0.308368,-1.33236 -0.691971,-1.3329 z m 5.68711,0.008 c -0.383613,-5.3e-4 -0.692586,0.59271 -0.693212,1.33096 l -0.0028,3.25809 c -6.44e-4,0.73827 0.307326,1.33237 0.690939,1.33289 l 3.231409,0.005 c 0.383604,5.3e-4 0.692577,-0.5927 0.693211,-1.33097 l 0.0028,-3.25807 c 6.34e-4,-0.73827 -0.307335,-1.33239 -0.690939,-1.33293 z m 5.877998,-0.0184 c -0.383613,-5.4e-4 -0.692587,0.59268 -0.693211,1.33095 l -0.0028,3.25808 c -6.53e-4,0.73828 0.307326,1.33237 0.69093,1.3329 l 3.231409,0.005 c 0.383613,5.6e-4 0.693618,-0.59269 0.694252,-1.33096 l 0.0028,-3.25807 c 6.44e-4,-0.73827 -0.308367,-1.33236 -0.69198,-1.33291 z m -11.510625,-8.89187 c -0.383593,-5.4e-4 -0.692576,0.59271 -0.693201,1.33097 l -0.0028,3.25809 c -6.34e-4,0.73826 0.307326,1.33236 0.69093,1.33289 l 3.231409,0.005 c 0.383604,5.4e-4 0.693628,-0.59269 0.694252,-1.33096 l 0.0028,-3.25808 c 6.44e-4,-0.73826 -0.308367,-1.33236 -0.69198,-1.33291 z m 5.687121,0.008 c -0.383613,-5.3e-4 -0.692587,0.5927 -0.693212,1.33096 l -0.0028,3.25809 c -6.44e-4,0.73827 0.307325,1.33236 0.690929,1.33289 l 3.231409,0.005 c 0.383613,5.2e-4 0.692577,-0.5927 0.693211,-1.33097 l 0.0028,-3.25807 c 6.44e-4,-0.73828 -0.307326,-1.33239 -0.69093,-1.33293 z m 5.877988,-0.0184 c -0.383604,-5.4e-4 -0.692577,0.59268 -0.693201,1.33095 l -0.0028,3.25808 c -6.52e-4,0.73828 0.307326,1.33237 0.69093,1.3329 l 3.231409,0.005 c 0.383604,5.5e-4 0.693618,-0.59269 0.694253,-1.33096 l 0.0028,-3.25807 c 6.44e-4,-0.73827 -0.308368,-1.33236 -0.691981,-1.33291 z m -11.844373,-9.1562 c -0.383604,-5.4e-4 -0.692577,0.5927 -0.693202,1.33097 l -0.0028,3.25808 c -6.44e-4,0.73826 0.307325,1.33236 0.690919,1.33289 l 3.231409,0.005 c 0.383614,5.4e-4 0.693629,-0.5927 0.694263,-1.33096 l 0.0028,-3.25809 c 6.35e-4,-0.73826 -0.308376,-1.33236 -0.69198,-1.33291 z m 5.687109,0.008 c -0.383613,-5.3e-4 -0.692576,0.5927 -0.69321,1.33096 l -0.0028,3.2581 c -6.42e-4,0.73827 0.307336,1.33236 0.69094,1.33289 l 3.231409,0.005 c 0.383604,5.2e-4 0.692576,-0.5927 0.693212,-1.33097 l 0.0028,-3.25807 c 6.34e-4,-0.73828 -0.307326,-1.33238 -0.690939,-1.33292 z m 5.877999,-0.0184 c -0.383604,-5.4e-4 -0.692586,0.59268 -0.693211,1.33095 l -0.0028,3.25808 c -6.44e-4,0.73828 0.307326,1.33237 0.690929,1.3329 l 3.23141,0.005 c 0.383613,5.5e-4 0.693628,-0.59269 0.694262,-1.33096 l 0.0028,-3.25807 c 6.35e-4,-0.73827 -0.308376,-1.33237 -0.691989,-1.33292 z m -11.510615,-8.89183 c -0.383604,-5.4e-4 -0.692576,0.59269 -0.69321,1.33097 l -0.0028,3.25808 c -6.34e-4,0.73826 0.307336,1.33235 0.69093,1.33289 l 3.231409,0.005 c 0.383603,5.3e-4 0.693628,-0.5927 0.694253,-1.33096 l 0.0028,-3.25809 c 6.43e-4,-0.73827 -0.308368,-1.33236 -0.691971,-1.33291 z m 5.68711,0.008 c -0.383613,-5.3e-4 -0.692586,0.5927 -0.693211,1.33096 l -0.0028,3.2581 c -6.43e-4,0.73827 0.307327,1.33236 0.69094,1.33289 l 3.231408,0.005 c 0.383605,5.3e-4 0.692577,-0.59269 0.693202,-1.33096 l 0.0028,-3.25807 c 6.42e-4,-0.73828 -0.307327,-1.33238 -0.690931,-1.33292 z m 5.877999,-0.0184 c -0.383613,-5.3e-4 -0.692587,0.59269 -0.693212,1.33095 l -0.0028,3.25809 c -6.54e-4,0.73828 0.307326,1.33237 0.690929,1.3329 l 3.231409,0.005 c 0.383613,5.5e-4 0.693619,-0.59269 0.694253,-1.33096 l 0.0028,-3.25809 c 6.43e-4,-0.73825 -0.308367,-1.33235 -0.69198,-1.3329 z m -11.573856,-9.27497 c -0.383595,-5.4e-4 -0.692577,0.5927 -0.693203,1.33097 l -0.0028,3.25809 c -6.34e-4,0.73825 0.307326,1.33236 0.690929,1.33289 l 3.23141,0.005 c 0.383603,5.4e-4 0.693627,-0.59269 0.694253,-1.33096 l 0.0028,-3.25808 c 6.43e-4,-0.73826 -0.308367,-1.33236 -0.69198,-1.33291 z m 5.687119,0.008 c -0.383613,-5.3e-4 -0.692587,0.5927 -0.693211,1.33096 l -0.0028,3.25809 c -6.44e-4,0.73827 0.307326,1.33236 0.69093,1.33289 l 3.231409,0.005 c 0.383613,5.2e-4 0.692577,-0.5927 0.693211,-1.33097 l 0.0028,-3.25808 c 6.44e-4,-0.73828 -0.307325,-1.33238 -0.690929,-1.33292 z m 5.877989,-0.0184 c -0.383604,-5.4e-4 -0.692577,0.59269 -0.693202,1.33095 l -0.0028,3.25809 c -6.54e-4,0.73828 0.307326,1.33237 0.690929,1.3329 l 3.231409,0.005 c 0.383604,5.5e-4 0.693619,-0.59269 0.694253,-1.33096 l 0.0028,-3.25807 c 6.44e-4,-0.73827 -0.308366,-1.33236 -0.69198,-1.33291 z M 38.89809,235.30905 c -0.383604,-5.4e-4 -0.692577,0.59269 -0.693202,1.33097 l -0.0028,3.25808 c -6.44e-4,0.73826 0.307326,1.33236 0.690929,1.3329 l 3.231409,0.005 c 0.383604,5.3e-4 0.693628,-0.59269 0.694253,-1.33096 l 0.0028,-3.25808 c 6.35e-4,-0.73827 -0.308376,-1.33236 -0.691979,-1.33291 z m 5.68711,0.008 c -0.383613,-5.3e-4 -0.692577,0.5927 -0.693202,1.33096 l -0.0028,3.25809 c -6.52e-4,0.73827 0.307326,1.33236 0.690931,1.33289 l 3.231408,0.005 c 0.383604,5.3e-4 0.692577,-0.5927 0.693212,-1.33096 l 0.0028,-3.25808 c 6.44e-4,-0.73828 -0.307326,-1.33238 -0.690929,-1.33292 z m 5.877999,-0.0184 c -0.383605,-5.3e-4 -0.692587,0.5927 -0.693211,1.33095 l -0.0028,3.2581 c -6.44e-4,0.73828 0.307325,1.33237 0.690938,1.3329 l 3.23141,0.005 c 0.383603,5.5e-4 0.693618,-0.59269 0.694252,-1.33096 l 0.0028,-3.25808 c 6.35e-4,-0.73826 -0.308377,-1.33235 -0.69199,-1.3329 z M 38.898781,225.6439 c -0.383594,-5.4e-4 -0.692577,0.5927 -0.693201,1.33097 l -0.0028,3.25809 c -6.43e-4,0.73826 0.307326,1.33235 0.690931,1.33289 l 3.231408,0.005 c 0.383604,5.3e-4 0.693628,-0.59269 0.694253,-1.33096 l 0.0028,-3.25808 c 6.34e-4,-0.73827 -0.308368,-1.33236 -0.691981,-1.33291 z m 5.68712,0.008 c -0.383623,-5.3e-4 -0.692587,0.5927 -0.693212,1.33096 l -0.0028,3.25808 c -6.54e-4,0.73828 0.307326,1.33237 0.690929,1.3329 l 3.23141,0.005 c 0.383613,5.3e-4 0.692576,-0.59269 0.69321,-1.33097 l 0.0028,-3.25806 c 6.43e-4,-0.73828 -0.307326,-1.33239 -0.69093,-1.33293 z m 5.877988,-0.0184 c -0.383603,-5.3e-4 -0.692577,0.59269 -0.693211,1.33095 l -0.0028,3.25809 c -6.43e-4,0.73828 0.307327,1.33237 0.69094,1.3329 l 3.231408,0.005 c 0.383605,5.5e-4 0.693619,-0.59269 0.694253,-1.33096 l 0.0028,-3.25808 c 6.34e-4,-0.73826 -0.308377,-1.33235 -0.69199,-1.3329 z m -11.510615,-8.89186 c -0.383603,-5.4e-4 -0.692577,0.5927 -0.693201,1.33097 l -0.0028,3.25808 c -6.44e-4,0.73827 0.307326,1.33236 0.69092,1.3329 l 3.23141,0.005 c 0.383613,5.4e-4 0.693627,-0.59268 0.694261,-1.33096 l 0.0028,-3.25807 c 6.34e-4,-0.73827 -0.308377,-1.33236 -0.69198,-1.33291 z m 5.687111,0.008 c -0.383613,-5.3e-4 -0.692577,0.5927 -0.693211,1.33096 l -0.0028,3.25808 c -6.44e-4,0.73828 0.307335,1.33237 0.690939,1.3329 l 3.231409,0.005 c 0.383603,5.3e-4 0.692577,-0.59269 0.693211,-1.33097 l 0.0028,-3.25806 c 6.34e-4,-0.73828 -0.307326,-1.33239 -0.690939,-1.33293 z m 5.877998,-0.0184 c -0.383604,-5.4e-4 -0.692587,0.59269 -0.693211,1.33095 l -0.0028,3.25809 c -6.43e-4,0.73827 0.307326,1.33237 0.69093,1.3329 l 3.231409,0.005 c 0.383613,5.5e-4 0.693627,-0.5927 0.694262,-1.33096 l 0.0028,-3.25808 c 6.34e-4,-0.73826 -0.308378,-1.33236 -0.691991,-1.3329 z m -11.565109,-9.22619 c -0.383603,-5.4e-4 -0.692577,0.59269 -0.693201,1.33097 l -0.0028,3.25808 c -6.44e-4,0.73826 0.307326,1.33235 0.69092,1.33289 l 3.23141,0.005 c 0.383613,5.4e-4 0.693627,-0.59268 0.694261,-1.33095 l 0.0028,-3.25808 c 6.34e-4,-0.73827 -0.308377,-1.33236 -0.69198,-1.33291 z m 5.687111,0.008 c -0.383613,-5.3e-4 -0.692577,0.5927 -0.693211,1.33096 l -0.0028,3.25808 c -6.44e-4,0.73828 0.307335,1.33237 0.690939,1.33291 l 3.231409,0.005 c 0.383603,5.3e-4 0.692577,-0.59269 0.693211,-1.33097 l 0.0028,-3.25806 c 6.34e-4,-0.73828 -0.307326,-1.33238 -0.690939,-1.33292 z m 5.877998,-0.0184 c -0.383604,-5.4e-4 -0.692587,0.59269 -0.693211,1.33095 l -0.0028,3.25809 c -6.43e-4,0.73828 0.307326,1.33237 0.69093,1.3329 l 3.231409,0.005 c 0.383613,5.5e-4 0.693627,-0.5927 0.694262,-1.33096 l 0.0028,-3.25809 c 6.34e-4,-0.73826 -0.308378,-1.33235 -0.691991,-1.3329 z m 10.786469,109.71531 c -0.383603,-5.4e-4 -0.692577,0.5927 -0.693201,1.33097 l -0.0028,3.25808 c -6.44e-4,0.73826 0.307326,1.33236 0.69093,1.3329 l 3.231409,0.005 c 0.383605,5.4e-4 0.693629,-0.59269 0.694253,-1.33096 l 0.0028,-3.25809 c 6.34e-4,-0.73826 -0.308377,-1.33235 -0.69198,-1.3329 z m 5.687112,0.008 c -0.383613,-5.3e-4 -0.692577,0.59272 -0.693203,1.33096 l -0.0028,3.2581 c -6.53e-4,0.73827 0.307326,1.33237 0.690929,1.33289 l 3.23141,0.005 c 0.383603,5.3e-4 0.692577,-0.5927 0.693211,-1.33097 l 0.0028,-3.25807 c 6.44e-4,-0.73827 -0.307326,-1.33238 -0.690929,-1.33292 z m 5.877998,-0.0184 c -0.383604,-5.4e-4 -0.692586,0.59268 -0.693211,1.33095 l -0.0028,3.25809 c -6.43e-4,0.73827 0.307326,1.33236 0.690939,1.33289 l 3.231409,0.005 c 0.383604,5.5e-4 0.693618,-0.59269 0.694252,-1.33095 l 0.0028,-3.25808 c 6.35e-4,-0.73827 -0.308377,-1.33237 -0.69199,-1.33292 z M 61.359347,308.3077 c -0.383605,-5.4e-4 -0.692578,0.5927 -0.693203,1.33097 l -0.0028,3.25808 c -6.43e-4,0.73826 0.307326,1.33236 0.690922,1.33289 l 3.231409,0.005 c 0.383613,5.4e-4 0.693627,-0.59269 0.694253,-1.33096 l 0.0028,-3.25809 c 6.44e-4,-0.73826 -0.308368,-1.33236 -0.691971,-1.33291 z m 5.68711,0.008 c -0.383613,-5.3e-4 -0.692586,0.59271 -0.693211,1.33096 l -0.0028,3.2581 c -6.44e-4,0.73827 0.307326,1.33236 0.690939,1.33289 l 3.231409,0.005 c 0.383604,5.3e-4 0.692577,-0.5927 0.693211,-1.33097 l 0.0028,-3.25807 c 6.35e-4,-0.73828 -0.307325,-1.33238 -0.690938,-1.33292 z m 5.877998,-0.0184 c -0.383613,-5.4e-4 -0.692586,0.59268 -0.693211,1.33095 l -0.0028,3.25808 c -6.43e-4,0.73828 0.307327,1.33237 0.69093,1.3329 l 3.23141,0.005 c 0.383613,5.5e-4 0.693627,-0.59269 0.694252,-1.33096 l 0.0028,-3.25807 c 6.44e-4,-0.73827 -0.308367,-1.33237 -0.69198,-1.33292 z m -11.619603,-9.1155 c -0.383593,-5.4e-4 -0.692577,0.5927 -0.693201,1.33097 l -0.0028,3.25808 c -6.34e-4,0.73826 0.307326,1.33237 0.69093,1.33291 l 3.231409,0.005 c 0.383605,5.4e-4 0.693629,-0.59269 0.694253,-1.33096 l 0.0028,-3.25808 c 6.44e-4,-0.73826 -0.308367,-1.33235 -0.69198,-1.3329 z m 5.687121,0.008 c -0.383613,-5.3e-4 -0.692586,0.59271 -0.693212,1.33096 l -0.0028,3.25809 c -6.44e-4,0.73827 0.307326,1.33237 0.690929,1.33289 l 3.23141,0.005 c 0.383613,5.3e-4 0.692577,-0.59271 0.693211,-1.33097 l 0.0028,-3.25808 c 6.44e-4,-0.73827 -0.307326,-1.33238 -0.690929,-1.33292 z m 5.877989,-0.0184 c -0.383604,-5.4e-4 -0.692577,0.59268 -0.693202,1.33095 l -0.0028,3.25809 c -6.52e-4,0.73828 0.307326,1.33237 0.69093,1.3329 l 3.231409,0.005 c 0.383604,5.5e-4 0.693618,-0.59269 0.694252,-1.33096 l 0.0028,-3.25807 c 6.44e-4,-0.73827 -0.308367,-1.33236 -0.69198,-1.33291 z m -11.510615,-8.89186 c -0.383605,-5.4e-4 -0.692578,0.5927 -0.693203,1.33097 l -0.0028,3.25808 c -6.43e-4,0.73826 0.307326,1.33237 0.690931,1.3329 l 3.231409,0.005 c 0.383604,5.4e-4 0.693628,-0.59269 0.694253,-1.33096 l 0.0028,-3.25808 c 6.34e-4,-0.73826 -0.308378,-1.33236 -0.691981,-1.33291 z m 5.68711,0.008 c -0.383613,-5.3e-4 -0.692577,0.5927 -0.693202,1.33096 l -0.0028,3.25809 c -6.54e-4,0.73827 0.307326,1.33236 0.690929,1.33289 l 3.231409,0.005 c 0.383604,5.3e-4 0.692577,-0.59271 0.693211,-1.33097 l 0.0028,-3.25808 c 6.44e-4,-0.73828 -0.307325,-1.33238 -0.69093,-1.33292 z m 5.877998,-0.0184 c -0.383603,-5.4e-4 -0.692586,0.59268 -0.693211,1.33095 l -0.0028,3.25809 c -6.43e-4,0.73828 0.307327,1.33237 0.690939,1.3329 l 3.231409,0.005 c 0.383605,5.5e-4 0.693619,-0.59269 0.694253,-1.33096 l 0.0028,-3.25807 c 6.34e-4,-0.73827 -0.308377,-1.33236 -0.69199,-1.33291 z m -11.447496,-9.67537 c -0.383596,-5.4e-4 -0.692578,0.5927 -0.693203,1.33097 l -0.0028,3.25808 c -6.34e-4,0.73826 0.307327,1.33235 0.690931,1.33289 l 3.231409,0.005 c 0.383604,5.4e-4 0.693628,-0.59269 0.694253,-1.33096 l 0.0028,-3.25809 c 6.44e-4,-0.73826 -0.308367,-1.33236 -0.691981,-1.33291 z m 5.687119,0.008 c -0.383613,-5.3e-4 -0.692586,0.59271 -0.693211,1.33096 l -0.0028,3.2581 c -6.44e-4,0.73827 0.307326,1.33236 0.690929,1.33289 l 3.23141,0.005 c 0.383613,5.2e-4 0.692577,-0.5927 0.693211,-1.33097 l 0.0028,-3.25807 c 6.44e-4,-0.73828 -0.307326,-1.33238 -0.690929,-1.33292 z m 5.877988,-0.0184 c -0.383603,-5.4e-4 -0.692576,0.59268 -0.693201,1.33094 l -0.0028,3.25809 c -6.52e-4,0.73828 0.307327,1.33237 0.69093,1.3329 l 3.23141,0.005 c 0.383603,5.5e-4 0.693617,-0.59269 0.694252,-1.33096 l 0.0028,-3.25808 c 6.44e-4,-0.73826 -0.308367,-1.33235 -0.69198,-1.33291 z m -11.510614,-8.89186 c -0.383605,-5.4e-4 -0.692577,0.59269 -0.693203,1.33097 l -0.0028,3.25808 c -6.43e-4,0.73826 0.307327,1.33235 0.690931,1.33289 l 3.23141,0.005 c 0.383603,5.3e-4 0.693627,-0.59269 0.694252,-1.33096 l 0.0028,-3.25809 c 6.34e-4,-0.73827 -0.308377,-1.33236 -0.691981,-1.33291 z m 5.68711,0.008 c -0.383613,-5.3e-4 -0.692577,0.59271 -0.693201,1.33096 l -0.0028,3.25809 c -6.54e-4,0.73828 0.307326,1.33237 0.690929,1.3329 l 3.231409,0.005 c 0.383604,5.3e-4 0.692577,-0.59269 0.693211,-1.33097 l 0.0028,-3.25806 c 6.44e-4,-0.73828 -0.307325,-1.33238 -0.690929,-1.33292 z m 5.877998,-0.0184 c -0.383603,-5.3e-4 -0.692586,0.59269 -0.693211,1.33095 l -0.0028,3.25809 c -6.44e-4,0.73828 0.307326,1.33237 0.690939,1.3329 l 3.231409,0.005 c 0.383604,5.5e-4 0.693618,-0.59269 0.694252,-1.33096 l 0.0028,-3.25808 c 6.34e-4,-0.73826 -0.308376,-1.33236 -0.691989,-1.33291 z m -11.844374,-9.15619 c -0.383603,-5.4e-4 -0.692577,0.59269 -0.693211,1.33097 l -0.0028,3.25808 c -6.34e-4,0.73826 0.307336,1.33236 0.69093,1.3329 l 3.23141,0.005 c 0.383604,5.3e-4 0.693628,-0.59269 0.694252,-1.33096 l 0.0028,-3.25808 c 6.44e-4,-0.73827 -0.308367,-1.33236 -0.69197,-1.33291 z m 5.687111,0.008 c -0.383612,-5.3e-4 -0.692586,0.5927 -0.693211,1.33096 l -0.0028,3.25808 c -6.44e-4,0.73828 0.307325,1.33237 0.690939,1.3329 l 3.231409,0.005 c 0.383603,5.3e-4 0.692577,-0.5927 0.693201,-1.33097 l 0.0028,-3.25807 c 6.44e-4,-0.73828 -0.307326,-1.33238 -0.69093,-1.33292 z m 5.877999,-0.0184 c -0.383614,-5.3e-4 -0.692587,0.59269 -0.693211,1.33095 l -0.0028,3.2581 c -6.54e-4,0.73828 0.307325,1.33237 0.690929,1.3329 l 3.231409,0.005 c 0.383613,5.5e-4 0.693619,-0.59269 0.694253,-1.33096 l 0.0028,-3.25808 c 6.44e-4,-0.73826 -0.308368,-1.33235 -0.691981,-1.3329 z M 61.30667,253.62267 c -0.383594,-5.4e-4 -0.692577,0.59269 -0.693201,1.33097 l -0.0028,3.25807 c -6.44e-4,0.73827 0.307326,1.33236 0.690929,1.33291 l 3.23141,0.005 c 0.383605,5.4e-4 0.693628,-0.59268 0.694253,-1.33096 l 0.0028,-3.25807 c 6.44e-4,-0.73827 -0.308368,-1.33236 -0.691981,-1.33291 z m 5.68712,0.008 c -0.383612,-5.3e-4 -0.692585,0.5927 -0.693211,1.33096 l -0.0028,3.25808 c -6.44e-4,0.73828 0.307326,1.33237 0.690929,1.3329 l 3.23141,0.005 c 0.383613,5.4e-4 0.692577,-0.59269 0.693211,-1.33096 l 0.0028,-3.25807 c 6.44e-4,-0.73828 -0.307326,-1.33238 -0.69093,-1.33292 z m 5.877989,-0.0184 c -0.383603,-5.4e-4 -0.692576,0.59269 -0.693211,1.33095 l -0.0028,3.2581 c -6.44e-4,0.73827 0.307336,1.33237 0.690939,1.3329 l 3.23141,0.005 c 0.383604,5.5e-4 0.693618,-0.5927 0.694252,-1.33096 l 0.0028,-3.25808 c 6.44e-4,-0.73826 -0.308367,-1.33236 -0.69199,-1.3329 z m -11.573847,-9.27482 c -0.383603,-5.4e-4 -0.692577,0.59269 -0.693201,1.33097 l -0.0028,3.25808 c -6.44e-4,0.73826 0.307325,1.33235 0.690929,1.33289 l 3.23141,0.005 c 0.383603,5.3e-4 0.693628,-0.59269 0.694253,-1.33096 l 0.0028,-3.25808 c 6.34e-4,-0.73827 -0.308377,-1.33236 -0.691981,-1.33291 z m 5.687111,0.008 c -0.383613,-5.3e-4 -0.692576,0.5927 -0.693202,1.33096 l -0.0028,3.25808 c -6.53e-4,0.73828 0.307326,1.33238 0.690929,1.33291 l 3.23141,0.005 c 0.383603,5.3e-4 0.692576,-0.59269 0.693211,-1.33097 l 0.0028,-3.25806 c 6.43e-4,-0.73828 -0.307327,-1.33238 -0.69093,-1.33292 z m 5.877998,-0.0184 c -0.383603,-5.3e-4 -0.692586,0.59269 -0.693211,1.33095 l -0.0028,3.25809 c -6.44e-4,0.73828 0.307326,1.33237 0.690939,1.3329 l 3.23141,0.005 c 0.383603,5.5e-4 0.693618,-0.59269 0.694252,-1.33096 l 0.0028,-3.25809 c 6.34e-4,-0.73826 -0.308377,-1.33235 -0.69199,-1.3329 z M 61.352426,235.4352 c -0.383604,-5.4e-4 -0.692577,0.59269 -0.693202,1.33097 l -0.0028,3.25807 c -6.44e-4,0.73827 0.307326,1.33236 0.690921,1.3329 l 3.231409,0.005 c 0.383613,5.4e-4 0.693628,-0.59268 0.694253,-1.33096 l 0.0028,-3.25807 c 6.44e-4,-0.73827 -0.308368,-1.33236 -0.691971,-1.33291 z m 5.687111,0.008 c -0.383613,-5.3e-4 -0.692587,0.5927 -0.693212,1.33096 l -0.0028,3.25808 c -6.44e-4,0.73828 0.307326,1.33238 0.690939,1.33291 l 3.231409,0.005 c 0.383604,5.3e-4 0.692577,-0.59269 0.693211,-1.33097 l 0.0028,-3.25806 c 6.34e-4,-0.73828 -0.307327,-1.33238 -0.69094,-1.33292 z m 5.877998,-0.0184 c -0.383613,-5.4e-4 -0.692587,0.59269 -0.693211,1.33095 l -0.0028,3.25809 c -6.44e-4,0.73827 0.307326,1.33237 0.690929,1.3329 l 3.231409,0.005 c 0.383613,5.5e-4 0.693629,-0.5927 0.694253,-1.33096 l 0.0028,-3.25809 c 6.44e-4,-0.73826 -0.308367,-1.33236 -0.69198,-1.3329 z m -11.564418,-9.65486 c -0.383604,-5.4e-4 -0.692577,0.59269 -0.693202,1.33097 l -0.0028,3.25807 c -6.43e-4,0.73827 0.307327,1.33236 0.690921,1.3329 l 3.23141,0.005 c 0.383613,5.4e-4 0.693627,-0.59268 0.694262,-1.33096 l 0.0028,-3.25808 c 6.34e-4,-0.73827 -0.308376,-1.33236 -0.691981,-1.33291 z m 5.68711,0.008 c -0.383613,-5.3e-4 -0.692576,0.59271 -0.69321,1.33096 l -0.0028,3.25809 c -6.43e-4,0.73828 0.307336,1.33237 0.690939,1.3329 l 3.23141,0.005 c 0.383603,5.3e-4 0.692577,-0.59269 0.693211,-1.33097 l 0.0028,-3.25806 c 6.34e-4,-0.73828 -0.307326,-1.33238 -0.690939,-1.33292 z m 5.877998,-0.0184 c -0.383603,-5.4e-4 -0.692585,0.59269 -0.693211,1.33095 l -0.0028,3.25809 c -6.44e-4,0.73827 0.307326,1.33237 0.690929,1.3329 l 3.23141,0.005 c 0.383613,5.5e-4 0.693627,-0.5927 0.694262,-1.33096 l 0.0028,-3.25808 c 6.34e-4,-0.73826 -0.308376,-1.33237 -0.691989,-1.33291 z M 61.40761,216.86769 c -0.383604,-5.4e-4 -0.692577,0.59269 -0.693211,1.33097 l -0.0028,3.25807 c -6.35e-4,0.73827 0.307335,1.33236 0.69093,1.3329 l 3.231409,0.005 c 0.383603,5.4e-4 0.693627,-0.59269 0.694253,-1.33096 l 0.0028,-3.25808 c 6.44e-4,-0.73827 -0.308367,-1.33236 -0.691971,-1.33291 z m 5.687111,0.008 c -0.383613,-5.2e-4 -0.692586,0.59271 -0.693211,1.33096 l -0.0028,3.2581 c -6.44e-4,0.73828 0.307326,1.33237 0.690939,1.3329 l 3.231409,0.005 c 0.383604,5.3e-4 0.692577,-0.59269 0.693202,-1.33097 l 0.0028,-3.25807 c 6.43e-4,-0.73827 -0.307326,-1.33237 -0.69093,-1.33291 z m 5.877998,-0.0184 c -0.383613,-5.4e-4 -0.692586,0.59269 -0.693211,1.33095 l -0.0028,3.25809 c -6.54e-4,0.73827 0.307326,1.33236 0.690929,1.33289 l 3.231409,0.005 c 0.383614,5.5e-4 0.693619,-0.5927 0.694253,-1.33096 l 0.0028,-3.25808 c 6.44e-4,-0.73826 -0.308366,-1.33237 -0.691979,-1.33292 z M 61.40761,207.6311 c -0.383604,-5.4e-4 -0.692577,0.59269 -0.693211,1.33097 l -0.0028,3.25807 c -6.35e-4,0.73827 0.307335,1.33236 0.69093,1.3329 l 3.231409,0.005 c 0.383603,5.4e-4 0.693627,-0.59268 0.694253,-1.33096 l 0.0028,-3.25808 c 6.44e-4,-0.73826 -0.308367,-1.33236 -0.691971,-1.33291 z m 5.687111,0.008 c -0.383613,-5.4e-4 -0.692586,0.5927 -0.693211,1.33094 l -0.0028,3.2581 c -6.44e-4,0.73828 0.307326,1.33237 0.690939,1.3329 l 3.231409,0.005 c 0.383604,5.3e-4 0.692577,-0.59269 0.693202,-1.33097 l 0.0028,-3.25807 c 6.43e-4,-0.73827 -0.307326,-1.33237 -0.69093,-1.33291 z m 5.877998,-0.0184 c -0.383613,-5.4e-4 -0.692586,0.59269 -0.693211,1.33095 l -0.0028,3.25809 c -6.54e-4,0.73827 0.307326,1.33237 0.690929,1.3329 l 3.231409,0.005 c 0.383614,5.5e-4 0.693619,-0.5927 0.694253,-1.33096 l 0.0028,-3.25808 c 6.44e-4,-0.73826 -0.308366,-1.33236 -0.691979,-1.33291 z M 16.097592,317.30001 c -0.383599,-5.4e-4 -0.692576,0.5927 -0.693202,1.33097 l -0.0027,3.25808 c -6.41e-4,0.73826 0.307327,1.33236 0.690927,1.3329 l 3.231409,0.005 c 0.383607,5.4e-4 0.693627,-0.59269 0.694253,-1.33096 l 0.0027,-3.25808 c 6.4e-4,-0.73826 -0.30837,-1.33235 -0.691978,-1.3329 z m 5.687113,0.008 c -0.383614,-5.3e-4 -0.692582,0.59271 -0.693209,1.33096 l -0.0027,3.25809 c -6.47e-4,0.73827 0.307326,1.33238 0.690934,1.3329 l 3.231408,0.005 c 0.383607,5.3e-4 0.692577,-0.5927 0.69321,-1.33097 l 0.0027,-3.25807 c 6.41e-4,-0.73827 -0.307328,-1.33238 -0.690934,-1.33292 z m 5.877996,-0.0184 c -0.383607,-5.4e-4 -0.692583,0.59268 -0.69321,1.33095 l -0.0027,3.25809 c -6.47e-4,0.73827 0.307326,1.33236 0.690934,1.33289 l 3.231408,0.005 c 0.383608,5.5e-4 0.693621,-0.5927 0.694254,-1.33095 l 0.0027,-3.25809 c 6.4e-4,-0.73827 -0.308371,-1.33236 -0.691985,-1.33291 z m -11.510618,-8.89184 c -0.3836,-5.5e-4 -0.692576,0.5927 -0.693203,1.33097 l -0.0027,3.25808 c -6.41e-4,0.73826 0.307326,1.33236 0.690927,1.33289 l 3.231409,0.005 c 0.383607,5.4e-4 0.693627,-0.59269 0.694253,-1.33096 l 0.0027,-3.25808 c 6.4e-4,-0.73826 -0.308371,-1.33236 -0.691978,-1.33291 z m 5.687113,0.008 c -0.383613,-5.3e-4 -0.692583,0.5927 -0.693209,1.33096 l -0.0027,3.25809 c -6.47e-4,0.73827 0.307327,1.33236 0.690934,1.3329 l 3.231409,0.005 c 0.383607,5.3e-4 0.692576,-0.5927 0.69321,-1.33097 l 0.0027,-3.25807 c 6.41e-4,-0.73828 -0.307327,-1.33238 -0.690934,-1.33293 z m 5.877996,-0.0184 c -0.383607,-5.4e-4 -0.692584,0.59268 -0.69321,1.33095 l -0.0027,3.25808 c -6.46e-4,0.73828 0.307327,1.33237 0.690934,1.3329 l 3.231409,0.005 c 0.383608,5.5e-4 0.69362,-0.5927 0.694253,-1.33096 l 0.0027,-3.25808 c 6.4e-4,-0.73827 -0.308371,-1.33236 -0.691985,-1.33291 z m -11.619604,-9.1155 c -0.383594,-5.4e-4 -0.692577,0.5927 -0.693201,1.33097 l -0.0028,3.25808 c -6.34e-4,0.73826 0.307326,1.33236 0.690929,1.3329 l 3.231409,0.005 c 0.383604,5.4e-4 0.693629,-0.59269 0.694253,-1.33096 l 0.0028,-3.25809 c 6.44e-4,-0.73826 -0.308367,-1.33235 -0.69198,-1.3329 z m 5.687119,0.008 c -0.383613,-5.3e-4 -0.692585,0.59272 -0.693211,1.33096 l -0.0028,3.2581 c -6.44e-4,0.73827 0.307326,1.33237 0.690929,1.33289 l 3.23141,0.005 c 0.383613,5.3e-4 0.692577,-0.5927 0.693211,-1.33097 l 0.0028,-3.25807 c 6.43e-4,-0.73827 -0.307327,-1.33238 -0.69093,-1.33292 z m 5.877989,-0.0184 c -0.383603,-5.4e-4 -0.692576,0.59268 -0.693201,1.33095 l -0.0028,3.25808 c -6.53e-4,0.73828 0.307326,1.33237 0.690929,1.3329 l 3.23141,0.005 c 0.383603,5.5e-4 0.693618,-0.59269 0.694252,-1.33096 l 0.0028,-3.25807 c 6.44e-4,-0.73827 -0.308367,-1.33236 -0.69198,-1.33292 z m -11.510614,-8.89189 c -0.383604,-5.4e-4 -0.692577,0.5927 -0.693202,1.33097 l -0.0028,3.25808 c -6.44e-4,0.73826 0.307326,1.33236 0.690929,1.33289 l 3.23141,0.005 c 0.383603,5.4e-4 0.693628,-0.59269 0.694253,-1.33096 l 0.0028,-3.25809 c 6.34e-4,-0.73826 -0.308378,-1.33236 -0.691981,-1.33291 z m 5.68711,0.008 c -0.383613,-5.3e-4 -0.692577,0.59271 -0.693202,1.33096 l -0.0028,3.2581 c -6.54e-4,0.73827 0.307326,1.33236 0.690929,1.33289 l 3.231409,0.005 c 0.383604,5.3e-4 0.692577,-0.5927 0.693211,-1.33097 l 0.0028,-3.25807 c 6.43e-4,-0.73828 -0.307326,-1.33238 -0.69093,-1.33292 z m 5.877998,-0.0184 c -0.383603,-5.4e-4 -0.692586,0.59268 -0.693211,1.33095 l -0.0028,3.25808 c -6.44e-4,0.73828 0.307326,1.33237 0.690939,1.3329 l 3.231409,0.005 c 0.383604,5.5e-4 0.693619,-0.59269 0.694253,-1.33096 l 0.0028,-3.25807 c 6.34e-4,-0.73827 -0.308377,-1.33237 -0.69199,-1.33292 z M 16.2697,280.68381 c -0.3836,-5.4e-4 -0.692576,0.5927 -0.693202,1.33097 l -0.0027,3.25808 c -6.41e-4,0.73826 0.307327,1.33235 0.690927,1.33289 l 3.23141,0.005 c 0.383606,5.4e-4 0.693626,-0.59269 0.694252,-1.33096 l 0.0027,-3.25808 c 6.4e-4,-0.73826 -0.308371,-1.33236 -0.691978,-1.33291 z m 5.687114,0.008 c -0.383614,-5.3e-4 -0.692583,0.5927 -0.69321,1.33096 l -0.0027,3.25809 c -6.47e-4,0.73827 0.307326,1.33237 0.690933,1.3329 l 3.231409,0.005 c 0.383607,5.2e-4 0.692577,-0.5927 0.69321,-1.33097 l 0.0027,-3.25807 c 6.41e-4,-0.73828 -0.307327,-1.33238 -0.690934,-1.33292 z m 5.877995,-0.0184 c -0.383607,-5.4e-4 -0.692583,0.59268 -0.69321,1.33095 l -0.0027,3.25808 c -6.47e-4,0.73828 0.307327,1.33237 0.690934,1.3329 l 3.231409,0.005 c 0.383607,5.5e-4 0.693619,-0.5927 0.694253,-1.33096 l 0.0027,-3.25808 c 6.4e-4,-0.73827 -0.308371,-1.33236 -0.691985,-1.33291 z M 16.32419,271.78153 c -0.383599,-5.5e-4 -0.692575,0.59269 -0.693202,1.33097 l -0.0027,3.25808 c -6.41e-4,0.73826 0.307326,1.33235 0.690927,1.33289 l 3.231409,0.005 c 0.383606,5.3e-4 0.693626,-0.59269 0.694254,-1.33096 l 0.0027,-3.25808 c 6.4e-4,-0.73827 -0.30837,-1.33236 -0.691977,-1.33291 z m 5.687115,0.008 c -0.383614,-5.3e-4 -0.692584,0.5927 -0.69321,1.33096 l -0.0027,3.25808 c -6.47e-4,0.73828 0.307327,1.33237 0.690934,1.33291 l 3.231409,0.005 c 0.383607,5.3e-4 0.692576,-0.59269 0.69321,-1.33097 l 0.0027,-3.25806 c 6.41e-4,-0.73828 -0.307326,-1.33238 -0.690934,-1.33292 z m 5.877995,-0.0184 c -0.383607,-5.3e-4 -0.692584,0.59269 -0.69321,1.33095 l -0.0027,3.25809 c -6.47e-4,0.73828 0.307328,1.33237 0.690934,1.3329 l 3.23141,0.005 c 0.383607,5.5e-4 0.693619,-0.5927 0.694252,-1.33096 l 0.0027,-3.25809 c 6.4e-4,-0.73826 -0.308371,-1.33235 -0.691985,-1.3329 z m -11.844379,-9.15619 c -0.3836,-5.4e-4 -0.692576,0.59269 -0.693203,1.33097 l -0.0027,3.25808 c -6.41e-4,0.73826 0.307327,1.33235 0.690926,1.33289 l 3.23141,0.005 c 0.383606,5.3e-4 0.693627,-0.59269 0.694253,-1.33096 l 0.0027,-3.25809 c 6.4e-4,-0.73827 -0.308369,-1.33236 -0.691976,-1.33291 z m 5.687114,0.008 c -0.383614,-5.3e-4 -0.692584,0.59271 -0.693209,1.33096 l -0.0027,3.25809 c -6.47e-4,0.73828 0.307327,1.33237 0.690934,1.3329 l 3.231408,0.005 c 0.383608,5.3e-4 0.692577,-0.59269 0.69321,-1.33097 l 0.0027,-3.25806 c 6.41e-4,-0.73828 -0.307327,-1.33238 -0.690933,-1.33292 z m 5.877996,-0.0184 c -0.383608,-5.3e-4 -0.692584,0.59269 -0.693211,1.33095 l -0.0027,3.25809 c -6.48e-4,0.73828 0.307327,1.33237 0.690933,1.3329 l 3.231409,0.005 c 0.383608,5.5e-4 0.693621,-0.59269 0.694254,-1.33096 l 0.0027,-3.25808 c 6.4e-4,-0.73826 -0.308371,-1.33236 -0.691985,-1.33291 z m -11.510619,-8.89185 c -0.383601,-5.4e-4 -0.692576,0.59269 -0.693203,1.33097 l -0.0027,3.25807 c -6.41e-4,0.73827 0.307327,1.33236 0.690926,1.3329 l 3.23141,0.005 c 0.383606,5.4e-4 0.693627,-0.59268 0.694253,-1.33096 l 0.0027,-3.25808 c 6.4e-4,-0.73827 -0.308371,-1.33236 -0.691978,-1.33291 z m 5.687113,0.008 c -0.383614,-5.3e-4 -0.692583,0.5927 -0.693209,1.33096 l -0.0027,3.25809 c -6.46e-4,0.73828 0.307327,1.33237 0.690934,1.3329 l 3.231409,0.005 c 0.383607,5.3e-4 0.692577,-0.59269 0.69321,-1.33097 l 0.0027,-3.25806 c 6.41e-4,-0.73828 -0.307327,-1.33238 -0.690933,-1.33292 z m 5.877996,-0.0184 c -0.383607,-5.4e-4 -0.692583,0.59269 -0.69321,1.33095 l -0.0027,3.25809 c -6.47e-4,0.73827 0.307327,1.33237 0.690933,1.3329 l 3.23141,0.005 c 0.383607,5.5e-4 0.69362,-0.5927 0.694253,-1.33096 l 0.0027,-3.25808 c 6.4e-4,-0.73826 -0.30837,-1.33236 -0.691984,-1.33291 z m -11.573849,-9.27497 c -0.383601,-5.4e-4 -0.692576,0.59269 -0.693203,1.33097 l -0.0027,3.25809 c -6.41e-4,0.73825 0.307327,1.33235 0.690926,1.33289 l 3.231409,0.005 c 0.383607,5.3e-4 0.693628,-0.59269 0.694254,-1.33096 l 0.0027,-3.25808 c 6.4e-4,-0.73827 -0.30837,-1.33236 -0.691977,-1.33291 z m 5.687113,0.008 c -0.383614,-5.3e-4 -0.692583,0.5927 -0.693209,1.33096 l -0.0027,3.25808 c -6.46e-4,0.73828 0.307327,1.33237 0.690934,1.3329 l 3.231409,0.005 c 0.383607,5.3e-4 0.692577,-0.59269 0.69321,-1.33097 l 0.0027,-3.25807 c 6.41e-4,-0.73828 -0.307327,-1.33238 -0.690933,-1.33292 z m 5.877996,-0.0184 c -0.383608,-5.4e-4 -0.692583,0.59269 -0.693211,1.33095 l -0.0027,3.25809 c -6.47e-4,0.73828 0.307327,1.33237 0.690933,1.3329 l 3.23141,0.005 c 0.383607,5.5e-4 0.69362,-0.59269 0.694253,-1.33096 l 0.0027,-3.25808 c 6.4e-4,-0.73826 -0.30837,-1.33235 -0.691984,-1.3329 z m -11.510619,-8.89186 c -0.3836,-5.4e-4 -0.692575,0.59269 -0.693203,1.33097 l -0.0027,3.25808 c -6.41e-4,0.73826 0.307327,1.33236 0.690927,1.3329 l 3.231409,0.005 c 0.383606,5.4e-4 0.693627,-0.59268 0.694254,-1.33096 l 0.0027,-3.25807 c 6.4e-4,-0.73827 -0.308369,-1.33236 -0.691976,-1.33291 z m 5.687114,0.008 c -0.383614,-5.3e-4 -0.692584,0.5927 -0.693209,1.33096 l -0.0027,3.25808 c -6.47e-4,0.73828 0.307327,1.33237 0.690934,1.3329 l 3.231408,0.005 c 0.383608,5.3e-4 0.692577,-0.59269 0.69321,-1.33097 l 0.0027,-3.25807 c 6.41e-4,-0.73828 -0.307327,-1.33238 -0.690933,-1.33292 z m 5.877996,-0.0184 c -0.383609,-5.5e-4 -0.692584,0.59269 -0.693211,1.33094 l -0.0027,3.2581 c -6.48e-4,0.73827 0.307327,1.33237 0.690933,1.3329 l 3.231409,0.005 c 0.383608,5.5e-4 0.693621,-0.5927 0.694254,-1.33096 l 0.0027,-3.25808 c 6.4e-4,-0.73826 -0.308371,-1.33236 -0.691985,-1.3329 z m -11.564418,-9.65475 c -0.3836,-5.5e-4 -0.692576,0.59269 -0.693202,1.33097 l -0.0027,3.25807 c -6.41e-4,0.73827 0.307327,1.33236 0.690927,1.3329 l 3.23141,0.005 c 0.383606,5.4e-4 0.693626,-0.59268 0.694253,-1.33096 l 0.0027,-3.25807 c 6.4e-4,-0.73827 -0.30837,-1.33236 -0.691978,-1.33291 z m 5.687114,0.008 c -0.383614,-5.3e-4 -0.692583,0.5927 -0.69321,1.33096 l -0.0027,3.25808 c -6.47e-4,0.73828 0.307326,1.33237 0.690934,1.33291 l 3.231408,0.005 c 0.383607,5.3e-4 0.692577,-0.59269 0.69321,-1.33097 l 0.0027,-3.25807 c 6.41e-4,-0.73827 -0.307327,-1.33237 -0.690933,-1.33292 z m 5.877995,-0.0184 c -0.383607,-5.4e-4 -0.692583,0.59269 -0.69321,1.33095 l -0.0027,3.25809 c -6.48e-4,0.73827 0.307326,1.33237 0.690933,1.3329 l 3.231409,0.005 c 0.383607,5.5e-4 0.693619,-0.59271 0.694254,-1.33096 l 0.0027,-3.25809 c 6.4e-4,-0.73826 -0.308371,-1.33236 -0.691985,-1.3329 z m -11.510619,-8.89189 c -0.383599,-5.5e-4 -0.692575,0.59269 -0.693202,1.33096 l -0.0027,3.25808 c -6.4e-4,0.73827 0.307327,1.33236 0.690927,1.3329 l 3.231409,0.005 c 0.383606,5.4e-4 0.693626,-0.59268 0.694254,-1.33096 l 0.0027,-3.25807 c 6.4e-4,-0.73827 -0.308371,-1.33236 -0.691978,-1.33291 z m 5.687115,0.008 c -0.383614,-5.2e-4 -0.692584,0.59271 -0.69321,1.33096 l -0.0027,3.25809 c -6.47e-4,0.73828 0.307327,1.33237 0.690934,1.3329 l 3.231409,0.005 c 0.383607,5.3e-4 0.692576,-0.59269 0.69321,-1.33097 l 0.0027,-3.25807 c 6.41e-4,-0.73827 -0.307326,-1.33237 -0.690933,-1.33292 z m 5.877995,-0.0184 c -0.383607,-5.4e-4 -0.692584,0.59269 -0.69321,1.33095 l -0.0027,3.25809 c -6.48e-4,0.73827 0.307327,1.33236 0.690933,1.33289 l 3.23141,0.005 c 0.383607,5.6e-4 0.693619,-0.5927 0.694253,-1.33095 l 0.0027,-3.25809 c 6.4e-4,-0.73826 -0.308371,-1.33236 -0.691985,-1.33291 z m -11.56511,-9.2262 c -0.383599,-5.4e-4 -0.692575,0.59269 -0.693202,1.33097 l -0.0027,3.25807 c -6.4e-4,0.73827 0.307327,1.33236 0.690927,1.3329 l 3.231409,0.005 c 0.383606,5.4e-4 0.693626,-0.59268 0.694254,-1.33096 l 0.0027,-3.25807 c 6.4e-4,-0.73827 -0.308371,-1.33236 -0.691978,-1.33291 z m 5.687115,0.008 c -0.383614,-5.3e-4 -0.692584,0.5927 -0.69321,1.33095 l -0.0027,3.25809 c -6.47e-4,0.73828 0.307327,1.33238 0.690934,1.33291 l 3.231409,0.005 c 0.383607,5.3e-4 0.692576,-0.59269 0.69321,-1.33097 l 0.0027,-3.25807 c 6.41e-4,-0.73827 -0.307326,-1.33237 -0.690933,-1.33291 z m 5.877995,-0.0184 c -0.383607,-5.4e-4 -0.692584,0.59269 -0.69321,1.33095 l -0.0027,3.25809 c -6.48e-4,0.73827 0.307327,1.33237 0.690933,1.3329 l 3.23141,0.005 c 0.383607,5.5e-4 0.693619,-0.5927 0.694253,-1.33096 l 0.0027,-3.25809 c 6.4e-4,-0.73826 -0.308371,-1.33236 -0.691985,-1.33291 z" />
  </g>
  <g
     inkscape:groupmode="layer"
     id="layer4"
     inkscape:label="kontur" />
  <path
     id="path2957-0"
     style="fill:#f2f2f2;fill-opacity:0.94901961;stroke:#a0a0a0;stroke-width:0.56692913;stroke-linecap:butt;stroke-linejoin:miter;stroke-opacity:1;stroke-miterlimit:4;stroke-dasharray:none"
     d="m 81.854132,456.17004 c 0.139627,6.68796 0.139627,6.68796 0.139627,6.68796 m -71.360735,-6.53671 -0.139627,6.68796 m 84.674981,94.18468 c 2.220843,1.3129 3.988035,2.63674 3.734148,4.43223 -0.206472,1.46021 -1.749688,3.04274 -5.472739,5.37466 m -96.019,-9.98484 c -4.0269964,2.38064 -7.1312866,5.05013 1.1696676,10.24939 M 62.392466,540.76155 c 32.14436,14.25782 35.369984,18.50764 32.775912,16.43238 m -47.985357,4.25851 47.075328,5.38451 m -96.4432417,0.32309 49.3679137,-5.7076 M 31.501048,540.50869 c -33.1545819,14.42124 -34.7856108,17.013 -34.7856108,17.013 M 81.165065,476.23058 C 72.114033,514.7255 59.703289,557.13292 47.183021,561.45244 M 12.036135,475.51539 c 9.329094,38.49492 22.241973,81.61753 35.146886,85.93705 m 38.434231,-104.5057 0.873499,4.80737 m -4.496992,1.10389 c 3.675012,-0.0663 4.501587,-1.50094 4.501587,-1.50094 m -4.641214,-5.18702 c 3.675002,-0.0663 3.758524,0.77916 3.758524,0.77916 m -0.134886,-118.57116 0.8735,4.80737 m -4.496993,1.10389 c 3.675012,-0.0663 4.501583,-1.50094 4.501583,-1.50094 m -4.64121,-5.18702 c 3.675002,-0.0663 3.758524,0.77916 3.758524,0.77916 M 78.60201,78.189523 c 5.613617,4.650922 2.790972,105.891807 3.807176,159.153777 M 15.495448,78.189523 c -3.091212,0.24385 -5.25572,104.986447 -4.186457,156.372367 M 82.259373,71.822981 83.368479,77.39642 m -4.178642,1.169557 c 4.666258,-0.07698 4.184477,-1.629882 4.184477,-1.629882 m -5.893071,-6.013589 c 4.666246,-0.07699 4.772295,0.903317 4.772295,0.903317 M 77.77471,70.535974 c 1.415127,7.948067 1.415127,8.030003 1.415127,8.030003 M 46.859096,0.6669553 C 60.366214,3.0835193 73.563778,42.71933 77.81902,72.055929 M 46.859096,0.6669553 C 33.724322,2.96387 23.396956,41.297293 16.784164,71.803074 m -4.358248,-0.356547 -1.109106,5.573439 m 4.178642,1.169557 c -4.666258,-0.07698 -4.184477,-1.629882 -4.184477,-1.629882 m 5.893071,-6.013589 c -4.666246,-0.07699 -4.772295,0.903317 -4.772295,0.903317 m 4.478828,-1.289849 c -1.415127,7.948067 -1.415127,8.030003 -1.415127,8.030003 M 11.308995,234.56189 c 0.24238,80.31783 -4.471877,141.44157 -0.675971,221.7594 M 82.409186,237.3433 c -1.514632,80.19298 1.819502,146.38711 -0.555054,218.82674 M 7.6744826,145.45811 l -0.8735,4.80737 m 4.4969894,1.10389 c -3.6750094,-0.0663 -4.5015894,-1.50094 -4.5015894,-1.50094 m 4.6412164,-5.18702 c -3.6750064,-0.0663 -3.7585264,0.77916 -3.7585264,0.77916 m -1.0773612,192.47048 -0.873499,4.80737 m 4.4969916,1.10389 c -3.6750116,-0.0663 -4.5015866,-1.50094 -4.5015866,-1.50094 m 4.6412136,-5.18702 c -3.6750016,-0.0663 -3.7585236,0.77916 -3.7585236,0.77916 m 79.3184486,-192.47539 0.8735,4.80737 m -4.49699,1.10389 c 3.67501,-0.0663 4.50159,-1.50094 4.50159,-1.50094 m -4.641217,-5.18702 c 3.675007,-0.0663 3.758527,0.77916 3.758527,0.77916 M 6.869904,457.09799 5.996405,461.90536 m 4.496992,1.10389 C 6.818385,462.94295 5.99181,461.50831 5.99181,461.50831 m 4.641214,-5.18702 C 6.958022,456.25499 6.8745,457.10045 6.8745,457.10045 m 75.119259,5.75755 c -0.129731,4.79936 0.224311,12.45588 -1.186284,14.26656 M 10.493397,463.00925 c 0.129731,4.79936 0.580267,11.7407 1.990862,13.55138" />
  <path
     style="fill:#f2f2f2;fill-opacity:0.94901961;stroke:#a0a0a0;stroke-width:0.27030441;stroke-miterlimit:4;stroke-dasharray:none;stroke-opacity:1"
     d="m 70.022646,563.28559 c -10.620429,-1.29206 -19.431318,-2.38019 -19.579752,-2.41806 -0.148434,-0.0379 0.98698,-1.43664 2.523142,-3.10837 1.536162,-1.67174 4.317161,-5.99573 6.179998,-9.60888 l 3.386976,-6.56935 6.875534,3.19115 c 9.184092,4.26263 23.225097,11.44429 24.628113,12.59673 0.929891,0.76381 1.014598,1.58681 0.481835,4.68143 -0.781698,4.54059 1.66022,4.41744 -24.495846,1.23535 z"
     id="path952"
     inkscape:connector-curvature="0" />
  <path
     style="fill:#f2f2f2;fill-opacity:0.94901961;stroke:#a0a0a0;stroke-width:0.27030441;stroke-miterlimit:4;stroke-dasharray:none;stroke-opacity:1"
     d="m -2.1917941,562.4893 c -0.3690311,-2.95363 -0.2486165,-4.26666 0.4548348,-4.95963 1.70519271,-1.67979 32.6617353,-16.50067 33.1485993,-15.87036 0.07948,0.1029 1.519944,2.85425 3.201037,6.11412 1.681093,3.25987 4.491563,7.52313 6.245487,9.47392 2.123023,2.36131 2.868651,3.64514 2.2307,3.84084 -0.52704,0.16168 -10.130444,1.30043 -21.340897,2.53055 -11.210453,1.23012 -21.0700647,2.38308 -21.91024766,2.56214 -1.37539164,0.29311 -1.57761664,-0.0747 -2.02951344,-3.69158 z"
     id="path954"
     inkscape:connector-curvature="0" />
</svg>
