<?xml version="1.0" encoding="UTF-8" standalone="no"?>
<!-- Created with Inkscape (http://www.inkscape.org/) -->

<svg
   xmlns:dc="http://purl.org/dc/elements/1.1/"
   xmlns:cc="http://creativecommons.org/ns#"
   xmlns:rdf="http://www.w3.org/1999/02/22-rdf-syntax-ns#"
   xmlns:svg="http://www.w3.org/2000/svg"
   xmlns="http://www.w3.org/2000/svg"
   xmlns:sodipodi="http://sodipodi.sourceforge.net/DTD/sodipodi-0.dtd"
   xmlns:inkscape="http://www.inkscape.org/namespaces/inkscape"
   version="1.1"
   id="svg4175"
   width="96"
   height="583"
   viewBox="0 0 96 583"
   sodipodi:docname="boeing737.svg"
   inkscape:version="0.92.4 (5da689c313, 2019-01-14)">
  <metadata
     id="metadata4181">
    <rdf:RDF>
      <cc:Work
         rdf:about="">
        <dc:format>image/svg+xml</dc:format>
        <dc:type
           rdf:resource="http://purl.org/dc/dcmitype/StillImage" />
        <dc:title />
      </cc:Work>
    </rdf:RDF>
  </metadata>
  <defs
     id="defs4179" />
  <sodipodi:namedview
     pagecolor="#ffffff"
     bordercolor="#666666"
     borderopacity="1"
     objecttolerance="10"
     gridtolerance="10"
     guidetolerance="10"
     inkscape:pageopacity="0"
     inkscape:pageshadow="2"
     inkscape:window-width="1920"
     inkscape:window-height="1001"
     id="namedview4177"
     showgrid="false"
     inkscape:zoom="2.78"
     inkscape:cx="165.46917"
     inkscape:cy="252.74593"
     inkscape:window-x="-9"
     inkscape:window-y="-9"
     inkscape:window-maximized="1"
     inkscape:current-layer="svg4175" />
  <g
     inkscape:groupmode="layer"
     id="seats"
     inkscape:label="siedzenia" />
  <path
     style="fill:#e6e6e6;fill-opacity:0.95024878;stroke:#a0a0a0;stroke-width:0.46488189;stroke-miterlimit:4;stroke-dasharray:none;stroke-opacity:1"
     d="m 70.121864,446.19733 c -0.55117,-7.5e-4 -0.99511,0.81719 -0.99601,1.83508 l -0.004,4.49219 c -9.3e-4,1.01792 0.44157,1.83704 0.99274,1.83778 l 4.64292,0.007 c 0.55117,7.5e-4 0.9966,-0.8172 0.99751,-1.83511 l 0.004,-4.49217 c 9.2e-4,-1.01791 -0.44307,-1.83704 -0.99425,-1.83778 z"
     id="path1170" />
  <path
     style="fill:#e6e6e6;fill-opacity:0.95024878;stroke:#a0a0a0;stroke-width:0.46488189;stroke-miterlimit:4;stroke-dasharray:none;stroke-opacity:1"
     d="m 61.676304,446.22273 c -0.55118,-7.5e-4 -0.99511,0.8172 -0.99601,1.83509 l -0.004,4.49219 c -9.3e-4,1.01792 0.44157,1.83704 0.99274,1.83777 l 4.64292,0.007 c 0.55117,7.3e-4 0.9951,-0.8172 0.99601,-1.83511 l 0.004,-4.49217 c 9.2e-4,-1.01791 -0.44157,-1.83705 -0.99274,-1.83779 z"
     id="path1168" />
  <path
     style="fill:#e6e6e6;fill-opacity:0.95024878;stroke:#a0a0a0;stroke-width:0.46488189;stroke-miterlimit:4;stroke-dasharray:none;stroke-opacity:1"
     d="m 53.505004,446.21173 c -0.55116,-7.5e-4 -0.9951,0.81719 -0.996,1.8351 l -0.004,4.49218 c -9.2e-4,1.01791 0.44157,1.83704 0.99273,1.83778 l 4.64292,0.007 c 0.55117,7.4e-4 0.99661,-0.81718 0.99751,-1.8351 l 0.004,-4.49218 c 9.2e-4,-1.0179 -0.44307,-1.83704 -0.99424,-1.83778 z"
     id="path1166" />
  <path
     style="fill:#e6e6e6;fill-opacity:0.95024878;stroke:#a0a0a0;stroke-width:0.46488189;stroke-miterlimit:4;stroke-dasharray:none;stroke-opacity:1"
     d="m 37.021864,446.10284 c -0.55117,-7.4e-4 -0.99511,0.81719 -0.99601,1.83509 l -0.004,4.49219 c -9.3e-4,1.01792 0.44157,1.83704 0.99274,1.83778 l 4.64292,0.007 c 0.55117,7.5e-4 0.9966,-0.8172 0.99751,-1.83511 l 0.004,-4.49217 c 9.2e-4,-1.01792 -0.44307,-1.83705 -0.99425,-1.83779 z"
     id="path1164" />
  <path
     style="fill:#e6e6e6;fill-opacity:0.95024878;stroke:#a0a0a0;stroke-width:0.46488189;stroke-miterlimit:4;stroke-dasharray:none;stroke-opacity:1"
     d="m 28.576305,446.12824 c -0.55118,-7.4e-4 -0.99511,0.8172 -0.99601,1.8351 l -0.004,4.49219 c -9.3e-4,1.01792 0.44157,1.83704 0.99274,1.83777 l 4.642919,0.007 c 0.55117,7.3e-4 0.9951,-0.8172 0.99601,-1.83511 l 0.004,-4.49217 c 9.2e-4,-1.01792 -0.44157,-1.83706 -0.99274,-1.8378 z"
     id="path1162" />
  <path
     style="fill:#e6e6e6;fill-opacity:0.95024878;stroke:#a0a0a0;stroke-width:0.46488189;stroke-miterlimit:4;stroke-dasharray:none;stroke-opacity:1"
     d="m 20.405005,446.11724 c -0.55116,-7.4e-4 -0.9951,0.8172 -0.996,1.83511 l -0.004,4.49218 c -9.2e-4,1.01791 0.44157,1.83704 0.99273,1.83778 l 4.64292,0.007 c 0.55117,7.4e-4 0.99661,-0.81718 0.99751,-1.8351 l 0.004,-4.49218 c 9.2e-4,-1.01791 -0.44307,-1.83705 -0.99424,-1.83779 z"
     id="path1160" />
  <path
     style="fill:#e6e6e6;fill-opacity:0.95024878;stroke:#a0a0a0;stroke-width:0.46488189;stroke-miterlimit:4;stroke-dasharray:none;stroke-opacity:1"
     d="m 69.521864,433.89733 c -0.55117,-7.5e-4 -0.99511,0.81719 -0.99601,1.83508 l -0.004,4.49219 c -9.3e-4,1.01792 0.44157,1.83704 0.99274,1.83778 l 4.64292,0.007 c 0.55117,7.5e-4 0.9966,-0.8172 0.99751,-1.83511 l 0.004,-4.49217 c 9.2e-4,-1.01791 -0.44307,-1.83704 -0.99425,-1.83778 z"
     id="path1158" />
  <path
     style="fill:#e6e6e6;fill-opacity:0.95024878;stroke:#a0a0a0;stroke-width:0.46488189;stroke-miterlimit:4;stroke-dasharray:none;stroke-opacity:1"
     d="m 61.076304,433.92273 c -0.55118,-7.5e-4 -0.99511,0.8172 -0.99601,1.83509 l -0.004,4.49219 c -9.3e-4,1.01792 0.44157,1.83704 0.99274,1.83777 l 4.64292,0.007 c 0.55117,7.3e-4 0.9951,-0.8172 0.99601,-1.83511 l 0.004,-4.49217 c 9.2e-4,-1.01791 -0.44157,-1.83705 -0.99274,-1.83779 z"
     id="path1156" />
  <path
     style="fill:#e6e6e6;fill-opacity:0.95024878;stroke:#a0a0a0;stroke-width:0.46488189;stroke-miterlimit:4;stroke-dasharray:none;stroke-opacity:1"
     d="m 52.905004,433.91173 c -0.55116,-7.5e-4 -0.9951,0.81719 -0.996,1.8351 l -0.004,4.49218 c -9.2e-4,1.01791 0.44157,1.83704 0.99273,1.83778 l 4.64292,0.007 c 0.55117,7.4e-4 0.99661,-0.81718 0.99751,-1.8351 l 0.004,-4.49218 c 9.2e-4,-1.0179 -0.44307,-1.83704 -0.99424,-1.83778 z"
     id="path1154" />
  <path
     style="fill:#e6e6e6;fill-opacity:0.95024878;stroke:#a0a0a0;stroke-width:0.46488189;stroke-miterlimit:4;stroke-dasharray:none;stroke-opacity:1"
     d="m 36.421864,433.80284 c -0.55117,-7.4e-4 -0.99511,0.81719 -0.99601,1.83509 l -0.004,4.49219 c -9.3e-4,1.01792 0.44157,1.83704 0.99274,1.83778 l 4.64292,0.007 c 0.55117,7.5e-4 0.9966,-0.8172 0.99751,-1.83511 l 0.004,-4.49217 c 9.2e-4,-1.01792 -0.44307,-1.83705 -0.99425,-1.83779 z"
     id="path1152" />
  <path
     style="fill:#e6e6e6;fill-opacity:0.95024878;stroke:#a0a0a0;stroke-width:0.46488189;stroke-miterlimit:4;stroke-dasharray:none;stroke-opacity:1"
     d="m 27.976305,433.82824 c -0.55118,-7.4e-4 -0.99511,0.8172 -0.99601,1.8351 l -0.004,4.49219 c -9.3e-4,1.01792 0.44157,1.83704 0.99274,1.83777 l 4.642919,0.007 c 0.55117,7.3e-4 0.9951,-0.8172 0.99601,-1.83511 l 0.004,-4.49217 c 9.2e-4,-1.01792 -0.44157,-1.83706 -0.99274,-1.8378 z"
     id="path1150" />
  <path
     style="fill:#e6e6e6;fill-opacity:0.95024878;stroke:#a0a0a0;stroke-width:0.46488189;stroke-miterlimit:4;stroke-dasharray:none;stroke-opacity:1"
     d="m 19.805005,433.81724 c -0.55116,-7.4e-4 -0.9951,0.8172 -0.996,1.83511 l -0.004,4.49218 c -9.2e-4,1.01791 0.44157,1.83704 0.99273,1.83778 l 4.64292,0.007 c 0.55117,7.4e-4 0.99661,-0.81718 0.99751,-1.8351 l 0.004,-4.49218 c 9.2e-4,-1.01791 -0.44307,-1.83705 -0.99424,-1.83779 z"
     id="path1148" />
  <path
     style="fill:#e6e6e6;fill-opacity:0.95024878;stroke:#a0a0a0;stroke-width:0.46488189;stroke-miterlimit:4;stroke-dasharray:none;stroke-opacity:1"
     d="m 69.921864,421.29733 c -0.55117,-7.5e-4 -0.99511,0.81719 -0.99601,1.83508 l -0.004,4.49219 c -9.3e-4,1.01792 0.44157,1.83704 0.99274,1.83778 l 4.64292,0.007 c 0.55117,7.5e-4 0.9966,-0.8172 0.99751,-1.83511 l 0.004,-4.49217 c 9.2e-4,-1.01791 -0.44307,-1.83704 -0.99425,-1.83778 z"
     id="path1146" />
  <path
     style="fill:#e6e6e6;fill-opacity:0.95024878;stroke:#a0a0a0;stroke-width:0.46488189;stroke-miterlimit:4;stroke-dasharray:none;stroke-opacity:1"
     d="m 61.476304,421.32273 c -0.55118,-7.5e-4 -0.99511,0.8172 -0.99601,1.83509 l -0.004,4.49219 c -9.3e-4,1.01792 0.44157,1.83704 0.99274,1.83777 l 4.64292,0.007 c 0.55117,7.3e-4 0.9951,-0.8172 0.99601,-1.83511 l 0.004,-4.49217 c 9.2e-4,-1.01791 -0.44157,-1.83705 -0.99274,-1.83779 z"
     id="path1144" />
  <path
     style="fill:#e6e6e6;fill-opacity:0.95024878;stroke:#a0a0a0;stroke-width:0.46488189;stroke-miterlimit:4;stroke-dasharray:none;stroke-opacity:1"
     d="m 53.305004,421.31173 c -0.55116,-7.5e-4 -0.9951,0.81719 -0.996,1.8351 l -0.004,4.49218 c -9.2e-4,1.01791 0.44157,1.83704 0.99273,1.83778 l 4.64292,0.007 c 0.55117,7.4e-4 0.99661,-0.81718 0.99751,-1.8351 l 0.004,-4.49218 c 9.2e-4,-1.0179 -0.44307,-1.83704 -0.99424,-1.83778 z"
     id="path1142" />
  <path
     style="fill:#e6e6e6;fill-opacity:0.95024878;stroke:#a0a0a0;stroke-width:0.46488189;stroke-miterlimit:4;stroke-dasharray:none;stroke-opacity:1"
     d="m 36.821864,421.20284 c -0.55117,-7.4e-4 -0.99511,0.81719 -0.99601,1.83509 l -0.004,4.49219 c -9.3e-4,1.01792 0.44157,1.83704 0.99274,1.83778 l 4.64292,0.007 c 0.55117,7.5e-4 0.9966,-0.8172 0.99751,-1.83511 l 0.004,-4.49217 c 9.2e-4,-1.01792 -0.44307,-1.83705 -0.99425,-1.83779 z"
     id="path1140" />
  <path
     style="fill:#e6e6e6;fill-opacity:0.95024878;stroke:#a0a0a0;stroke-width:0.46488189;stroke-miterlimit:4;stroke-dasharray:none;stroke-opacity:1"
     d="m 28.376305,421.22824 c -0.55118,-7.4e-4 -0.99511,0.8172 -0.99601,1.8351 l -0.004,4.49219 c -9.3e-4,1.01792 0.44157,1.83704 0.99274,1.83777 l 4.642919,0.007 c 0.55117,7.3e-4 0.9951,-0.8172 0.99601,-1.83511 l 0.004,-4.49217 c 9.2e-4,-1.01792 -0.44157,-1.83706 -0.99274,-1.8378 z"
     id="path1138" />
  <path
     style="fill:#e6e6e6;fill-opacity:0.95024878;stroke:#a0a0a0;stroke-width:0.46488189;stroke-miterlimit:4;stroke-dasharray:none;stroke-opacity:1"
     d="m 20.205005,421.21724 c -0.55116,-7.4e-4 -0.9951,0.8172 -0.996,1.83511 l -0.004,4.49218 c -9.2e-4,1.01791 0.44157,1.83704 0.99273,1.83778 l 4.64292,0.007 c 0.55117,7.4e-4 0.99661,-0.81718 0.99751,-1.8351 l 0.004,-4.49218 c 9.2e-4,-1.01791 -0.44307,-1.83705 -0.99424,-1.83779 z"
     id="path1136" />
  <path
     style="fill:#e6e6e6;fill-opacity:0.95024878;stroke:#a0a0a0;stroke-width:0.46488189;stroke-miterlimit:4;stroke-dasharray:none;stroke-opacity:1"
     d="m 69.521864,408.29733 c -0.55117,-7.5e-4 -0.99511,0.81719 -0.99601,1.83508 l -0.004,4.49219 c -9.3e-4,1.01792 0.44157,1.83704 0.99274,1.83778 l 4.64292,0.007 c 0.55117,7.5e-4 0.9966,-0.8172 0.99751,-1.83511 l 0.004,-4.49217 c 9.2e-4,-1.01791 -0.44307,-1.83704 -0.99425,-1.83778 z"
     id="path1134" />
  <path
     style="fill:#e6e6e6;fill-opacity:0.95024878;stroke:#a0a0a0;stroke-width:0.46488189;stroke-miterlimit:4;stroke-dasharray:none;stroke-opacity:1"
     d="m 61.076304,408.32273 c -0.55118,-7.5e-4 -0.99511,0.8172 -0.99601,1.83509 l -0.004,4.49219 c -9.3e-4,1.01792 0.44157,1.83704 0.99274,1.83777 l 4.64292,0.007 c 0.55117,7.3e-4 0.9951,-0.8172 0.99601,-1.83511 l 0.004,-4.49217 c 9.2e-4,-1.01791 -0.44157,-1.83705 -0.99274,-1.83779 z"
     id="path1132" />
  <path
     style="fill:#e6e6e6;fill-opacity:0.95024878;stroke:#a0a0a0;stroke-width:0.46488189;stroke-miterlimit:4;stroke-dasharray:none;stroke-opacity:1"
     d="m 52.905004,408.31173 c -0.55116,-7.5e-4 -0.9951,0.81719 -0.996,1.8351 l -0.004,4.49218 c -9.2e-4,1.01791 0.44157,1.83704 0.99273,1.83778 l 4.64292,0.007 c 0.55117,7.4e-4 0.99661,-0.81718 0.99751,-1.8351 l 0.004,-4.49218 c 9.2e-4,-1.0179 -0.44307,-1.83704 -0.99424,-1.83778 z"
     id="path1130" />
  <path
     style="fill:#e6e6e6;fill-opacity:0.95024878;stroke:#a0a0a0;stroke-width:0.46488189;stroke-miterlimit:4;stroke-dasharray:none;stroke-opacity:1"
     d="m 36.421864,408.20284 c -0.55117,-7.4e-4 -0.99511,0.81719 -0.99601,1.83509 l -0.004,4.49219 c -9.3e-4,1.01792 0.44157,1.83704 0.99274,1.83778 l 4.64292,0.007 c 0.55117,7.5e-4 0.9966,-0.8172 0.99751,-1.83511 l 0.004,-4.49217 c 9.2e-4,-1.01792 -0.44307,-1.83705 -0.99425,-1.83779 z"
     id="path1128" />
  <path
     style="fill:#e6e6e6;fill-opacity:0.95024878;stroke:#a0a0a0;stroke-width:0.46488189;stroke-miterlimit:4;stroke-dasharray:none;stroke-opacity:1"
     d="m 27.976305,408.22824 c -0.55118,-7.4e-4 -0.99511,0.8172 -0.99601,1.8351 l -0.004,4.49219 c -9.3e-4,1.01792 0.44157,1.83704 0.99274,1.83777 l 4.642919,0.007 c 0.55117,7.3e-4 0.9951,-0.8172 0.99601,-1.83511 l 0.004,-4.49217 c 9.2e-4,-1.01792 -0.44157,-1.83706 -0.99274,-1.8378 z"
     id="path1126" />
  <path
     style="fill:#e6e6e6;fill-opacity:0.95024878;stroke:#a0a0a0;stroke-width:0.46488189;stroke-miterlimit:4;stroke-dasharray:none;stroke-opacity:1"
     d="m 19.805005,408.21724 c -0.55116,-7.4e-4 -0.9951,0.8172 -0.996,1.83511 l -0.004,4.49218 c -9.2e-4,1.01791 0.44157,1.83704 0.99273,1.83778 l 4.64292,0.007 c 0.55117,7.4e-4 0.99661,-0.81718 0.99751,-1.8351 l 0.004,-4.49218 c 9.2e-4,-1.01791 -0.44307,-1.83705 -0.99424,-1.83779 z"
     id="path1124" />
  <path
     style="fill:#e6e6e6;fill-opacity:0.95024878;stroke:#a0a0a0;stroke-width:0.46488189;stroke-miterlimit:4;stroke-dasharray:none;stroke-opacity:1"
     d="m 69.921864,395.69733 c -0.55117,-7.5e-4 -0.99511,0.81719 -0.99601,1.83508 l -0.004,4.49219 c -9.3e-4,1.01792 0.44157,1.83704 0.99274,1.83778 l 4.64292,0.007 c 0.55117,7.5e-4 0.9966,-0.8172 0.99751,-1.83511 l 0.004,-4.49217 c 9.2e-4,-1.01791 -0.44307,-1.83704 -0.99425,-1.83778 z"
     id="path1122" />
  <path
     style="fill:#e6e6e6;fill-opacity:0.95024878;stroke:#a0a0a0;stroke-width:0.46488189;stroke-miterlimit:4;stroke-dasharray:none;stroke-opacity:1"
     d="m 61.476304,395.72273 c -0.55118,-7.5e-4 -0.99511,0.8172 -0.99601,1.83509 l -0.004,4.49219 c -9.3e-4,1.01792 0.44157,1.83704 0.99274,1.83777 l 4.64292,0.007 c 0.55117,7.3e-4 0.9951,-0.8172 0.99601,-1.83511 l 0.004,-4.49217 c 9.2e-4,-1.01791 -0.44157,-1.83705 -0.99274,-1.83779 z"
     id="path1120" />
  <path
     style="fill:#e6e6e6;fill-opacity:0.95024878;stroke:#a0a0a0;stroke-width:0.46488189;stroke-miterlimit:4;stroke-dasharray:none;stroke-opacity:1"
     d="m 53.305004,395.71173 c -0.55116,-7.5e-4 -0.9951,0.81719 -0.996,1.8351 l -0.004,4.49218 c -9.2e-4,1.01791 0.44157,1.83704 0.99273,1.83778 l 4.64292,0.007 c 0.55117,7.4e-4 0.99661,-0.81718 0.99751,-1.8351 l 0.004,-4.49218 c 9.2e-4,-1.0179 -0.44307,-1.83704 -0.99424,-1.83778 z"
     id="path1118" />
  <path
     style="fill:#e6e6e6;fill-opacity:0.95024878;stroke:#a0a0a0;stroke-width:0.46488189;stroke-miterlimit:4;stroke-dasharray:none;stroke-opacity:1"
     d="m 36.821864,395.60284 c -0.55117,-7.4e-4 -0.99511,0.81719 -0.99601,1.83509 l -0.004,4.49219 c -9.3e-4,1.01792 0.44157,1.83704 0.99274,1.83778 l 4.64292,0.007 c 0.55117,7.5e-4 0.9966,-0.8172 0.99751,-1.83511 l 0.004,-4.49217 c 9.2e-4,-1.01792 -0.44307,-1.83705 -0.99425,-1.83779 z"
     id="path1116" />
  <path
     style="fill:#e6e6e6;fill-opacity:0.95024878;stroke:#a0a0a0;stroke-width:0.46488189;stroke-miterlimit:4;stroke-dasharray:none;stroke-opacity:1"
     d="m 28.376305,395.62824 c -0.55118,-7.4e-4 -0.99511,0.8172 -0.99601,1.8351 l -0.004,4.49219 c -9.3e-4,1.01792 0.44157,1.83704 0.99274,1.83777 l 4.642919,0.007 c 0.55117,7.3e-4 0.9951,-0.8172 0.99601,-1.83511 l 0.004,-4.49217 c 9.2e-4,-1.01792 -0.44157,-1.83706 -0.99274,-1.8378 z"
     id="path1114" />
  <path
     style="fill:#e6e6e6;fill-opacity:0.95024878;stroke:#a0a0a0;stroke-width:0.46488189;stroke-miterlimit:4;stroke-dasharray:none;stroke-opacity:1"
     d="m 20.205005,395.61724 c -0.55116,-7.4e-4 -0.9951,0.8172 -0.996,1.83511 l -0.004,4.49218 c -9.2e-4,1.01791 0.44157,1.83704 0.99273,1.83778 l 4.64292,0.007 c 0.55117,7.4e-4 0.99661,-0.81718 0.99751,-1.8351 l 0.004,-4.49218 c 9.2e-4,-1.01791 -0.44307,-1.83705 -0.99424,-1.83779 z"
     id="path1112" />
  <path
     style="fill:#e6e6e6;fill-opacity:0.95024878;stroke:#a0a0a0;stroke-width:0.46488189;stroke-miterlimit:4;stroke-dasharray:none;stroke-opacity:1"
     d="m 69.921864,383.49733 c -0.55117,-7.5e-4 -0.99511,0.81719 -0.99601,1.83508 l -0.004,4.49219 c -9.3e-4,1.01792 0.44157,1.83704 0.99274,1.83778 l 4.64292,0.007 c 0.55117,7.5e-4 0.9966,-0.8172 0.99751,-1.83511 l 0.004,-4.49217 c 9.2e-4,-1.01791 -0.44307,-1.83704 -0.99425,-1.83778 z"
     id="path1110" />
  <path
     style="fill:#e6e6e6;fill-opacity:0.95024878;stroke:#a0a0a0;stroke-width:0.46488189;stroke-miterlimit:4;stroke-dasharray:none;stroke-opacity:1"
     d="m 61.476304,383.52273 c -0.55118,-7.5e-4 -0.99511,0.8172 -0.99601,1.83509 l -0.004,4.49219 c -9.3e-4,1.01792 0.44157,1.83704 0.99274,1.83777 l 4.64292,0.007 c 0.55117,7.3e-4 0.9951,-0.8172 0.99601,-1.83511 l 0.004,-4.49217 c 9.2e-4,-1.01791 -0.44157,-1.83705 -0.99274,-1.83779 z"
     id="path1108" />
  <path
     style="fill:#e6e6e6;fill-opacity:0.95024878;stroke:#a0a0a0;stroke-width:0.46488189;stroke-miterlimit:4;stroke-dasharray:none;stroke-opacity:1"
     d="m 53.305004,383.51173 c -0.55116,-7.5e-4 -0.9951,0.81719 -0.996,1.8351 l -0.004,4.49218 c -9.2e-4,1.01791 0.44157,1.83704 0.99273,1.83778 l 4.64292,0.007 c 0.55117,7.4e-4 0.99661,-0.81718 0.99751,-1.8351 l 0.004,-4.49218 c 9.2e-4,-1.0179 -0.44307,-1.83704 -0.99424,-1.83778 z"
     id="path1106" />
  <path
     style="fill:#e6e6e6;fill-opacity:0.95024878;stroke:#a0a0a0;stroke-width:0.46488189;stroke-miterlimit:4;stroke-dasharray:none;stroke-opacity:1"
     d="m 36.821864,383.40284 c -0.55117,-7.4e-4 -0.99511,0.81719 -0.99601,1.83509 l -0.004,4.49219 c -9.3e-4,1.01792 0.44157,1.83704 0.99274,1.83778 l 4.64292,0.007 c 0.55117,7.5e-4 0.9966,-0.8172 0.99751,-1.83511 l 0.004,-4.49217 c 9.2e-4,-1.01792 -0.44307,-1.83705 -0.99425,-1.83779 z"
     id="path1104" />
  <path
     style="fill:#e6e6e6;fill-opacity:0.95024878;stroke:#a0a0a0;stroke-width:0.46488189;stroke-miterlimit:4;stroke-dasharray:none;stroke-opacity:1"
     d="m 28.376305,383.42824 c -0.55118,-7.4e-4 -0.99511,0.8172 -0.99601,1.8351 l -0.004,4.49219 c -9.3e-4,1.01792 0.44157,1.83704 0.99274,1.83777 l 4.642919,0.007 c 0.55117,7.3e-4 0.9951,-0.8172 0.99601,-1.83511 l 0.004,-4.49217 c 9.2e-4,-1.01792 -0.44157,-1.83706 -0.99274,-1.8378 z"
     id="path1102" />
  <path
     style="fill:#e6e6e6;fill-opacity:0.95024878;stroke:#a0a0a0;stroke-width:0.46488189;stroke-miterlimit:4;stroke-dasharray:none;stroke-opacity:1"
     d="m 20.205005,383.41724 c -0.55116,-7.4e-4 -0.9951,0.8172 -0.996,1.83511 l -0.004,4.49218 c -9.2e-4,1.01791 0.44157,1.83704 0.99273,1.83778 l 4.64292,0.007 c 0.55117,7.4e-4 0.99661,-0.81718 0.99751,-1.8351 l 0.004,-4.49218 c 9.2e-4,-1.01791 -0.44307,-1.83705 -0.99424,-1.83779 z"
     id="path1100" />
  <path
     style="fill:#e6e6e6;fill-opacity:0.95024878;stroke:#a0a0a0;stroke-width:0.46488189;stroke-miterlimit:4;stroke-dasharray:none;stroke-opacity:1"
     d="m 70.321864,370.89733 c -0.55117,-7.5e-4 -0.99511,0.81719 -0.99601,1.83508 l -0.004,4.49219 c -9.3e-4,1.01792 0.44157,1.83704 0.99274,1.83778 l 4.64292,0.007 c 0.55117,7.5e-4 0.9966,-0.8172 0.99751,-1.83511 l 0.004,-4.49217 c 9.2e-4,-1.01791 -0.44307,-1.83704 -0.99425,-1.83778 z"
     id="path1098" />
  <path
     style="fill:#e6e6e6;fill-opacity:0.95024878;stroke:#a0a0a0;stroke-width:0.46488189;stroke-miterlimit:4;stroke-dasharray:none;stroke-opacity:1"
     d="m 61.876304,370.92273 c -0.55118,-7.5e-4 -0.99511,0.8172 -0.99601,1.83509 l -0.004,4.49219 c -9.3e-4,1.01792 0.44157,1.83704 0.99274,1.83777 l 4.64292,0.007 c 0.55117,7.3e-4 0.9951,-0.8172 0.99601,-1.83511 l 0.004,-4.49217 c 9.2e-4,-1.01791 -0.44157,-1.83705 -0.99274,-1.83779 z"
     id="path1096" />
  <path
     style="fill:#e6e6e6;fill-opacity:0.95024878;stroke:#a0a0a0;stroke-width:0.46488189;stroke-miterlimit:4;stroke-dasharray:none;stroke-opacity:1"
     d="m 53.705004,370.91173 c -0.55116,-7.5e-4 -0.9951,0.81719 -0.996,1.8351 l -0.004,4.49218 c -9.2e-4,1.01791 0.44157,1.83704 0.99273,1.83778 l 4.64292,0.007 c 0.55117,7.4e-4 0.99661,-0.81718 0.99751,-1.8351 l 0.004,-4.49218 c 9.2e-4,-1.0179 -0.44307,-1.83704 -0.99424,-1.83778 z"
     id="path1094" />
  <path
     style="fill:#e6e6e6;fill-opacity:0.95024878;stroke:#a0a0a0;stroke-width:0.46488189;stroke-miterlimit:4;stroke-dasharray:none;stroke-opacity:1"
     d="m 37.221864,370.80284 c -0.55117,-7.4e-4 -0.99511,0.81719 -0.99601,1.83509 l -0.004,4.49219 c -9.3e-4,1.01792 0.44157,1.83704 0.99274,1.83778 l 4.64292,0.007 c 0.55117,7.5e-4 0.9966,-0.8172 0.99751,-1.83511 l 0.004,-4.49217 c 9.2e-4,-1.01792 -0.44307,-1.83705 -0.99425,-1.83779 z"
     id="path1092" />
  <path
     style="fill:#e6e6e6;fill-opacity:0.95024878;stroke:#a0a0a0;stroke-width:0.46488189;stroke-miterlimit:4;stroke-dasharray:none;stroke-opacity:1"
     d="m 28.776304,370.82824 c -0.551179,-7.4e-4 -0.995109,0.8172 -0.996009,1.8351 l -0.004,4.49219 c -9.3e-4,1.01792 0.44157,1.83704 0.992739,1.83777 l 4.64292,0.007 c 0.55117,7.3e-4 0.9951,-0.8172 0.99601,-1.83511 l 0.004,-4.49217 c 9.2e-4,-1.01792 -0.44157,-1.83706 -0.99274,-1.8378 z"
     id="path1090" />
  <path
     style="fill:#e6e6e6;fill-opacity:0.95024878;stroke:#a0a0a0;stroke-width:0.46488189;stroke-miterlimit:4;stroke-dasharray:none;stroke-opacity:1"
     d="m 20.605005,370.81724 c -0.55116,-7.4e-4 -0.9951,0.8172 -0.996,1.83511 l -0.004,4.49218 c -9.2e-4,1.01791 0.44157,1.83704 0.99273,1.83778 l 4.64292,0.007 c 0.55117,7.4e-4 0.99661,-0.81718 0.99751,-1.8351 l 0.004,-4.49218 c 9.2e-4,-1.01791 -0.44307,-1.83705 -0.99424,-1.83779 z"
     id="path1088" />
  <path
     style="fill:#e6e6e6;fill-opacity:0.95024878;stroke:#a0a0a0;stroke-width:0.46488189;stroke-miterlimit:4;stroke-dasharray:none;stroke-opacity:1"
     d="m 70.121864,359.29733 c -0.55117,-7.5e-4 -0.99511,0.81719 -0.99601,1.83508 l -0.004,4.49219 c -9.3e-4,1.01792 0.44157,1.83704 0.99274,1.83778 l 4.64292,0.007 c 0.55117,7.5e-4 0.9966,-0.8172 0.99751,-1.83511 l 0.004,-4.49217 c 9.2e-4,-1.01791 -0.44307,-1.83704 -0.99425,-1.83778 z"
     id="path1086" />
  <path
     style="fill:#e6e6e6;fill-opacity:0.95024878;stroke:#a0a0a0;stroke-width:0.46488189;stroke-miterlimit:4;stroke-dasharray:none;stroke-opacity:1"
     d="m 61.676304,359.32273 c -0.55118,-7.5e-4 -0.99511,0.8172 -0.99601,1.83509 l -0.004,4.49219 c -9.3e-4,1.01792 0.44157,1.83704 0.99274,1.83777 l 4.64292,0.007 c 0.55117,7.3e-4 0.9951,-0.8172 0.99601,-1.83511 l 0.004,-4.49217 c 9.2e-4,-1.01791 -0.44157,-1.83705 -0.99274,-1.83779 z"
     id="path1084" />
  <path
     style="fill:#e6e6e6;fill-opacity:0.95024878;stroke:#a0a0a0;stroke-width:0.46488189;stroke-miterlimit:4;stroke-dasharray:none;stroke-opacity:1"
     d="m 53.505004,359.31173 c -0.55116,-7.5e-4 -0.9951,0.81719 -0.996,1.8351 l -0.004,4.49218 c -9.2e-4,1.01791 0.44157,1.83704 0.99273,1.83778 l 4.64292,0.007 c 0.55117,7.4e-4 0.99661,-0.81718 0.99751,-1.8351 l 0.004,-4.49218 c 9.2e-4,-1.0179 -0.44307,-1.83704 -0.99424,-1.83778 z"
     id="path1082" />
  <path
     style="fill:#e6e6e6;fill-opacity:0.95024878;stroke:#a0a0a0;stroke-width:0.46488189;stroke-miterlimit:4;stroke-dasharray:none;stroke-opacity:1"
     d="m 37.021864,359.20284 c -0.55117,-7.4e-4 -0.99511,0.81719 -0.99601,1.83509 l -0.004,4.49219 c -9.3e-4,1.01792 0.44157,1.83704 0.99274,1.83778 l 4.64292,0.007 c 0.55117,7.5e-4 0.9966,-0.8172 0.99751,-1.83511 l 0.004,-4.49217 c 9.2e-4,-1.01792 -0.44307,-1.83705 -0.99425,-1.83779 z"
     id="path1080" />
  <path
     style="fill:#e6e6e6;fill-opacity:0.95024878;stroke:#a0a0a0;stroke-width:0.46488189;stroke-miterlimit:4;stroke-dasharray:none;stroke-opacity:1"
     d="m 28.576305,359.22824 c -0.55118,-7.4e-4 -0.99511,0.8172 -0.99601,1.8351 l -0.004,4.49219 c -9.3e-4,1.01792 0.44157,1.83704 0.99274,1.83777 l 4.642919,0.007 c 0.55117,7.3e-4 0.9951,-0.8172 0.99601,-1.83511 l 0.004,-4.49217 c 9.2e-4,-1.01792 -0.44157,-1.83706 -0.99274,-1.8378 z"
     id="path1078" />
  <path
     style="fill:#e6e6e6;fill-opacity:0.95024878;stroke:#a0a0a0;stroke-width:0.46488189;stroke-miterlimit:4;stroke-dasharray:none;stroke-opacity:1"
     d="m 20.405005,359.21724 c -0.55116,-7.4e-4 -0.9951,0.8172 -0.996,1.83511 l -0.004,4.49218 c -9.2e-4,1.01791 0.44157,1.83704 0.99273,1.83778 l 4.64292,0.007 c 0.55117,7.4e-4 0.99661,-0.81718 0.99751,-1.8351 l 0.004,-4.49218 c 9.2e-4,-1.01791 -0.44307,-1.83705 -0.99424,-1.83779 z"
     id="path1076" />
  <path
     style="fill:#e6e6e6;fill-opacity:0.95024878;stroke:#a0a0a0;stroke-width:0.46488189;stroke-miterlimit:4;stroke-dasharray:none;stroke-opacity:1"
     d="m 70.521864,346.69733 c -0.55117,-7.5e-4 -0.99511,0.81719 -0.99601,1.83508 l -0.004,4.49219 c -9.3e-4,1.01792 0.44157,1.83704 0.99274,1.83778 l 4.64292,0.007 c 0.55117,7.5e-4 0.9966,-0.8172 0.99751,-1.83511 l 0.004,-4.49217 c 9.2e-4,-1.01791 -0.44307,-1.83704 -0.99425,-1.83778 z"
     id="path1074" />
  <path
     style="fill:#e6e6e6;fill-opacity:0.95024878;stroke:#a0a0a0;stroke-width:0.46488189;stroke-miterlimit:4;stroke-dasharray:none;stroke-opacity:1"
     d="m 62.076304,346.72273 c -0.55118,-7.5e-4 -0.99511,0.8172 -0.99601,1.83509 l -0.004,4.49219 c -9.3e-4,1.01792 0.44157,1.83704 0.99274,1.83777 l 4.64292,0.007 c 0.55117,7.3e-4 0.9951,-0.8172 0.99601,-1.83511 l 0.004,-4.49217 c 9.2e-4,-1.01791 -0.44157,-1.83705 -0.99274,-1.83779 z"
     id="path1072" />
  <path
     style="fill:#e6e6e6;fill-opacity:0.95024878;stroke:#a0a0a0;stroke-width:0.46488189;stroke-miterlimit:4;stroke-dasharray:none;stroke-opacity:1"
     d="m 53.905004,346.71173 c -0.55116,-7.5e-4 -0.9951,0.81719 -0.996,1.8351 l -0.004,4.49218 c -9.2e-4,1.01791 0.44157,1.83704 0.99273,1.83778 l 4.64292,0.007 c 0.55117,7.4e-4 0.99661,-0.81718 0.99751,-1.8351 l 0.004,-4.49218 c 9.2e-4,-1.0179 -0.44307,-1.83704 -0.99424,-1.83778 z"
     id="path1070" />
  <path
     style="fill:#e6e6e6;fill-opacity:0.95024878;stroke:#a0a0a0;stroke-width:0.46488189;stroke-miterlimit:4;stroke-dasharray:none;stroke-opacity:1"
     d="m 37.421864,346.60284 c -0.55117,-7.4e-4 -0.99511,0.81719 -0.99601,1.83509 l -0.004,4.49219 c -9.3e-4,1.01792 0.44157,1.83704 0.99274,1.83778 l 4.64292,0.007 c 0.55117,7.5e-4 0.9966,-0.8172 0.99751,-1.83511 l 0.004,-4.49217 c 9.2e-4,-1.01792 -0.44307,-1.83705 -0.99425,-1.83779 z"
     id="path1068" />
  <path
     style="fill:#e6e6e6;fill-opacity:0.95024878;stroke:#a0a0a0;stroke-width:0.46488189;stroke-miterlimit:4;stroke-dasharray:none;stroke-opacity:1"
     d="m 28.976304,346.62824 c -0.551179,-7.4e-4 -0.995109,0.8172 -0.996009,1.8351 l -0.004,4.49219 c -9.3e-4,1.01792 0.44157,1.83704 0.992739,1.83777 l 4.64292,0.007 c 0.55117,7.3e-4 0.9951,-0.8172 0.99601,-1.83511 l 0.004,-4.49217 c 9.2e-4,-1.01792 -0.44157,-1.83706 -0.99274,-1.8378 z"
     id="path1066" />
  <path
     style="fill:#e6e6e6;fill-opacity:0.95024878;stroke:#a0a0a0;stroke-width:0.46488189;stroke-miterlimit:4;stroke-dasharray:none;stroke-opacity:1"
     d="m 20.805005,346.61724 c -0.55116,-7.4e-4 -0.9951,0.8172 -0.996,1.83511 l -0.004,4.49218 c -9.2e-4,1.01791 0.44157,1.83704 0.99273,1.83778 l 4.64292,0.007 c 0.55117,7.4e-4 0.99661,-0.81718 0.99751,-1.8351 l 0.004,-4.49218 c 9.2e-4,-1.01791 -0.44307,-1.83705 -0.99424,-1.83779 z"
     id="path1064" />
  <path
     style="fill:#e6e6e6;fill-opacity:0.95024878;stroke:#a0a0a0;stroke-width:0.46488189;stroke-miterlimit:4;stroke-dasharray:none;stroke-opacity:1"
     d="m 69.721864,334.69733 c -0.55117,-7.5e-4 -0.99511,0.81719 -0.99601,1.83508 l -0.004,4.49219 c -9.3e-4,1.01792 0.44157,1.83704 0.99274,1.83778 l 4.64292,0.007 c 0.55117,7.5e-4 0.9966,-0.8172 0.99751,-1.83511 l 0.004,-4.49217 c 9.2e-4,-1.01791 -0.44307,-1.83704 -0.99425,-1.83778 z"
     id="path1062" />
  <path
     style="fill:#e6e6e6;fill-opacity:0.95024878;stroke:#a0a0a0;stroke-width:0.46488189;stroke-miterlimit:4;stroke-dasharray:none;stroke-opacity:1"
     d="m 61.276304,334.72273 c -0.55118,-7.5e-4 -0.99511,0.8172 -0.99601,1.83509 l -0.004,4.49219 c -9.3e-4,1.01792 0.44157,1.83704 0.99274,1.83777 l 4.64292,0.007 c 0.55117,7.3e-4 0.9951,-0.8172 0.99601,-1.83511 l 0.004,-4.49217 c 9.2e-4,-1.01791 -0.44157,-1.83705 -0.99274,-1.83779 z"
     id="path1060" />
  <path
     style="fill:#e6e6e6;fill-opacity:0.95024878;stroke:#a0a0a0;stroke-width:0.46488189;stroke-miterlimit:4;stroke-dasharray:none;stroke-opacity:1"
     d="m 53.105004,334.71173 c -0.55116,-7.5e-4 -0.9951,0.81719 -0.996,1.8351 l -0.004,4.49218 c -9.2e-4,1.01791 0.44157,1.83704 0.99273,1.83778 l 4.64292,0.007 c 0.55117,7.4e-4 0.99661,-0.81718 0.99751,-1.8351 l 0.004,-4.49218 c 9.2e-4,-1.0179 -0.44307,-1.83704 -0.99424,-1.83778 z"
     id="path1058" />
  <path
     style="fill:#e6e6e6;fill-opacity:0.95024878;stroke:#a0a0a0;stroke-width:0.46488189;stroke-miterlimit:4;stroke-dasharray:none;stroke-opacity:1"
     d="m 36.621864,334.60284 c -0.55117,-7.4e-4 -0.99511,0.81719 -0.99601,1.83509 l -0.004,4.49219 c -9.3e-4,1.01792 0.44157,1.83704 0.99274,1.83778 l 4.64292,0.007 c 0.55117,7.5e-4 0.9966,-0.8172 0.99751,-1.83511 l 0.004,-4.49217 c 9.2e-4,-1.01792 -0.44307,-1.83705 -0.99425,-1.83779 z"
     id="path1056" />
  <path
     style="fill:#e6e6e6;fill-opacity:0.95024878;stroke:#a0a0a0;stroke-width:0.46488189;stroke-miterlimit:4;stroke-dasharray:none;stroke-opacity:1"
     d="m 28.176305,334.62824 c -0.55118,-7.4e-4 -0.99511,0.8172 -0.99601,1.8351 l -0.004,4.49219 c -9.3e-4,1.01792 0.44157,1.83704 0.99274,1.83777 l 4.642919,0.007 c 0.55117,7.3e-4 0.9951,-0.8172 0.99601,-1.83511 l 0.004,-4.49217 c 9.2e-4,-1.01792 -0.44157,-1.83706 -0.99274,-1.8378 z"
     id="path1054" />
  <path
     style="fill:#e6e6e6;fill-opacity:0.95024878;stroke:#a0a0a0;stroke-width:0.46488189;stroke-miterlimit:4;stroke-dasharray:none;stroke-opacity:1"
     d="m 20.005005,334.61724 c -0.55116,-7.4e-4 -0.9951,0.8172 -0.996,1.83511 l -0.004,4.49218 c -9.2e-4,1.01791 0.44157,1.83704 0.99273,1.83778 l 4.64292,0.007 c 0.55117,7.4e-4 0.99661,-0.81718 0.99751,-1.8351 l 0.004,-4.49218 c 9.2e-4,-1.01791 -0.44307,-1.83705 -0.99424,-1.83779 z"
     id="path1052" />
  <path
     style="fill:#e6e6e6;fill-opacity:0.95024878;stroke:#a0a0a0;stroke-width:0.46488189;stroke-miterlimit:4;stroke-dasharray:none;stroke-opacity:1"
     d="m 70.121864,322.09733 c -0.55117,-7.5e-4 -0.99511,0.81719 -0.99601,1.83508 l -0.004,4.49219 c -9.3e-4,1.01792 0.44157,1.83704 0.99274,1.83778 l 4.64292,0.007 c 0.55117,7.5e-4 0.9966,-0.8172 0.99751,-1.83511 l 0.004,-4.49217 c 9.2e-4,-1.01791 -0.44307,-1.83704 -0.99425,-1.83778 z"
     id="path1050" />
  <path
     style="fill:#e6e6e6;fill-opacity:0.95024878;stroke:#a0a0a0;stroke-width:0.46488189;stroke-miterlimit:4;stroke-dasharray:none;stroke-opacity:1"
     d="m 61.676304,322.12273 c -0.55118,-7.5e-4 -0.99511,0.8172 -0.99601,1.83509 l -0.004,4.49219 c -9.3e-4,1.01792 0.44157,1.83704 0.99274,1.83777 l 4.64292,0.007 c 0.55117,7.3e-4 0.9951,-0.8172 0.99601,-1.83511 l 0.004,-4.49217 c 9.2e-4,-1.01791 -0.44157,-1.83705 -0.99274,-1.83779 z"
     id="path1048" />
  <path
     style="fill:#e6e6e6;fill-opacity:0.95024878;stroke:#a0a0a0;stroke-width:0.46488189;stroke-miterlimit:4;stroke-dasharray:none;stroke-opacity:1"
     d="m 53.505004,322.11173 c -0.55116,-7.5e-4 -0.9951,0.81719 -0.996,1.8351 l -0.004,4.49218 c -9.2e-4,1.01791 0.44157,1.83704 0.99273,1.83778 l 4.64292,0.007 c 0.55117,7.4e-4 0.99661,-0.81718 0.99751,-1.8351 l 0.004,-4.49218 c 9.2e-4,-1.0179 -0.44307,-1.83704 -0.99424,-1.83778 z"
     id="path1046" />
  <path
     style="fill:#e6e6e6;fill-opacity:0.95024878;stroke:#a0a0a0;stroke-width:0.46488189;stroke-miterlimit:4;stroke-dasharray:none;stroke-opacity:1"
     d="m 37.021864,322.00284 c -0.55117,-7.4e-4 -0.99511,0.81719 -0.99601,1.83509 l -0.004,4.49219 c -9.3e-4,1.01792 0.44157,1.83704 0.99274,1.83778 l 4.64292,0.007 c 0.55117,7.5e-4 0.9966,-0.8172 0.99751,-1.83511 l 0.004,-4.49217 c 9.2e-4,-1.01792 -0.44307,-1.83705 -0.99425,-1.83779 z"
     id="path1044" />
  <path
     style="fill:#e6e6e6;fill-opacity:0.95024878;stroke:#a0a0a0;stroke-width:0.46488189;stroke-miterlimit:4;stroke-dasharray:none;stroke-opacity:1"
     d="m 28.576305,322.02824 c -0.55118,-7.4e-4 -0.99511,0.8172 -0.99601,1.8351 l -0.004,4.49219 c -9.3e-4,1.01792 0.44157,1.83704 0.99274,1.83777 l 4.642919,0.007 c 0.55117,7.3e-4 0.9951,-0.8172 0.99601,-1.83511 l 0.004,-4.49217 c 9.2e-4,-1.01792 -0.44157,-1.83706 -0.99274,-1.8378 z"
     id="path1042" />
  <path
     style="fill:#e6e6e6;fill-opacity:0.95024878;stroke:#a0a0a0;stroke-width:0.46488189;stroke-miterlimit:4;stroke-dasharray:none;stroke-opacity:1"
     d="m 20.405005,322.01724 c -0.55116,-7.4e-4 -0.9951,0.8172 -0.996,1.83511 l -0.004,4.49218 c -9.2e-4,1.01791 0.44157,1.83704 0.99273,1.83778 l 4.64292,0.007 c 0.55117,7.4e-4 0.99661,-0.81718 0.99751,-1.8351 l 0.004,-4.49218 c 9.2e-4,-1.01791 -0.44307,-1.83705 -0.99424,-1.83779 z"
     id="path1040" />
  <path
     style="fill:#e6e6e6;fill-opacity:0.95024878;stroke:#a0a0a0;stroke-width:0.46488189;stroke-miterlimit:4;stroke-dasharray:none;stroke-opacity:1"
     d="m 69.721864,309.29733 c -0.55117,-7.5e-4 -0.99511,0.81719 -0.99601,1.83508 l -0.004,4.49219 c -9.3e-4,1.01792 0.44157,1.83704 0.99274,1.83778 l 4.64292,0.007 c 0.55117,7.5e-4 0.9966,-0.8172 0.99751,-1.83511 l 0.004,-4.49217 c 9.2e-4,-1.01791 -0.44307,-1.83704 -0.99425,-1.83778 z"
     id="path1038" />
  <path
     style="fill:#e6e6e6;fill-opacity:0.95024878;stroke:#a0a0a0;stroke-width:0.46488189;stroke-miterlimit:4;stroke-dasharray:none;stroke-opacity:1"
     d="m 61.276304,309.32273 c -0.55118,-7.5e-4 -0.99511,0.8172 -0.99601,1.83509 l -0.004,4.49219 c -9.3e-4,1.01792 0.44157,1.83704 0.99274,1.83777 l 4.64292,0.007 c 0.55117,7.3e-4 0.9951,-0.8172 0.99601,-1.83511 l 0.004,-4.49217 c 9.2e-4,-1.01791 -0.44157,-1.83705 -0.99274,-1.83779 z"
     id="path1036" />
  <path
     style="fill:#e6e6e6;fill-opacity:0.95024878;stroke:#a0a0a0;stroke-width:0.46488189;stroke-miterlimit:4;stroke-dasharray:none;stroke-opacity:1"
     d="m 53.105004,309.31173 c -0.55116,-7.5e-4 -0.9951,0.81719 -0.996,1.8351 l -0.004,4.49218 c -9.2e-4,1.01791 0.44157,1.83704 0.99273,1.83778 l 4.64292,0.007 c 0.55117,7.4e-4 0.99661,-0.81718 0.99751,-1.8351 l 0.004,-4.49218 c 9.2e-4,-1.0179 -0.44307,-1.83704 -0.99424,-1.83778 z"
     id="path1034" />
  <path
     style="fill:#e6e6e6;fill-opacity:0.95024878;stroke:#a0a0a0;stroke-width:0.46488189;stroke-miterlimit:4;stroke-dasharray:none;stroke-opacity:1"
     d="m 36.621864,309.20284 c -0.55117,-7.4e-4 -0.99511,0.81719 -0.99601,1.83509 l -0.004,4.49219 c -9.3e-4,1.01792 0.44157,1.83704 0.99274,1.83778 l 4.64292,0.007 c 0.55117,7.5e-4 0.9966,-0.8172 0.99751,-1.83511 l 0.004,-4.49217 c 9.2e-4,-1.01792 -0.44307,-1.83705 -0.99425,-1.83779 z"
     id="path1032" />
  <path
     style="fill:#e6e6e6;fill-opacity:0.95024878;stroke:#a0a0a0;stroke-width:0.46488189;stroke-miterlimit:4;stroke-dasharray:none;stroke-opacity:1"
     d="m 28.176305,309.22824 c -0.55118,-7.4e-4 -0.99511,0.8172 -0.99601,1.8351 l -0.004,4.49219 c -9.3e-4,1.01792 0.44157,1.83704 0.99274,1.83777 l 4.642919,0.007 c 0.55117,7.3e-4 0.9951,-0.8172 0.99601,-1.83511 l 0.004,-4.49217 c 9.2e-4,-1.01792 -0.44157,-1.83706 -0.99274,-1.8378 z"
     id="path1030" />
  <path
     style="fill:#e6e6e6;fill-opacity:0.95024878;stroke:#a0a0a0;stroke-width:0.46488189;stroke-miterlimit:4;stroke-dasharray:none;stroke-opacity:1"
     d="m 20.005005,309.21724 c -0.55116,-7.4e-4 -0.9951,0.8172 -0.996,1.83511 l -0.004,4.49218 c -9.2e-4,1.01791 0.44157,1.83704 0.99273,1.83778 l 4.64292,0.007 c 0.55117,7.4e-4 0.99661,-0.81718 0.99751,-1.8351 l 0.004,-4.49218 c 9.2e-4,-1.01791 -0.44307,-1.83705 -0.99424,-1.83779 z"
     id="path1028" />
  <path
     style="fill:#e6e6e6;fill-opacity:0.95024878;stroke:#a0a0a0;stroke-width:0.46488189;stroke-miterlimit:4;stroke-dasharray:none;stroke-opacity:1"
     d="m 70.121864,296.69733 c -0.55117,-7.5e-4 -0.99511,0.81719 -0.99601,1.83508 l -0.004,4.49219 c -9.3e-4,1.01792 0.44157,1.83704 0.99274,1.83778 l 4.64292,0.007 c 0.55117,7.5e-4 0.9966,-0.8172 0.99751,-1.83511 l 0.004,-4.49217 c 9.2e-4,-1.01791 -0.44307,-1.83704 -0.99425,-1.83778 z"
     id="path1026" />
  <path
     style="fill:#e6e6e6;fill-opacity:0.95024878;stroke:#a0a0a0;stroke-width:0.46488189;stroke-miterlimit:4;stroke-dasharray:none;stroke-opacity:1"
     d="m 61.676304,296.72273 c -0.55118,-7.5e-4 -0.99511,0.8172 -0.99601,1.83509 l -0.004,4.49219 c -9.3e-4,1.01792 0.44157,1.83704 0.99274,1.83777 l 4.64292,0.007 c 0.55117,7.3e-4 0.9951,-0.8172 0.99601,-1.83511 l 0.004,-4.49217 c 9.2e-4,-1.01791 -0.44157,-1.83705 -0.99274,-1.83779 z"
     id="path1024" />
  <path
     style="fill:#e6e6e6;fill-opacity:0.95024878;stroke:#a0a0a0;stroke-width:0.46488189;stroke-miterlimit:4;stroke-dasharray:none;stroke-opacity:1"
     d="m 53.505004,296.71173 c -0.55116,-7.5e-4 -0.9951,0.81719 -0.996,1.8351 l -0.004,4.49218 c -9.2e-4,1.01791 0.44157,1.83704 0.99273,1.83778 l 4.64292,0.007 c 0.55117,7.4e-4 0.99661,-0.81718 0.99751,-1.8351 l 0.004,-4.49218 c 9.2e-4,-1.0179 -0.44307,-1.83704 -0.99424,-1.83778 z"
     id="path1022" />
  <path
     style="fill:#e6e6e6;fill-opacity:0.95024878;stroke:#a0a0a0;stroke-width:0.46488189;stroke-miterlimit:4;stroke-dasharray:none;stroke-opacity:1"
     d="m 37.021864,296.60284 c -0.55117,-7.4e-4 -0.99511,0.81719 -0.99601,1.83509 l -0.004,4.49219 c -9.3e-4,1.01792 0.44157,1.83704 0.99274,1.83778 l 4.64292,0.007 c 0.55117,7.5e-4 0.9966,-0.8172 0.99751,-1.83511 l 0.004,-4.49217 c 9.2e-4,-1.01792 -0.44307,-1.83705 -0.99425,-1.83779 z"
     id="path1020" />
  <path
     style="fill:#e6e6e6;fill-opacity:0.95024878;stroke:#a0a0a0;stroke-width:0.46488189;stroke-miterlimit:4;stroke-dasharray:none;stroke-opacity:1"
     d="m 28.576305,296.62824 c -0.55118,-7.4e-4 -0.99511,0.8172 -0.99601,1.8351 l -0.004,4.49219 c -9.3e-4,1.01792 0.44157,1.83704 0.99274,1.83777 l 4.642919,0.007 c 0.55117,7.3e-4 0.9951,-0.8172 0.99601,-1.83511 l 0.004,-4.49217 c 9.2e-4,-1.01792 -0.44157,-1.83706 -0.99274,-1.8378 z"
     id="path1018" />
  <path
     style="fill:#e6e6e6;fill-opacity:0.95024878;stroke:#a0a0a0;stroke-width:0.46488189;stroke-miterlimit:4;stroke-dasharray:none;stroke-opacity:1"
     d="m 20.405005,296.61724 c -0.55116,-7.4e-4 -0.9951,0.8172 -0.996,1.83511 l -0.004,4.49218 c -9.2e-4,1.01791 0.44157,1.83704 0.99273,1.83778 l 4.64292,0.007 c 0.55117,7.4e-4 0.99661,-0.81718 0.99751,-1.8351 l 0.004,-4.49218 c 9.2e-4,-1.01791 -0.44307,-1.83705 -0.99424,-1.83779 z"
     id="path1016" />
  <path
     style="fill:#e6e6e6;fill-opacity:0.95024878;stroke:#a0a0a0;stroke-width:0.46488189;stroke-miterlimit:4;stroke-dasharray:none;stroke-opacity:1"
     d="m 69.521864,284.19733 c -0.55117,-7.5e-4 -0.99511,0.81719 -0.99601,1.83508 l -0.004,4.49219 c -9.3e-4,1.01792 0.44157,1.83704 0.99274,1.83778 l 4.64292,0.007 c 0.55117,7.5e-4 0.9966,-0.8172 0.99751,-1.83511 l 0.004,-4.49217 c 9.2e-4,-1.01791 -0.44307,-1.83704 -0.99425,-1.83778 z"
     id="path1014" />
  <path
     style="fill:#e6e6e6;fill-opacity:0.95024878;stroke:#a0a0a0;stroke-width:0.46488189;stroke-miterlimit:4;stroke-dasharray:none;stroke-opacity:1"
     d="m 61.076304,284.22273 c -0.55118,-7.5e-4 -0.99511,0.8172 -0.99601,1.83509 l -0.004,4.49219 c -9.3e-4,1.01792 0.44157,1.83704 0.99274,1.83777 l 4.64292,0.007 c 0.55117,7.3e-4 0.9951,-0.8172 0.99601,-1.83511 l 0.004,-4.49217 c 9.2e-4,-1.01791 -0.44157,-1.83705 -0.99274,-1.83779 z"
     id="path1012" />
  <path
     style="fill:#e6e6e6;fill-opacity:0.95024878;stroke:#a0a0a0;stroke-width:0.46488189;stroke-miterlimit:4;stroke-dasharray:none;stroke-opacity:1"
     d="m 52.905004,284.21173 c -0.55116,-7.5e-4 -0.9951,0.81719 -0.996,1.8351 l -0.004,4.49218 c -9.2e-4,1.01791 0.44157,1.83704 0.99273,1.83778 l 4.64292,0.007 c 0.55117,7.4e-4 0.99661,-0.81718 0.99751,-1.8351 l 0.004,-4.49218 c 9.2e-4,-1.0179 -0.44307,-1.83704 -0.99424,-1.83778 z"
     id="path1010" />
  <path
     style="fill:#e6e6e6;fill-opacity:0.95024878;stroke:#a0a0a0;stroke-width:0.46488189;stroke-miterlimit:4;stroke-dasharray:none;stroke-opacity:1"
     d="m 36.421864,284.10284 c -0.55117,-7.4e-4 -0.99511,0.81719 -0.99601,1.83509 l -0.004,4.49219 c -9.3e-4,1.01792 0.44157,1.83704 0.99274,1.83778 l 4.64292,0.007 c 0.55117,7.5e-4 0.9966,-0.8172 0.99751,-1.83511 l 0.004,-4.49217 c 9.2e-4,-1.01792 -0.44307,-1.83705 -0.99425,-1.83779 z"
     id="path1008" />
  <path
     style="fill:#e6e6e6;fill-opacity:0.95024878;stroke:#a0a0a0;stroke-width:0.46488189;stroke-miterlimit:4;stroke-dasharray:none;stroke-opacity:1"
     d="m 27.976305,284.12824 c -0.55118,-7.4e-4 -0.99511,0.8172 -0.99601,1.8351 l -0.004,4.49219 c -9.3e-4,1.01792 0.44157,1.83704 0.99274,1.83777 l 4.642919,0.007 c 0.55117,7.3e-4 0.9951,-0.8172 0.99601,-1.83511 l 0.004,-4.49217 c 9.2e-4,-1.01792 -0.44157,-1.83706 -0.99274,-1.8378 z"
     id="path1006" />
  <path
     style="fill:#e6e6e6;fill-opacity:0.95024878;stroke:#a0a0a0;stroke-width:0.46488189;stroke-miterlimit:4;stroke-dasharray:none;stroke-opacity:1"
     d="m 19.805005,284.11724 c -0.55116,-7.4e-4 -0.9951,0.8172 -0.996,1.83511 l -0.004,4.49218 c -9.2e-4,1.01791 0.44157,1.83704 0.99273,1.83778 l 4.64292,0.007 c 0.55117,7.4e-4 0.99661,-0.81718 0.99751,-1.8351 l 0.004,-4.49218 c 9.2e-4,-1.01791 -0.44307,-1.83705 -0.99424,-1.83779 z"
     id="path1004" />
  <path
     style="fill:#e6e6e6;fill-opacity:0.95024878;stroke:#a0a0a0;stroke-width:0.46488189;stroke-miterlimit:4;stroke-dasharray:none;stroke-opacity:1"
     d="m 69.921864,271.59733 c -0.55117,-7.5e-4 -0.99511,0.81719 -0.99601,1.83508 l -0.004,4.49219 c -9.3e-4,1.01792 0.44157,1.83704 0.99274,1.83778 l 4.64292,0.007 c 0.55117,7.5e-4 0.9966,-0.8172 0.99751,-1.83511 l 0.004,-4.49217 c 9.2e-4,-1.01791 -0.44307,-1.83704 -0.99425,-1.83778 z"
     id="path1002" />
  <path
     style="fill:#e6e6e6;fill-opacity:0.95024878;stroke:#a0a0a0;stroke-width:0.46488189;stroke-miterlimit:4;stroke-dasharray:none;stroke-opacity:1"
     d="m 61.476304,271.62273 c -0.55118,-7.5e-4 -0.99511,0.8172 -0.99601,1.83509 l -0.004,4.49219 c -9.3e-4,1.01792 0.44157,1.83704 0.99274,1.83777 l 4.64292,0.007 c 0.55117,7.3e-4 0.9951,-0.8172 0.99601,-1.83511 l 0.004,-4.49217 c 9.2e-4,-1.01791 -0.44157,-1.83705 -0.99274,-1.83779 z"
     id="path1000" />
  <path
     style="fill:#e6e6e6;fill-opacity:0.95024878;stroke:#a0a0a0;stroke-width:0.46488189;stroke-miterlimit:4;stroke-dasharray:none;stroke-opacity:1"
     d="m 53.305004,271.61173 c -0.55116,-7.5e-4 -0.9951,0.81719 -0.996,1.8351 l -0.004,4.49218 c -9.2e-4,1.01791 0.44157,1.83704 0.99273,1.83778 l 4.64292,0.007 c 0.55117,7.4e-4 0.99661,-0.81718 0.99751,-1.8351 l 0.004,-4.49218 c 9.2e-4,-1.0179 -0.44307,-1.83704 -0.99424,-1.83778 z"
     id="path998" />
  <path
     style="fill:#e6e6e6;fill-opacity:0.95024878;stroke:#a0a0a0;stroke-width:0.46488189;stroke-miterlimit:4;stroke-dasharray:none;stroke-opacity:1"
     d="m 36.821864,271.50284 c -0.55117,-7.4e-4 -0.99511,0.81719 -0.99601,1.83509 l -0.004,4.49219 c -9.3e-4,1.01792 0.44157,1.83704 0.99274,1.83778 l 4.64292,0.007 c 0.55117,7.5e-4 0.9966,-0.8172 0.99751,-1.83511 l 0.004,-4.49217 c 9.2e-4,-1.01792 -0.44307,-1.83705 -0.99425,-1.83779 z"
     id="path996" />
  <path
     style="fill:#e6e6e6;fill-opacity:0.95024878;stroke:#a0a0a0;stroke-width:0.46488189;stroke-miterlimit:4;stroke-dasharray:none;stroke-opacity:1"
     d="m 28.376305,271.52824 c -0.55118,-7.4e-4 -0.99511,0.8172 -0.99601,1.8351 l -0.004,4.49219 c -9.3e-4,1.01792 0.44157,1.83704 0.99274,1.83777 l 4.642919,0.007 c 0.55117,7.3e-4 0.9951,-0.8172 0.99601,-1.83511 l 0.004,-4.49217 c 9.2e-4,-1.01792 -0.44157,-1.83706 -0.99274,-1.8378 z"
     id="path994" />
  <path
     style="fill:#e6e6e6;fill-opacity:0.95024878;stroke:#a0a0a0;stroke-width:0.46488189;stroke-miterlimit:4;stroke-dasharray:none;stroke-opacity:1"
     d="m 20.205005,271.51724 c -0.55116,-7.4e-4 -0.9951,0.8172 -0.996,1.83511 l -0.004,4.49218 c -9.2e-4,1.01791 0.44157,1.83704 0.99273,1.83778 l 4.64292,0.007 c 0.55117,7.4e-4 0.99661,-0.81718 0.99751,-1.8351 l 0.004,-4.49218 c 9.2e-4,-1.01791 -0.44307,-1.83705 -0.99424,-1.83779 z"
     id="path992" />
  <path
     style="fill:#e6e6e6;fill-opacity:0.95024878;stroke:#a0a0a0;stroke-width:0.46488189;stroke-miterlimit:4;stroke-dasharray:none;stroke-opacity:1"
     d="m 69.721864,250.79733 c -0.55117,-7.5e-4 -0.99511,0.81719 -0.99601,1.83508 l -0.004,4.49219 c -9.3e-4,1.01792 0.44157,1.83704 0.99274,1.83778 l 4.64292,0.007 c 0.55117,7.5e-4 0.9966,-0.8172 0.99751,-1.83511 l 0.004,-4.49217 c 9.2e-4,-1.01791 -0.44307,-1.83704 -0.99425,-1.83778 z"
     id="path990" />
  <path
     style="fill:#e6e6e6;fill-opacity:0.95024878;stroke:#a0a0a0;stroke-width:0.46488189;stroke-miterlimit:4;stroke-dasharray:none;stroke-opacity:1"
     d="m 61.276304,250.82273 c -0.55118,-7.5e-4 -0.99511,0.8172 -0.99601,1.83509 l -0.004,4.49219 c -9.3e-4,1.01792 0.44157,1.83704 0.99274,1.83777 l 4.64292,0.007 c 0.55117,7.3e-4 0.9951,-0.8172 0.99601,-1.83511 l 0.004,-4.49217 c 9.2e-4,-1.01791 -0.44157,-1.83705 -0.99274,-1.83779 z"
     id="path988" />
  <path
     style="fill:#e6e6e6;fill-opacity:0.95024878;stroke:#a0a0a0;stroke-width:0.46488189;stroke-miterlimit:4;stroke-dasharray:none;stroke-opacity:1"
     d="m 53.105004,250.81173 c -0.55116,-7.5e-4 -0.9951,0.81719 -0.996,1.8351 l -0.004,4.49218 c -9.2e-4,1.01791 0.44157,1.83704 0.99273,1.83778 l 4.64292,0.007 c 0.55117,7.4e-4 0.99661,-0.81718 0.99751,-1.8351 l 0.004,-4.49218 c 9.2e-4,-1.0179 -0.44307,-1.83704 -0.99424,-1.83778 z"
     id="path986" />
  <path
     style="fill:#e6e6e6;fill-opacity:0.95024878;stroke:#a0a0a0;stroke-width:0.46488189;stroke-miterlimit:4;stroke-dasharray:none;stroke-opacity:1"
     d="m 36.621864,250.70284 c -0.55117,-7.4e-4 -0.99511,0.81719 -0.99601,1.83509 l -0.004,4.49219 c -9.3e-4,1.01792 0.44157,1.83704 0.99274,1.83778 l 4.64292,0.007 c 0.55117,7.5e-4 0.9966,-0.8172 0.99751,-1.83511 l 0.004,-4.49217 c 9.2e-4,-1.01792 -0.44307,-1.83705 -0.99425,-1.83779 z"
     id="path984" />
  <path
     style="fill:#e6e6e6;fill-opacity:0.95024878;stroke:#a0a0a0;stroke-width:0.46488189;stroke-miterlimit:4;stroke-dasharray:none;stroke-opacity:1"
     d="m 28.176305,250.72824 c -0.55118,-7.4e-4 -0.99511,0.8172 -0.99601,1.8351 l -0.004,4.49219 c -9.3e-4,1.01792 0.44157,1.83704 0.99274,1.83777 l 4.642919,0.007 c 0.55117,7.3e-4 0.9951,-0.8172 0.99601,-1.83511 l 0.004,-4.49217 c 9.2e-4,-1.01792 -0.44157,-1.83706 -0.99274,-1.8378 z"
     id="path982" />
  <path
     style="fill:#e6e6e6;fill-opacity:0.95024878;stroke:#a0a0a0;stroke-width:0.46488189;stroke-miterlimit:4;stroke-dasharray:none;stroke-opacity:1"
     d="m 20.005005,250.71724 c -0.55116,-7.4e-4 -0.9951,0.8172 -0.996,1.83511 l -0.004,4.49218 c -9.2e-4,1.01791 0.44157,1.83704 0.99273,1.83778 l 4.64292,0.007 c 0.55117,7.4e-4 0.99661,-0.81718 0.99751,-1.8351 l 0.004,-4.49218 c 9.2e-4,-1.01791 -0.44307,-1.83705 -0.99424,-1.83779 z"
     id="path980" />
  <path
     style="fill:#e6e6e6;fill-opacity:0.95024878;stroke:#a0a0a0;stroke-width:0.46488189;stroke-miterlimit:4;stroke-dasharray:none;stroke-opacity:1"
     d="m 70.121864,230.39733 c -0.55117,-7.5e-4 -0.99511,0.81719 -0.99601,1.83508 l -0.004,4.49219 c -9.3e-4,1.01792 0.44157,1.83704 0.99274,1.83778 l 4.64292,0.007 c 0.55117,7.5e-4 0.9966,-0.8172 0.99751,-1.83511 l 0.004,-4.49217 c 9.2e-4,-1.01791 -0.44307,-1.83704 -0.99425,-1.83778 z"
     id="path978" />
  <path
     style="fill:#e6e6e6;fill-opacity:0.95024878;stroke:#a0a0a0;stroke-width:0.46488189;stroke-miterlimit:4;stroke-dasharray:none;stroke-opacity:1"
     d="m 61.676304,230.42273 c -0.55118,-7.5e-4 -0.99511,0.8172 -0.99601,1.83509 l -0.004,4.49219 c -9.3e-4,1.01792 0.44157,1.83704 0.99274,1.83777 l 4.64292,0.007 c 0.55117,7.3e-4 0.9951,-0.8172 0.99601,-1.83511 l 0.004,-4.49217 c 9.2e-4,-1.01791 -0.44157,-1.83705 -0.99274,-1.83779 z"
     id="path976" />
  <path
     style="fill:#e6e6e6;fill-opacity:0.95024878;stroke:#a0a0a0;stroke-width:0.46488189;stroke-miterlimit:4;stroke-dasharray:none;stroke-opacity:1"
     d="m 53.505004,230.41173 c -0.55116,-7.5e-4 -0.9951,0.81719 -0.996,1.8351 l -0.004,4.49218 c -9.2e-4,1.01791 0.44157,1.83704 0.99273,1.83778 l 4.64292,0.007 c 0.55117,7.4e-4 0.99661,-0.81718 0.99751,-1.8351 l 0.004,-4.49218 c 9.2e-4,-1.0179 -0.44307,-1.83704 -0.99424,-1.83778 z"
     id="path974" />
  <path
     style="fill:#e6e6e6;fill-opacity:0.95024878;stroke:#a0a0a0;stroke-width:0.46488189;stroke-miterlimit:4;stroke-dasharray:none;stroke-opacity:1"
     d="m 37.021864,230.30284 c -0.55117,-7.4e-4 -0.99511,0.81719 -0.99601,1.83509 l -0.004,4.49219 c -9.3e-4,1.01792 0.44157,1.83704 0.99274,1.83778 l 4.64292,0.007 c 0.55117,7.5e-4 0.9966,-0.8172 0.99751,-1.83511 l 0.004,-4.49217 c 9.2e-4,-1.01792 -0.44307,-1.83705 -0.99425,-1.83779 z"
     id="path972" />
  <path
     style="fill:#e6e6e6;fill-opacity:0.95024878;stroke:#a0a0a0;stroke-width:0.46488189;stroke-miterlimit:4;stroke-dasharray:none;stroke-opacity:1"
     d="m 28.576305,230.32824 c -0.55118,-7.4e-4 -0.99511,0.8172 -0.99601,1.8351 l -0.004,4.49219 c -9.3e-4,1.01792 0.44157,1.83704 0.99274,1.83777 l 4.642919,0.007 c 0.55117,7.3e-4 0.9951,-0.8172 0.99601,-1.83511 l 0.004,-4.49217 c 9.2e-4,-1.01792 -0.44157,-1.83706 -0.99274,-1.8378 z"
     id="path970" />
  <path
     style="fill:#e6e6e6;fill-opacity:0.95024878;stroke:#a0a0a0;stroke-width:0.46488189;stroke-miterlimit:4;stroke-dasharray:none;stroke-opacity:1"
     d="m 20.405005,230.31724 c -0.55116,-7.4e-4 -0.9951,0.8172 -0.996,1.83511 l -0.004,4.49218 c -9.2e-4,1.01791 0.44157,1.83704 0.99273,1.83778 l 4.64292,0.007 c 0.55117,7.4e-4 0.99661,-0.81718 0.99751,-1.8351 l 0.004,-4.49218 c 9.2e-4,-1.01791 -0.44307,-1.83705 -0.99424,-1.83779 z"
     id="path968" />
  <path
     style="fill:#e6e6e6;fill-opacity:0.95024878;stroke:#a0a0a0;stroke-width:0.46488189;stroke-miterlimit:4;stroke-dasharray:none;stroke-opacity:1"
     d="m 69.921864,217.39733 c -0.55117,-7.5e-4 -0.99511,0.81719 -0.99601,1.83508 l -0.004,4.49219 c -9.3e-4,1.01792 0.44157,1.83704 0.99274,1.83778 l 4.64292,0.007 c 0.55117,7.5e-4 0.9966,-0.8172 0.99751,-1.83511 l 0.004,-4.49217 c 9.2e-4,-1.01791 -0.44307,-1.83704 -0.99425,-1.83778 z"
     id="path966" />
  <path
     style="fill:#e6e6e6;fill-opacity:0.95024878;stroke:#a0a0a0;stroke-width:0.46488189;stroke-miterlimit:4;stroke-dasharray:none;stroke-opacity:1"
     d="m 61.476304,217.42273 c -0.55118,-7.5e-4 -0.99511,0.8172 -0.99601,1.83509 l -0.004,4.49219 c -9.3e-4,1.01792 0.44157,1.83704 0.99274,1.83777 l 4.64292,0.007 c 0.55117,7.3e-4 0.9951,-0.8172 0.99601,-1.83511 l 0.004,-4.49217 c 9.2e-4,-1.01791 -0.44157,-1.83705 -0.99274,-1.83779 z"
     id="path964" />
  <path
     style="fill:#e6e6e6;fill-opacity:0.95024878;stroke:#a0a0a0;stroke-width:0.46488189;stroke-miterlimit:4;stroke-dasharray:none;stroke-opacity:1"
     d="m 53.305004,217.41173 c -0.55116,-7.5e-4 -0.9951,0.81719 -0.996,1.8351 l -0.004,4.49218 c -9.2e-4,1.01791 0.44157,1.83704 0.99273,1.83778 l 4.64292,0.007 c 0.55117,7.4e-4 0.99661,-0.81718 0.99751,-1.8351 l 0.004,-4.49218 c 9.2e-4,-1.0179 -0.44307,-1.83704 -0.99424,-1.83778 z"
     id="path962" />
  <path
     style="fill:#e6e6e6;fill-opacity:0.95024878;stroke:#a0a0a0;stroke-width:0.46488189;stroke-miterlimit:4;stroke-dasharray:none;stroke-opacity:1"
     d="m 36.821864,217.30284 c -0.55117,-7.4e-4 -0.99511,0.81719 -0.99601,1.83509 l -0.004,4.49219 c -9.3e-4,1.01792 0.44157,1.83704 0.99274,1.83778 l 4.64292,0.007 c 0.55117,7.5e-4 0.9966,-0.8172 0.99751,-1.83511 l 0.004,-4.49217 c 9.2e-4,-1.01792 -0.44307,-1.83705 -0.99425,-1.83779 z"
     id="path960" />
  <path
     style="fill:#e6e6e6;fill-opacity:0.95024878;stroke:#a0a0a0;stroke-width:0.46488189;stroke-miterlimit:4;stroke-dasharray:none;stroke-opacity:1"
     d="m 28.376305,217.32824 c -0.55118,-7.4e-4 -0.99511,0.8172 -0.99601,1.8351 l -0.004,4.49219 c -9.3e-4,1.01792 0.44157,1.83704 0.99274,1.83777 l 4.642919,0.007 c 0.55117,7.3e-4 0.9951,-0.8172 0.99601,-1.83511 l 0.004,-4.49217 c 9.2e-4,-1.01792 -0.44157,-1.83706 -0.99274,-1.8378 z"
     id="path958" />
  <path
     style="fill:#e6e6e6;fill-opacity:0.95024878;stroke:#a0a0a0;stroke-width:0.46488189;stroke-miterlimit:4;stroke-dasharray:none;stroke-opacity:1"
     d="m 20.205005,217.31724 c -0.55116,-7.4e-4 -0.9951,0.8172 -0.996,1.83511 l -0.004,4.49218 c -9.2e-4,1.01791 0.44157,1.83704 0.99273,1.83778 l 4.64292,0.007 c 0.55117,7.4e-4 0.99661,-0.81718 0.99751,-1.8351 l 0.004,-4.49218 c 9.2e-4,-1.01791 -0.44307,-1.83705 -0.99424,-1.83779 z"
     id="path956" />
  <path
     style="fill:#e6e6e6;fill-opacity:0.95024878;stroke:#a0a0a0;stroke-width:0.46488189;stroke-miterlimit:4;stroke-dasharray:none;stroke-opacity:1"
     d="m 69.721864,204.79733 c -0.55117,-7.5e-4 -0.99511,0.81719 -0.99601,1.83508 l -0.004,4.49219 c -9.3e-4,1.01792 0.44157,1.83704 0.99274,1.83778 l 4.64292,0.007 c 0.55117,7.5e-4 0.9966,-0.8172 0.99751,-1.83511 l 0.004,-4.49217 c 9.2e-4,-1.01791 -0.44307,-1.83704 -0.99425,-1.83778 z"
     id="path954" />
  <path
     style="fill:#e6e6e6;fill-opacity:0.95024878;stroke:#a0a0a0;stroke-width:0.46488189;stroke-miterlimit:4;stroke-dasharray:none;stroke-opacity:1"
     d="m 61.276304,204.82273 c -0.55118,-7.5e-4 -0.99511,0.8172 -0.99601,1.83509 l -0.004,4.49219 c -9.3e-4,1.01792 0.44157,1.83704 0.99274,1.83777 l 4.64292,0.007 c 0.55117,7.3e-4 0.9951,-0.8172 0.99601,-1.83511 l 0.004,-4.49217 c 9.2e-4,-1.01791 -0.44157,-1.83705 -0.99274,-1.83779 z"
     id="path952" />
  <path
     style="fill:#e6e6e6;fill-opacity:0.95024878;stroke:#a0a0a0;stroke-width:0.46488189;stroke-miterlimit:4;stroke-dasharray:none;stroke-opacity:1"
     d="m 53.105004,204.81173 c -0.55116,-7.5e-4 -0.9951,0.81719 -0.996,1.8351 l -0.004,4.49218 c -9.2e-4,1.01791 0.44157,1.83704 0.99273,1.83778 l 4.64292,0.007 c 0.55117,7.4e-4 0.99661,-0.81718 0.99751,-1.8351 l 0.004,-4.49218 c 9.2e-4,-1.0179 -0.44307,-1.83704 -0.99424,-1.83778 z"
     id="path950" />
  <path
     style="fill:#e6e6e6;fill-opacity:0.95024878;stroke:#a0a0a0;stroke-width:0.46488189;stroke-miterlimit:4;stroke-dasharray:none;stroke-opacity:1"
     d="m 36.621864,204.70284 c -0.55117,-7.4e-4 -0.99511,0.81719 -0.99601,1.83509 l -0.004,4.49219 c -9.3e-4,1.01792 0.44157,1.83704 0.99274,1.83778 l 4.64292,0.007 c 0.55117,7.5e-4 0.9966,-0.8172 0.99751,-1.83511 l 0.004,-4.49217 c 9.2e-4,-1.01792 -0.44307,-1.83705 -0.99425,-1.83779 z"
     id="path948" />
  <path
     style="fill:#e6e6e6;fill-opacity:0.95024878;stroke:#a0a0a0;stroke-width:0.46488189;stroke-miterlimit:4;stroke-dasharray:none;stroke-opacity:1"
     d="m 28.176305,204.72824 c -0.55118,-7.4e-4 -0.99511,0.8172 -0.99601,1.8351 l -0.004,4.49219 c -9.3e-4,1.01792 0.44157,1.83704 0.99274,1.83777 l 4.642919,0.007 c 0.55117,7.3e-4 0.9951,-0.8172 0.99601,-1.83511 l 0.004,-4.49217 c 9.2e-4,-1.01792 -0.44157,-1.83706 -0.99274,-1.8378 z"
     id="path946" />
  <path
     style="fill:#e6e6e6;fill-opacity:0.95024878;stroke:#a0a0a0;stroke-width:0.46488189;stroke-miterlimit:4;stroke-dasharray:none;stroke-opacity:1"
     d="m 20.005005,204.71724 c -0.55116,-7.4e-4 -0.9951,0.8172 -0.996,1.83511 l -0.004,4.49218 c -9.2e-4,1.01791 0.44157,1.83704 0.99273,1.83778 l 4.64292,0.007 c 0.55117,7.4e-4 0.99661,-0.81718 0.99751,-1.8351 l 0.004,-4.49218 c 9.2e-4,-1.01791 -0.44307,-1.83705 -0.99424,-1.83779 z"
     id="path944" />
  <path
     style="fill:#e6e6e6;fill-opacity:0.95024878;stroke:#a0a0a0;stroke-width:0.46488189;stroke-miterlimit:4;stroke-dasharray:none;stroke-opacity:1"
     d="m 69.921864,193.19733 c -0.55117,-7.5e-4 -0.99511,0.81719 -0.99601,1.83508 l -0.004,4.49219 c -9.3e-4,1.01792 0.44157,1.83704 0.99274,1.83778 l 4.64292,0.007 c 0.55117,7.5e-4 0.9966,-0.8172 0.99751,-1.83511 l 0.004,-4.49217 c 9.2e-4,-1.01791 -0.44307,-1.83704 -0.99425,-1.83778 z"
     id="path942" />
  <path
     style="fill:#e6e6e6;fill-opacity:0.95024878;stroke:#a0a0a0;stroke-width:0.46488189;stroke-miterlimit:4;stroke-dasharray:none;stroke-opacity:1"
     d="m 61.476304,193.22273 c -0.55118,-7.5e-4 -0.99511,0.8172 -0.99601,1.83509 l -0.004,4.49219 c -9.3e-4,1.01792 0.44157,1.83704 0.99274,1.83777 l 4.64292,0.007 c 0.55117,7.3e-4 0.9951,-0.8172 0.99601,-1.83511 l 0.004,-4.49217 c 9.2e-4,-1.01791 -0.44157,-1.83705 -0.99274,-1.83779 z"
     id="path940" />
  <path
     style="fill:#e6e6e6;fill-opacity:0.95024878;stroke:#a0a0a0;stroke-width:0.46488189;stroke-miterlimit:4;stroke-dasharray:none;stroke-opacity:1"
     d="m 53.305004,193.21173 c -0.55116,-7.5e-4 -0.9951,0.81719 -0.996,1.8351 l -0.004,4.49218 c -9.2e-4,1.01791 0.44157,1.83704 0.99273,1.83778 l 4.64292,0.007 c 0.55117,7.4e-4 0.99661,-0.81718 0.99751,-1.8351 l 0.004,-4.49218 c 9.2e-4,-1.0179 -0.44307,-1.83704 -0.99424,-1.83778 z"
     id="path938" />
  <path
     style="fill:#e6e6e6;fill-opacity:0.95024878;stroke:#a0a0a0;stroke-width:0.46488189;stroke-miterlimit:4;stroke-dasharray:none;stroke-opacity:1"
     d="m 36.821864,193.10284 c -0.55117,-7.4e-4 -0.99511,0.81719 -0.99601,1.83509 l -0.004,4.49219 c -9.3e-4,1.01792 0.44157,1.83704 0.99274,1.83778 l 4.64292,0.007 c 0.55117,7.5e-4 0.9966,-0.8172 0.99751,-1.83511 l 0.004,-4.49217 c 9.2e-4,-1.01792 -0.44307,-1.83705 -0.99425,-1.83779 z"
     id="path936" />
  <path
     style="fill:#e6e6e6;fill-opacity:0.95024878;stroke:#a0a0a0;stroke-width:0.46488189;stroke-miterlimit:4;stroke-dasharray:none;stroke-opacity:1"
     d="m 28.376305,193.12824 c -0.55118,-7.4e-4 -0.99511,0.8172 -0.99601,1.8351 l -0.004,4.49219 c -9.3e-4,1.01792 0.44157,1.83704 0.99274,1.83777 l 4.642919,0.007 c 0.55117,7.3e-4 0.9951,-0.8172 0.99601,-1.83511 l 0.004,-4.49217 c 9.2e-4,-1.01792 -0.44157,-1.83706 -0.99274,-1.8378 z"
     id="path934" />
  <path
     style="fill:#e6e6e6;fill-opacity:0.95024878;stroke:#a0a0a0;stroke-width:0.46488189;stroke-miterlimit:4;stroke-dasharray:none;stroke-opacity:1"
     d="m 20.205005,193.11724 c -0.55116,-7.4e-4 -0.9951,0.8172 -0.996,1.83511 l -0.004,4.49218 c -9.2e-4,1.01791 0.44157,1.83704 0.99273,1.83778 l 4.64292,0.007 c 0.55117,7.4e-4 0.99661,-0.81718 0.99751,-1.8351 l 0.004,-4.49218 c 9.2e-4,-1.01791 -0.44307,-1.83705 -0.99424,-1.83779 z"
     id="path932" />
  <path
     style="fill:#e6e6e6;fill-opacity:0.95024878;stroke:#a0a0a0;stroke-width:0.46488189;stroke-miterlimit:4;stroke-dasharray:none;stroke-opacity:1"
     d="m 69.721864,179.79733 c -0.55117,-7.5e-4 -0.99511,0.81719 -0.99601,1.83508 l -0.004,4.49219 c -9.3e-4,1.01792 0.44157,1.83704 0.99274,1.83778 l 4.64292,0.007 c 0.55117,7.5e-4 0.9966,-0.8172 0.99751,-1.83511 l 0.004,-4.49217 c 9.2e-4,-1.01791 -0.44307,-1.83704 -0.99425,-1.83778 z"
     id="path930" />
  <path
     style="fill:#e6e6e6;fill-opacity:0.95024878;stroke:#a0a0a0;stroke-width:0.46488189;stroke-miterlimit:4;stroke-dasharray:none;stroke-opacity:1"
     d="m 61.276304,179.82273 c -0.55118,-7.5e-4 -0.99511,0.8172 -0.99601,1.83509 l -0.004,4.49219 c -9.3e-4,1.01792 0.44157,1.83704 0.99274,1.83777 l 4.64292,0.007 c 0.55117,7.3e-4 0.9951,-0.8172 0.99601,-1.83511 l 0.004,-4.49217 c 9.2e-4,-1.01791 -0.44157,-1.83705 -0.99274,-1.83779 z"
     id="path928" />
  <path
     style="fill:#e6e6e6;fill-opacity:0.95024878;stroke:#a0a0a0;stroke-width:0.46488189;stroke-miterlimit:4;stroke-dasharray:none;stroke-opacity:1"
     d="m 53.105004,179.81173 c -0.55116,-7.5e-4 -0.9951,0.81719 -0.996,1.8351 l -0.004,4.49218 c -9.2e-4,1.01791 0.44157,1.83704 0.99273,1.83778 l 4.64292,0.007 c 0.55117,7.4e-4 0.99661,-0.81718 0.99751,-1.8351 l 0.004,-4.49218 c 9.2e-4,-1.0179 -0.44307,-1.83704 -0.99424,-1.83778 z"
     id="path926" />
  <path
     style="fill:#e6e6e6;fill-opacity:0.95024878;stroke:#a0a0a0;stroke-width:0.46488189;stroke-miterlimit:4;stroke-dasharray:none;stroke-opacity:1"
     d="m 36.621864,179.70284 c -0.55117,-7.4e-4 -0.99511,0.81719 -0.99601,1.83509 l -0.004,4.49219 c -9.3e-4,1.01792 0.44157,1.83704 0.99274,1.83778 l 4.64292,0.007 c 0.55117,7.5e-4 0.9966,-0.8172 0.99751,-1.83511 l 0.004,-4.49217 c 9.2e-4,-1.01792 -0.44307,-1.83705 -0.99425,-1.83779 z"
     id="path924" />
  <path
     style="fill:#e6e6e6;fill-opacity:0.95024878;stroke:#a0a0a0;stroke-width:0.46488189;stroke-miterlimit:4;stroke-dasharray:none;stroke-opacity:1"
     d="m 28.176305,179.72824 c -0.55118,-7.4e-4 -0.99511,0.8172 -0.99601,1.8351 l -0.004,4.49219 c -9.3e-4,1.01792 0.44157,1.83704 0.99274,1.83777 l 4.642919,0.007 c 0.55117,7.3e-4 0.9951,-0.8172 0.99601,-1.83511 l 0.004,-4.49217 c 9.2e-4,-1.01792 -0.44157,-1.83706 -0.99274,-1.8378 z"
     id="path922" />
  <path
     style="fill:#e6e6e6;fill-opacity:0.95024878;stroke:#a0a0a0;stroke-width:0.46488189;stroke-miterlimit:4;stroke-dasharray:none;stroke-opacity:1"
     d="m 20.005005,179.71724 c -0.55116,-7.4e-4 -0.9951,0.8172 -0.996,1.83511 l -0.004,4.49218 c -9.2e-4,1.01791 0.44157,1.83704 0.99273,1.83778 l 4.64292,0.007 c 0.55117,7.4e-4 0.99661,-0.81718 0.99751,-1.8351 l 0.004,-4.49218 c 9.2e-4,-1.01791 -0.44307,-1.83705 -0.99424,-1.83779 z"
     id="path920" />
  <path
     style="fill:#e6e6e6;fill-opacity:0.95024878;stroke:#a0a0a0;stroke-width:0.46488189;stroke-miterlimit:4;stroke-dasharray:none;stroke-opacity:1"
     d="m 69.921864,166.79733 c -0.55117,-7.5e-4 -0.99511,0.81719 -0.99601,1.83508 l -0.004,4.49219 c -9.3e-4,1.01792 0.44157,1.83704 0.99274,1.83778 l 4.64292,0.007 c 0.55117,7.5e-4 0.9966,-0.8172 0.99751,-1.83511 l 0.004,-4.49217 c 9.2e-4,-1.01791 -0.44307,-1.83704 -0.99425,-1.83778 z"
     id="path918" />
  <path
     style="fill:#e6e6e6;fill-opacity:0.95024878;stroke:#a0a0a0;stroke-width:0.46488189;stroke-miterlimit:4;stroke-dasharray:none;stroke-opacity:1"
     d="m 61.476304,166.82273 c -0.55118,-7.5e-4 -0.99511,0.8172 -0.99601,1.83509 l -0.004,4.49219 c -9.3e-4,1.01792 0.44157,1.83704 0.99274,1.83777 l 4.64292,0.007 c 0.55117,7.3e-4 0.9951,-0.8172 0.99601,-1.83511 l 0.004,-4.49217 c 9.2e-4,-1.01791 -0.44157,-1.83705 -0.99274,-1.83779 z"
     id="path916" />
  <path
     style="fill:#e6e6e6;fill-opacity:0.95024878;stroke:#a0a0a0;stroke-width:0.46488189;stroke-miterlimit:4;stroke-dasharray:none;stroke-opacity:1"
     d="m 53.305004,166.81173 c -0.55116,-7.5e-4 -0.9951,0.81719 -0.996,1.8351 l -0.004,4.49218 c -9.2e-4,1.01791 0.44157,1.83704 0.99273,1.83778 l 4.64292,0.007 c 0.55117,7.4e-4 0.99661,-0.81718 0.99751,-1.8351 l 0.004,-4.49218 c 9.2e-4,-1.0179 -0.44307,-1.83704 -0.99424,-1.83778 z"
     id="path914" />
  <path
     style="fill:#e6e6e6;fill-opacity:0.95024878;stroke:#a0a0a0;stroke-width:0.46488189;stroke-miterlimit:4;stroke-dasharray:none;stroke-opacity:1"
     d="m 36.821864,166.70284 c -0.55117,-7.4e-4 -0.99511,0.81719 -0.99601,1.83509 l -0.004,4.49219 c -9.3e-4,1.01792 0.44157,1.83704 0.99274,1.83778 l 4.64292,0.007 c 0.55117,7.5e-4 0.9966,-0.8172 0.99751,-1.83511 l 0.004,-4.49217 c 9.2e-4,-1.01792 -0.44307,-1.83705 -0.99425,-1.83779 z"
     id="path912" />
  <path
     style="fill:#e6e6e6;fill-opacity:0.95024878;stroke:#a0a0a0;stroke-width:0.46488189;stroke-miterlimit:4;stroke-dasharray:none;stroke-opacity:1"
     d="m 28.376305,166.72824 c -0.55118,-7.4e-4 -0.99511,0.8172 -0.99601,1.8351 l -0.004,4.49219 c -9.3e-4,1.01792 0.44157,1.83704 0.99274,1.83777 l 4.642919,0.007 c 0.55117,7.3e-4 0.9951,-0.8172 0.99601,-1.83511 l 0.004,-4.49217 c 9.2e-4,-1.01792 -0.44157,-1.83706 -0.99274,-1.8378 z"
     id="path910" />
  <path
     style="fill:#e6e6e6;fill-opacity:0.95024878;stroke:#a0a0a0;stroke-width:0.46488189;stroke-miterlimit:4;stroke-dasharray:none;stroke-opacity:1"
     d="m 20.205005,166.71724 c -0.55116,-7.4e-4 -0.9951,0.8172 -0.996,1.83511 l -0.004,4.49218 c -9.2e-4,1.01791 0.44157,1.83704 0.99273,1.83778 l 4.64292,0.007 c 0.55117,7.4e-4 0.99661,-0.81718 0.99751,-1.8351 l 0.004,-4.49218 c 9.2e-4,-1.01791 -0.44307,-1.83705 -0.99424,-1.83779 z"
     id="path907" />
  <path
     style="fill:#e6e6e6;fill-opacity:0.95024878;stroke:#a0a0a0;stroke-width:0.46488189;stroke-miterlimit:4;stroke-dasharray:none;stroke-opacity:1"
     d="m 69.521864,148.19733 c -0.55117,-7.5e-4 -0.99511,0.81719 -0.99601,1.83508 l -0.004,4.49219 c -9.3e-4,1.01792 0.44157,1.83704 0.99274,1.83778 l 4.64292,0.007 c 0.55117,7.5e-4 0.9966,-0.8172 0.99751,-1.83511 l 0.004,-4.49217 c 9.2e-4,-1.01791 -0.44307,-1.83704 -0.99425,-1.83778 z"
     id="path905" />
  <path
     style="fill:#e6e6e6;fill-opacity:0.95024878;stroke:#a0a0a0;stroke-width:0.46488189;stroke-miterlimit:4;stroke-dasharray:none;stroke-opacity:1"
     d="m 61.076304,148.22273 c -0.55118,-7.5e-4 -0.99511,0.8172 -0.99601,1.83509 l -0.004,4.49219 c -9.3e-4,1.01792 0.44157,1.83704 0.99274,1.83777 l 4.64292,0.007 c 0.55117,7.3e-4 0.9951,-0.8172 0.99601,-1.83511 l 0.004,-4.49217 c 9.2e-4,-1.01791 -0.44157,-1.83705 -0.99274,-1.83779 z"
     id="path903" />
  <path
     style="fill:#e6e6e6;fill-opacity:0.95024878;stroke:#a0a0a0;stroke-width:0.46488189;stroke-miterlimit:4;stroke-dasharray:none;stroke-opacity:1"
     d="m 52.905004,148.21173 c -0.55116,-7.5e-4 -0.9951,0.81719 -0.996,1.8351 l -0.004,4.49218 c -9.2e-4,1.01791 0.44157,1.83704 0.99273,1.83778 l 4.64292,0.007 c 0.55117,7.4e-4 0.99661,-0.81718 0.99751,-1.8351 l 0.004,-4.49218 c 9.2e-4,-1.0179 -0.44307,-1.83704 -0.99424,-1.83778 z"
     id="path901" />
  <path
     style="fill:#e6e6e6;fill-opacity:0.95024878;stroke:#a0a0a0;stroke-width:0.46488189;stroke-miterlimit:4;stroke-dasharray:none;stroke-opacity:1"
     d="m 36.421864,148.10284 c -0.55117,-7.4e-4 -0.99511,0.81719 -0.99601,1.83509 l -0.004,4.49219 c -9.3e-4,1.01792 0.44157,1.83704 0.99274,1.83778 l 4.64292,0.007 c 0.55117,7.5e-4 0.9966,-0.8172 0.99751,-1.83511 l 0.004,-4.49217 c 9.2e-4,-1.01792 -0.44307,-1.83705 -0.99425,-1.83779 z"
     id="path899" />
  <path
     style="fill:#e6e6e6;fill-opacity:0.95024878;stroke:#a0a0a0;stroke-width:0.46488189;stroke-miterlimit:4;stroke-dasharray:none;stroke-opacity:1"
     d="m 27.976305,148.12824 c -0.55118,-7.4e-4 -0.99511,0.8172 -0.99601,1.8351 l -0.004,4.49219 c -9.3e-4,1.01792 0.44157,1.83704 0.99274,1.83777 l 4.642919,0.007 c 0.55117,7.3e-4 0.9951,-0.8172 0.99601,-1.83511 l 0.004,-4.49217 c 9.2e-4,-1.01792 -0.44157,-1.83706 -0.99274,-1.8378 z"
     id="path897" />
  <path
     style="fill:#e6e6e6;fill-opacity:0.95024878;stroke:#a0a0a0;stroke-width:0.46488189;stroke-miterlimit:4;stroke-dasharray:none;stroke-opacity:1"
     d="m 19.805005,148.11724 c -0.55116,-7.4e-4 -0.9951,0.8172 -0.996,1.83511 l -0.004,4.49218 c -9.2e-4,1.01791 0.44157,1.83704 0.99273,1.83778 l 4.64292,0.007 c 0.55117,7.4e-4 0.99661,-0.81718 0.99751,-1.8351 l 0.004,-4.49218 c 9.2e-4,-1.01791 -0.44307,-1.83705 -0.99424,-1.83779 z"
     id="path895" />
  <path
     style="fill:#e6e6e6;fill-opacity:0.95024878;stroke:#a0a0a0;stroke-width:0.46488189;stroke-miterlimit:4;stroke-dasharray:none;stroke-opacity:1"
     d="m 69.921864,123.79733 c -0.55117,-7.5e-4 -0.99511,0.81719 -0.99601,1.83508 l -0.004,4.49219 c -9.3e-4,1.01792 0.44157,1.83704 0.99274,1.83778 l 4.64292,0.007 c 0.55117,7.5e-4 0.9966,-0.8172 0.99751,-1.83511 l 0.004,-4.49217 c 9.2e-4,-1.01791 -0.44307,-1.83704 -0.99425,-1.83778 z"
     id="path893" />
  <path
     style="fill:#e6e6e6;fill-opacity:0.95024878;stroke:#a0a0a0;stroke-width:0.46488189;stroke-miterlimit:4;stroke-dasharray:none;stroke-opacity:1"
     d="m 61.476304,123.82273 c -0.55118,-7.5e-4 -0.99511,0.8172 -0.99601,1.83509 l -0.004,4.49219 c -9.3e-4,1.01792 0.44157,1.83704 0.99274,1.83777 l 4.64292,0.007 c 0.55117,7.3e-4 0.9951,-0.8172 0.99601,-1.83511 l 0.004,-4.49217 c 9.2e-4,-1.01791 -0.44157,-1.83705 -0.99274,-1.83779 z"
     id="path891" />
  <path
     style="fill:#e6e6e6;fill-opacity:0.95024878;stroke:#a0a0a0;stroke-width:0.46488189;stroke-miterlimit:4;stroke-dasharray:none;stroke-opacity:1"
     d="m 53.305004,123.81173 c -0.55116,-7.5e-4 -0.9951,0.81719 -0.996,1.8351 l -0.004,4.49218 c -9.2e-4,1.01791 0.44157,1.83704 0.99273,1.83778 l 4.64292,0.007 c 0.55117,7.4e-4 0.99661,-0.81718 0.99751,-1.8351 l 0.004,-4.49218 c 9.2e-4,-1.0179 -0.44307,-1.83704 -0.99424,-1.83778 z"
     id="path889" />
  <path
     style="fill:#e6e6e6;fill-opacity:0.95024878;stroke:#a0a0a0;stroke-width:0.46488189;stroke-miterlimit:4;stroke-dasharray:none;stroke-opacity:1"
     d="m 36.821864,123.70284 c -0.55117,-7.4e-4 -0.99511,0.81719 -0.99601,1.83509 l -0.004,4.49219 c -9.3e-4,1.01792 0.44157,1.83704 0.99274,1.83778 l 4.64292,0.007 c 0.55117,7.5e-4 0.9966,-0.8172 0.99751,-1.83511 l 0.004,-4.49217 c 9.2e-4,-1.01792 -0.44307,-1.83705 -0.99425,-1.83779 z"
     id="path887" />
  <path
     style="fill:#e6e6e6;fill-opacity:0.95024878;stroke:#a0a0a0;stroke-width:0.46488189;stroke-miterlimit:4;stroke-dasharray:none;stroke-opacity:1"
     d="m 28.376305,123.72824 c -0.55118,-7.4e-4 -0.99511,0.8172 -0.99601,1.8351 l -0.004,4.49219 c -9.3e-4,1.01792 0.44157,1.83704 0.99274,1.83777 l 4.642919,0.007 c 0.55117,7.3e-4 0.9951,-0.8172 0.99601,-1.83511 l 0.004,-4.49217 c 9.2e-4,-1.01792 -0.44157,-1.83706 -0.99274,-1.8378 z"
     id="path885" />
  <path
     style="fill:#e6e6e6;fill-opacity:0.95024878;stroke:#a0a0a0;stroke-width:0.46488189;stroke-miterlimit:4;stroke-dasharray:none;stroke-opacity:1"
     d="m 20.205005,123.71724 c -0.55116,-7.4e-4 -0.9951,0.8172 -0.996,1.83511 l -0.004,4.49218 c -9.2e-4,1.01791 0.44157,1.83704 0.99273,1.83778 l 4.64292,0.007 c 0.55117,7.4e-4 0.99661,-0.81718 0.99751,-1.8351 l 0.004,-4.49218 c 9.2e-4,-1.01791 -0.44307,-1.83705 -0.99424,-1.83779 z"
     id="path883" />
  <path
     style="fill:#e6e6e6;fill-opacity:0.95024878;stroke:#a0a0a0;stroke-width:0.46488189;stroke-miterlimit:4;stroke-dasharray:none;stroke-opacity:1"
     d="m 69.521864,136.39733 c -0.55117,-7.5e-4 -0.99511,0.81719 -0.99601,1.83508 l -0.004,4.49219 c -9.3e-4,1.01792 0.44157,1.83704 0.99274,1.83778 l 4.64292,0.007 c 0.55117,7.5e-4 0.9966,-0.8172 0.99751,-1.83511 l 0.004,-4.49217 c 9.2e-4,-1.01791 -0.44307,-1.83704 -0.99425,-1.83778 z"
     id="path881" />
  <path
     style="fill:#e6e6e6;fill-opacity:0.95024878;stroke:#a0a0a0;stroke-width:0.46488189;stroke-miterlimit:4;stroke-dasharray:none;stroke-opacity:1"
     d="m 61.076304,136.42273 c -0.55118,-7.5e-4 -0.99511,0.8172 -0.99601,1.83509 l -0.004,4.49219 c -9.3e-4,1.01792 0.44157,1.83704 0.99274,1.83777 l 4.64292,0.007 c 0.55117,7.3e-4 0.9951,-0.8172 0.99601,-1.83511 l 0.004,-4.49217 c 9.2e-4,-1.01791 -0.44157,-1.83705 -0.99274,-1.83779 z"
     id="path879" />
  <path
     style="fill:#e6e6e6;fill-opacity:0.95024878;stroke:#a0a0a0;stroke-width:0.46488189;stroke-miterlimit:4;stroke-dasharray:none;stroke-opacity:1"
     d="m 52.905004,136.41173 c -0.55116,-7.5e-4 -0.9951,0.81719 -0.996,1.8351 l -0.004,4.49218 c -9.2e-4,1.01791 0.44157,1.83704 0.99273,1.83778 l 4.64292,0.007 c 0.55117,7.4e-4 0.99661,-0.81718 0.99751,-1.8351 l 0.004,-4.49218 c 9.2e-4,-1.0179 -0.44307,-1.83704 -0.99424,-1.83778 z"
     id="path877" />
  <path
     style="fill:#e6e6e6;fill-opacity:0.95024878;stroke:#a0a0a0;stroke-width:0.46488189;stroke-miterlimit:4;stroke-dasharray:none;stroke-opacity:1"
     d="m 36.421864,136.30284 c -0.55117,-7.4e-4 -0.99511,0.81719 -0.99601,1.83509 l -0.004,4.49219 c -9.3e-4,1.01792 0.44157,1.83704 0.99274,1.83778 l 4.64292,0.007 c 0.55117,7.5e-4 0.9966,-0.8172 0.99751,-1.83511 l 0.004,-4.49217 c 9.2e-4,-1.01792 -0.44307,-1.83705 -0.99425,-1.83779 z"
     id="path875" />
  <path
     style="fill:#e6e6e6;fill-opacity:0.95024878;stroke:#a0a0a0;stroke-width:0.46488189;stroke-miterlimit:4;stroke-dasharray:none;stroke-opacity:1"
     d="m 27.976305,136.32824 c -0.55118,-7.4e-4 -0.99511,0.8172 -0.99601,1.8351 l -0.004,4.49219 c -9.3e-4,1.01792 0.44157,1.83704 0.99274,1.83777 l 4.642919,0.007 c 0.55117,7.3e-4 0.9951,-0.8172 0.99601,-1.83511 l 0.004,-4.49217 c 9.2e-4,-1.01792 -0.44157,-1.83706 -0.99274,-1.8378 z"
     id="path873" />
  <path
     style="fill:#e6e6e6;fill-opacity:0.95024878;stroke:#a0a0a0;stroke-width:0.46488189;stroke-miterlimit:4;stroke-dasharray:none;stroke-opacity:1"
     d="m 19.805005,136.31724 c -0.55116,-7.4e-4 -0.9951,0.8172 -0.996,1.83511 l -0.004,4.49218 c -9.2e-4,1.01791 0.44157,1.83704 0.99273,1.83778 l 4.64292,0.007 c 0.55117,7.4e-4 0.99661,-0.81718 0.99751,-1.8351 l 0.004,-4.49218 c 9.2e-4,-1.01791 -0.44307,-1.83705 -0.99424,-1.83779 z"
     id="path871" />
  <path
     style="fill:#e6e6e6;fill-opacity:0.95024878;stroke:#a0a0a0;stroke-width:0.46488189;stroke-miterlimit:4;stroke-dasharray:none;stroke-opacity:1"
     d="m 69.571864,110.75007 c -0.55117,-7.5e-4 -0.99511,0.81719 -0.99601,1.83508 l -0.004,4.49219 c -9.3e-4,1.01792 0.44157,1.83704 0.99274,1.83778 l 4.64292,0.007 c 0.55117,7.5e-4 0.9966,-0.8172 0.99751,-1.83511 l 0.004,-4.49217 c 9.2e-4,-1.01791 -0.44307,-1.83704 -0.99425,-1.83778 z"
     id="path869" />
  <path
     style="fill:#e6e6e6;fill-opacity:0.95024878;stroke:#a0a0a0;stroke-width:0.46488189;stroke-miterlimit:4;stroke-dasharray:none;stroke-opacity:1"
     d="m 61.126304,110.77547 c -0.55118,-7.5e-4 -0.99511,0.8172 -0.99601,1.83509 l -0.004,4.49219 c -9.3e-4,1.01792 0.44157,1.83704 0.99274,1.83777 l 4.64292,0.007 c 0.55117,7.3e-4 0.9951,-0.8172 0.99601,-1.83511 l 0.004,-4.49217 c 9.2e-4,-1.01791 -0.44157,-1.83705 -0.99274,-1.83779 z"
     id="path867" />
  <path
     style="fill:#e6e6e6;fill-opacity:0.95024878;stroke:#a0a0a0;stroke-width:0.46488189;stroke-miterlimit:4;stroke-dasharray:none;stroke-opacity:1"
     d="m 52.955004,110.76447 c -0.55116,-7.5e-4 -0.9951,0.81719 -0.996,1.8351 l -0.004,4.49218 c -9.2e-4,1.01791 0.44157,1.83704 0.99273,1.83778 l 4.64292,0.007 c 0.55117,7.4e-4 0.99661,-0.81718 0.99751,-1.8351 l 0.004,-4.49218 c 9.2e-4,-1.0179 -0.44307,-1.83704 -0.99424,-1.83778 z"
     id="path865" />
  <path
     style="fill:#e6e6e6;fill-opacity:0.95024878;stroke:#a0a0a0;stroke-width:0.46488189;stroke-miterlimit:4;stroke-dasharray:none;stroke-opacity:1"
     d="m 36.471864,110.65558 c -0.55117,-7.4e-4 -0.99511,0.81719 -0.99601,1.83509 l -0.004,4.49219 c -9.3e-4,1.01792 0.44157,1.83704 0.99274,1.83778 l 4.64292,0.007 c 0.55117,7.5e-4 0.9966,-0.8172 0.99751,-1.83511 l 0.004,-4.49217 c 9.2e-4,-1.01792 -0.44307,-1.83705 -0.99425,-1.83779 z"
     id="path863" />
  <path
     style="fill:#e6e6e6;fill-opacity:0.95024878;stroke:#a0a0a0;stroke-width:0.46488189;stroke-miterlimit:4;stroke-dasharray:none;stroke-opacity:1"
     d="m 28.026305,110.68098 c -0.55118,-7.4e-4 -0.99511,0.8172 -0.99601,1.8351 l -0.004,4.49219 c -9.3e-4,1.01792 0.44157,1.83704 0.99274,1.83777 l 4.642919,0.007 c 0.55117,7.3e-4 0.9951,-0.8172 0.99601,-1.83511 l 0.004,-4.49217 c 9.2e-4,-1.01792 -0.44157,-1.83705 -0.99274,-1.8378 z"
     id="path861" />
  <path
     style="fill:#e6e6e6;fill-opacity:0.95024878;stroke:#a0a0a0;stroke-width:0.46488189;stroke-miterlimit:4;stroke-dasharray:none;stroke-opacity:1"
     d="m 19.855005,110.66998 c -0.55116,-7.4e-4 -0.9951,0.8172 -0.996,1.83511 l -0.004,4.49218 c -9.2e-4,1.01791 0.44157,1.83704 0.99273,1.83778 l 4.64292,0.007 c 0.55117,7.4e-4 0.99661,-0.81718 0.99751,-1.8351 l 0.004,-4.49218 c 9.2e-4,-1.01791 -0.44307,-1.83705 -0.99424,-1.83779 z"
     id="path859" />
  <path
     style="fill:#e6e6e6;fill-opacity:0.95024878;stroke:#a0a0a0;stroke-width:0.46488189;stroke-miterlimit:4;stroke-dasharray:none;stroke-opacity:1"
     d="m 69.571864,98.750065 c -0.55117,-7.5e-4 -0.99511,0.81719 -0.99601,1.835085 l -0.004,4.49219 c -9.3e-4,1.01792 0.44157,1.83704 0.99274,1.83778 l 4.64292,0.007 c 0.55117,7.5e-4 0.9966,-0.8172 0.99751,-1.83511 l 0.004,-4.49217 c 9.2e-4,-1.017915 -0.44307,-1.837045 -0.99425,-1.837785 z"
     id="path857" />
  <path
     style="fill:#e6e6e6;fill-opacity:0.95024878;stroke:#a0a0a0;stroke-width:0.46488189;stroke-miterlimit:4;stroke-dasharray:none;stroke-opacity:1"
     d="m 61.126304,98.775465 c -0.55118,-7.5e-4 -0.99511,0.8172 -0.99601,1.835095 l -0.004,4.49219 c -9.3e-4,1.01792 0.44157,1.83704 0.99274,1.83777 l 4.64292,0.007 c 0.55117,7.3e-4 0.9951,-0.8172 0.99601,-1.83511 l 0.004,-4.49217 c 9.2e-4,-1.017915 -0.44157,-1.837055 -0.99274,-1.837795 z"
     id="path855" />
  <path
     style="fill:#e6e6e6;fill-opacity:0.95024878;stroke:#a0a0a0;stroke-width:0.46488189;stroke-miterlimit:4;stroke-dasharray:none;stroke-opacity:1"
     d="m 52.955004,98.764465 c -0.55116,-7.5e-4 -0.9951,0.81719 -0.996,1.835105 l -0.004,4.49218 c -9.2e-4,1.01791 0.44157,1.83704 0.99273,1.83778 l 4.64292,0.007 c 0.55117,7.4e-4 0.99661,-0.81718 0.99751,-1.8351 l 0.004,-4.49218 c 9.2e-4,-1.017905 -0.44307,-1.837045 -0.99424,-1.837785 z"
     id="path853" />
  <path
     style="fill:#e6e6e6;fill-opacity:0.95024878;stroke:#a0a0a0;stroke-width:0.46488189;stroke-miterlimit:4;stroke-dasharray:none;stroke-opacity:1"
     d="m 36.471864,98.655578 c -0.55117,-7.43e-4 -0.99511,0.817188 -0.99601,1.835092 l -0.004,4.49219 c -9.3e-4,1.01792 0.44157,1.83704 0.99274,1.83778 l 4.64292,0.007 c 0.55117,7.5e-4 0.9966,-0.8172 0.99751,-1.83511 l 0.004,-4.49217 c 9.2e-4,-1.01792 -0.44307,-1.83705 -0.99425,-1.837794 z"
     id="path851" />
  <path
     style="fill:#e6e6e6;fill-opacity:0.95024878;stroke:#a0a0a0;stroke-width:0.46488189;stroke-miterlimit:4;stroke-dasharray:none;stroke-opacity:1"
     d="m 28.026305,98.681008 c -0.55118,-7.43e-4 -0.99511,0.817198 -0.99601,1.835102 l -0.004,4.49219 c -9.3e-4,1.01792 0.44157,1.83704 0.99274,1.83777 l 4.642919,0.007 c 0.55117,7.3e-4 0.9951,-0.8172 0.99601,-1.83511 l 0.004,-4.49217 c 9.2e-4,-1.017922 -0.44157,-1.837059 -0.99274,-1.837803 z"
     id="path849" />
  <path
     style="fill:#e6e6e6;fill-opacity:0.95024878;stroke:#a0a0a0;stroke-width:0.46488189;stroke-miterlimit:4;stroke-dasharray:none;stroke-opacity:1"
     d="m 19.855005,98.669978 c -0.55116,-7.44e-4 -0.9951,0.817197 -0.996,1.835112 l -0.004,4.49218 c -9.2e-4,1.01791 0.44157,1.83704 0.99273,1.83778 l 4.64292,0.007 c 0.55117,7.4e-4 0.99661,-0.81718 0.99751,-1.8351 l 0.004,-4.49218 c 9.2e-4,-1.017912 -0.44307,-1.83705 -0.99424,-1.837794 z"
     id="path2075-9-5-6-0-620-8" />
  <g
     inkscape:groupmode="layer"
     id="layer3"
     inkscape:label="kontur">
    <path
       inkscape:connector-curvature="0"
       id="path3468-6-4"
       style="fill:#f9f9f9;stroke:#a0a0a0;stroke-width:0.56692913;stroke-linecap:butt;stroke-linejoin:miter;stroke-opacity:1;stroke-miterlimit:4;stroke-dasharray:none"
       d="m 82.999265,262.84226 0.91437,5.66829 m -3.92958,0.8066 c 3.84696,-0.0783 3.93439,-1.27476 3.93439,-1.27476 m -4.85837,-6.11593 c 3.84695,-0.0783 3.93438,0.91869 3.93438,0.91869 m -0.0452,-21.40289 0.91438,5.66829 m -3.92958,0.8066 c 3.84695,-0.0783 3.93438,-1.27476 3.93438,-1.27476 m -4.85836,-6.11593 c 3.84695,-0.0783 3.93438,0.91869 3.93438,0.91869 m -3.44519,-170.75289 0.91437,5.66829 m -3.92958,0.8066 c 3.84696,-0.0783 3.93439,-1.27476 3.93439,-1.27476 m -4.85837,-6.11593 c 3.84695,-0.0783 3.93438,0.91869 3.93438,0.91869 m -63.71687,0.37997 -0.91438,5.66829 m 3.92958,0.8066 c -3.84695,-0.0783 -3.93438,-1.27476 -3.93438,-1.27476 m 4.85837,-6.11593 c -3.84696,-0.0783 -3.93439,0.91869 -3.93439,0.91869 m 61.18629,6.472 c 3.37058,-5.35241 1.67556,108.33681 2.51334,162.50521 M 18.792785,77.55001 c -3.37058,-5.35241 -1.67556,108.3368 -2.51334,162.5052 M 75.802015,69.38335 c 1.16666,8.08333 1.16666,8.16666 1.16666,8.16666 m -57.00922,-8.16666 c -1.16667,8.08333 -1.16667,8.16666 -1.16667,8.16666 M 47.880735,0.379658 c 11.13555,2.457696 24.41317,39.167835 27.92128,69.003692 M 47.880735,0.379658 C 36.745175,2.837354 23.467555,39.547492 19.959455,69.38335 m -7.37622,172.10891 -0.91437,5.66829 m 3.92958,0.8066 c -3.84696,-0.0783 -3.93439,-1.27476 -3.93439,-1.27476 m 4.85837,-6.11593 c -3.84695,-0.0783 -3.93438,0.91869 -3.93438,0.91869 m -0.1163,21.05719 -0.91437,5.66829 m 3.92958,0.8066 c -3.84695,-0.0783 -3.93439,-1.27476 -3.93439,-1.27476 m 4.85837,-6.11593 c -3.84695,-0.0783 -3.93438,0.91869 -3.93438,0.91869 m 67.00546,7.02623 -0.0759,215.54617 m -63.40111,-215.54618 -0.0759,215.54617 m 63.55291,-236.41037 v 20.86421 m -63.47701,-20.86422 v 20.86421 m 63.47701,-29.52623 -0.006,7.13844 0.006,1.52359 m -63.20257,-8.66204 -0.27444,8.66203 m 71.70291,317.66057 c 1.83091,1.33525 3.28782,2.68162 3.07851,4.50766 -0.17022,1.48507 -1.44248,3.28739 -4.51184,5.659 m -79.73334,-9.83332 c -3.31993,2.42116 -5.41014,4.8789 1.43334,10.16666 m 53.23333,-24.83333 c 26.5,14.5 26.5,14.33333 26.5,14.33333 m -39.56013,4.33099 39.2268,5.66901 m -80.5,0.2 41.2732,-5.86901 M 35.043279,551.28142 C 7.7099485,565.94809 6.541245,566.71115 6.541245,566.71115 m 72.8649,-81.58352 c -7.46186,39.15004 -20.93639,81.18814 -31.25836,85.58117 m -32.21865,-85.58118 c 7.6911,39.15004 21.57957,81.18815 32.21865,85.58118 m 34.87089,-93.51672 0.91437,5.66829 m -4.7074,1.30157 c 3.84696,-0.0783 4.71221,-1.76973 4.71221,-1.76973 m -4.85837,-6.11593 c 3.84695,-0.0783 3.93438,0.91869 3.93438,0.91869 m -70.73492,-0.0642 -0.91438,5.66829 m 4.7074,1.30157 c -3.84695,-0.0783 -4.7122,-1.76973 -4.7122,-1.76973 m 4.85837,-6.11593 c -3.84696,-0.0783 -3.93439,0.91869 -3.93439,0.91869"
       sodipodi:nodetypes="cccccccccccccccccccccccccccccccccccccccccccccccccccccccccccccccccccccccccccccccccccccccccc" />
    <path
       style="fill:#f9f9f9;fill-opacity:0.95024875;stroke:#a0a0a0;stroke-width:0.02956125;stroke-miterlimit:4;stroke-dasharray:none;stroke-opacity:1"
       d="m 7.1504796,575.49899 c -1.2254937,-1.04179 -2.3453003,-2.33181 -2.7660806,-3.18653 -0.832868,-1.6918 -0.3406615,-2.93944 1.8453915,-4.67768 0.7943257,-0.63161 3.3746053,-2.05335 18.4763555,-10.1805 9.938245,-5.34837 10.019954,-5.39205 10.037004,-5.36627 0.0085,0.0128 0.21126,0.46685 0.450619,1.00894 2.421281,5.48363 4.986573,10.1294 7.285798,13.19466 1.202063,1.60256 2.558501,3.04648 3.536438,3.76453 0.339218,0.24908 0.392447,0.31131 0.298052,0.3485 -0.0632,0.0249 -2.647339,0.40332 -5.742521,0.84094 -3.095182,0.43761 -11.279052,1.59862 -18.186379,2.58001 -6.907327,0.9814 -12.9593852,1.84088 -13.4490185,1.90996 -0.4896333,0.0691 -0.9784155,0.14043 -1.0861827,0.15855 -0.1707522,0.0287 -0.2606703,-0.0221 -0.6994762,-0.39511 z"
       id="path909"
       inkscape:connector-curvature="0" />
    <path
       style="fill:#f9f9f9;fill-opacity:0.95024875;stroke:#a0a0a0;stroke-width:0.02956125;stroke-miterlimit:4;stroke-dasharray:none;stroke-opacity:1"
       d="m 85.05186,575.50209 c -1.197485,-0.18211 -26.238976,-3.80272 -31.412838,-4.5418 -1.958533,-0.27978 -3.613667,-0.52988 -3.678076,-0.55578 -0.0985,-0.0396 -0.05305,-0.0969 0.286149,-0.36061 1.401236,-1.0894 3.308618,-3.40534 4.897146,-5.9461 1.770845,-2.83237 4.152099,-7.5397 5.731771,-11.33073 l 0.09771,-0.2345 4.662774,2.54644 c 10.457899,5.71129 17.466571,9.5069 20.528053,11.11716 1.511942,0.79524 2.143415,1.24858 3.027795,2.17365 0.37189,0.389 0.584925,0.67936 0.763065,1.04005 0.239945,0.48583 0.247136,0.51994 0.247136,1.1721 0,0.6683 -0.0015,0.67476 -0.292235,1.27473 -0.49722,1.026 -1.487983,2.18467 -2.867326,3.35323 -0.633726,0.53689 -0.505582,0.51809 -1.991126,0.29216 z"
       id="path911"
       inkscape:connector-curvature="0" />
    <path
       style="fill:#f9f9f9;fill-opacity:0.95024875;stroke:#a0a0a0;stroke-width:0.02956125;stroke-miterlimit:4;stroke-dasharray:none;stroke-opacity:1"
       d="m 79.932966,480.20781 v -3.38816 l 0.656169,0.0449 c 1.1159,0.0764 1.854194,0.29924 1.917852,0.57881 0.103562,0.45484 0.789807,4.90174 0.763102,4.94495 -0.01772,0.0287 -0.203866,0.16675 -0.413662,0.30685 -0.636467,0.42501 -1.507424,0.70867 -2.653209,0.8641 l -0.270252,0.0367 z"
       id="path913"
       inkscape:connector-curvature="0" />
    <path
       style="fill:#f9f9f9;fill-opacity:0.95024875;stroke:#a0a0a0;stroke-width:0.02956125;stroke-miterlimit:4;stroke-dasharray:none;stroke-opacity:1"
       d="m 14.786303,483.46038 c -0.951593,-0.13713 -2.078422,-0.5648 -2.540451,-0.96419 l -0.24999,-0.2161 0.3992,-2.47364 c 0.21956,-1.3605 0.414724,-2.49876 0.433698,-2.52946 0.129563,-0.20964 1.338845,-0.48653 2.124844,-0.48653 h 0.436792 v 3.37021 c 0,3.17028 -0.0066,3.36974 -0.111281,3.36245 -0.0612,-0.004 -0.28297,-0.0325 -0.492812,-0.0627 z"
       id="path915"
       inkscape:connector-curvature="0" />
    <path
       style="fill:#f9f9f9;fill-opacity:0.95024875;stroke:#a0a0a0;stroke-width:0.02956125;stroke-miterlimit:4;stroke-dasharray:none;stroke-opacity:1"
       d="m 14.722714,247.38414 c -1.175713,-0.13979 -2.019805,-0.35214 -2.299216,-0.57842 l -0.137198,-0.11111 0.407265,-2.50502 c 0.223996,-1.37776 0.437736,-2.54173 0.474978,-2.5866 0.233396,-0.28123 2.543223,-0.63879 2.538159,-0.39291 -9e-4,0.0437 -0.04309,1.29562 -0.09375,2.78201 -0.05066,1.48638 -0.09285,2.86706 -0.09375,3.06815 l -0.0016,0.36564 -0.302046,-0.01 c -0.166126,-0.005 -0.387892,-0.0197 -0.492813,-0.0322 z"
       id="path917"
       inkscape:connector-curvature="0" />
    <path
       style="fill:#f9f9f9;fill-opacity:0.95024875;stroke:#a0a0a0;stroke-width:0.02956125;stroke-miterlimit:4;stroke-dasharray:none;stroke-opacity:1"
       d="m 79.996555,244.20922 v -3.15306 l 0.492813,0.0438 c 1.103064,0.098 1.819473,0.30565 1.92186,0.55702 0.03166,0.0777 0.217713,1.15715 0.413453,2.39872 0.19574,1.24157 0.371255,2.33524 0.390033,2.43038 0.02857,0.14473 -3.62e-4,0.19423 -0.177159,0.3031 -0.460519,0.2836 -1.809419,0.56855 -2.707159,0.57189 l -0.333841,10e-4 z"
       id="path919"
       inkscape:connector-curvature="0" />
  </g>
  <path
     style="fill:#f9f9f9;fill-opacity:0.95024875;stroke:#a0a0a0;stroke-width:0.02956125;stroke-miterlimit:4;stroke-dasharray:none;stroke-opacity:1"
     d="m 77.359937,76.419862 c -0.09325,-0.418226 -0.862362,-6.04463 -0.830617,-6.076375 0.02061,-0.02061 0.35849,-0.005 0.750835,0.03481 0.746725,0.07567 1.504901,0.27263 1.630085,0.423468 0.04044,0.04872 0.25606,1.21469 0.479164,2.59104 l 0.405645,2.502453 -0.137705,0.109837 c -0.187359,0.149442 -0.830677,0.359507 -1.426106,0.465671 -0.712913,0.127111 -0.833175,0.120085 -0.871301,-0.0509 z"
     id="path921"
     inkscape:connector-curvature="0" />
  <path
     style="fill:#f9f9f9;fill-opacity:0.95024875;stroke:#a0a0a0;stroke-width:0.02956125;stroke-miterlimit:4;stroke-dasharray:none;stroke-opacity:1"
     d="m 17.584207,76.931 c -0.687543,-0.07447 -1.253716,-0.211381 -1.697325,-0.410461 -0.28898,-0.129687 -0.369309,-0.196372 -0.369309,-0.306583 0,-0.07746 0.17169,-1.201016 0.381532,-2.49678 0.209843,-1.295763 0.381533,-2.386798 0.381533,-2.424521 0,-0.108758 0.483889,-0.326773 0.944675,-0.425622 0.232366,-0.04985 0.773016,-0.109363 1.201445,-0.132259 0.646723,-0.03456 0.778587,-0.02647 0.776755,0.04767 -0.0012,0.04911 -0.194817,1.431011 -0.43023,3.070881 -0.380117,2.647873 -0.442145,2.990044 -0.554195,3.057176 -0.09103,0.05454 -0.267869,0.06025 -0.634881,0.0205 z"
     id="path923"
     inkscape:connector-curvature="0" />
</svg>
