<?xml version="1.0" encoding="UTF-8" standalone="no"?>
<!-- Created with Inkscape (http://www.inkscape.org/) -->

<svg
   xmlns:osb="http://www.openswatchbook.org/uri/2009/osb"
   xmlns:dc="http://purl.org/dc/elements/1.1/"
   xmlns:cc="http://creativecommons.org/ns#"
   xmlns:rdf="http://www.w3.org/1999/02/22-rdf-syntax-ns#"
   xmlns:svg="http://www.w3.org/2000/svg"
   xmlns="http://www.w3.org/2000/svg"
   xmlns:sodipodi="http://sodipodi.sourceforge.net/DTD/sodipodi-0.dtd"
   xmlns:inkscape="http://www.inkscape.org/namespaces/inkscape"
   version="1.1"
   id="svg10"
   width="800"
   height="200"
   viewBox="0 0 800 200"
   sodipodi:docname="bombardier.svg"
   inkscape:version="0.92.4 (5da689c313, 2019-01-14)">
  <metadata
     id="metadata16">
    <rdf:RDF>
      <cc:Work
         rdf:about="">
        <dc:format>image/svg+xml</dc:format>
        <dc:type
           rdf:resource="http://purl.org/dc/dcmitype/StillImage" />
        <dc:title />
      </cc:Work>
    </rdf:RDF>
  </metadata>
  <defs
     id="defs14">
    <linearGradient
       id="linearGradient5255"
       osb:paint="solid">
      <stop
         style="stop-color:#a0a0a0;stop-opacity:1;"
         offset="0"
         id="stop5253" />
    </linearGradient>
  </defs>
  <sodipodi:namedview
     pagecolor="#ffffff"
     bordercolor="#666666"
     borderopacity="1"
     objecttolerance="10"
     gridtolerance="10"
     guidetolerance="10"
     inkscape:pageopacity="0"
     inkscape:pageshadow="2"
     inkscape:window-width="1920"
     inkscape:window-height="1001"
     id="namedview12"
     showgrid="false"
     inkscape:zoom="1"
     inkscape:cx="571.89925"
     inkscape:cy="-46.983986"
     inkscape:window-x="-9"
     inkscape:window-y="-9"
     inkscape:window-maximized="1"
     inkscape:current-layer="seats" />
  <g
     inkscape:groupmode="layer"
     id="layer1"
     inkscape:label="kontur"
     transform="translate(0,-296.64001)">
    <path
       inkscape:connector-curvature="0"
       id="path4182-7-1-4"
       style="opacity:0.82999998;fill:#f9f9f9;fill-opacity:1;stroke:#a0a0a0;stroke-width:1.06350398;stroke-linecap:butt;stroke-linejoin:miter;stroke-miterlimit:4;stroke-dasharray:none;stroke-opacity:1"
       d="m 152.95828,331.1754 -4.24246,-7.75691 -8.91592,-4.34158 -1.26922,12.31555 m 12.96863,134.58866 -4.24246,7.75689 -8.91592,4.34158 -1.26922,-12.31555 m 14.4276,0.21708 c -14.4276,-0.21708 -14.4276,-0.21708 -14.4276,-0.21708 m 15.88657,-134.15449 c -14.4276,-0.21709 -14.4276,-0.21709 -14.4276,-0.21709 m 511.80193,130.36799 c -14.94156,3.35237 -14.94156,3.35237 -14.94156,3.35237 m 14.94156,-128.78544 c -14.94157,-3.63244 -14.94157,-3.63244 -14.94157,-3.63244 m 10e-6,123.30057 c 0,8.90022 0,9.11731 0,9.11731 m 160.68884,-66.06893 c -12.42267,31.12744 -60.86868,53.68477 -145.74728,62.71656 M 796.07989,399.04389 C 783.65722,367.91644 735.21121,345.35913 650.33261,336.32738 m -14.94157,-3.63244 c 0,8.90022 0,9.11733 0,9.11733 m 14.4276,109.19045 0.51397,10.75773 m 0,-125.43307 -0.0277,8.52397 m -14.9139,120.26147 -483.89175,0.8683 M 635.39104,332.69494 152.95828,331.60955 M 37.23636,427.26059 c -19.777151,49.92803 -22.069694,49.41937 -22.069694,49.41937 l -13.9412708,0.8683 7.3411645,-80.35001 M 36.090095,367.74994 C 16.312946,317.82189 15.166666,317.71655 15.166666,317.71655 L 1.2253961,316.84823 8.5665607,397.19825 M 138.53068,331.39246 c 0,8.90025 0,9.11731 0,9.11731 m -1.45897,116.13698 c 0,8.9002 0,9.11729 0,9.11729 m 1.45897,-134.37158 C 107.1071,336.44347 84.922131,345.74368 66.927422,353.24884 2.621355,380.0694 8.5681818,397.19825 8.5681818,397.19825 M 137.07171,465.76404 C 106.0005,460.83448 84.064307,447.41619 66.271388,440.09137 2.6864088,413.91542 8.5665607,397.19825 8.5665607,397.19825 M 152.95828,331.60955 v 9.11731 m -1.45897,116.13696 c 0,8.90022 0,9.1173 0,9.1173 m 498.8333,-4.22067 -4.24249,7.75691 -8.91591,4.34156 -1.78316,-8.46607 m 14.94156,-129.06547 -4.24249,-7.75693 -8.91592,-4.34155 -1.78316,8.46604" />
  </g>
  <g
     inkscape:groupmode="layer"
     id="seats"
     inkscape:label="siedzenia"
     transform="translate(0,-296.64001)">
    <path
       style="fill:#f2f2f2;fill-opacity:0.94901961;stroke:#a0a0a0;stroke-width:0.72745883;stroke-miterlimit:4;stroke-dasharray:none;stroke-opacity:1"
       d="m 178.82152,348.05588 c 0,-1.47801 -1.55285,-2.66648 -3.48392,-2.66648 h -8.52209 c -1.93109,0 -3.48388,1.18847 -3.48388,2.66648 v 12.45036 c 0,1.47803 1.55279,2.67056 3.48388,2.67056 h 8.52209 c 1.93107,0 3.48392,-1.19253 3.48392,-2.67056 z"
       id="path987" />
    <path
       style="fill:#f2f2f2;fill-opacity:0.94901961;stroke:#a0a0a0;stroke-width:0.72745883;stroke-miterlimit:4;stroke-dasharray:none;stroke-opacity:1"
       d="m 178.82152,372.80357 c 0,-1.47799 -1.55285,-2.66648 -3.48392,-2.66648 h -8.52209 c -1.93109,0 -3.48388,1.18849 -3.48388,2.66648 v 12.45039 c 0,1.47801 1.55279,2.66651 3.48388,2.66651 h 8.52209 c 1.93107,0 3.48392,-1.1885 3.48392,-2.66651 z"
       id="path985" />
    <path
       style="fill:#f2f2f2;fill-opacity:0.94901961;stroke:#a0a0a0;stroke-width:0.72745883;stroke-miterlimit:4;stroke-dasharray:none;stroke-opacity:1"
       d="m 250.67504,348.05588 c 0,-1.47801 -1.55285,-2.66648 -3.48392,-2.66648 h -8.52209 c -1.93108,0 -3.48391,1.18847 -3.48391,2.66648 v 12.45041 c 0,1.47798 1.55283,2.67051 3.48391,2.67051 h 8.52209 c 1.93107,0 3.48392,-1.19253 3.48392,-2.67051 z"
       id="path983" />
    <path
       style="fill:#f2f2f2;fill-opacity:0.94901961;stroke:#a0a0a0;stroke-width:0.72745883;stroke-miterlimit:4;stroke-dasharray:none;stroke-opacity:1"
       d="m 250.67504,372.80357 c 0,-1.47799 -1.55285,-2.66648 -3.48392,-2.66648 h -8.52209 c -1.93108,0 -3.48391,1.18849 -3.48391,2.66648 v 12.45039 c 0,1.47801 1.55283,2.66651 3.48391,2.66651 h 8.52209 c 1.93107,0 3.48392,-1.1885 3.48392,-2.66651 z"
       id="path981" />
    <path
       style="fill:#f2f2f2;fill-opacity:0.94901961;stroke:#a0a0a0;stroke-width:0.72745883;stroke-miterlimit:4;stroke-dasharray:none;stroke-opacity:1"
       d="m 229.11898,348.05588 c 0,-1.47801 -1.55284,-2.66648 -3.48393,-2.66648 h -8.52208 c -1.93107,0 -3.48392,1.18847 -3.48392,2.66648 v 12.45041 c 0,1.47798 1.55285,2.67051 3.48392,2.67051 h 8.52208 c 1.93109,0 3.48393,-1.19253 3.48393,-2.67051 z"
       id="path979" />
    <path
       style="fill:#f2f2f2;fill-opacity:0.94901961;stroke:#a0a0a0;stroke-width:0.72745883;stroke-miterlimit:4;stroke-dasharray:none;stroke-opacity:1"
       d="m 229.11898,372.80357 c 0,-1.47799 -1.55284,-2.66648 -3.48393,-2.66648 h -8.52208 c -1.93107,0 -3.48392,1.18849 -3.48392,2.66648 v 12.45039 c 0,1.47801 1.55285,2.66651 3.48392,2.66651 h 8.52208 c 1.93109,0 3.48393,-1.1885 3.48393,-2.66651 z"
       id="path977" />
    <path
       style="fill:#f2f2f2;fill-opacity:0.94901961;stroke:#a0a0a0;stroke-width:0.72745883;stroke-miterlimit:4;stroke-dasharray:none;stroke-opacity:1"
       d="m 203.97026,348.05588 c 0,-1.47801 -1.55286,-2.66648 -3.48394,-2.66648 h -8.52206 c -1.93109,0 -3.48392,1.18847 -3.48392,2.66648 v 12.45041 c 0,1.47798 1.55283,2.67051 3.48392,2.67051 h 8.52206 c 1.93108,0 3.48394,-1.19253 3.48394,-2.67051 z"
       id="path975" />
    <path
       style="fill:#f2f2f2;fill-opacity:0.94901961;stroke:#a0a0a0;stroke-width:0.72745883;stroke-miterlimit:4;stroke-dasharray:none;stroke-opacity:1"
       d="m 203.97026,372.80357 c 0,-1.47799 -1.55286,-2.66648 -3.48394,-2.66648 h -8.52206 c -1.93109,0 -3.48392,1.18849 -3.48392,2.66648 v 12.45039 c 0,1.47801 1.55283,2.66651 3.48392,2.66651 h 8.52206 c 1.93108,0 3.48394,-1.1885 3.48394,-2.66651 z"
       id="path973" />
    <path
       style="fill:#f2f2f2;fill-opacity:0.94901961;stroke:#a0a0a0;stroke-width:0.72745883;stroke-miterlimit:4;stroke-dasharray:none;stroke-opacity:1"
       d="m 322.52852,348.05585 c 0,-1.47798 -1.55284,-2.66645 -3.48392,-2.66645 h -8.52207 c -1.93109,0 -3.4839,1.18847 -3.4839,2.66645 v 12.45039 c 0,1.47803 1.55281,2.67056 3.4839,2.67056 h 8.52207 c 1.93108,0 3.48392,-1.19253 3.48392,-2.67056 z"
       id="path971" />
    <path
       style="fill:#f2f2f2;fill-opacity:0.94901961;stroke:#a0a0a0;stroke-width:0.72745883;stroke-miterlimit:4;stroke-dasharray:none;stroke-opacity:1"
       d="m 322.52852,372.80357 c 0,-1.47799 -1.55284,-2.66648 -3.48392,-2.66648 h -8.52207 c -1.93109,0 -3.4839,1.18849 -3.4839,2.66648 v 12.45039 c 0,1.47801 1.55281,2.66651 3.4839,2.66651 h 8.52207 c 1.93108,0 3.48392,-1.1885 3.48392,-2.66651 z"
       id="path969" />
    <path
       style="fill:#f2f2f2;fill-opacity:0.94901961;stroke:#a0a0a0;stroke-width:0.72745883;stroke-miterlimit:4;stroke-dasharray:none;stroke-opacity:1"
       d="m 300.9725,348.05585 c 0,-1.47798 -1.55286,-2.66645 -3.48394,-2.66645 h -8.52208 c -1.93106,0 -3.4839,1.18847 -3.4839,2.66645 v 12.45039 c 0,1.47803 1.55284,2.67056 3.4839,2.67056 h 8.52208 c 1.93108,0 3.48394,-1.19253 3.48394,-2.67056 z"
       id="path967" />
    <path
       style="fill:#f2f2f2;fill-opacity:0.94901961;stroke:#a0a0a0;stroke-width:0.72745883;stroke-miterlimit:4;stroke-dasharray:none;stroke-opacity:1"
       d="m 300.9725,372.80357 c 0,-1.47799 -1.55286,-2.66648 -3.48394,-2.66648 h -8.52208 c -1.93106,0 -3.4839,1.18849 -3.4839,2.66648 v 12.45039 c 0,1.47801 1.55284,2.66651 3.4839,2.66651 h 8.52208 c 1.93108,0 3.48394,-1.1885 3.48394,-2.66651 z"
       id="path965" />
    <path
       style="fill:#f2f2f2;fill-opacity:0.94901961;stroke:#a0a0a0;stroke-width:0.72745883;stroke-miterlimit:4;stroke-dasharray:none;stroke-opacity:1"
       d="m 275.82375,348.05585 c 0,-1.47798 -1.55284,-2.66645 -3.4839,-2.66645 h -8.5221 c -1.93107,0 -3.48389,1.18847 -3.48389,2.66645 v 12.45039 c 0,1.47803 1.55282,2.67056 3.48389,2.67056 h 8.5221 c 1.93106,0 3.4839,-1.19253 3.4839,-2.67056 z"
       id="path963" />
    <path
       style="fill:#f2f2f2;fill-opacity:0.94901961;stroke:#a0a0a0;stroke-width:0.72745883;stroke-miterlimit:4;stroke-dasharray:none;stroke-opacity:1"
       d="m 275.82375,372.80357 c 0,-1.47799 -1.55284,-2.66648 -3.4839,-2.66648 h -8.5221 c -1.93107,0 -3.48389,1.18849 -3.48389,2.66648 v 12.45039 c 0,1.47801 1.55282,2.66651 3.48389,2.66651 h 8.5221 c 1.93106,0 3.4839,-1.1885 3.4839,-2.66651 z"
       id="path961" />
    <path
       style="fill:#f2f2f2;fill-opacity:0.94901961;stroke:#a0a0a0;stroke-width:0.72745883;stroke-miterlimit:4;stroke-dasharray:none;stroke-opacity:1"
       d="m 397.97471,348.05585 c 0,-1.47798 -1.55283,-2.66645 -3.48392,-2.66645 h -8.52208 c -1.93107,0 -3.48389,1.18847 -3.48389,2.66645 v 12.45039 c 0,1.47803 1.55282,2.67056 3.48389,2.67056 h 8.52208 c 1.93109,0 3.48392,-1.19253 3.48392,-2.67056 z"
       id="path959" />
    <path
       style="fill:#f2f2f2;fill-opacity:0.94901961;stroke:#a0a0a0;stroke-width:0.72745883;stroke-miterlimit:4;stroke-dasharray:none;stroke-opacity:1"
       d="m 397.97471,372.80357 c 0,-1.47799 -1.55283,-2.66648 -3.48392,-2.66648 h -8.52208 c -1.93107,0 -3.48389,1.18849 -3.48389,2.66648 v 12.45039 c 0,1.47801 1.55282,2.66651 3.48389,2.66651 h 8.52208 c 1.93109,0 3.48392,-1.1885 3.48392,-2.66651 z"
       id="path957" />
    <path
       style="fill:#f2f2f2;fill-opacity:0.94901961;stroke:#a0a0a0;stroke-width:0.72745883;stroke-miterlimit:4;stroke-dasharray:none;stroke-opacity:1"
       d="m 372.82599,348.05585 c 0,-1.47798 -1.55284,-2.66645 -3.48394,-2.66645 h -8.52208 c -1.93107,0 -3.4839,1.18847 -3.4839,2.66645 v 12.45039 c 0,1.47803 1.55283,2.67056 3.4839,2.67056 h 8.52208 c 1.9311,0 3.48394,-1.19253 3.48394,-2.67056 z"
       id="path955" />
    <path
       style="fill:#f2f2f2;fill-opacity:0.94901961;stroke:#a0a0a0;stroke-width:0.72745883;stroke-miterlimit:4;stroke-dasharray:none;stroke-opacity:1"
       d="m 372.82599,372.80357 c 0,-1.47799 -1.55284,-2.66648 -3.48394,-2.66648 h -8.52208 c -1.93107,0 -3.4839,1.18849 -3.4839,2.66648 v 12.45039 c 0,1.47801 1.55283,2.66651 3.4839,2.66651 h 8.52208 c 1.9311,0 3.48394,-1.1885 3.48394,-2.66651 z"
       id="path953" />
    <path
       style="fill:#f2f2f2;fill-opacity:0.94901961;stroke:#a0a0a0;stroke-width:0.72745883;stroke-miterlimit:4;stroke-dasharray:none;stroke-opacity:1"
       d="m 347.67727,348.05585 c 0,-1.47798 -1.55285,-2.66645 -3.48394,-2.66645 h -8.52206 c -1.9311,0 -3.48394,1.18847 -3.48394,2.66645 v 12.45039 c 0,1.47803 1.55284,2.67056 3.48394,2.67056 h 8.52206 c 1.93109,0 3.48394,-1.19253 3.48394,-2.67056 z"
       id="path951" />
    <path
       style="fill:#f2f2f2;fill-opacity:0.94901961;stroke:#a0a0a0;stroke-width:0.72745883;stroke-miterlimit:4;stroke-dasharray:none;stroke-opacity:1"
       d="m 347.67727,372.80357 c 0,-1.47799 -1.55285,-2.66648 -3.48394,-2.66648 h -8.52206 c -1.9311,0 -3.48394,1.18849 -3.48394,2.66648 v 12.45039 c 0,1.47801 1.55284,2.66651 3.48394,2.66651 h 8.52206 c 1.93109,0 3.48394,-1.1885 3.48394,-2.66651 z"
       id="path949" />
    <path
       style="fill:#f2f2f2;fill-opacity:0.94901961;stroke:#a0a0a0;stroke-width:0.72745883;stroke-miterlimit:4;stroke-dasharray:none;stroke-opacity:1"
       d="m 473.42091,348.05585 c 0,-1.47798 -1.55284,-2.66645 -3.48392,-2.66645 h -8.52209 c -1.93108,0 -3.4839,1.18847 -3.4839,2.66645 v 12.45039 c 0,1.47803 1.55282,2.67056 3.4839,2.67056 h 8.52209 c 1.93108,0 3.48392,-1.19253 3.48392,-2.67056 z"
       id="path947" />
    <path
       style="fill:#f2f2f2;fill-opacity:0.94901961;stroke:#a0a0a0;stroke-width:0.72745883;stroke-miterlimit:4;stroke-dasharray:none;stroke-opacity:1"
       d="m 473.42091,372.80357 c 0,-1.47799 -1.55284,-2.66648 -3.48392,-2.66648 h -8.52209 c -1.93108,0 -3.4839,1.18849 -3.4839,2.66648 v 12.45039 c 0,1.47801 1.55282,2.66651 3.4839,2.66651 h 8.52209 c 1.93108,0 3.48392,-1.1885 3.48392,-2.66651 z"
       id="path945" />
    <path
       style="fill:#f2f2f2;fill-opacity:0.94901961;stroke:#a0a0a0;stroke-width:0.72745883;stroke-miterlimit:4;stroke-dasharray:none;stroke-opacity:1"
       d="m 448.27219,348.05585 c 0,-1.47798 -1.55285,-2.66645 -3.48393,-2.66645 h -8.52208 c -1.93108,0 -3.48392,1.18847 -3.48392,2.66645 v 12.45039 c 0,1.47803 1.55284,2.67056 3.48392,2.67056 h 8.52208 c 1.93108,0 3.48393,-1.19253 3.48393,-2.67056 z"
       id="path943" />
    <path
       style="fill:#f2f2f2;fill-opacity:0.94901961;stroke:#a0a0a0;stroke-width:0.72745883;stroke-miterlimit:4;stroke-dasharray:none;stroke-opacity:1"
       d="m 448.27219,372.80357 c 0,-1.47799 -1.55285,-2.66648 -3.48393,-2.66648 h -8.52208 c -1.93108,0 -3.48392,1.18849 -3.48392,2.66648 v 12.45039 c 0,1.47801 1.55284,2.66651 3.48392,2.66651 h 8.52208 c 1.93108,0 3.48393,-1.1885 3.48393,-2.66651 z"
       id="path941" />
    <path
       style="fill:#f2f2f2;fill-opacity:0.94901961;stroke:#a0a0a0;stroke-width:0.72745883;stroke-miterlimit:4;stroke-dasharray:none;stroke-opacity:1"
       d="m 423.12344,348.05585 c 0,-1.47798 -1.55284,-2.66645 -3.48391,-2.66645 h -8.52209 c -1.93108,0 -3.48388,1.18847 -3.48388,2.66645 v 12.45039 c 0,1.47803 1.5528,2.67056 3.48388,2.67056 h 8.52209 c 1.93107,0 3.48391,-1.19253 3.48391,-2.67056 z"
       id="path939" />
    <path
       style="fill:#f2f2f2;fill-opacity:0.94901961;stroke:#a0a0a0;stroke-width:0.72745883;stroke-miterlimit:4;stroke-dasharray:none;stroke-opacity:1"
       d="m 423.12344,372.80357 c 0,-1.47799 -1.55284,-2.66648 -3.48391,-2.66648 h -8.52209 c -1.93108,0 -3.48388,1.18849 -3.48388,2.66648 v 12.45039 c 0,1.47801 1.5528,2.66651 3.48388,2.66651 h 8.52209 c 1.93107,0 3.48391,-1.1885 3.48391,-2.66651 z"
       id="path937" />
    <path
       style="fill:#f2f2f2;fill-opacity:0.94901961;stroke:#a0a0a0;stroke-width:0.72745883;stroke-miterlimit:4;stroke-dasharray:none;stroke-opacity:1"
       d="m 548.8671,348.05585 c 0,-1.47798 -1.55285,-2.66645 -3.48394,-2.66645 h -8.52208 c -1.9311,0 -3.48391,1.18847 -3.48391,2.66645 v 12.45039 c 0,1.47803 1.55281,2.67056 3.48391,2.67056 h 8.52208 c 1.93109,0 3.48394,-1.19253 3.48394,-2.67056 z"
       id="path935" />
    <path
       style="fill:#f2f2f2;fill-opacity:0.94901961;stroke:#a0a0a0;stroke-width:0.72745883;stroke-miterlimit:4;stroke-dasharray:none;stroke-opacity:1"
       d="m 548.8671,372.80357 c 0,-1.47799 -1.55285,-2.66648 -3.48394,-2.66648 h -8.52208 c -1.9311,0 -3.48391,1.18849 -3.48391,2.66648 v 12.45039 c 0,1.47801 1.55281,2.66651 3.48391,2.66651 h 8.52208 c 1.93109,0 3.48394,-1.1885 3.48394,-2.66651 z"
       id="path933" />
    <path
       style="fill:#f2f2f2;fill-opacity:0.94901961;stroke:#a0a0a0;stroke-width:0.72745883;stroke-miterlimit:4;stroke-dasharray:none;stroke-opacity:1"
       d="m 523.71836,348.05585 c 0,-1.47798 -1.55284,-2.66645 -3.48395,-2.66645 h -8.52206 c -1.93109,0 -3.48392,1.18847 -3.48392,2.66645 v 12.45039 c 0,1.47803 1.55283,2.67056 3.48392,2.67056 h 8.52206 c 1.93111,0 3.48395,-1.19253 3.48395,-2.67056 z"
       id="path931" />
    <path
       style="fill:#f2f2f2;fill-opacity:0.94901961;stroke:#a0a0a0;stroke-width:0.72745883;stroke-miterlimit:4;stroke-dasharray:none;stroke-opacity:1"
       d="m 523.71836,372.80357 c 0,-1.47799 -1.55284,-2.66648 -3.48395,-2.66648 h -8.52206 c -1.93109,0 -3.48392,1.18849 -3.48392,2.66648 v 12.45039 c 0,1.47801 1.55283,2.66651 3.48392,2.66651 h 8.52206 c 1.93111,0 3.48395,-1.1885 3.48395,-2.66651 z"
       id="path929" />
    <path
       style="fill:#f2f2f2;fill-opacity:0.94901961;stroke:#a0a0a0;stroke-width:0.72745883;stroke-miterlimit:4;stroke-dasharray:none;stroke-opacity:1"
       d="m 498.56963,348.05585 c 0,-1.47798 -1.55287,-2.66645 -3.48395,-2.66645 h -8.52204 c -1.93111,0 -3.48393,1.18847 -3.48393,2.66645 v 12.45039 c 0,1.47803 1.55282,2.67056 3.48393,2.67056 h 8.52204 c 1.93108,0 3.48395,-1.19253 3.48395,-2.67056 z"
       id="path927" />
    <path
       style="fill:#f2f2f2;fill-opacity:0.94901961;stroke:#a0a0a0;stroke-width:0.72745883;stroke-miterlimit:4;stroke-dasharray:none;stroke-opacity:1"
       d="m 498.56963,372.80357 c 0,-1.47799 -1.55287,-2.66648 -3.48395,-2.66648 h -8.52204 c -1.93111,0 -3.48393,1.18849 -3.48393,2.66648 v 12.45039 c 0,1.47801 1.55282,2.66651 3.48393,2.66651 h 8.52204 c 1.93108,0 3.48395,-1.1885 3.48395,-2.66651 z"
       id="path925" />
    <path
       style="fill:#f2f2f2;fill-opacity:0.94901961;stroke:#a0a0a0;stroke-width:0.72745883;stroke-miterlimit:4;stroke-dasharray:none;stroke-opacity:1"
       d="m 624.31327,348.05585 c 0,-1.47798 -1.55283,-2.66645 -3.48392,-2.66645 h -8.52209 c -1.93107,0 -3.48391,1.18847 -3.48391,2.66645 v 12.45039 c 0,1.47803 1.55284,2.67056 3.48391,2.67056 h 8.52209 c 1.93109,0 3.48392,-1.19253 3.48392,-2.67056 z"
       id="path923" />
    <path
       style="fill:#f2f2f2;fill-opacity:0.94901961;stroke:#a0a0a0;stroke-width:0.72745883;stroke-miterlimit:4;stroke-dasharray:none;stroke-opacity:1"
       d="m 624.31327,372.80357 c 0,-1.47799 -1.55283,-2.66648 -3.48392,-2.66648 h -8.52209 c -1.93107,0 -3.48391,1.18849 -3.48391,2.66648 v 12.45039 c 0,1.47801 1.55284,2.66651 3.48391,2.66651 h 8.52209 c 1.93109,0 3.48392,-1.1885 3.48392,-2.66651 z"
       id="path921" />
    <path
       style="fill:#f2f2f2;fill-opacity:0.94901961;stroke:#a0a0a0;stroke-width:0.72745883;stroke-miterlimit:4;stroke-dasharray:none;stroke-opacity:1"
       d="m 599.16453,348.05585 c 0,-1.47798 -1.55284,-2.66645 -3.48391,-2.66645 h -8.52207 c -1.93109,0 -3.48391,1.18847 -3.48391,2.66645 v 12.45039 c 0,1.47803 1.55282,2.67056 3.48391,2.67056 h 8.52207 c 1.93107,0 3.48391,-1.19253 3.48391,-2.67056 z"
       id="path919" />
    <path
       style="fill:#f2f2f2;fill-opacity:0.94901961;stroke:#a0a0a0;stroke-width:0.72745883;stroke-miterlimit:4;stroke-dasharray:none;stroke-opacity:1"
       d="m 599.16453,372.80357 c 0,-1.47799 -1.55284,-2.66648 -3.48391,-2.66648 h -8.52207 c -1.93109,0 -3.48391,1.18849 -3.48391,2.66648 v 12.45039 c 0,1.47801 1.55282,2.66651 3.48391,2.66651 h 8.52207 c 1.93107,0 3.48391,-1.1885 3.48391,-2.66651 z"
       id="path917" />
    <path
       style="fill:#f2f2f2;fill-opacity:0.94901961;stroke:#a0a0a0;stroke-width:0.72745883;stroke-miterlimit:4;stroke-dasharray:none;stroke-opacity:1"
       d="m 574.0158,348.05585 c 0,-1.47798 -1.55284,-2.66645 -3.48392,-2.66645 h -8.52208 c -1.93108,0 -3.48391,1.18847 -3.48391,2.66645 v 12.45039 c 0,1.47803 1.55283,2.67056 3.48391,2.67056 h 8.52208 c 1.93108,0 3.48392,-1.19253 3.48392,-2.67056 z"
       id="path915" />
    <path
       style="fill:#f2f2f2;fill-opacity:0.94901961;stroke:#a0a0a0;stroke-width:0.72745883;stroke-miterlimit:4;stroke-dasharray:none;stroke-opacity:1"
       d="m 574.0158,372.80357 c 0,-1.47799 -1.55284,-2.66648 -3.48392,-2.66648 h -8.52208 c -1.93108,0 -3.48391,1.18849 -3.48391,2.66648 v 12.45039 c 0,1.47801 1.55283,2.66651 3.48391,2.66651 h 8.52208 c 1.93108,0 3.48392,-1.1885 3.48392,-2.66651 z"
       id="path913" />
    <path
       style="fill:#f2f2f2;fill-opacity:0.94901961;stroke:#a0a0a0;stroke-width:0.72745883;stroke-miterlimit:4;stroke-dasharray:none;stroke-opacity:1"
       d="m 178.82153,409.92515 c 0,-1.47802 -1.55285,-2.6665 -3.48392,-2.6665 h -8.52206 c -1.93112,0 -3.48391,1.18848 -3.48391,2.6665 v 12.45037 c 0,1.47803 1.55279,2.67054 3.48391,2.67054 h 8.52206 c 1.93107,0 3.48392,-1.19251 3.48392,-2.67054 z"
       id="path911" />
    <path
       style="fill:#f2f2f2;fill-opacity:0.94901961;stroke:#a0a0a0;stroke-width:0.72745883;stroke-miterlimit:4;stroke-dasharray:none;stroke-opacity:1"
       d="m 178.82153,434.67283 c 0,-1.47799 -1.55285,-2.66646 -3.48392,-2.66646 h -8.52206 c -1.93112,0 -3.48391,1.18847 -3.48391,2.66646 v 12.45039 c 0,1.47802 1.55279,2.6665 3.48391,2.6665 h 8.52206 c 1.93107,0 3.48392,-1.18848 3.48392,-2.6665 z"
       id="path909" />
    <path
       style="fill:#f2f2f2;fill-opacity:0.94901961;stroke:#a0a0a0;stroke-width:0.72745883;stroke-miterlimit:4;stroke-dasharray:none;stroke-opacity:1"
       d="m 250.67506,409.92515 c 0,-1.47802 -1.55284,-2.6665 -3.48393,-2.6665 h -8.52209 c -1.93107,0 -3.48388,1.18848 -3.48388,2.6665 v 12.45038 c 0,1.47802 1.55281,2.67053 3.48388,2.67053 h 8.52209 c 1.93109,0 3.48393,-1.19251 3.48393,-2.67053 z"
       id="path907" />
    <path
       style="fill:#f2f2f2;fill-opacity:0.94901961;stroke:#a0a0a0;stroke-width:0.72745883;stroke-miterlimit:4;stroke-dasharray:none;stroke-opacity:1"
       d="m 250.67506,434.67283 c 0,-1.47799 -1.55284,-2.66646 -3.48393,-2.66646 h -8.52209 c -1.93107,0 -3.48388,1.18847 -3.48388,2.66646 v 12.45039 c 0,1.47802 1.55281,2.6665 3.48388,2.6665 h 8.52209 c 1.93109,0 3.48393,-1.18848 3.48393,-2.6665 z"
       id="path905" />
    <path
       style="fill:#f2f2f2;fill-opacity:0.94901961;stroke:#a0a0a0;stroke-width:0.72745883;stroke-miterlimit:4;stroke-dasharray:none;stroke-opacity:1"
       d="m 229.119,409.92515 c 0,-1.47802 -1.55285,-2.6665 -3.48394,-2.6665 H 217.113 c -1.93109,0 -3.48392,1.18848 -3.48392,2.6665 v 12.45038 c 0,1.47802 1.55283,2.67053 3.48392,2.67053 h 8.52206 c 1.93109,0 3.48394,-1.19251 3.48394,-2.67053 z"
       id="path903" />
    <path
       style="fill:#f2f2f2;fill-opacity:0.94901961;stroke:#a0a0a0;stroke-width:0.72745883;stroke-miterlimit:4;stroke-dasharray:none;stroke-opacity:1"
       d="m 229.119,434.67283 c 0,-1.47799 -1.55285,-2.66646 -3.48394,-2.66646 H 217.113 c -1.93109,0 -3.48392,1.18847 -3.48392,2.66646 v 12.45039 c 0,1.47802 1.55283,2.6665 3.48392,2.6665 h 8.52206 c 1.93109,0 3.48394,-1.18848 3.48394,-2.6665 z"
       id="path901" />
    <path
       style="fill:#f2f2f2;fill-opacity:0.94901961;stroke:#a0a0a0;stroke-width:0.72745883;stroke-miterlimit:4;stroke-dasharray:none;stroke-opacity:1"
       d="m 203.97027,409.92515 c 0,-1.47802 -1.55286,-2.6665 -3.48394,-2.6665 h -8.52206 c -1.93109,0 -3.48392,1.18848 -3.48392,2.6665 v 12.45038 c 0,1.47802 1.55283,2.67053 3.48392,2.67053 h 8.52206 c 1.93108,0 3.48394,-1.19251 3.48394,-2.67053 z"
       id="path899" />
    <path
       style="fill:#f2f2f2;fill-opacity:0.94901961;stroke:#a0a0a0;stroke-width:0.72745883;stroke-miterlimit:4;stroke-dasharray:none;stroke-opacity:1"
       d="m 203.97027,434.67283 c 0,-1.47799 -1.55286,-2.66646 -3.48394,-2.66646 h -8.52206 c -1.93109,0 -3.48392,1.18847 -3.48392,2.66646 v 12.45039 c 0,1.47802 1.55283,2.6665 3.48392,2.6665 h 8.52206 c 1.93108,0 3.48394,-1.18848 3.48394,-2.6665 z"
       id="path897" />
    <path
       style="fill:#f2f2f2;fill-opacity:0.94901961;stroke:#a0a0a0;stroke-width:0.72745883;stroke-miterlimit:4;stroke-dasharray:none;stroke-opacity:1"
       d="m 322.52854,409.92514 c 0,-1.47801 -1.55283,-2.66649 -3.48392,-2.66649 h -8.52208 c -1.93108,0 -3.4839,1.18848 -3.4839,2.66649 v 12.45038 c 0,1.47803 1.55282,2.67054 3.4839,2.67054 h 8.52208 c 1.93109,0 3.48392,-1.19251 3.48392,-2.67054 z"
       id="path895" />
    <path
       style="fill:#f2f2f2;fill-opacity:0.94901961;stroke:#a0a0a0;stroke-width:0.72745883;stroke-miterlimit:4;stroke-dasharray:none;stroke-opacity:1"
       d="m 322.52854,434.67283 c 0,-1.47799 -1.55283,-2.66646 -3.48392,-2.66646 h -8.52208 c -1.93108,0 -3.4839,1.18847 -3.4839,2.66646 v 12.45039 c 0,1.47802 1.55282,2.6665 3.4839,2.6665 h 8.52208 c 1.93109,0 3.48392,-1.18848 3.48392,-2.6665 z"
       id="path893" />
    <path
       style="fill:#f2f2f2;fill-opacity:0.94901961;stroke:#a0a0a0;stroke-width:0.72745883;stroke-miterlimit:4;stroke-dasharray:none;stroke-opacity:1"
       d="m 300.97251,409.92514 c 0,-1.47801 -1.55286,-2.66649 -3.48394,-2.66649 h -8.52207 c -1.93106,0 -3.48391,1.18848 -3.48391,2.66649 v 12.45038 c 0,1.47803 1.55285,2.67054 3.48391,2.67054 h 8.52207 c 1.93108,0 3.48394,-1.19251 3.48394,-2.67054 z"
       id="path891" />
    <path
       style="fill:#f2f2f2;fill-opacity:0.94901961;stroke:#a0a0a0;stroke-width:0.72745883;stroke-miterlimit:4;stroke-dasharray:none;stroke-opacity:1"
       d="m 300.97251,434.67283 c 0,-1.47799 -1.55286,-2.66646 -3.48394,-2.66646 h -8.52207 c -1.93106,0 -3.48391,1.18847 -3.48391,2.66646 v 12.45039 c 0,1.47802 1.55285,2.6665 3.48391,2.6665 h 8.52207 c 1.93108,0 3.48394,-1.18848 3.48394,-2.6665 z"
       id="path889" />
    <path
       style="fill:#f2f2f2;fill-opacity:0.94901961;stroke:#a0a0a0;stroke-width:0.72745883;stroke-miterlimit:4;stroke-dasharray:none;stroke-opacity:1"
       d="m 275.82376,409.92514 c 0,-1.47801 -1.55284,-2.66649 -3.48389,-2.66649 h -8.5221 c -1.93107,0 -3.48389,1.18848 -3.48389,2.66649 v 12.45038 c 0,1.47803 1.55282,2.67054 3.48389,2.67054 h 8.5221 c 1.93105,0 3.48389,-1.19251 3.48389,-2.67054 z"
       id="path887" />
    <path
       style="fill:#f2f2f2;fill-opacity:0.94901961;stroke:#a0a0a0;stroke-width:0.72745883;stroke-miterlimit:4;stroke-dasharray:none;stroke-opacity:1"
       d="m 275.82376,434.67283 c 0,-1.47799 -1.55284,-2.66646 -3.48389,-2.66646 h -8.5221 c -1.93107,0 -3.48389,1.18847 -3.48389,2.66646 v 12.45039 c 0,1.47802 1.55282,2.6665 3.48389,2.6665 h 8.5221 c 1.93105,0 3.48389,-1.18848 3.48389,-2.6665 z"
       id="path885" />
    <path
       style="fill:#f2f2f2;fill-opacity:0.94901961;stroke:#a0a0a0;stroke-width:0.72745883;stroke-miterlimit:4;stroke-dasharray:none;stroke-opacity:1"
       d="m 397.97474,409.92514 c 0,-1.47801 -1.55285,-2.66649 -3.48393,-2.66649 h -8.52209 c -1.93106,0 -3.48389,1.18848 -3.48389,2.66649 v 12.45038 c 0,1.47803 1.55283,2.67054 3.48389,2.67054 h 8.52209 c 1.93108,0 3.48393,-1.19251 3.48393,-2.67054 z"
       id="path883" />
    <path
       style="fill:#f2f2f2;fill-opacity:0.94901961;stroke:#a0a0a0;stroke-width:0.72745883;stroke-miterlimit:4;stroke-dasharray:none;stroke-opacity:1"
       d="m 397.97474,434.67283 c 0,-1.47799 -1.55285,-2.66646 -3.48393,-2.66646 h -8.52209 c -1.93106,0 -3.48389,1.18847 -3.48389,2.66646 v 12.45039 c 0,1.47802 1.55283,2.6665 3.48389,2.6665 h 8.52209 c 1.93108,0 3.48393,-1.18848 3.48393,-2.6665 z"
       id="path881" />
    <path
       style="fill:#f2f2f2;fill-opacity:0.94901961;stroke:#a0a0a0;stroke-width:0.72745883;stroke-miterlimit:4;stroke-dasharray:none;stroke-opacity:1"
       d="m 372.826,409.92514 c 0,-1.47801 -1.55284,-2.66649 -3.48394,-2.66649 H 360.82 c -1.93107,0 -3.48391,1.18848 -3.48391,2.66649 v 12.45038 c 0,1.47803 1.55284,2.67054 3.48391,2.67054 h 8.52206 c 1.9311,0 3.48394,-1.19251 3.48394,-2.67054 z"
       id="path879" />
    <path
       style="fill:#f2f2f2;fill-opacity:0.94901961;stroke:#a0a0a0;stroke-width:0.72745883;stroke-miterlimit:4;stroke-dasharray:none;stroke-opacity:1"
       d="m 372.826,434.67283 c 0,-1.47799 -1.55284,-2.66646 -3.48394,-2.66646 H 360.82 c -1.93107,0 -3.48391,1.18847 -3.48391,2.66646 v 12.45039 c 0,1.47802 1.55284,2.6665 3.48391,2.6665 h 8.52206 c 1.9311,0 3.48394,-1.18848 3.48394,-2.6665 z"
       id="path877" />
    <path
       style="fill:#f2f2f2;fill-opacity:0.94901961;stroke:#a0a0a0;stroke-width:0.72745883;stroke-miterlimit:4;stroke-dasharray:none;stroke-opacity:1"
       d="m 347.67728,409.92514 c 0,-1.47801 -1.55285,-2.66649 -3.48392,-2.66649 h -8.52208 c -1.93109,0 -3.48394,1.18848 -3.48394,2.66649 v 12.45038 c 0,1.47803 1.55285,2.67054 3.48394,2.67054 h 8.52208 c 1.93107,0 3.48392,-1.19251 3.48392,-2.67054 z"
       id="path875" />
    <path
       style="fill:#f2f2f2;fill-opacity:0.94901961;stroke:#a0a0a0;stroke-width:0.72745883;stroke-miterlimit:4;stroke-dasharray:none;stroke-opacity:1"
       d="m 347.67728,434.67283 c 0,-1.47799 -1.55285,-2.66646 -3.48392,-2.66646 h -8.52208 c -1.93109,0 -3.48394,1.18847 -3.48394,2.66646 v 12.45039 c 0,1.47802 1.55285,2.6665 3.48394,2.6665 h 8.52208 c 1.93107,0 3.48392,-1.18848 3.48392,-2.6665 z"
       id="path873" />
    <path
       style="fill:#f2f2f2;fill-opacity:0.94901961;stroke:#a0a0a0;stroke-width:0.72745883;stroke-miterlimit:4;stroke-dasharray:none;stroke-opacity:1"
       d="m 473.42091,409.92514 c 0,-1.47801 -1.55284,-2.66649 -3.48392,-2.66649 h -8.52209 c -1.93108,0 -3.4839,1.18848 -3.4839,2.66649 v 12.45038 c 0,1.47803 1.55282,2.67054 3.4839,2.67054 h 8.52209 c 1.93108,0 3.48392,-1.19251 3.48392,-2.67054 z"
       id="path871" />
    <path
       style="fill:#f2f2f2;fill-opacity:0.94901961;stroke:#a0a0a0;stroke-width:0.72745883;stroke-miterlimit:4;stroke-dasharray:none;stroke-opacity:1"
       d="m 473.42091,434.67283 c 0,-1.47799 -1.55284,-2.66646 -3.48392,-2.66646 h -8.52209 c -1.93108,0 -3.4839,1.18847 -3.4839,2.66646 v 12.45039 c 0,1.47802 1.55282,2.6665 3.4839,2.6665 h 8.52209 c 1.93108,0 3.48392,-1.18848 3.48392,-2.6665 z"
       id="path869" />
    <path
       style="fill:#f2f2f2;fill-opacity:0.94901961;stroke:#a0a0a0;stroke-width:0.72745883;stroke-miterlimit:4;stroke-dasharray:none;stroke-opacity:1"
       d="m 448.2722,409.92514 c 0,-1.47801 -1.55285,-2.66649 -3.48393,-2.66649 h -8.52208 c -1.93108,0 -3.48391,1.18848 -3.48391,2.66649 v 12.45038 c 0,1.47803 1.55283,2.67054 3.48391,2.67054 h 8.52208 c 1.93108,0 3.48393,-1.19251 3.48393,-2.67054 z"
       id="path867" />
    <path
       style="fill:#f2f2f2;fill-opacity:0.94901961;stroke:#a0a0a0;stroke-width:0.72745883;stroke-miterlimit:4;stroke-dasharray:none;stroke-opacity:1"
       d="m 448.2722,434.67283 c 0,-1.47799 -1.55285,-2.66646 -3.48393,-2.66646 h -8.52208 c -1.93108,0 -3.48391,1.18847 -3.48391,2.66646 v 12.45039 c 0,1.47802 1.55283,2.6665 3.48391,2.6665 h 8.52208 c 1.93108,0 3.48393,-1.18848 3.48393,-2.6665 z"
       id="path865" />
    <path
       style="fill:#f2f2f2;fill-opacity:0.94901961;stroke:#a0a0a0;stroke-width:0.72745883;stroke-miterlimit:4;stroke-dasharray:none;stroke-opacity:1"
       d="m 423.12345,409.92514 c 0,-1.47801 -1.55284,-2.66649 -3.4839,-2.66649 h -8.5221 c -1.93108,0 -3.48388,1.18848 -3.48388,2.66649 v 12.45038 c 0,1.47803 1.5528,2.67054 3.48388,2.67054 h 8.5221 c 1.93106,0 3.4839,-1.19251 3.4839,-2.67054 z"
       id="path863" />
    <path
       style="fill:#f2f2f2;fill-opacity:0.94901961;stroke:#a0a0a0;stroke-width:0.72745883;stroke-miterlimit:4;stroke-dasharray:none;stroke-opacity:1"
       d="m 423.12345,434.67283 c 0,-1.47799 -1.55284,-2.66646 -3.4839,-2.66646 h -8.5221 c -1.93108,0 -3.48388,1.18847 -3.48388,2.66646 v 12.45039 c 0,1.47802 1.5528,2.6665 3.48388,2.6665 h 8.5221 c 1.93106,0 3.4839,-1.18848 3.4839,-2.6665 z"
       id="path861" />
    <path
       style="fill:#f2f2f2;fill-opacity:0.94901961;stroke:#a0a0a0;stroke-width:0.72745883;stroke-miterlimit:4;stroke-dasharray:none;stroke-opacity:1"
       d="m 548.8671,409.92514 c 0,-1.47801 -1.55285,-2.66649 -3.48394,-2.66649 h -8.52208 c -1.9311,0 -3.48391,1.18848 -3.48391,2.66649 v 12.45038 c 0,1.47803 1.55281,2.67054 3.48391,2.67054 h 8.52208 c 1.93109,0 3.48394,-1.19251 3.48394,-2.67054 z"
       id="path859" />
    <path
       style="fill:#f2f2f2;fill-opacity:0.94901961;stroke:#a0a0a0;stroke-width:0.72745883;stroke-miterlimit:4;stroke-dasharray:none;stroke-opacity:1"
       d="m 548.8671,434.67283 c 0,-1.47799 -1.55285,-2.66646 -3.48394,-2.66646 h -8.52208 c -1.9311,0 -3.48391,1.18847 -3.48391,2.66646 v 12.45039 c 0,1.47802 1.55281,2.6665 3.48391,2.6665 h 8.52208 c 1.93109,0 3.48394,-1.18848 3.48394,-2.6665 z"
       id="path857" />
    <path
       style="fill:#f2f2f2;fill-opacity:0.94901961;stroke:#a0a0a0;stroke-width:0.72745883;stroke-miterlimit:4;stroke-dasharray:none;stroke-opacity:1"
       d="m 523.71836,409.92514 c 0,-1.47801 -1.55284,-2.66649 -3.48395,-2.66649 h -8.52206 c -1.93109,0 -3.48392,1.18848 -3.48392,2.66649 v 12.45038 c 0,1.47803 1.55283,2.67054 3.48392,2.67054 h 8.52206 c 1.93111,0 3.48395,-1.19251 3.48395,-2.67054 z"
       id="path855" />
    <path
       style="fill:#f2f2f2;fill-opacity:0.94901961;stroke:#a0a0a0;stroke-width:0.72745883;stroke-miterlimit:4;stroke-dasharray:none;stroke-opacity:1"
       d="m 523.71836,434.67283 c 0,-1.47799 -1.55284,-2.66646 -3.48395,-2.66646 h -8.52206 c -1.93109,0 -3.48392,1.18847 -3.48392,2.66646 v 12.45039 c 0,1.47802 1.55283,2.6665 3.48392,2.6665 h 8.52206 c 1.93111,0 3.48395,-1.18848 3.48395,-2.6665 z"
       id="path853" />
    <path
       style="fill:#f2f2f2;fill-opacity:0.94901961;stroke:#a0a0a0;stroke-width:0.72745883;stroke-miterlimit:4;stroke-dasharray:none;stroke-opacity:1"
       d="m 498.56963,409.92514 c 0,-1.47801 -1.55287,-2.66649 -3.48395,-2.66649 h -8.52204 c -1.93111,0 -3.48393,1.18848 -3.48393,2.66649 v 12.45038 c 0,1.47803 1.55282,2.67054 3.48393,2.67054 h 8.52204 c 1.93108,0 3.48395,-1.19251 3.48395,-2.67054 z"
       id="path851" />
    <path
       style="fill:#f2f2f2;fill-opacity:0.94901961;stroke:#a0a0a0;stroke-width:0.72745883;stroke-miterlimit:4;stroke-dasharray:none;stroke-opacity:1"
       d="m 498.56963,434.67283 c 0,-1.47799 -1.55287,-2.66646 -3.48395,-2.66646 h -8.52204 c -1.93111,0 -3.48393,1.18847 -3.48393,2.66646 v 12.45039 c 0,1.47802 1.55282,2.6665 3.48393,2.6665 h 8.52204 c 1.93108,0 3.48395,-1.18848 3.48395,-2.6665 z"
       id="path849" />
    <path
       style="fill:#f2f2f2;fill-opacity:0.94901961;stroke:#a0a0a0;stroke-width:0.72745883;stroke-miterlimit:4;stroke-dasharray:none;stroke-opacity:1"
       d="m 624.31327,409.92514 c 0,-1.47801 -1.55283,-2.66649 -3.48392,-2.66649 h -8.52209 c -1.93107,0 -3.48391,1.18848 -3.48391,2.66649 v 12.45038 c 0,1.47803 1.55284,2.67054 3.48391,2.67054 h 8.52209 c 1.93109,0 3.48392,-1.19251 3.48392,-2.67054 z"
       id="path847" />
    <path
       style="fill:#f2f2f2;fill-opacity:0.94901961;stroke:#a0a0a0;stroke-width:0.72745883;stroke-miterlimit:4;stroke-dasharray:none;stroke-opacity:1"
       d="m 624.31327,434.67283 c 0,-1.47799 -1.55283,-2.66646 -3.48392,-2.66646 h -8.52209 c -1.93107,0 -3.48391,1.18847 -3.48391,2.66646 v 12.45039 c 0,1.47802 1.55284,2.6665 3.48391,2.6665 h 8.52209 c 1.93109,0 3.48392,-1.18848 3.48392,-2.6665 z"
       id="path845" />
    <path
       style="fill:#f2f2f2;fill-opacity:0.94901961;stroke:#a0a0a0;stroke-width:0.72745883;stroke-miterlimit:4;stroke-dasharray:none;stroke-opacity:1"
       d="m 599.16453,409.92514 c 0,-1.47801 -1.55284,-2.66649 -3.48391,-2.66649 h -8.52207 c -1.93109,0 -3.48391,1.18848 -3.48391,2.66649 v 12.45038 c 0,1.47803 1.55282,2.67054 3.48391,2.67054 h 8.52207 c 1.93107,0 3.48391,-1.19251 3.48391,-2.67054 z"
       id="path843" />
    <path
       style="fill:#f2f2f2;fill-opacity:0.94901961;stroke:#a0a0a0;stroke-width:0.72745883;stroke-miterlimit:4;stroke-dasharray:none;stroke-opacity:1"
       d="m 599.16453,434.67283 c 0,-1.47799 -1.55284,-2.66646 -3.48391,-2.66646 h -8.52207 c -1.93109,0 -3.48391,1.18847 -3.48391,2.66646 v 12.45039 c 0,1.47802 1.55282,2.6665 3.48391,2.6665 h 8.52207 c 1.93107,0 3.48391,-1.18848 3.48391,-2.6665 z"
       id="path841" />
    <path
       style="fill:#f2f2f2;fill-opacity:0.94901961;stroke:#a0a0a0;stroke-width:0.72745883;stroke-miterlimit:4;stroke-dasharray:none;stroke-opacity:1"
       d="m 574.0158,409.92514 c 0,-1.47801 -1.55284,-2.66649 -3.48392,-2.66649 h -8.52208 c -1.93108,0 -3.48391,1.18848 -3.48391,2.66649 v 12.45038 c 0,1.47803 1.55283,2.67054 3.48391,2.67054 h 8.52208 c 1.93108,0 3.48392,-1.19251 3.48392,-2.67054 z"
       id="path839" />
    <path
       style="fill:#f2f2f2;fill-opacity:0.94901961;stroke:#a0a0a0;stroke-width:0.72745883;stroke-miterlimit:4;stroke-dasharray:none;stroke-opacity:1"
       d="m 574.0158,434.67283 c 0,-1.47799 -1.55284,-2.66646 -3.48392,-2.66646 h -8.52208 c -1.93108,0 -3.48391,1.18847 -3.48391,2.66646 v 12.45039 c 0,1.47802 1.55283,2.6665 3.48391,2.6665 h 8.52208 c 1.93108,0 3.48392,-1.18848 3.48392,-2.6665 z"
       id="path1057-4-5" />
  </g>
  <path
     style="fill:none;stroke:#000000;stroke-width:1px;stroke-linecap:butt;stroke-linejoin:miter;stroke-opacity:1"
     d="M 20.898218,-221.65229 Z"
     id="path25"
     inkscape:connector-curvature="0" />
</svg>
