<?xml version="1.0" encoding="UTF-8" standalone="no"?>
<!-- Created with Inkscape (http://www.inkscape.org/) -->

<svg
   xmlns:osb="http://www.openswatchbook.org/uri/2009/osb"
   xmlns:dc="http://purl.org/dc/elements/1.1/"
   xmlns:cc="http://creativecommons.org/ns#"
   xmlns:rdf="http://www.w3.org/1999/02/22-rdf-syntax-ns#"
   xmlns:svg="http://www.w3.org/2000/svg"
   xmlns="http://www.w3.org/2000/svg"
   xmlns:sodipodi="http://sodipodi.sourceforge.net/DTD/sodipodi-0.dtd"
   xmlns:inkscape="http://www.inkscape.org/namespaces/inkscape"
   version="1.1"
   id="svg10"
   width="96"
   height="496.64001"
   viewBox="0 0 96 496.64001"
   sodipodi:docname="bombardier.svg"
   inkscape:version="0.92.4 (5da689c313, 2019-01-14)">
  <metadata
     id="metadata16">
    <rdf:RDF>
      <cc:Work
         rdf:about="">
        <dc:format>image/svg+xml</dc:format>
        <dc:type
           rdf:resource="http://purl.org/dc/dcmitype/StillImage" />
        <dc:title />
      </cc:Work>
    </rdf:RDF>
  </metadata>
  <defs
     id="defs14">
    <linearGradient
       id="linearGradient5255"
       osb:paint="solid">
      <stop
         style="stop-color:#a0a0a0;stop-opacity:1;"
         offset="0"
         id="stop5253" />
    </linearGradient>
  </defs>
  <sodipodi:namedview
     pagecolor="#ffffff"
     bordercolor="#666666"
     borderopacity="1"
     objecttolerance="10"
     gridtolerance="10"
     guidetolerance="10"
     inkscape:pageopacity="0"
     inkscape:pageshadow="2"
     inkscape:window-width="1920"
     inkscape:window-height="1001"
     id="namedview12"
     showgrid="false"
     inkscape:zoom="2"
     inkscape:cx="118.44316"
     inkscape:cy="465.31511"
     inkscape:window-x="-9"
     inkscape:window-y="-9"
     inkscape:window-maximized="1"
     inkscape:current-layer="layer1" />
  <g
     inkscape:groupmode="layer"
     id="layer1"
     inkscape:label="kontur">
    <path
       inkscape:connector-curvature="0"
       id="path4182-7-1-4"
       style="fill:#f9f9f9;fill-opacity:1;stroke:#a0a0a0;stroke-width:0.5669291;stroke-linecap:butt;stroke-linejoin:miter;stroke-miterlimit:4;stroke-dasharray:none;stroke-opacity:1"
       d="m 15.91957,399.1663 -3.57332,2.61706 -2,5.49999 5.67332,0.78295 m 62,-8 3.57332,2.61706 2,5.49999 -5.67332,0.78295 m 0.1,-8.9 c -0.1,8.9 -0.1,8.9 -0.1,8.9 m -61.8,-9.8 c -0.1,8.9 -0.1,8.9 -0.1,8.9 M 76.07526,92.34924 c 1.54431,9.21706 1.54431,9.21706 1.54431,9.21706 M 18.29289,92.34924 c -1.67332,9.21707 -1.67332,9.21707 -1.67332,9.21707 m 56.8,-1e-5 c 4.1,0 4.2,0 4.2,0 M 47.18407,2.4416 c 14.33926,7.66322 24.73059,37.54828 28.89119,89.90764 M 47.18407,2.4416 C 32.84481,10.10482 22.45349,39.98988 18.29289,92.34924 m -1.67332,9.21707 c 4.1,0 4.2,0 4.2,0 m 50.3,-8.90001 4.95569,-0.31706 m -57.78237,0 3.92668,0.0171 m 55.4,9.2 0.4,298.5 m -61.4,-298.49999 -0.5,297.59999 m 44.06288,71.38579 c 23,12.2 22.76568,13.61421 22.76568,13.61421 l 0.4,8.6 -37.01428,-4.52857 M 32.7681,471.25919 c -23,12.2 -23.04853,12.90711 -23.04853,12.90711 l -0.4,8.6 37.01428,-4.52857 M 16.01957,408.0663 c 4.1,0 4.2,0 4.2,0 m 53.5,0.9 c 4.1,0 4.2,0 4.2,0 m -61.9,-0.9 c 2.3268,19.38438 6.61106,33.0697 10.06842,44.17016 12.35524,39.66871 20.24586,36.00027 20.24586,36.00027 M 77.91957,408.9663 c -2.27087,19.16701 -8.45217,32.69887 -11.82644,43.67485 -12.0583,39.22389 -19.75928,35.59658 -19.75928,35.59658 M 16.11957,399.1663 h 4.2 m 53.5,0.9 c 4.1,0 4.2,0 4.2,0 m -1.94431,-307.71706 3.57332,2.61707 2,5.49999 -3.9,1.1 m -59.45569,-9.21706 -3.57332,2.61707 -2,5.5 3.9,1.1" />
  </g>
  <g
     inkscape:groupmode="layer"
     id="layer2"
     inkscape:label="siedzenia">
    <path
       style="fill:#f2f2f2;stroke:#a0a0a0;fill-opacity:0.94901961;stroke-opacity:1;stroke-width:0.37795276;stroke-miterlimit:4;stroke-dasharray:none"
       d="m 24.724609,107.67773 c -0.716677,0 -1.292968,0.86445 -1.292968,1.93946 v 4.74414 c 0,1.07501 0.576291,1.93945 1.292968,1.93945 h 6.03711 c 0.716677,0 1.294922,-0.86444 1.294922,-1.93945 v -4.74414 c 0,-1.07501 -0.578245,-1.93946 -1.294922,-1.93946 z m 10.625,0 c -0.716677,0 -1.292968,0.86445 -1.292968,1.93946 v 4.74414 c 0,1.07501 0.576291,1.93945 1.292968,1.93945 h 6.03711 c 0.716677,0 1.292969,-0.86444 1.292969,-1.93945 v -4.74414 c 0,-1.07501 -0.576292,-1.93946 -1.292969,-1.93946 z m 18.523438,0.16407 c -0.716677,0 -1.292969,0.86444 -1.292969,1.93945 v 4.74414 c 0,1.07501 0.576292,1.93945 1.292969,1.93945 h 6.037109 c 0.716677,0 1.294922,-0.86444 1.294922,-1.93945 v -4.74414 c 0,-1.07501 -0.578245,-1.93945 -1.294922,-1.93945 z m 10.625,0 c -0.716677,0 -1.292969,0.86444 -1.292969,1.93945 v 4.74414 c 0,1.07501 0.576292,1.93945 1.292969,1.93945 h 6.037109 c 0.716677,0 1.292969,-0.86444 1.292969,-1.93945 v -4.74414 c 0,-1.07501 -0.576292,-1.93945 -1.292969,-1.93945 z m -39.892578,14.45312 c -0.716677,0 -1.292969,0.86444 -1.292969,1.93946 v 4.74414 c 0,1.07501 0.576292,1.93945 1.292969,1.93945 h 6.037109 c 0.716677,0 1.294922,-0.86444 1.294922,-1.93945 v -4.74414 c 0,-1.07502 -0.578245,-1.93946 -1.294922,-1.93946 z m 10.625,0 c -0.716677,0 -1.292969,0.86444 -1.292969,1.93946 v 4.74414 c 0,1.07501 0.576292,1.93945 1.292969,1.93945 h 6.037109 c 0.716677,0 1.292969,-0.86444 1.292969,-1.93945 v -4.74414 c 0,-1.07502 -0.576292,-1.93946 -1.292969,-1.93946 z m 18.523437,0.16406 c -0.716677,0 -1.292968,0.86445 -1.292968,1.93946 v 4.74414 c 0,1.07501 0.576291,1.93945 1.292968,1.93945 h 6.03711 c 0.716677,0 1.294919,-0.86444 1.294922,-1.93945 v -4.74414 c 0,-1.07501 -0.578245,-1.93946 -1.294922,-1.93946 z m 10.625,0 c -0.716677,0 -1.292968,0.86445 -1.292968,1.93946 v 4.74414 c 0,1.07501 0.576291,1.93945 1.292968,1.93945 h 6.03711 c 0.716677,0 1.292968,-0.86444 1.292968,-1.93945 v -4.74414 c 0,-1.07501 -0.576291,-1.93946 -1.292968,-1.93946 z m -39.773437,15.83594 c -0.716677,0 -1.292969,0.86445 -1.292969,1.93946 v 4.74414 c 0,1.07501 0.576292,1.93945 1.292969,1.93945 h 6.037109 c 0.716677,0 1.294922,-0.86444 1.294922,-1.93945 v -4.74414 c 0,-1.07501 -0.578245,-1.93946 -1.294922,-1.93946 z m 10.625,0 c -0.716677,0 -1.292969,0.86445 -1.292969,1.93946 v 4.74414 c 0,1.07501 0.576292,1.93945 1.292969,1.93945 h 6.037109 c 0.716677,0 1.292969,-0.86444 1.292969,-1.93945 v -4.74414 c 0,-1.07501 -0.576292,-1.93946 -1.292969,-1.93946 z m 18.523437,0.16406 c -0.716677,0 -1.292968,0.86445 -1.292968,1.93946 v 4.74414 c 0,1.07501 0.576291,1.93945 1.292968,1.93945 h 6.03711 c 0.716677,0 1.294919,-0.86444 1.294922,-1.93945 v -4.74414 c 0,-1.07501 -0.578245,-1.93946 -1.294922,-1.93946 z m 10.625,0 c -0.716677,0 -1.292968,0.86445 -1.292968,1.93946 v 4.74414 c 0,1.07501 0.576291,1.93945 1.292968,1.93945 h 6.03711 c 0.716677,0 1.292968,-0.86444 1.292968,-1.93945 v -4.74414 c 0,-1.07501 -0.576291,-1.93946 -1.292968,-1.93946 z m -39.892578,14.45313 c -0.716677,0 -1.292969,0.86444 -1.292969,1.93945 v 4.74414 c 0,1.07501 0.576292,1.93946 1.292969,1.93946 h 6.03711 c 0.716677,0 1.294921,-0.86445 1.294921,-1.93946 v -4.74414 c 0,-1.07502 -0.578244,-1.93945 -1.294921,-1.93945 z m 10.625,0 c -0.716677,0 -1.292969,0.86444 -1.292969,1.93945 v 4.74414 c 0,1.07501 0.576292,1.93946 1.292969,1.93946 h 6.03711 c 0.716675,0 1.292968,-0.86445 1.292968,-1.93946 v -4.74414 c 0,-1.07502 -0.576293,-1.93945 -1.292968,-1.93945 z m 18.523438,0.16406 c -0.716677,0 -1.292969,0.86444 -1.292969,1.93945 v 4.74415 c 0,1.07501 0.576292,1.93945 1.292969,1.93945 h 6.037109 c 0.716677,0 1.294922,-0.86444 1.294922,-1.93945 v -4.74415 c 0,-1.07499 -0.578245,-1.93945 -1.294922,-1.93945 z m 10.625,0 c -0.716677,0 -1.292969,0.86444 -1.292969,1.93945 v 4.74415 c 0,1.07501 0.576292,1.93945 1.292969,1.93945 h 6.037109 c 0.716677,0 1.292969,-0.86444 1.292969,-1.93945 v -4.74415 c 0,-1.07499 -0.576292,-1.93945 -1.292969,-1.93945 z m -39.654297,15.21875 c -0.716677,0 -1.292969,0.86445 -1.292969,1.93946 v 4.74414 c 0,1.07501 0.576292,1.93945 1.292969,1.93945 h 6.037109 c 0.716677,0 1.294922,-0.86444 1.294922,-1.93945 v -4.74414 c 0,-1.07501 -0.578245,-1.93946 -1.294922,-1.93946 z m 10.625,0 c -0.716677,0 -1.292969,0.86445 -1.292969,1.93946 v 4.74414 c 0,1.07501 0.576292,1.93945 1.292969,1.93945 h 6.037109 c 0.716677,0 1.292969,-0.86444 1.292969,-1.93945 v -4.74414 c 0,-1.07501 -0.576292,-1.93946 -1.292969,-1.93946 z m 18.523437,0.16406 c -0.716677,0 -1.292968,0.86445 -1.292968,1.93946 v 4.74414 c 0,1.07501 0.576291,1.93945 1.292968,1.93945 h 6.03711 c 0.716677,0 1.29492,-0.86444 1.294922,-1.93945 v -4.74414 c 0,-1.07501 -0.578245,-1.93946 -1.294922,-1.93946 z m 10.625,0 c -0.716677,0 -1.292968,0.86445 -1.292968,1.93946 v 4.74414 c 0,1.07501 0.576291,1.93945 1.292968,1.93945 h 6.03711 c 0.716677,0 1.292968,-0.86444 1.292968,-1.93945 v -4.74414 c 0,-1.07501 -0.576291,-1.93946 -1.292968,-1.93946 z m -39.892578,14.45313 c -0.716677,0 -1.292969,0.86443 -1.292969,1.93945 v 4.74414 c 0,1.07501 0.576292,1.93946 1.292969,1.93946 h 6.03711 c 0.716677,0 1.294921,-0.86445 1.294921,-1.93946 v -4.74414 c 0,-1.07502 -0.578244,-1.93945 -1.294921,-1.93945 z m 10.625,0 c -0.716677,0 -1.292969,0.86443 -1.292969,1.93945 v 4.74414 c 0,1.07501 0.576292,1.93946 1.292969,1.93946 h 6.03711 c 0.716675,0 1.292968,-0.86445 1.292968,-1.93946 v -4.74414 c 0,-1.07502 -0.576293,-1.93945 -1.292968,-1.93945 z m 18.523438,0.16406 c -0.716677,0 -1.292969,0.86444 -1.292969,1.93945 v 4.74415 c 0,1.07501 0.576292,1.93945 1.292969,1.93945 h 6.037109 c 0.716677,0 1.294921,-0.86444 1.294922,-1.93945 v -4.74415 c 0,-1.07499 -0.578245,-1.93945 -1.294922,-1.93945 z m 10.625,0 c -0.716677,0 -1.292969,0.86444 -1.292969,1.93945 v 4.74415 c 0,1.07501 0.576292,1.93945 1.292969,1.93945 h 6.037109 c 0.716677,0 1.292969,-0.86444 1.292969,-1.93945 v -4.74415 c 0,-1.07499 -0.576292,-1.93945 -1.292969,-1.93945 z m -39.773438,15.83594 c -0.716677,0 -1.292969,0.86444 -1.292969,1.93945 v 4.74414 c 0,1.07501 0.576292,1.93946 1.292969,1.93946 h 6.03711 c 0.716677,0 1.294921,-0.86445 1.294921,-1.93946 v -4.74414 c 0,-1.07501 -0.578244,-1.93945 -1.294921,-1.93945 z m 10.625,0 c -0.716677,0 -1.292969,0.86444 -1.292969,1.93945 v 4.74414 c 0,1.07501 0.576292,1.93946 1.292969,1.93946 h 6.03711 c 0.716675,0 1.292968,-0.86445 1.292968,-1.93946 v -4.74414 c 0,-1.07501 -0.576293,-1.93945 -1.292968,-1.93945 z m 18.523438,0.16406 c -0.716677,0 -1.292969,0.86444 -1.292969,1.93945 v 4.74415 c 0,1.07501 0.576292,1.93945 1.292969,1.93945 h 6.037109 c 0.716677,0 1.294921,-0.86444 1.294922,-1.93945 v -4.74415 c 0,-1.07499 -0.578245,-1.93945 -1.294922,-1.93945 z m 10.625,0 c -0.716677,0 -1.292969,0.86444 -1.292969,1.93945 v 4.74415 c 0,1.07501 0.576292,1.93945 1.292969,1.93945 h 6.037109 c 0.716677,0 1.292969,-0.86444 1.292969,-1.93945 v -4.74415 c 0,-1.07499 -0.576292,-1.93945 -1.292969,-1.93945 z M 24.367188,213.5293 c -0.716679,0 -1.292969,0.86444 -1.292969,1.93945 v 4.74414 c 0,1.07501 0.576291,1.93945 1.292969,1.93945 h 6.037109 c 0.716677,0 1.294922,-0.86444 1.294922,-1.93945 v -4.74414 c 0,-1.07502 -0.578245,-1.93945 -1.294922,-1.93945 z m 10.625,0 c -0.716677,0 -1.292969,0.86444 -1.292969,1.93945 v 4.74414 c 0,1.07501 0.576292,1.93945 1.292969,1.93945 h 6.037109 c 0.716676,0 1.292969,-0.86444 1.292969,-1.93945 v -4.74414 c 0,-1.07502 -0.576293,-1.93945 -1.292969,-1.93945 z m 18.523437,0.16406 c -0.716677,0 -1.292969,0.86444 -1.292969,1.93945 v 4.74414 c 0,1.07501 0.576292,1.93946 1.292969,1.93946 h 6.037109 c 0.716677,0 1.294922,-0.86445 1.294922,-1.93946 v -4.74414 c 0,-1.075 -0.578245,-1.93945 -1.294922,-1.93945 z m 10.625,0 c -0.716677,0 -1.292969,0.86444 -1.292969,1.93945 v 4.74414 c 0,1.07501 0.576292,1.93946 1.292969,1.93946 h 6.037109 c 0.716677,0 1.292969,-0.86445 1.292969,-1.93946 v -4.74414 c 0,-1.075 -0.576292,-1.93945 -1.292969,-1.93945 z m -39.654297,17.21875 c -0.716677,0 -1.292969,0.86444 -1.292969,1.93945 v 4.74414 c 0,1.07501 0.576292,1.93946 1.292969,1.93946 h 6.03711 c 0.716677,0 1.294921,-0.86445 1.294921,-1.93946 v -4.74414 c 0,-1.07501 -0.578244,-1.93945 -1.294921,-1.93945 z m 10.625,0 c -0.716677,0 -1.292969,0.86444 -1.292969,1.93945 v 4.74414 c 0,1.07501 0.576292,1.93946 1.292969,1.93946 h 6.03711 c 0.716676,0 1.292968,-0.86445 1.292968,-1.93946 v -4.74414 c 0,-1.07501 -0.576292,-1.93945 -1.292968,-1.93945 z m 18.523438,0.16406 c -0.716677,0 -1.292969,0.86445 -1.292969,1.93945 v 4.74415 c 0,1.07501 0.576292,1.93945 1.292969,1.93945 h 6.037109 c 0.716677,0 1.294922,-0.86444 1.294922,-1.93945 v -4.74415 c 0,-1.075 -0.578245,-1.93945 -1.294922,-1.93945 z m 10.625,0 c -0.716677,0 -1.292969,0.86445 -1.292969,1.93945 v 4.74415 c 0,1.07501 0.576292,1.93945 1.292969,1.93945 h 6.037109 c 0.716677,0 1.292969,-0.86444 1.292969,-1.93945 v -4.74415 c 0,-1.075 -0.576292,-1.93945 -1.292969,-1.93945 z M 24.367188,245.5293 c -0.716678,0 -1.292969,0.86443 -1.292969,1.93945 v 4.74414 c 0,1.07501 0.576291,1.93945 1.292969,1.93945 h 6.037109 c 0.716677,0 1.294922,-0.86444 1.294922,-1.93945 v -4.74414 c 0,-1.07502 -0.578245,-1.93945 -1.294922,-1.93945 z m 10.625,0 c -0.716677,0 -1.292969,0.86443 -1.292969,1.93945 v 4.74414 c 0,1.07501 0.576292,1.93945 1.292969,1.93945 h 6.037109 c 0.716677,0 1.292969,-0.86444 1.292969,-1.93945 v -4.74414 c 0,-1.07502 -0.576292,-1.93945 -1.292969,-1.93945 z m 18.523437,0.16406 c -0.716677,0 -1.292969,0.86444 -1.292969,1.93945 v 4.74414 c 0,1.07501 0.576292,1.93946 1.292969,1.93946 h 6.037109 c 0.716677,0 1.29492,-0.86445 1.294922,-1.93946 v -4.74414 c 0,-1.07501 -0.578245,-1.93945 -1.294922,-1.93945 z m 10.625,0 c -0.716677,0 -1.292969,0.86444 -1.292969,1.93945 v 4.74414 c 0,1.07501 0.576292,1.93946 1.292969,1.93946 h 6.037109 c 0.716677,0 1.292969,-0.86445 1.292969,-1.93946 v -4.74414 c 0,-1.07501 -0.576292,-1.93945 -1.292969,-1.93945 z M 24.367188,261.5293 c -0.716678,0 -1.292969,0.86444 -1.292969,1.93945 v 4.74414 c 0,1.07501 0.576291,1.93945 1.292969,1.93945 h 6.037109 c 0.716677,0 1.294922,-0.86444 1.294922,-1.93945 v -4.74414 c 0,-1.07501 -0.578245,-1.93945 -1.294922,-1.93945 z m 10.625,0 c -0.716677,0 -1.292969,0.86444 -1.292969,1.93945 v 4.74414 c 0,1.07501 0.576292,1.93945 1.292969,1.93945 h 6.037109 c 0.716677,0 1.292969,-0.86444 1.292969,-1.93945 v -4.74414 c 0,-1.07501 -0.576292,-1.93945 -1.292969,-1.93945 z m 18.523437,0.16406 c -0.716677,0 -1.292969,0.86444 -1.292969,1.93945 v 4.74414 c 0,1.07501 0.576292,1.93946 1.292969,1.93946 h 6.037109 c 0.716677,0 1.29492,-0.86445 1.294922,-1.93946 v -4.74414 c 0,-1.07501 -0.578245,-1.93945 -1.294922,-1.93945 z m 10.625,0 c -0.716677,0 -1.292969,0.86444 -1.292969,1.93945 v 4.74414 c 0,1.07501 0.576292,1.93946 1.292969,1.93946 h 6.037109 c 0.716677,0 1.292969,-0.86445 1.292969,-1.93946 v -4.74414 c 0,-1.07501 -0.576292,-1.93945 -1.292969,-1.93945 z m -39.892578,14.45312 c -0.716677,0 -1.292969,0.86445 -1.292969,1.93946 v 4.74414 c 0,1.07501 0.576292,1.93945 1.292969,1.93945 h 6.037109 c 0.716677,0 1.294922,-0.86444 1.294922,-1.93945 v -4.74414 c 0,-1.07502 -0.578245,-1.93946 -1.294922,-1.93946 z m 10.625,0 c -0.716677,0 -1.292969,0.86445 -1.292969,1.93946 v 4.74414 c 0,1.07501 0.576292,1.93945 1.292969,1.93945 h 6.037109 c 0.716675,0 1.292969,-0.86444 1.292969,-1.93945 v -4.74414 c 0,-1.07502 -0.576294,-1.93946 -1.292969,-1.93946 z m 18.523437,0.16407 c -0.716677,0 -1.292968,0.86444 -1.292968,1.93945 v 4.74414 c 0,1.07501 0.576291,1.93945 1.292968,1.93945 h 6.03711 c 0.716677,0 1.294922,-0.86444 1.294922,-1.93945 V 278.25 c 0,-1.075 -0.578245,-1.93945 -1.294922,-1.93945 z m 10.625,0 c -0.716677,0 -1.292968,0.86444 -1.292968,1.93945 v 4.74414 c 0,1.07501 0.576291,1.93945 1.292968,1.93945 h 6.03711 c 0.716677,0 1.292968,-0.86444 1.292968,-1.93945 V 278.25 c 0,-1.075 -0.576291,-1.93945 -1.292968,-1.93945 z M 24.367188,291.5293 c -0.716678,0 -1.292969,0.86444 -1.292969,1.93945 v 4.74414 c 0,1.07501 0.576291,1.93945 1.292969,1.93945 h 6.037109 c 0.716677,0 1.294922,-0.86444 1.294922,-1.93945 v -4.74414 c 0,-1.07501 -0.578245,-1.93945 -1.294922,-1.93945 z m 10.625,0 c -0.716677,0 -1.292969,0.86444 -1.292969,1.93945 v 4.74414 c 0,1.07501 0.576292,1.93945 1.292969,1.93945 h 6.037109 c 0.716677,0 1.292969,-0.86444 1.292969,-1.93945 v -4.74414 c 0,-1.07501 -0.576292,-1.93945 -1.292969,-1.93945 z m 18.523437,0.16406 c -0.716677,0 -1.292969,0.86444 -1.292969,1.93945 v 4.74414 c 0,1.07501 0.576292,1.93946 1.292969,1.93946 h 6.037109 c 0.716677,0 1.294921,-0.86445 1.294922,-1.93946 v -4.74414 c 0,-1.07501 -0.578245,-1.93945 -1.294922,-1.93945 z m 10.625,0 c -0.716677,0 -1.292969,0.86444 -1.292969,1.93945 v 4.74414 c 0,1.07501 0.576292,1.93946 1.292969,1.93946 h 6.037109 c 0.716677,0 1.292969,-0.86445 1.292969,-1.93946 v -4.74414 c 0,-1.07501 -0.576292,-1.93945 -1.292969,-1.93945 z m -39.892578,14.45312 c -0.716677,0 -1.292969,0.86444 -1.292969,1.93946 v 4.74414 c 0,1.07501 0.576292,1.93945 1.292969,1.93945 h 6.037109 c 0.716677,0 1.294922,-0.86444 1.294922,-1.93945 v -4.74414 c 0,-1.07502 -0.578245,-1.93946 -1.294922,-1.93946 z m 10.625,0 c -0.716677,0 -1.292969,0.86444 -1.292969,1.93946 v 4.74414 c 0,1.07501 0.576292,1.93945 1.292969,1.93945 h 6.037109 c 0.716676,0 1.292969,-0.86444 1.292969,-1.93945 v -4.74414 c 0,-1.07502 -0.576293,-1.93946 -1.292969,-1.93946 z m 18.523437,0.16407 c -0.716677,0 -1.292968,0.86444 -1.292968,1.93945 v 4.74414 c 0,1.07501 0.576291,1.93945 1.292968,1.93945 h 6.03711 c 0.716677,0 1.294921,-0.86444 1.294922,-1.93945 V 308.25 c 0,-1.075 -0.578245,-1.93945 -1.294922,-1.93945 z m 10.625,0 c -0.716677,0 -1.292968,0.86444 -1.292968,1.93945 v 4.74414 c 0,1.07501 0.576291,1.93945 1.292968,1.93945 h 6.03711 c 0.716677,0 1.292968,-0.86444 1.292968,-1.93945 V 308.25 c 0,-1.075 -0.576291,-1.93945 -1.292968,-1.93945 z m -39.773437,15.83593 c -0.716677,0 -1.292969,0.86445 -1.292969,1.93946 v 4.74414 c 0,1.07501 0.576292,1.93945 1.292969,1.93945 h 6.037109 c 0.716677,0 1.294922,-0.86444 1.294922,-1.93945 v -4.74414 c 0,-1.07501 -0.578245,-1.93946 -1.294922,-1.93946 z m 10.625,0 c -0.716677,0 -1.292969,0.86445 -1.292969,1.93946 v 4.74414 c 0,1.07501 0.576292,1.93945 1.292969,1.93945 h 6.037109 c 0.716676,0 1.292969,-0.86444 1.292969,-1.93945 v -4.74414 c 0,-1.07501 -0.576293,-1.93946 -1.292969,-1.93946 z m 18.523437,0.16407 c -0.716677,0 -1.292968,0.86444 -1.292968,1.93945 v 4.74414 c 0,1.07501 0.576291,1.93945 1.292968,1.93945 h 6.03711 c 0.716677,0 1.294921,-0.86444 1.294922,-1.93945 V 324.25 c 0,-1.075 -0.578245,-1.93945 -1.294922,-1.93945 z m 10.625,0 c -0.716677,0 -1.292968,0.86444 -1.292968,1.93945 v 4.74414 c 0,1.07501 0.576291,1.93945 1.292968,1.93945 h 6.03711 c 0.716677,0 1.292968,-0.86444 1.292968,-1.93945 V 324.25 c 0,-1.075 -0.576291,-1.93945 -1.292968,-1.93945 z m -39.892578,14.45312 c -0.716678,0 -1.292968,0.86447 -1.292968,1.93945 v 4.74415 c 0,1.07501 0.57629,1.93945 1.292968,1.93945 h 6.03711 c 0.716677,0 1.29492,-0.86444 1.294922,-1.93945 v -4.74415 c 0,-1.07501 -0.578245,-1.93945 -1.294922,-1.93945 z m 10.625,0 c -0.716677,0 -1.292968,0.86447 -1.292968,1.93945 v 4.74415 c 0,1.07501 0.576291,1.93945 1.292968,1.93945 h 6.03711 c 0.716676,0 1.292968,-0.86444 1.292968,-1.93945 v -4.74415 c 0,-1.07501 -0.576292,-1.93945 -1.292968,-1.93945 z m 18.523438,0.16406 c -0.716677,0 -1.292969,0.86445 -1.292969,1.93946 v 4.74414 c 0,1.07501 0.576292,1.93945 1.292969,1.93945 h 6.037109 c 0.716677,0 1.294922,-0.86444 1.294922,-1.93945 v -4.74414 c 0,-1.075 -0.578245,-1.93946 -1.294922,-1.93946 z m 10.625,0 c -0.716677,0 -1.292969,0.86445 -1.292969,1.93946 v 4.74414 c 0,1.07501 0.576292,1.93945 1.292969,1.93945 h 6.037109 c 0.716677,0 1.292969,-0.86444 1.292969,-1.93945 v -4.74414 c 0,-1.075 -0.576292,-1.93946 -1.292969,-1.93946 z m -39.773438,15.83594 c -0.716678,0 -1.292969,0.86447 -1.292968,1.93945 v 4.74415 c 0,1.07501 0.57629,1.93945 1.292968,1.93945 h 6.03711 c 0.716677,0 1.29492,-0.86444 1.294922,-1.93945 v -4.74415 c 0,-1.07501 -0.578245,-1.93945 -1.294922,-1.93945 z m 10.625,0 c -0.716677,0 -1.292968,0.86447 -1.292968,1.93945 v 4.74415 c 0,1.07501 0.576291,1.93945 1.292968,1.93945 h 6.03711 c 0.716676,0 1.292968,-0.86444 1.292968,-1.93945 v -4.74415 c 0,-1.07501 -0.576292,-1.93945 -1.292968,-1.93945 z m 18.523438,0.16406 c -0.716677,0 -1.292969,0.86445 -1.292969,1.93946 v 4.74414 c 0,1.07501 0.576292,1.93945 1.292969,1.93945 h 6.037109 c 0.716677,0 1.294922,-0.86444 1.294922,-1.93945 v -4.74414 c 0,-1.075 -0.578245,-1.93946 -1.294922,-1.93946 z m 10.625,0 c -0.716677,0 -1.292969,0.86445 -1.292969,1.93946 v 4.74414 c 0,1.07501 0.576292,1.93945 1.292969,1.93945 h 6.037109 c 0.716677,0 1.292969,-0.86444 1.292969,-1.93945 v -4.74414 c 0,-1.075 -0.576292,-1.93946 -1.292969,-1.93946 z m -39.773438,15.83594 c -0.716678,0 -1.292969,0.86447 -1.292968,1.93945 v 4.74415 c 0,1.07501 0.57629,1.93945 1.292968,1.93945 h 6.03711 c 0.716677,0 1.294921,-0.86444 1.294922,-1.93945 v -4.74415 c 0,-1.07501 -0.578245,-1.93945 -1.294922,-1.93945 z m 10.625,0 c -0.716677,0 -1.292968,0.86447 -1.292968,1.93945 v 4.74415 c 0,1.07501 0.576291,1.93945 1.292968,1.93945 h 6.03711 c 0.716676,0 1.292968,-0.86444 1.292968,-1.93945 v -4.74415 c 0,-1.07501 -0.576292,-1.93945 -1.292968,-1.93945 z m 18.523438,0.16406 c -0.716677,0 -1.292969,0.86445 -1.292969,1.93946 v 4.74414 c 0,1.07501 0.576292,1.93945 1.292969,1.93945 h 6.037109 c 0.716677,0 1.294922,-0.86444 1.294922,-1.93945 v -4.74414 c 0,-1.075 -0.578245,-1.93946 -1.294922,-1.93946 z m 10.625,0 c -0.716677,0 -1.292969,0.86445 -1.292969,1.93946 v 4.74414 c 0,1.07501 0.576292,1.93945 1.292969,1.93945 h 6.037109 c 0.716677,0 1.292969,-0.86444 1.292969,-1.93945 v -4.74414 c 0,-1.075 -0.576292,-1.93946 -1.292969,-1.93946 z m -39.773438,15.83594 c -0.716678,0 -1.292969,0.86447 -1.292968,1.93945 v 4.74415 c 0,1.07501 0.57629,1.93945 1.292968,1.93945 h 6.03711 c 0.716677,0 1.294921,-0.86444 1.294922,-1.93945 v -4.74415 c 0,-1.07501 -0.578245,-1.93945 -1.294922,-1.93945 z m 10.625,0 c -0.716677,0 -1.292968,0.86447 -1.292968,1.93945 v 4.74415 c 0,1.07501 0.576291,1.93945 1.292968,1.93945 h 6.03711 c 0.716676,0 1.292968,-0.86444 1.292968,-1.93945 v -4.74415 c 0,-1.07501 -0.576292,-1.93945 -1.292968,-1.93945 z m 18.523438,0.16406 c -0.716677,0 -1.292969,0.86445 -1.292969,1.93946 v 4.74414 c 0,1.07501 0.576292,1.93945 1.292969,1.93945 h 6.037109 c 0.716677,0 1.294922,-0.86444 1.294922,-1.93945 v -4.74414 c 0,-1.075 -0.578245,-1.93946 -1.294922,-1.93946 z m 10.625,0 c -0.716677,0 -1.292969,0.86445 -1.292969,1.93946 v 4.74414 c 0,1.07501 0.576292,1.93945 1.292969,1.93945 h 6.037109 c 0.716677,0 1.292969,-0.86444 1.292969,-1.93945 v -4.74414 c 0,-1.075 -0.576292,-1.93946 -1.292969,-1.93946 z"
       id="rect3794"
       inkscape:connector-curvature="0" />
  </g>
  <path
     style="fill:none;stroke:#000000;stroke-width:1px;stroke-linecap:butt;stroke-linejoin:miter;stroke-opacity:1"
     d="M 20.898218,74.987725 Z"
     id="path25"
     inkscape:connector-curvature="0" />
</svg>
