<?xml version="1.0" encoding="UTF-8" standalone="no"?>
<!-- Created with Inkscape (http://www.inkscape.org/) -->

<svg
   xmlns:dc="http://purl.org/dc/elements/1.1/"
   xmlns:cc="http://creativecommons.org/ns#"
   xmlns:rdf="http://www.w3.org/1999/02/22-rdf-syntax-ns#"
   xmlns:svg="http://www.w3.org/2000/svg"
   xmlns="http://www.w3.org/2000/svg"
   xmlns:sodipodi="http://sodipodi.sourceforge.net/DTD/sodipodi-0.dtd"
   xmlns:inkscape="http://www.inkscape.org/namespaces/inkscape"
   version="1.1"
   id="minibag"
   width="300"
   height="380"
   viewBox="0 0 300 380"
   sodipodi:docname="3.svg"
   inkscape:version="0.92.4 (5da689c313, 2019-01-14)">
  <metadata
     id="metadata821">
    <rdf:RDF>
      <cc:Work
         rdf:about="">
        <dc:format>image/svg+xml</dc:format>
        <dc:type
           rdf:resource="http://purl.org/dc/dcmitype/StillImage" />
        <dc:title />
      </cc:Work>
    </rdf:RDF>
  </metadata>
  <defs
     id="defs819" />
  <sodipodi:namedview
     pagecolor="#ffffff"
     bordercolor="#666666"
     borderopacity="1"
     objecttolerance="10"
     gridtolerance="10"
     guidetolerance="10"
     inkscape:pageopacity="0"
     inkscape:pageshadow="2"
     inkscape:window-width="1920"
     inkscape:window-height="1001"
     id="namedview817"
     showgrid="false"
     inkscape:zoom="1.5150001"
     inkscape:cx="43.951941"
     inkscape:cy="222.95569"
     inkscape:window-x="2391"
     inkscape:window-y="-9"
     inkscape:window-maximized="1"
     inkscape:current-layer="layer2"
     showguides="false">
    <inkscape:grid
       type="xygrid"
       id="grid827" />
  </sodipodi:namedview>
  <g
     inkscape:groupmode="layer"
     id="layer1"
     inkscape:label="minibag"
     transform="translate(0,-153.33332)">
    <path
       id="minibag"
       style="fill:none;stroke:#000000;stroke-width:1px;stroke-linecap:butt;stroke-linejoin:miter;stroke-opacity:1"
       d="m 173.09102,315.09649 c -5.8058,-38.64361 -27.19513,-37.81171 -27.27447,-37.80378 m -23.54122,37.10343 c 5.80579,-38.6436 23.46188,-37.11136 23.54122,-37.10343 m 35.20938,37.33688 c -7.93083,-18.08377 -10.68532,-42.26825 -34.97601,-41.07077 m 36.3701,143.70553 c 3.90296,-33.82711 2.74521,-68.09971 -1.39409,-102.63476 m -6.54054,102.97011 c 3.90371,-33.78376 2.74573,-68.01243 -1.39437,-102.50321 M 120.88144,416.9255 c -3.90238,-33.79237 -2.7448,-68.02978 1.39389,-102.52936 m -8.89897,102.38946 c -3.90484,-33.6696 -2.74653,-67.7826 1.39477,-102.15686 9.46107,-43.60602 30.03366,-41.17584 31.27879,-41.06992 m 90.547,140.2545 c -58.71967,4.87933 -119.10814,5.30853 -181.560735,0.23337 M 228.89576,334.00127 c 14.07688,81.17702 7.70116,79.81205 7.70116,79.81205 m -7.70116,-79.81205 c -3.28939,-12.69239 -10.63587,-19.58893 -22.63675,-19.83633 M 85.840835,315.79852 C 206.02564,314.16494 206.25901,314.16494 206.25901,314.16494 M 62.270611,338.43528 c -7.666331,23.49015 -7.234426,75.61141 -7.234426,75.61141 m 30.80465,-98.24817 c -21.958579,2.72323 -23.567827,22.6112 -23.570224,22.63676"
       inkscape:connector-curvature="0" />
    <path
       style="fill:#cccccc;fill-opacity:0.94901961;stroke:#a0a0a0;stroke-width:0.37421063;stroke-miterlimit:4;stroke-dasharray:none;stroke-opacity:1"
       d=""
       id="path895"
       inkscape:connector-curvature="0" />
    <path
       style="fill:#cccccc;fill-opacity:0.94901961;stroke:#a0a0a0;stroke-width:0.37421063;stroke-miterlimit:4;stroke-dasharray:none;stroke-opacity:1"
       d=""
       id="path897"
       inkscape:connector-curvature="0" />
    <path
       style="fill:#cccccc;fill-opacity:0.94901961;stroke:#a0a0a0;stroke-width:0.37421063;stroke-miterlimit:4;stroke-dasharray:none;stroke-opacity:1"
       d="m 189.60574,248.62374 c 0.0317,-0.76894 0.18808,-0.92534 0.39879,-0.39879 0.19067,0.47649 0.16722,1.04579 -0.0521,1.26513 -0.21934,0.21933 -0.37534,-0.17052 -0.34668,-0.86634 z"
       id="path901"
       inkscape:connector-curvature="0" />
    <path
       style="fill:#cccccc;fill-opacity:0.94901961;stroke:#a0a0a0;stroke-width:0.37421063;stroke-miterlimit:4;stroke-dasharray:none;stroke-opacity:1"
       d=""
       id="path903"
       inkscape:connector-curvature="0" />
    <path
       style="fill:#cccccc;fill-opacity:0.94901961;stroke:#a0a0a0;stroke-width:0.37421063;stroke-miterlimit:4;stroke-dasharray:none;stroke-opacity:1"
       d=""
       id="path911"
       inkscape:connector-curvature="0" />
    <path
       style="fill:#cccccc;fill-opacity:0.94901961;stroke:#a0a0a0;stroke-width:0.37421063;stroke-miterlimit:4;stroke-dasharray:none;stroke-opacity:1"
       d=""
       id="path923"
       inkscape:connector-curvature="0" />
    <path
       style="fill:#cccccc;fill-opacity:0.94901961;stroke:#a0a0a0;stroke-width:0.18710531;stroke-miterlimit:4;stroke-dasharray:none;stroke-opacity:1"
       d=""
       id="path931"
       inkscape:connector-curvature="0" />
  </g>
  <g
     inkscape:groupmode="layer"
     id="layer2"
     inkscape:label="smallbag"
     transform="translate(0,-153.33332)" />
</svg>
