<?xml version="1.0" encoding="UTF-8" standalone="no"?>
<!-- Created with Inkscape (http://www.inkscape.org/) -->

<svg
   xmlns:dc="http://purl.org/dc/elements/1.1/"
   xmlns:cc="http://creativecommons.org/ns#"
   xmlns:rdf="http://www.w3.org/1999/02/22-rdf-syntax-ns#"
   xmlns:svg="http://www.w3.org/2000/svg"
   xmlns="http://www.w3.org/2000/svg"
   xmlns:sodipodi="http://sodipodi.sourceforge.net/DTD/sodipodi-0.dtd"
   xmlns:inkscape="http://www.inkscape.org/namespaces/inkscape"
   version="1.1"
   id="smallbag"
   width="300"
   height="380"
   viewBox="0 0 300 380"
   sodipodi:docname="4.svg"
   inkscape:version="0.92.4 (5da689c313, 2019-01-14)">
  <metadata
     id="metadata821">
    <rdf:RDF>
      <cc:Work
         rdf:about="">
        <dc:format>image/svg+xml</dc:format>
        <dc:type
           rdf:resource="http://purl.org/dc/dcmitype/StillImage" />
        <dc:title></dc:title>
      </cc:Work>
    </rdf:RDF>
  </metadata>
  <defs
     id="defs819" />
  <sodipodi:namedview
     pagecolor="#ffffff"
     bordercolor="#666666"
     borderopacity="1"
     objecttolerance="10"
     gridtolerance="10"
     guidetolerance="10"
     inkscape:pageopacity="0"
     inkscape:pageshadow="2"
     inkscape:window-width="1920"
     inkscape:window-height="1001"
     id="namedview817"
     showgrid="false"
     inkscape:zoom="1.0712668"
     inkscape:cx="197.03893"
     inkscape:cy="161.33842"
     inkscape:window-x="2391"
     inkscape:window-y="-9"
     inkscape:window-maximized="1"
     inkscape:current-layer="layer2"
     showguides="false">
    <inkscape:grid
       type="xygrid"
       id="grid827" />
  </sodipodi:namedview>
  <g
     inkscape:groupmode="layer"
     id="layer1"
     inkscape:label="minibag"
     transform="translate(0,-153.33332)">
    <path
       style="fill:#cccccc;fill-opacity:0.94901961;stroke:#a0a0a0;stroke-width:0.37421063;stroke-miterlimit:4;stroke-dasharray:none;stroke-opacity:1"
       d=""
       id="path895"
       inkscape:connector-curvature="0" />
    <path
       style="fill:#cccccc;fill-opacity:0.94901961;stroke:#a0a0a0;stroke-width:0.37421063;stroke-miterlimit:4;stroke-dasharray:none;stroke-opacity:1"
       d=""
       id="path897"
       inkscape:connector-curvature="0" />
    <path
       style="fill:#cccccc;fill-opacity:0.94901961;stroke:#a0a0a0;stroke-width:0.37421063;stroke-miterlimit:4;stroke-dasharray:none;stroke-opacity:1"
       d="m 189.60574,248.62374 c 0.0317,-0.76894 0.18808,-0.92534 0.39879,-0.39879 0.19067,0.47649 0.16722,1.04579 -0.0521,1.26513 -0.21934,0.21933 -0.37534,-0.17052 -0.34668,-0.86634 z"
       id="path901"
       inkscape:connector-curvature="0" />
    <path
       style="fill:#cccccc;fill-opacity:0.94901961;stroke:#a0a0a0;stroke-width:0.37421063;stroke-miterlimit:4;stroke-dasharray:none;stroke-opacity:1"
       d=""
       id="path903"
       inkscape:connector-curvature="0" />
    <path
       style="fill:#cccccc;fill-opacity:0.94901961;stroke:#a0a0a0;stroke-width:0.37421063;stroke-miterlimit:4;stroke-dasharray:none;stroke-opacity:1"
       d=""
       id="path911"
       inkscape:connector-curvature="0" />
    <path
       style="fill:#cccccc;fill-opacity:0.94901961;stroke:#a0a0a0;stroke-width:0.37421063;stroke-miterlimit:4;stroke-dasharray:none;stroke-opacity:1"
       d=""
       id="path923"
       inkscape:connector-curvature="0" />
    <path
       style="fill:#cccccc;fill-opacity:0.94901961;stroke:#a0a0a0;stroke-width:0.18710531;stroke-miterlimit:4;stroke-dasharray:none;stroke-opacity:1"
       d=""
       id="path931"
       inkscape:connector-curvature="0" />
  </g>
  <g
     inkscape:groupmode="layer"
     id="layer2"
     inkscape:label="smallbag"
     transform="translate(0,-153.33332)">
    <path
       inkscape:connector-curvature="0"
       id="smallbag"
       style="fill:none;stroke:#000000;stroke-width:1px;stroke-linecap:butt;stroke-linejoin:miter;stroke-opacity:1"
       d="m 166.65107,309.5518 c -5.34174,-6.12674 -12.16111,-8.96985 -20.30307,-8.87386 m -22.87012,9.27468 c 7.05834,-4.06019 13.91582,-9.11298 22.87012,-9.27468 m -17.95522,9.30299 0.91932,-93.19898 c 19.04637,-11.36251 22.15085,-2.58789 30.33791,-0.23337 l 0.22919,89.61114 0.004,3.78117 m -36.40532,0.0117 0.93348,-94.80425 c 12.24288,-7.25576 24.7844,-13.061 41.30624,0.46674 l 0.93347,93.93669 m 10.96831,-0.58928 c -8.83318,-6.54868 -19.03165,-10.93944 -30.35853,-11.40796 m -30.78402,12.80817 c 8.25612,-9.19164 19.84742,-13.11182 30.78402,-12.80817 M 79.837956,462.51904 c 55.533894,13.1764 98.786394,7.67569 132.319974,-1.16684 M 83.338486,336.26664 c -5.20392,40.57124 -9.16433,89.82015 -3.50053,126.2524 M 205.65965,335.33687 c 11.53004,71.92742 6.43817,126.74184 6.49828,126.01533 m -95.6811,-150.98947 56.50781,-0.93385 m 0,0 c 16.86216,-2.46687 26.84214,7.86454 32.67501,25.90799 m -89.18282,-24.97414 c -17.101274,-2.46648 -27.222754,7.86331 -33.138344,25.90391"
       sodipodi:nodetypes="ccccccccccccccccccccccccccccc" />
  </g>
</svg>
